<svg xmlns="http://www.w3.org/2000/svg" xmlns:xlink="http://www.w3.org/1999/xlink" width="93" height="93" viewBox="0 0 93 93"><defs><style>.a{stroke:#707070;}.b{opacity:0.196;clip-path:url(#a);}.c{opacity:0.2;}</style><clipPath id="a"><rect class="a" width="93" height="93" transform="translate(1049 133)"/></clipPath></defs><g class="b" transform="translate(-1049 -133)"><g transform="translate(1048.53 132.687)"><path d="M85.8,48.222C85.8,39.141,46.343.313,46.343.313s-38.2,40.081-38.2,47.6A23.453,23.453,0,0,0,31.626,71.394a23.132,23.132,0,0,0,12.212-3.444L29.121,93h36.01L50.1,68.263a23.132,23.132,0,0,0,12.212,3.444A23.453,23.453,0,0,0,85.8,48.222Z"/><path class="c" d="M85.8,48.222C85.8,39.141,46.343.313,46.343.313h0v93H64.818L50.1,68.263a23.132,23.132,0,0,0,12.212,3.444A23.453,23.453,0,0,0,85.8,48.222Z"/></g></g></svg>