<svg xmlns="http://www.w3.org/2000/svg" xmlns:xlink="http://www.w3.org/1999/xlink" width="93" height="93" viewBox="0 0 93 93"><defs><style>.a{stroke:#707070;}.b{opacity:0.196;clip-path:url(#a);}.c{opacity:0.2;}</style><clipPath id="a"><rect class="a" width="93" height="93" transform="translate(1269 133)"/></clipPath></defs><g class="b" transform="translate(-1269 -133)"><g transform="translate(1265.322 129.349)"><path d="M96.625,35.775C95.287,58.51,50.151,92.613,50.151,92.613S3.678,58.175,3.678,35.775A28.112,28.112,0,0,1,32.1,7.69c8.693,0,18.389,8.024,18.389,8.024s9.362-8.024,18.389-7.69C84.254,7.69,97.628,20.395,96.625,35.775Z"/><path class="c" d="M68.54,7.69c-9.027,0-18.389,7.69-18.389,7.69l-.334-.334V92.613h0S95.287,58.175,96.29,35.775C97.628,20.395,84.254,7.69,68.54,7.69Z"/></g></g></svg>