<svg xmlns="http://www.w3.org/2000/svg" xmlns:xlink="http://www.w3.org/1999/xlink" width="93" height="93" viewBox="0 0 93 93"><defs><style>.a{stroke:#707070;}.b{opacity:0.196;clip-path:url(#a);}.c{opacity:0.2;}</style><clipPath id="a"><rect class="a" width="93" height="93" transform="translate(1707 133)"/></clipPath></defs><g class="b" transform="translate(-1707 -133)"><g transform="translate(1706.845 132.69)"><path d="M66.96,27.9a27.133,27.133,0,0,0,.62-4.96,22.63,22.63,0,0,0-45.26,0,31.167,31.167,0,0,0,1.24,7.75,21.432,21.432,0,0,0,1.86,42.78c3.1,0,14.26-3.41,16.74-4.96L27.59,93.31H62.93L48.36,68.51c2.79,1.86,15.19,4.96,18.29,4.96A22.757,22.757,0,0,0,89.28,50.84C88.97,38.13,79.05,27.9,66.96,27.9Z"/><path class="c" d="M66.96,27.9a27.133,27.133,0,0,0,.62-4.96A22.757,22.757,0,0,0,44.95.31h0V93H62.93L48.36,68.2c2.79,1.86,15.19,4.96,18.29,4.96A22.757,22.757,0,0,0,89.28,50.53C88.97,38.13,79.05,27.9,66.96,27.9Z"/></g></g></svg>