<svg xmlns="http://www.w3.org/2000/svg" xmlns:xlink="http://www.w3.org/1999/xlink" width="189.902" height="257.863" viewBox="0 0 189.902 257.863"><defs><style>.a,.b{fill:#fff;}.a{stroke:#707070;}.b{stroke:#d1d1d1;stroke-width:0.5px;}.c{fill:#383838;font-size:20px;font-family:AlwynNew-Bold, Alwyn New;font-weight:700;}.d{clip-path:url(#c);}.e{fill:#333;}.f{fill:#616161;opacity:0.2;}.g{clip-path:url(#e);}.h{stroke:none;}.i{fill:none;}.j{filter:url(#a);}</style><filter id="a" x="0" y="0" width="189.902" height="257.863" filterUnits="userSpaceOnUse"><feOffset dy="3" input="SourceAlpha"/><feGaussianBlur stdDeviation="3" result="b"/><feFlood flood-opacity="0.161"/><feComposite operator="in" in2="b"/><feComposite in="SourceGraphic"/></filter><clipPath id="c"><rect class="a" width="18" height="18" transform="translate(89 447)"/></clipPath><clipPath id="e"><rect class="a" width="83" height="83" transform="translate(124 498)"/></clipPath></defs><g transform="translate(-228 -216)"><g class="j" transform="matrix(1, 0, 0, 1, 228, 216)"><g class="b" transform="translate(9 6)"><rect class="h" width="171.902" height="239.863" rx="10"/><rect class="i" x="0.25" y="0.25" width="171.402" height="239.363" rx="9.75"/></g></g><text class="c" transform="translate(256 245)"><tspan x="-6.67" y="0">A</tspan></text><text class="c" transform="translate(390 439) rotate(180)"><tspan x="-6.67" y="0">A</tspan></text><g class="d" transform="translate(158 -198)"><g transform="translate(88.909 446.939)"><path class="e" d="M16.606,9.333C16.606,7.576,8.97.061,8.97.061S1.576,7.818,1.576,9.273a4.539,4.539,0,0,0,4.545,4.545,4.477,4.477,0,0,0,2.364-.667L5.636,18h6.97L9.7,13.212a4.477,4.477,0,0,0,2.364.667A4.539,4.539,0,0,0,16.606,9.333Z"/><path class="f" d="M16.606,9.333C16.606,7.576,8.97.061,8.97.061h0v18h3.576L9.7,13.212a4.477,4.477,0,0,0,2.364.667A4.539,4.539,0,0,0,16.606,9.333Z"/></g></g><g class="d" transform="translate(488 882) rotate(180)"><g transform="translate(88.909 446.939)"><path class="e" d="M16.606,9.333C16.606,7.576,8.97.061,8.97.061S1.576,7.818,1.576,9.273a4.539,4.539,0,0,0,4.545,4.545,4.477,4.477,0,0,0,2.364-.667L5.636,18h6.97L9.7,13.212a4.477,4.477,0,0,0,2.364.667A4.539,4.539,0,0,0,16.606,9.333Z"/><path class="f" d="M16.606,9.333C16.606,7.576,8.97.061,8.97.061h0v18h3.576L9.7,13.212a4.477,4.477,0,0,0,2.364.667A4.539,4.539,0,0,0,16.606,9.333Z"/></g></g><g class="g" transform="translate(157 -198)"><g transform="translate(123.581 497.721)"><path class="e" d="M76.572,43.037C76.572,34.933,41.36.279,41.36.279S7.266,36.05,7.266,42.758a20.931,20.931,0,0,0,20.96,20.96,20.644,20.644,0,0,0,10.9-3.074L25.99,83H58.128L44.714,60.923A20.644,20.644,0,0,0,55.613,64,20.931,20.931,0,0,0,76.572,43.037Z"/><path class="f" d="M76.572,43.037C76.572,34.933,41.36.279,41.36.279h0v83H57.848L44.714,60.923A20.644,20.644,0,0,0,55.613,64,20.931,20.931,0,0,0,76.572,43.037Z"/></g></g></g></svg>