<svg xmlns="http://www.w3.org/2000/svg" xmlns:xlink="http://www.w3.org/1999/xlink" width="189.902" height="257.863" viewBox="0 0 189.902 257.863"><defs><style>.a,.b,.c,.d,.n{fill:#fff;}.a{stroke:#333;stroke-width:2px;}.b{stroke:#707070;}.c{stroke:#d1d1d1;stroke-width:0.5px;}.e{clip-path:url(#c);}.f{fill:#757575;}.g{fill:#ebb07a;}.h,.k{fill:#616161;}.h,.j,.n{opacity:0.2;}.i{fill:#333;}.l{fill:#1c1c1c;}.m{fill:#ababab;}.o{fill:#ebebeb;}.p{fill:#ffd675;}.q{fill:#383838;font-size:20px;font-family:AlwynNew-Bold, Alwyn New;font-weight:700;}.r{clip-path:url(#d);}.s{stroke:none;}.t{fill:none;}.u{filter:url(#a);}</style><filter id="a" x="0" y="0" width="189.902" height="257.863" filterUnits="userSpaceOnUse"><feOffset dy="3" input="SourceAlpha"/><feGaussianBlur stdDeviation="3" result="b"/><feFlood flood-opacity="0.161"/><feComposite operator="in" in2="b"/><feComposite in="SourceGraphic"/></filter><clipPath id="c"><rect class="a" width="115.902" height="177.863" transform="translate(738 729)"/></clipPath><clipPath id="d"><rect class="b" width="18" height="18" transform="translate(89 447)"/></clipPath></defs><g transform="translate(-858 -494)"><g class="u" transform="matrix(1, 0, 0, 1, 858, 494)"><g class="c" transform="translate(9 6)"><rect class="s" width="171.902" height="239.863" rx="10"/><rect class="t" x="0.25" y="0.25" width="171.402" height="239.363" rx="9.75"/></g></g><g class="a" transform="translate(882 521)"><rect class="s" width="141.902" height="197.863" rx="10"/><rect class="t" x="1" y="1" width="139.902" height="195.863" rx="9"/></g><rect class="d" width="30" height="50" transform="translate(873 506)"/><rect class="d" width="30" height="50" transform="translate(1003 685)"/><g class="e" transform="translate(157 -198)"><g transform="translate(729.932 719.11)"><path class="f" d="M59.672,58.189,54.4,60.332l1.154,2.143,21.1-.165,1.484-1.978-4.78-2.143Z"/><rect class="g" width="13.682" height="14.341" transform="translate(59.672 51.595)"/><path class="h" d="M73.354,54.4v3.462a8.126,8.126,0,0,1-5.6,2.637H65.112a9.027,9.027,0,0,1-5.6-2.473V54.562l1.154,1.813.33-4.78H71.706l.33,4.78Z"/><path class="g" d="M67.75,18.957H65.112c-6.758,0-12.2,4.616-12.2,10.385,0,0,0,14.011.165,14.671.989,6.1,5.934,15.33,12.2,15.33h2.637c6.1,0,11.209-9.4,12.2-15.33.165-.659.165-14.671.165-14.671C80.113,23.572,74.508,18.957,67.75,18.957Z"/><path class="i" d="M69.728,60.332a4.959,4.959,0,0,0,4.945-4.945c0-1.978-7.088-10.22-8.407-10.22s-8.242,8.407-8.242,10.055a4.959,4.959,0,0,0,4.945,4.945h0a6.911,6.911,0,0,0,2.637-.659h1.319a6.689,6.689,0,0,0,2.8.824Z"/><path class="g" d="M69.728,54.068A7.139,7.139,0,0,1,68.9,53.9l-.824-.495H64.947l-.824.495a1.77,1.77,0,0,1-1.978-.33c-.165-.165-.33-.495-.495-.659.659-1.154,3.791-5.769,4.945-5.769.989,0,4.286,4.616,4.945,5.769a3.6,3.6,0,0,1-.495.824,3.105,3.105,0,0,1-1.319.33Z"/><path class="i" d="M58.683,35.606a1.391,1.391,0,0,0-.33,1.154,2.2,2.2,0,0,0,2.308,1.978,2.1,2.1,0,0,0,2.308-1.978,3.056,3.056,0,0,0-.33-1.154Z"/><path class="h" d="M67.42,33.628H65.607l-1.154,9.066,1.978,2.473,2.143-2.473Z"/><path class="i" d="M74.343,35.606a1.391,1.391,0,0,1,.33,1.154,2.2,2.2,0,0,1-2.308,1.978,2.1,2.1,0,0,1-2.308-1.978,3.056,3.056,0,0,1,.33-1.154Z"/><g class="j"><rect class="k" width="4.945" height="1.319" transform="translate(63.958 49.617)"/></g><path class="i" d="M70.057,30.66l6.758.824-6.758.824Z"/><path class="i" d="M62.969,32.309l-6.594-.824,6.594-.824Z"/><path class="f" d="M100.718,62.145,95.443,67.09l-2.308,6.923s7.748-1.484,7.748-1.319Z"/><path class="f" d="M32.8,62.145l5.275,4.945,2.308,6.923s-7.748-1.484-7.748-1.319Z"/><path class="l" d="M35.935,65.936l-.659,1.484-1.648,5.6s9.561-2.637,9.231-2.473Z"/><path class="m" d="M106.982,81.1l-5.11,1.484-9.4,2.8-.659.33L79.783,89.344l-.33.165-.659.165-3.627.989-1.484.495-4.451,1.319-2.308.659-8.9,2.637-1.813.495-.495.165-2.308.659-1.484.495L47.8,98.74l-6.264,1.813V93.465l-4.121,7.088v1.154l-4.451,1.484-10.55,3.132V90.662h0l.165-2.143.33-.824,2.143-4.945L27.2,77.8l2.143-5.275.824-1.978.989-2.143,1.484-.33,2.637-.659h.33l.33-.165H36.1l.495-.165.824-.165h0l.33-.165,7.088-1.648.824-.165h.33l.824-.165,5.6-1.319h.165l.659-.165,2.143-.495.495-.165L60,61.651H73.684l3.3.824.824.165.495.165,4.945,1.154L87.7,65.112,96.1,67.09l.495.165,1.978.495,2.637.659h.165l.989.33,2.143,5.275,2.143,5.275.659,1.484Z"/><path class="n" d="M82.915,63.793,68.409,78.135l-.659.659-2.473,2.473h0l-3.956,3.956-.165.33-6.923,6.923L52.09,94.619l-.989.989-.989.989L47.8,98.74l-6.264,1.978V98.9l6.429-6.429,1.154-1.154.659-.659,2.308-2.308.659-.659.659-.659.33-.33,8.077-8.077.165-.165.33-.33h0l2.308-2.308.659-.659L77.97,62.475Z"/><path class="n" d="M100.718,68.079l-8.572,8.737L79.783,89.179l-.165.165-.824.165-3.627,1.154-1.484.33-4.451,1.484-2.308.659-8.9,2.637-1.813.495-.33.165.33-.33,1.319-1.319,6.1-6.264.659-.495,3.3-3.462.495-.33,3.132-3.3L87.366,64.782l8.407,2.143h.495l1.813.495Z"/><path class="h" d="M79.948,89.179l-.33.165-.659.165-3.791,1.154-1.484.495-4.451,1.319-2.308.659-8.9,2.637-1.813.495-.495.165-2.308.659-1.484.495L51.1,95.608l-1.978-4.121L42.694,77.97l-3.132-6.594-.33-.659h0L37.419,67.09h0v-.165l.33-.165,7.088-1.648.824-.165h.33l.824-.165,5.6-1.319h.165l.659-.165C55.222,65.277,60,69.893,65.607,75.332c.989.989,2.143,1.978,3.132,2.967.989.824,1.813,1.813,2.8,2.8,2.473,2.473,5.44,5.275,8.407,8.077Z"/><path class="i" d="M66.925,93.135l-8.9,2.637-1.813.495-.495.165-2.308.659-1.484-2.473-2.143-3.956L42.529,77.97l-2.637-4.616L38.9,71.376,36.43,67.09l-.495-1.154.824-.165,14.506-3.627c.165.165.495.659.989,1.154,1.978,2.143,6.758,6.923,12.528,12.528.989.989,2.143,1.978,3.132,3.132l2.8,2.8c2.637,2.637,5.44,5.275,8.242,7.912l-3.791.989-1.484.495-4.451,1.319Z"/><path class="o" d="M54.4,60.332l.659,2.308L65.936,68.9l-.33-7.418Z"/><path class="o" d="M78.135,60.332l-.659,2.308L66.6,68.9l.33-7.418Z"/><path class="h" d="M65.277,81.267l1.978,2.143c-.659-.659-1.319-1.484-1.978-2.143-1.154-1.154-2.308-2.308-2.967-3.132l-1.648-1.648,1.648,1.648Z"/><path class="h" d="M68.079,84.234c2.473,2.308,4.78,4.451,7.088,6.429l-1.484.495-6.1-6.594-2.637-2.8-.33-.33-2.637-2.8-5.44-5.6-.165-.165.165.165c1.648,1.648,3.462,3.627,5.44,5.6l2.8,2.8.33.33A19.649,19.649,0,0,1,68.079,84.234Z"/><path class="h" d="M58.024,95.773l-1.813.495V96.1l-1.978-3.626L52.09,88.355,49.617,83.9l-2.8-5.11,5.934,8.9,2.473,3.791,2.308,3.3Z"/><path class="h" d="M69.233,92.476l-2.308.659L65.277,90.5,63.629,88.52l-2.473-2.967L60,84.069l1.319,1.154,2.967,2.8Z"/><path class="h" d="M41.54,93.63l-4.121,7.088v1.154l-4.451,1.319-3.132-.659,4.286-1.978Z"/><path class="h" d="M106.982,81.1l-5.11,1.648-9.4,2.637-.659.33-.495-7.088.824-1.813L93.3,73.849l2.967-6.923,1.813.495,2.637.659h.165l.989.33,2.143,5.11,2.143,5.275.495,1.484Z"/><path class="m" d="M101.872,82.75l-9.4,2.8V78.959l2.308-4.78.33-.495,2.967-6.1,2.637-5.275s6.758,8.572,6.923,8.407c0,0,.165.989.495,2.473.33,1.813.824,4.616,1.154,7.418l-2.143.659h-.165Z"/><path class="h" d="M41.7,79.288,41.54,91.157l-16.154-2.8V87.036L30,70.552l.989-2.143,4.286-.989h.165l.33-.165h.165Z"/><path class="m" d="M41.54,92.476,26.375,91.157l-3.956-.33h0a20.323,20.323,0,0,1,.495-2.967c.824-5.769,2.637-17.143,2.8-17.143.165.165,6.923-8.407,6.923-8.407v.165l2.637,5.11,5.769,11.539Z"/><path class="n" d="M109.454,80.442h0l-2.143.659-.165.165-1.154.33-4.121,1.154,2.143-9.066.495-2.143-3.791-9.231c.33.495,6.594,8.407,6.923,8.407,0,0,.165.989.495,2.473v.33c.165.659.165,1.319.33,1.978a2.091,2.091,0,0,0,.165.989v.33c.165.495.165.989.33,1.648v.33C109.29,79.124,109.29,79.783,109.454,80.442Z"/><path class="n" d="M32.638,62.31l-3.627,9.066.33,1.154,3.132,13.352-6.1,5.275-1.319,1.154s-1.978,8.077-2.308,8.407h-.33v-9.89h0l.165-2.308.33-.824h0C23.572,83.9,24.4,77.31,25.056,73.519c.33-1.813.495-2.967.659-2.967.33,0,6.923-8.407,6.923-8.242Z"/><path class="i" d="M78.794,18.957l-5.11-3.3a52.9,52.9,0,0,0-7.088-5.6s-5.6,3.627-7.748,5.934l-4.616,2.967L51.1,24.4l1.319,13.022,1.648.989.33-11.869s.33-4.121,3.791-4.121c3.626,0,8.407,2.473,8.407,2.473S71.541,22.418,75,22.418s3.791,4.121,3.791,4.121l.33,11.869,1.648-.989L82.091,24.4Z"/><path class="i" d="M27.528,81.267c-.33,1.978-1.484,3.462-2.8,3.3a1.355,1.355,0,0,1-.989-.659l.659,4.121-1.648-.33c.659-3.791,1.484-10.385,2.143-14.176l.165-.165S27.858,79.948,27.528,81.267Z"/><path class="i" d="M109.454,80.442l-2.143.659-.165.165-1.154.33v-.165c-.165-1.319,2.308-7.912,2.308-7.912l.165.165c.165.659.165,1.319.33,1.978a2.091,2.091,0,0,0,.165.989v.33c.165.495.165.989.33,1.648v.33A6.378,6.378,0,0,0,109.454,80.442Z"/><path class="h" d="M55.551,68.9C54.727,67.42,45.5,63.958,45.5,63.958S41.7,73.189,42.364,74.673a4.527,4.527,0,0,0,6.264,2.308,3.573,3.573,0,0,0,1.813-1.648l-1.319,5.6L55.716,78.3,51.43,74.838a3.625,3.625,0,0,0,2.308-.33A4.093,4.093,0,0,0,55.551,68.9Z"/><path class="p" d="M55.222,69.068c-.659-1.319-9.561-4.286-9.561-4.286s-2.8,8.9-2.308,10.055a3.9,3.9,0,0,0,5.275,1.813,4.675,4.675,0,0,0,1.648-1.484l-.33,4.945,5.44-2.637-4.121-2.8a4.869,4.869,0,0,0,2.143-.33A3.9,3.9,0,0,0,55.222,69.068Z"/><path class="h" d="M51.43,76.156l1.648,1.154-1.813.824Zm-4.451-.33a2.537,2.537,0,0,1-2.473-1.648c-.165-.659.989-4.616,1.978-8.077,3.462,1.319,7.253,2.8,7.748,3.462a3.134,3.134,0,0,1,.165,2.143,2.9,2.9,0,0,1-1.484,1.648,3.056,3.056,0,0,1-1.154.33h-.33l-1.978.989a2.216,2.216,0,0,1-1.154.989A3.629,3.629,0,0,1,46.98,75.827Z"/><path class="h" d="M109.454,80.442a7.139,7.139,0,0,0-.165-.824c-.165-.495-.165-.989-.33-1.648,0-.33-.165-.824-.165-1.154v-.33c0-.33-.165-.659-.165-.989-.165-.824-.165-1.484-.33-1.978v-.33c0-.33-.165-.659-.165-.989a7.14,7.14,0,0,0-.165-.824,2.6,2.6,0,0,1-.165-.659c-.33,0-6.594-7.912-6.923-8.407h0l-5.11,4.78-8.407-2.308-4.451-1.154L77.97,62.475h-.495l.659-2.143-4.451-1.978a5.2,5.2,0,0,0,1.154-3.132h0a25.394,25.394,0,0,0,5.11-11.209c0-.33,0-3.132.165-6.264l.659-.495,1.319-13.022-3.132-5.44-5.11-3.3a52.9,52.9,0,0,0-7.088-5.6.511.511,0,0,0-.33.165v83.08l.659-.165,2.308-.659,4.616-1.319L75.5,90.5l3.627-1.154.659-.165.33-.165,12.033-3.626.659-.165,9.4-2.8h0l4.121-1.154,1.154-.33h.33l1.648-.495Z"/><path class="f" d="M72.2,139.62l5.275-2.143-1.154-2.143-21.1.165-1.484,1.978,4.78,2.143Z"/><rect class="g" width="13.682" height="14.341" transform="translate(58.519 131.873)"/><path class="h" d="M58.519,143.412V139.95a8.126,8.126,0,0,1,5.6-2.637h2.637a9.027,9.027,0,0,1,5.6,2.473v3.462l-1.154-1.813-.33,4.78H60.167l-.33-4.78Z"/><path class="g" d="M64.123,178.852h2.637c6.758,0,12.2-4.616,12.2-10.385,0,0,0-14.011-.165-14.671-.989-6.1-5.934-15.33-12.2-15.33H63.958c-6.1,0-11.209,9.4-12.2,15.33-.165.659-.165,14.671-.165,14.671C51.76,174.237,57.365,178.852,64.123,178.852Z"/><path class="i" d="M62.145,137.477a4.959,4.959,0,0,0-4.945,4.945c0,1.978,7.088,10.22,8.407,10.22s8.242-8.407,8.242-10.055a4.959,4.959,0,0,0-4.945-4.945h0a6.911,6.911,0,0,0-2.637.659H64.947a6.689,6.689,0,0,0-2.8-.824Z"/><path class="g" d="M62.145,143.741a7.139,7.139,0,0,1,.824.165l.824.495h3.132l.824-.495a1.77,1.77,0,0,1,1.978.33c.165.165.33.495.495.659-.659,1.154-3.791,5.769-4.945,5.769-.989,0-4.286-4.616-4.945-5.769a3.6,3.6,0,0,1,.495-.824,3.106,3.106,0,0,1,1.319-.33Z"/><path class="i" d="M73.189,162.2a1.391,1.391,0,0,0,.33-1.154,2.2,2.2,0,0,0-2.308-1.978A2.1,2.1,0,0,0,68.9,161.05a3.056,3.056,0,0,0,.33,1.154Z"/><path class="h" d="M64.453,164.182h1.813l1.154-9.066-1.978-2.473L63.3,155.115Z"/><path class="i" d="M57.529,162.2a1.391,1.391,0,0,1-.33-1.154,2.2,2.2,0,0,1,2.308-1.978,2.1,2.1,0,0,1,2.308,1.978,3.056,3.056,0,0,1-.33,1.154Z"/><g class="j"><rect class="k" width="4.945" height="1.319" transform="translate(62.804 146.873)"/></g><path class="i" d="M61.815,167.149l-6.758-.824,6.758-.824Z"/><path class="i" d="M68.9,165.5l6.594.824-6.594.824Z"/><path class="f" d="M31.155,135.664l5.275-4.945,2.308-6.923s-7.748,1.484-7.748,1.319Z"/><path class="f" d="M99.069,135.664l-5.275-4.945L91.487,123.8s7.748,1.484,7.748,1.319Z"/><path class="l" d="M95.937,131.873l.659-1.484,1.648-5.6s-9.561,2.637-9.231,2.473Z"/><path class="m" d="M24.891,116.707,30,115.224l9.4-2.8.659-.165L52.09,108.63l.33-.165.659-.165,3.626-1.154,1.484-.495,4.616-1.319,2.308-.659,8.9-2.637,1.813-.495.495-.165,2.308-.659,1.484-.495L84.234,98.9,90.5,97.091v7.088l4.121-7.088V95.937l4.451-1.319,10.55-3.132v15.66h0l-.165,2.143-.33.824-2.143,4.945L104.839,120l-2.308,5.275-.824,1.978-.989,2.143-1.484.33-2.637.659h-.33l-.33.165h-.165l-.495.165-.824.165h0l-.33.165L87.036,132.7l-.824.165h-.33l-.824.165-5.6,1.319h-.165l-.659.165-1.813.659-.495.165-4.121.989H58.519l-3.3-.824-.824-.165-.495-.165-4.945-1.154-4.451-.989L36.1,131.048l-.495-.165-1.978-.495-2.637-.659h-.165l-.989-.33-2.143-5.275L25.55,118.85l-.659-1.484Z"/><path class="n" d="M48.958,134.016l14.506-14.341.659-.659,2.473-2.473h0l3.956-3.956.165-.33,6.923-6.923,2.143-2.143.989-.989.989-.989,2.308-2.143,6.264-1.978V98.9L83.9,105.333l-1.154,1.154-.659.659-2.308,2.308-.659.659-.659.659-.33.33-8.077,8.077-.165.165-.33.33h0l-2.308,2.308-.659.659L53.9,135.334Z"/><path class="n" d="M31.155,129.73l8.572-8.737L52.09,108.63l.165-.165.824-.165,3.627-1.154,1.484-.33,4.451-1.484,2.308-.659,8.9-2.637,1.813-.495.33-.165-.33.33-1.319,1.319-6.1,6.264-.659.495-3.3,3.462-.495.33-3.132,3.3L44.507,133.027,36.1,130.884h-.495l-1.813-.495Z"/><path class="h" d="M51.925,108.63l.33-.165.659-.165,3.626-1.154,1.484-.495,4.616-1.319,2.308-.659,8.9-2.637,1.813-.495.495-.165,2.308-.659,1.484-.495.824,1.978,1.978,4.121,6.429,13.517,3.132,6.594.33.659h0l1.813,3.626h0v.165l-.33.165L87.036,132.7l-.824.165h-.33l-.824.165-5.6,1.319h-.165l-.659.165c-1.978-1.978-6.758-6.594-12.363-12.033-.989-.989-2.143-1.978-3.132-2.967-.989-.824-1.813-1.813-2.8-2.8-2.473-2.473-5.44-5.275-8.407-8.077Z"/><path class="i" d="M64.947,104.674l8.9-2.637,1.813-.495.495-.165,2.308-.659,1.484,2.473,2.308,3.956,7.253,12.693,2.637,4.616.989,1.978,2.473,4.286.659,1.154-.824.165-14.671,3.627c-.165-.165-.495-.659-.989-1.154-1.978-2.143-6.758-6.923-12.528-12.528-.989-.989-2.143-1.978-3.132-3.132l-2.8-2.8c-2.637-2.637-5.44-5.275-8.242-7.912l3.627-1.154,1.484-.495,4.616-1.319Z"/><path class="o" d="M77.475,137.477l-.659-2.308-10.88-6.264.33,7.418Z"/><path class="o" d="M53.738,137.477l.659-2.308,10.879-6.264-.33,7.418Z"/><path class="h" d="M66.6,116.542,64.618,114.4c.659.659,1.319,1.484,1.978,2.143,1.154,1.154,2.308,2.308,2.967,3.132l1.648,1.648-1.648-1.648Z"/><path class="h" d="M63.793,113.575c-2.473-2.308-4.78-4.451-7.088-6.429l1.484-.495,6.1,6.429,2.637,2.8.33.33,2.637,2.8,5.44,5.6.165.165-.165-.165c-1.648-1.648-3.462-3.626-5.44-5.6l-2.8-2.8-.33-.33A12.1,12.1,0,0,1,63.793,113.575Z"/><path class="h" d="M73.849,102.037l1.813-.495v.165l1.978,3.626,2.143,4.121,2.473,4.451,2.8,5.11-5.934-8.9-2.473-3.791-2.308-3.3Z"/><path class="h" d="M62.64,105.333l2.308-.659,1.648,2.637,1.648,1.978,2.473,2.967,1.154,1.484-1.319-1.154-2.967-2.8Z"/><path class="h" d="M90.333,104.179l4.121-7.088V95.937L98.9,94.619l3.132.659-4.286,1.978Z"/><path class="h" d="M24.891,116.707,30,115.059l9.4-2.637.659-.33.495,7.088-.824,1.813-1.154,2.967-2.967,6.923-1.813-.495-2.637-.659H30.99L30,129.4l-2.143-5.11-2.143-5.275-.495-1.484Z"/><path class="m" d="M30,115.059l9.4-2.8v6.594l-2.308,4.78-.33.495-2.967,6.1L31.155,135.5s-6.758-8.572-6.923-8.407c0,0-.165-.989-.495-2.473-.33-1.813-.824-4.616-1.154-7.418l2.143-.659h.165Z"/><path class="h" d="M90.168,118.521l.165-11.869,16.154,2.8v1.319l-4.616,16.484-.989,2.143-4.286.989h-.165l-.33.165h-.165Z"/><path class="m" d="M90.333,105.333l15.165,1.319,3.956.33h0a20.322,20.322,0,0,1-.495,2.967c-.824,5.769-2.637,17.143-2.8,17.143-.165-.165-6.923,8.407-6.923,8.407v-.165l-2.637-5.11-5.769-11.539Z"/><path class="n" d="M22.418,117.367h0l2.143-.659.165-.165,1.154-.33L30,115.059l-2.143,9.066-.495,2.143,3.791,9.231c-.33-.495-6.594-8.407-6.923-8.407,0,0-.165-.989-.495-2.473v-.33c-.165-.659-.165-1.319-.33-1.978a2.091,2.091,0,0,0-.165-.989v-.33c-.165-.495-.165-.989-.33-1.648v-.33C22.583,118.685,22.583,118.026,22.418,117.367Z"/><path class="n" d="M99.234,135.5l3.627-9.066-.33-1.154L99.4,111.927l6.1-5.275,1.319-1.154s1.978-8.077,2.308-8.407h.33v9.89h0l-.165,2.308-.33.824h0c-.659,3.791-1.484,10.385-2.143,14.176-.33,1.813-.495,2.967-.659,2.967-.33,0-6.923,8.407-6.923,8.242Z"/><path class="i" d="M53.079,178.852l5.11,3.3a52.9,52.9,0,0,0,7.088,5.6s5.6-3.626,7.748-5.934l4.616-2.967,3.132-5.44L79.453,160.39,77.8,159.4l-.33,11.869s-.33,4.121-3.791,4.121c-3.627,0-8.407-2.473-8.407-2.473s-4.945,2.473-8.407,2.473-3.791-4.121-3.791-4.121l-.33-11.869-1.648.989-1.319,13.022Z"/><path class="i" d="M104.344,116.542c.33-1.978,1.484-3.462,2.8-3.3a1.355,1.355,0,0,1,.989.659l-.659-4.121,1.648.33c-.659,3.791-1.484,10.385-2.143,14.176l-.165.165S104.015,117.861,104.344,116.542Z"/><path class="i" d="M22.418,117.367l2.143-.659.165-.165,1.154-.33v.165c.165,1.319-2.308,7.912-2.308,7.912l-.165-.165c-.165-.659-.165-1.319-.33-1.978a2.091,2.091,0,0,0-.165-.989v-.33c-.165-.495-.165-.989-.33-1.648v-.33A6.378,6.378,0,0,0,22.418,117.367Z"/><path class="h" d="M76.321,128.906c.824,1.484,10.055,4.945,10.055,4.945s3.791-9.231,3.132-10.715a4.527,4.527,0,0,0-6.264-2.308,3.573,3.573,0,0,0-1.813,1.648l1.319-5.6-6.594,2.637,4.286,3.462a3.625,3.625,0,0,0-2.308.33A4.093,4.093,0,0,0,76.321,128.906Z"/><path class="p" d="M76.651,128.741c.659,1.319,9.561,4.286,9.561,4.286s2.8-8.9,2.308-10.055a3.9,3.9,0,0,0-5.275-1.813,4.675,4.675,0,0,0-1.648,1.484l.33-4.945-5.44,2.637,4.121,2.8a4.869,4.869,0,0,0-2.143.33A3.9,3.9,0,0,0,76.651,128.741Z"/><path class="h" d="M80.442,121.653,78.794,120.5l1.813-.824Zm4.451.33a2.537,2.537,0,0,1,2.473,1.648c.165.659-.989,4.616-1.978,8.077-3.462-1.319-7.253-2.8-7.748-3.462a3.134,3.134,0,0,1-.165-2.143,2.9,2.9,0,0,1,1.484-1.648,3.056,3.056,0,0,1,1.154-.33h.33l1.978-.989a2.216,2.216,0,0,1,1.154-.989A3.629,3.629,0,0,1,84.893,121.982Z"/><path class="h" d="M22.418,117.367a7.14,7.14,0,0,0,.165.824c.165.495.165.989.33,1.648,0,.33.165.824.165,1.154v.33c0,.33.165.659.165.989.165.824.165,1.484.33,1.978v.33c0,.33.165.659.165.989a7.14,7.14,0,0,0,.165.824,2.6,2.6,0,0,1,.165.659c.33,0,6.594,7.912,6.923,8.407h0l5.11-4.78,8.407,1.978,4.451,1.154L53.9,135l.495.165h0l-.659,2.143,4.451,1.978a5.2,5.2,0,0,0-1.154,3.132h0a25.394,25.394,0,0,0-5.11,11.209c0,.33,0,3.132-.165,6.264l-.659.495-1.319,13.022,3.132,5.44,5.11,3.3a52.9,52.9,0,0,0,7.088,5.6.511.511,0,0,0,.33-.165v-83.08l-.659.165-2.143.659-4.616,1.319-1.319.495L53.079,108.3l-.659.165-.33.165-12.033,3.462-.659.165-9.4,2.8h0l-4.121,1.154-1.154.33H24.4l-1.978.824Z"/></g></g><text class="q" transform="translate(886 523)"><tspan x="-4.87" y="0">J</tspan></text><text class="q" transform="translate(1020 717) rotate(180)"><tspan x="-4.87" y="0">J</tspan></text><g class="r" transform="translate(788 80)"><g transform="translate(88.909 446.939)"><path class="i" d="M16.606,9.333C16.606,7.576,8.97.061,8.97.061S1.576,7.818,1.576,9.273a4.539,4.539,0,0,0,4.545,4.545,4.477,4.477,0,0,0,2.364-.667L5.636,18h6.97L9.7,13.212a4.477,4.477,0,0,0,2.364.667A4.539,4.539,0,0,0,16.606,9.333Z"/><path class="h" d="M16.606,9.333C16.606,7.576,8.97.061,8.97.061h0v18h3.576L9.7,13.212a4.477,4.477,0,0,0,2.364.667A4.539,4.539,0,0,0,16.606,9.333Z"/></g></g><g class="r" transform="translate(1118 1160) rotate(180)"><g transform="translate(88.909 446.939)"><path class="i" d="M16.606,9.333C16.606,7.576,8.97.061,8.97.061S1.576,7.818,1.576,9.273a4.539,4.539,0,0,0,4.545,4.545,4.477,4.477,0,0,0,2.364-.667L5.636,18h6.97L9.7,13.212a4.477,4.477,0,0,0,2.364.667A4.539,4.539,0,0,0,16.606,9.333Z"/><path class="h" d="M16.606,9.333C16.606,7.576,8.97.061,8.97.061h0v18h3.576L9.7,13.212a4.477,4.477,0,0,0,2.364.667A4.539,4.539,0,0,0,16.606,9.333Z"/></g></g></g></svg>