<svg xmlns="http://www.w3.org/2000/svg" xmlns:xlink="http://www.w3.org/1999/xlink" width="189.902" height="257.863" viewBox="0 0 189.902 257.863"><defs><style>.a,.b,.c,.d{fill:#fff;}.a{stroke:#333;stroke-width:2px;}.b{stroke:#707070;}.c{stroke:#d1d1d1;stroke-width:0.5px;}.e{clip-path:url(#c);}.f{fill:#c9c9c9;}.g{fill:#616161;opacity:0.2;}.h{fill:#fdd8ab;}.i{fill:#ebebeb;}.j{fill:#333;}.k{fill:#454545;}.l{fill:#ffd675;}.m{fill:#383838;font-size:20px;font-family:AlwynNew-Bold, Alwyn New;font-weight:700;}.n{clip-path:url(#d);}.o{stroke:none;}.p{fill:none;}.q{filter:url(#a);}</style><filter id="a" x="0" y="0" width="189.902" height="257.863" filterUnits="userSpaceOnUse"><feOffset dy="3" input="SourceAlpha"/><feGaussianBlur stdDeviation="3" result="b"/><feFlood flood-opacity="0.161"/><feComposite operator="in" in2="b"/><feComposite in="SourceGraphic"/></filter><clipPath id="c"><rect class="a" width="115.902" height="177.863" transform="translate(738 729)"/></clipPath><clipPath id="d"><rect class="b" width="18" height="18" transform="translate(89 447)"/></clipPath></defs><g transform="translate(-1068 -494)"><g class="q" transform="matrix(1, 0, 0, 1, 1068, 494)"><g class="c" transform="translate(9 6)"><rect class="o" width="171.902" height="239.863" rx="10"/><rect class="p" x="0.25" y="0.25" width="171.402" height="239.363" rx="9.75"/></g></g><g class="a" transform="translate(1092 521)"><rect class="o" width="141.902" height="197.863" rx="10"/><rect class="p" x="1" y="1" width="139.902" height="195.863" rx="9"/></g><rect class="d" width="30" height="50" transform="translate(1084 506)"/><rect class="d" width="30" height="50" transform="translate(1213 685)"/><g class="e" transform="translate(367 -198)"><g transform="translate(732.315 722.477)"><path class="f" d="M89.886,49.477l-.318,3.182-.159,1.75-.477,8.114-.159,1.909-.159,2.7h0L88.3,69.523H83.841l-1.114.159H76.841L65.386,70h-.159l-11.455-.318H47.886l-1.114-.159H42.318l-.159-2.386h0l-.318-2.7V62.523L41.2,54.409l-.159-1.75-.159-3.182Z"/><path class="g" d="M87.5,49.477c-3.659,5.091-8.75,10.5-14.477,10.5h0a11.027,11.027,0,0,1-4.3,3.5,7.123,7.123,0,0,1-3.182.636h-.159V49.636H87.5Z"/><path class="h" d="M97.682,81.454l-9.227,2.7-.955.318h-.318c-.8-1.273-1.273-2.068-1.591-2.545l-.159-.159h0A9.677,9.677,0,0,0,84,85.432l-2.545.8L65.386,91,55.364,94.023l-3.341.955a10.962,10.962,0,0,1-.477-1.273c-5.727-2.545-3.182-6.523-6.045-11.455-.159-.159-.159-.318-.318-.477-.318.477-6.841,10.5-7.955,17.659l-.8.159L29.909,101.5H29.75c-.159-14.318,4.3-23.864,8.273-29.591.318-.318.477-.8.8-1.114s.477-.636.8-.955h0c.159-.159.318-.477.636-.636a1.242,1.242,0,0,1,.636-.636l1.432-1.432h0l.318-.318.318-.318c.159,0,.159-.159.318-.318l.477-.477a9.74,9.74,0,0,0,.955-.8l1.591.318h.318l.636.159h.159l2.068-.159,3.182-.159,3.5-.159,9.545-.318h0l9.7.318,3.341.159,3.182.159L84,65.386h.159l.636-.159h.318l1.432-.318a6.3,6.3,0,0,0,1.114.8l.477.477c0,.159.159.159.318.318.159,0,.159.159.318.318l.318.318h0c.159,0,.159.159.318.318l.318.318c.159.318.477.477.636.8l.477.477V69.2c.159.159.318.477.636.636h0c.318.318.477.636.8.955s.477.8.8,1.114A67.312,67.312,0,0,1,97.682,81.454Z"/><path class="g" d="M65.386,75.409h2.068L66.5,83.045H65.386Z"/><path class="g" d="M65.386,49.477H43.114c3.659,5.091,8.75,10.5,14.477,10.5h0c2.068,2.545,4.614,4.136,7.477,4.136h.159V49.477Z"/><path class="g" d="M65.386,75.409H63.318l.955,7.636h1.114Z"/><path class="g" d="M57.591,81.773c-10.818-2.386-16.545-6.045-19.727-9.7a28.7,28.7,0,0,1,5.568-6.2Z"/><path class="h" d="M65.386,60.932h-.159A6.456,6.456,0,0,1,62.2,60.3c0,.318-.159.477-.159.8v1.432a7.123,7.123,0,0,0,3.182.636h.159Z"/><path class="h" d="M65.386,57.75h0A3.435,3.435,0,0,0,62.045,60.3a6.894,6.894,0,0,0,3.023.636h.159V57.75Z"/><path class="h" d="M84.159,64.591H78.432l-9.864-.159V62.364A7.123,7.123,0,0,1,65.386,63h-.318a7.123,7.123,0,0,1-3.182-.636v2.068l-9.864.159H46.3c-.955,1.75-.636,1.909-.636,3.977,0,4.932,3.5,9.386,8.75,12.091h0c.955.477,1.909.8,3.023,1.273A29.6,29.6,0,0,0,63.954,83.2h2.227A20.665,20.665,0,0,0,72.7,81.932a17.241,17.241,0,0,0,3.023-1.273h0c5.25-2.545,8.75-7,8.75-12.091C84.8,66.5,85.273,66.341,84.159,64.591Z"/><path class="g" d="M57.591,81.773A17.241,17.241,0,0,1,54.568,80.5h0c-5.25-2.545-8.75-7-8.75-12.091,0-2.068-.477-2.227.636-3.977h5.727Z"/><path class="g" d="M73.023,81.773A17.241,17.241,0,0,0,76.045,80.5h0c5.25-2.545,8.75-7,8.75-12.091,0-2.068.477-2.227-.636-3.977H78.432Z"/><path class="h" d="M65.386,60.932h.159a6.456,6.456,0,0,0,3.023-.636c0,.318.159.477.159.8v1.432a7.123,7.123,0,0,1-3.182.636h-.159Z"/><path class="h" d="M65.386,57.75h0A3.435,3.435,0,0,1,68.727,60.3a6.894,6.894,0,0,1-3.023.636h-.159V57.75Z"/><path class="g" d="M92.75,72.068c-3.023,3.659-8.909,7.318-19.727,9.7l5.886-6.682.318-.477,4.614-5.25L84.8,68.25l2.386-2.7.477.477c.159,0,.159.159.318.318l.318.318.318.318h0l.318.318.318.318c.159.318.477.477.8.8l.477.477.159.159c.159.159.318.477.636.636h0c.318.318.477.636.8.955A2.017,2.017,0,0,0,92.75,72.068Z"/><path class="i" d="M94.182,60.932A9.786,9.786,0,0,1,94.023,63a15.242,15.242,0,0,1-2.864,7h0a26.3,26.3,0,0,1-7.477,6.682,1.206,1.206,0,0,1-.636.318,40.934,40.934,0,0,1-7,3.5.156.156,0,0,0-.159.159h-.159c-.159,0-.318.159-.477.159-.477.159-.955.477-1.432.636-.318.159-.477.159-.8.318l6.2-12.091,2.227-4.136.477-.955,7.8-15.114A17.948,17.948,0,0,1,94.182,60.932Z"/><path class="i" d="M57.591,81.773A59.276,59.276,0,0,1,47.568,77c-.159-.159-.477-.318-.636-.477-7-4.455-9.7-9.386-10.341-13.682,0-.477,0-1.273,0-1.909a19.294,19.294,0,0,1,4.3-11.455Z"/><path class="j" d="M43.432,68.727l2.068,2.7-.955-3.341Z"/><path class="j" d="M50.432,75.25l2.068,2.7-.955-3.341Z"/><path class="j" d="M39.773,52.659l2.068,2.7-.955-3.182Z"/><path class="j" d="M42.477,58.227l2.068,2.7-.955-3.182Z"/><path class="j" d="M45.182,63.954l1.909,2.7-.8-3.341Z"/><path class="j" d="M47.886,69.523l1.909,2.7L49,69.045Z"/><path class="j" d="M47.568,77c-.159-.159-.477-.318-.636-.477l-1.114-1.591,1.114-.477Z"/><path class="j" d="M38.182,57.432l2.068,2.7L39.3,56.8Z"/><path class="j" d="M40.886,63,42.8,65.7,42,62.523Z"/><path class="j" d="M37.545,64.114,36.591,63V60.932h.159Z"/><path class="j" d="M39.3,68.091l2.068,2.7-.955-3.182Z"/><path class="j" d="M87.182,68.727l-2.068,2.7.955-3.341Z"/><path class="j" d="M80.182,75.25l-2.068,2.7.955-3.341Z"/><path class="j" d="M90.841,52.659l-2.068,2.7.955-3.182Z"/><path class="j" d="M88.136,58.227l-2.068,2.7.955-3.182Z"/><path class="j" d="M85.432,63.954l-1.909,2.7.8-3.341Z"/><path class="j" d="M82.886,69.523l-2.068,2.7.955-3.182Z"/><path class="j" d="M83.045,77c.159-.159.477-.318.636-.477L84.8,74.932l-1.114-.477Z"/><path class="j" d="M92.432,57.432l-1.909,2.7.8-3.341Z"/><path class="j" d="M89.886,63l-2.068,2.7.955-3.182Z"/><path class="j" d="M94.182,60.932A9.786,9.786,0,0,1,94.023,63l-.8,1.114.955-3.182Z"/><path class="j" d="M91.318,68.091,89.25,70.8l.955-3.182Z"/><path class="j" d="M75.886,55.682A17.26,17.26,0,0,1,67.454,53.3l3.023,4.773,1.273,2.068,3.182,5.091,10.5,16.545A9.677,9.677,0,0,0,84,85.432l-2.545.8L65.386,91,55.364,94.023l-3.341.955a10.962,10.962,0,0,1-.477-1.273c-5.727-2.545-3.182-6.523-6.045-11.455L55.841,65.227l3.182-5.091.955-1.591,3.182-5.25A16.2,16.2,0,0,1,38.5,39.454c0-5.25,26.568-32.932,26.568-32.932s27.2,26.727,27.045,32.932A16.193,16.193,0,0,1,75.886,55.682Z"/><path class="g" d="M55.2,94.023l-3.341.955a10.961,10.961,0,0,1-.477-1.273c-6.045-2.545-3.023-6.682-6.364-11.932-.318.477-6.841,10.5-8.114,17.659l-.8.318c-1.591-7.636,9.864-20.2,9.864-20.2S51.068,92.113,55.2,94.023Z"/><path class="g" d="M88.3,84.159l-.8.318h-.318c-.8-1.273-1.273-2.068-1.591-2.545l-.159-.159a14.193,14.193,0,0,0-1.591,3.659l-2.545.8a69.894,69.894,0,0,0,3.182-6.682A39.156,39.156,0,0,1,88.3,84.159Z"/><path class="g" d="M71.75,60.136l-3.023,2.227A7.123,7.123,0,0,1,65.545,63h-.318a10.286,10.286,0,0,1-3.182-.636l-3.023-2.227.955-1.591c1.909.955,4.455,2.227,5.25,2.227h.318c.636,0,3.023-1.591,4.932-2.864Z"/><path class="h" d="M69.364,27.364a5.15,5.15,0,0,0-3.977,2.7,4.8,4.8,0,0,0-3.977-2.7c-4.3,2.545-7.477,8.75-7.477,16.227a21.925,21.925,0,0,0,3.977,13.045h0a10.421,10.421,0,0,0,4.455,3.5,9.3,9.3,0,0,0,3.023.636h0a6.894,6.894,0,0,0,3.023-.636,11.45,11.45,0,0,0,4.455-3.5h0a21.924,21.924,0,0,0,3.977-13.045C76.682,36.114,73.659,29.909,69.364,27.364Z"/><path class="j" d="M73.341,26.091c0-1.909-8.114-9.864-8.114-9.864s-7.955,8.114-7.955,9.7A4.786,4.786,0,0,0,62.045,30.7a6.67,6.67,0,0,0,2.545-.636h1.273a4.668,4.668,0,0,0,2.545.636A4.509,4.509,0,0,0,73.341,26.091Z"/><path class="j" d="M56.8,42.636c0,.159-.159.318-.159.477,0,.955,1.114,1.591,2.386,1.591s2.386-.8,2.386-1.591a.584.584,0,0,0-.159-.477Z"/><path class="j" d="M73.818,42.636c0,.159.159.318.159.477,0,.955-1.114,1.591-2.386,1.591s-2.386-.8-2.386-1.591a.584.584,0,0,1,.159-.477Z"/><path class="k" d="M68.568,54.568H62.2A4.03,4.03,0,0,0,65.386,56h0A4.287,4.287,0,0,0,68.568,54.568Z"/><path class="j" d="M65.386,54.409c-1.432-1.75-3.5.477-3.5.477h7S66.818,52.659,65.386,54.409Z"/><path class="g" d="M65.386,45.341v-.159h0v.159l-1.909,5.727h3.659Z"/><path class="j" d="M68.886,39.136l4.773.159h0l.159.159,1.909,2.068L73.5,39.614h.159l-4.773.318Z"/><path class="j" d="M62.2,39.932l-4.773-.318h0l-2.068,1.909,1.909-2.068V39.3h.159l4.773-.159Z"/><path class="g" d="M68.727,27.523c.159,0,.477-.159.636-.159C69.045,27.364,68.886,27.523,68.727,27.523Z"/><path class="g" d="M66.977,28.318Z"/><path class="g" d="M67.454,28Z"/><path class="g" d="M68.091,27.682h0Z"/><path class="l" d="M54.25,49.636c0-.955-4.136-4.932-4.136-4.932s-3.977,4.136-3.977,4.932a2.447,2.447,0,0,0,2.386,2.386A3,3,0,0,0,49.8,51.7L48.2,54.25h3.659L50.273,51.7a3,3,0,0,0,1.273.318A2.529,2.529,0,0,0,54.25,49.636Z"/><path class="g" d="M49.636,53.454l.477-.8.477.8Zm-.159-2.386a1.708,1.708,0,0,1-1.909-.318,1.719,1.719,0,0,1-.477-1.114,46.868,46.868,0,0,1,3.182-3.818c1.591,1.591,3.182,3.341,3.182,3.818a1.631,1.631,0,0,1-1.591,1.591h0a6.89,6.89,0,0,1-.8-.159Z"/><path class="l" d="M84.8,49.636c0-.955-4.136-4.932-4.136-4.932s-3.977,4.136-3.977,4.932a2.447,2.447,0,0,0,2.386,2.386,3,3,0,0,0,1.273-.318L78.75,54.25h3.659L80.818,51.7a3,3,0,0,0,1.273.318A2.529,2.529,0,0,0,84.8,49.636Z"/><path class="g" d="M80.341,53.454l.477-.8.477.8Zm-.318-2.386a1.708,1.708,0,0,1-1.909-.318,1.719,1.719,0,0,1-.477-1.114,46.866,46.866,0,0,1,3.182-3.818C82.409,47.409,84,49.159,84,49.636a1.631,1.631,0,0,1-1.591,1.591h0a6.89,6.89,0,0,1-.8-.159Z"/><path class="g" d="M92.75,72.068a4.834,4.834,0,0,1-.8-1.114l-.318-.318c-.159-.159-.318-.477-.477-.636h0a15.242,15.242,0,0,0,2.864-7,9.071,9.071,0,0,0,.159-2.068,19.294,19.294,0,0,0-4.3-11.455H88.773a15.666,15.666,0,0,0,3.5-10.023c0-6.2-26.886-32.614-27.2-32.932V91.159L65.386,91l16.068-4.773,2.068-.636L84,85.432h0c0-.159.159-.318.159-.477a.584.584,0,0,1,.159-.477h0a11.3,11.3,0,0,1,1.273-2.864h0a.156.156,0,0,0,.159.159,27.613,27.613,0,0,1,1.591,2.545h.318l.318-.159L88.454,84l9.227-2.7A41.4,41.4,0,0,0,92.75,72.068Z"/><path class="f" d="M37.386,141.432l.318-3.182.159-1.75.477-8.114.159-1.909.159-2.7h0l.318-2.386h4.455l1.114-.159h5.886l11.455-.318h.159l11.455.318h5.886l1.114.159h4.455l.159,2.386h0l.318,2.7v1.909l.636,8.114.159,1.75.159,3.182Z"/><path class="g" d="M39.773,141.432c3.659-5.091,8.75-10.5,14.477-10.5h0a11.027,11.027,0,0,1,4.3-3.5,7.123,7.123,0,0,1,3.182-.636h.159v14.477H39.773Z"/><path class="h" d="M29.591,109.454l9.227-2.7.955-.318h.318c.8,1.273,1.273,2.068,1.591,2.545l.159.159h0a9.677,9.677,0,0,0,1.432-3.659l2.545-.8,16.068-4.773,10.023-3.023,3.341-.955a10.961,10.961,0,0,1,.477,1.273c5.727,2.545,3.182,6.523,6.045,11.455.159.159.159.318.318.477.318-.477,6.841-10.5,7.955-17.659l.8-.159,6.523-1.909h.159c.159,14.318-4.3,23.864-8.273,29.591-.318.318-.477.8-.8,1.114s-.477.636-.8.955h0c-.159.159-.318.477-.636.636a1.242,1.242,0,0,1-.636.636l-1.432,1.432h0l-.318.318-.318.318c-.159,0-.159.159-.318.318l-.477.477a1.712,1.712,0,0,1-.8.636l-1.591-.318h-.318l-.636-.159h-.159l-2.068.159-3.182.159H71.432L61.886,126h0l-9.545-.318L49,125.523l-3.182-.159L43.75,125.2h-.159l-.636.318h-.318l-1.432.318a6.3,6.3,0,0,0-1.114-.8l-.477-.477c0-.159-.159-.159-.318-.318-.159,0-.159-.159-.318-.318l-.318-.318h0c-.159,0-.159-.159-.318-.318l-.318-.318c-.159-.318-.477-.477-.636-.8l-.477-.477v-.159c-.159-.159-.318-.477-.636-.636h0c-.318-.318-.477-.636-.8-.955s-.477-.8-.8-1.114A34.512,34.512,0,0,1,29.591,109.454Z"/><path class="g" d="M61.886,115.5H59.818l.955-7.636h1.114Z"/><path class="g" d="M61.886,141.432H84.159c-3.659-5.091-8.75-10.5-14.477-10.5h0c-2.068-2.545-4.614-4.136-7.477-4.136h-.159v14.636Z"/><path class="g" d="M61.886,115.5h2.068L63,107.863H61.886Z"/><path class="g" d="M69.682,109.136c10.818,2.386,16.545,6.045,19.727,9.7a28.7,28.7,0,0,1-5.568,6.2Z"/><path class="h" d="M61.886,129.977h.159a6.456,6.456,0,0,1,3.023.636c0-.318.159-.477.159-.8v-1.432a7.123,7.123,0,0,0-3.182-.636h-.159Z"/><path class="h" d="M61.886,133.159h0a3.435,3.435,0,0,0,3.341-2.545,6.894,6.894,0,0,0-3.023-.636h-.159v3.182Z"/><path class="h" d="M43.114,126.318h5.727l9.864.159v2.068a7.123,7.123,0,0,1,3.182-.636H62.2a7.123,7.123,0,0,1,3.182.636v-2.068l9.864-.159h5.727c.955-1.75.636-1.909.636-3.977,0-4.932-3.5-9.386-8.75-12.091h0c-.955-.477-1.909-.8-3.023-1.273a29.6,29.6,0,0,0-6.523-1.273H61.091a20.665,20.665,0,0,0-6.523,1.273,17.24,17.24,0,0,0-3.023,1.273h0c-5.25,2.545-8.75,7-8.75,12.091C42.477,124.409,42,124.568,43.114,126.318Z"/><path class="g" d="M69.682,109.136a17.24,17.24,0,0,1,3.023,1.273h0c5.25,2.545,8.75,7,8.75,12.091,0,2.068.477,2.227-.636,3.977H75.091Z"/><path class="g" d="M54.25,109.136a17.24,17.24,0,0,0-3.023,1.273h0c-5.25,2.545-8.75,7-8.75,12.091,0,2.068-.477,2.227.636,3.977h5.727Z"/><path class="h" d="M61.886,129.977h-.159a6.456,6.456,0,0,0-3.023.636c0-.318-.159-.477-.159-.8v-1.432a7.123,7.123,0,0,1,3.182-.636h.159Z"/><path class="h" d="M61.886,133.159h0a3.435,3.435,0,0,1-3.341-2.545,6.894,6.894,0,0,1,3.023-.636h.159v3.182Z"/><path class="g" d="M34.523,118.841c3.023-3.659,8.909-7.318,19.727-9.7l-5.886,6.682-.318.318-4.614,5.25-.955,1.114-2.386,2.7-.477-.477c-.159,0-.159-.159-.318-.318l-.318-.318-.318-.318h0l-.318-.318-.318-.318c-.159-.318-.477-.477-.8-.8l-.477-.477-.159-.159c-.159-.159-.318-.477-.636-.636h0c-.318-.318-.477-.636-.8-.955A1.964,1.964,0,0,0,34.523,118.841Z"/><path class="i" d="M33.091,129.977a9.786,9.786,0,0,1,.159-2.068,15.242,15.242,0,0,1,2.864-7h0a26.294,26.294,0,0,1,7.477-6.682,1.206,1.206,0,0,1,.636-.318,40.933,40.933,0,0,1,7-3.5.156.156,0,0,0,.159-.159h.159c.159,0,.318-.159.477-.159.477-.159.955-.477,1.432-.636.318-.159.477-.159.8-.318l-6.2,12.091-2.227,4.136-.477.955-7.8,15.114A17.948,17.948,0,0,1,33.091,129.977Z"/><path class="i" d="M69.682,109.136A59.275,59.275,0,0,1,79.7,113.909c.159.159.477.318.636.477,7,4.455,9.7,9.386,10.341,13.682a9.072,9.072,0,0,1,.159,2.068,19.294,19.294,0,0,1-4.3,11.455Z"/><path class="j" d="M83.841,122.182l-2.068-2.7.955,3.341Z"/><path class="j" d="M76.841,115.659l-2.068-2.7.955,3.341Z"/><path class="j" d="M87.5,138.25l-2.068-2.7.955,3.182Z"/><path class="j" d="M84.8,132.682l-2.068-2.7.955,3.182Z"/><path class="j" d="M82.091,126.954l-1.909-2.7.8,3.341Z"/><path class="j" d="M79.386,121.386l-1.909-2.7.8,3.182Z"/><path class="j" d="M79.7,113.909c.159.159.477.318.636.477l1.114,1.591-1.114.477Z"/><path class="j" d="M89.091,133.477l-2.068-2.7.955,3.341Z"/><path class="j" d="M86.386,127.909l-1.909-2.7.8,3.182Z"/><path class="j" d="M89.727,126.8l.8,1.114a9.071,9.071,0,0,1,.159,2.068h-.159Z"/><path class="j" d="M87.977,122.818l-2.068-2.7.955,3.182Z"/><path class="j" d="M40.091,122.182l2.068-2.7-.955,3.341Z"/><path class="j" d="M47.091,115.659l2.068-2.7L48.2,116.3Z"/><path class="j" d="M36.432,138.25l2.068-2.7-.955,3.182Z"/><path class="j" d="M39.136,132.682l2.068-2.7-.955,3.182Z"/><path class="j" d="M41.841,126.954l1.909-2.7-.8,3.341Z"/><path class="j" d="M44.386,121.386l2.068-2.7-.955,3.182Z"/><path class="j" d="M44.227,113.909c-.159.159-.477.318-.636.477l-1.114,1.591,1.114.477Z"/><path class="j" d="M34.841,133.477l1.909-2.7-.8,3.341Z"/><path class="j" d="M37.386,127.909l2.068-2.7-.955,3.182Z"/><path class="j" d="M33.091,129.977a9.786,9.786,0,0,1,.159-2.068l.8-1.114-.955,3.182Z"/><path class="j" d="M35.954,122.818l2.068-2.7-.955,3.182Z"/><path class="j" d="M51.386,135.227a17.26,17.26,0,0,1,8.432,2.386L56.8,132.841l-1.273-2.068-3.182-5.091-10.5-16.545a9.677,9.677,0,0,0,1.432-3.659l2.545-.8,16.068-4.773,10.023-3.023,3.341-.955a10.962,10.962,0,0,1,.477,1.273c5.727,2.545,3.182,6.523,6.045,11.455L71.432,125.682l-3.182,5.091-.955,1.591-3.182,5.25a16.2,16.2,0,0,1,24.659,13.841c0,5.25-26.568,32.932-26.568,32.932S35,157.659,35.159,151.454A16.193,16.193,0,0,1,51.386,135.227Z"/><path class="g" d="M72.068,96.886l3.341-.955a10.961,10.961,0,0,1,.477,1.273c6.045,2.545,3.023,6.682,6.364,11.932.318-.477,6.841-10.5,8.114-17.659l.8-.318c1.75,7.636-9.7,20.2-9.7,20.2S76.2,98.8,72.068,96.886Z"/><path class="g" d="M38.977,106.75l.8-.318h.318c.8,1.273,1.273,2.068,1.591,2.545l.159.159a14.193,14.193,0,0,0,1.591-3.659l2.545-.8a69.893,69.893,0,0,0-3.182,6.682A39.154,39.154,0,0,1,38.977,106.75Z"/><path class="g" d="M55.523,130.772l3.023-2.227a7.123,7.123,0,0,1,3.182-.636h.318a10.286,10.286,0,0,1,3.182.636l3.023,2.227-.955,1.591c-1.909-.955-4.455-2.227-5.25-2.227h-.318c-.636,0-3.023,1.591-4.932,2.864Z"/><path class="h" d="M57.909,163.545a5.15,5.15,0,0,0,3.977-2.7,4.8,4.8,0,0,0,3.977,2.7c4.3-2.545,7.477-8.75,7.477-16.227a21.924,21.924,0,0,0-3.977-13.045h0a10.421,10.421,0,0,0-4.455-3.5,9.3,9.3,0,0,0-3.023-.636h0a6.894,6.894,0,0,0-3.023.636,11.45,11.45,0,0,0-4.455,3.5h0a21.924,21.924,0,0,0-3.977,13.045C50.591,154.8,53.614,161,57.909,163.545Z"/><path class="j" d="M53.932,164.818c0,1.909,8.114,9.864,8.114,9.864S70,166.409,70,164.977a4.786,4.786,0,0,0-4.773-4.773,6.67,6.67,0,0,0-2.545.636H61.409a4.668,4.668,0,0,0-2.545-.636A4.509,4.509,0,0,0,53.932,164.818Z"/><path class="j" d="M70.477,148.272c0-.159.159-.318.159-.477,0-.955-1.114-1.591-2.386-1.591s-2.386.8-2.386,1.591a.584.584,0,0,0,.159.477Z"/><path class="j" d="M53.454,148.272c0-.159-.159-.318-.159-.477,0-.955,1.114-1.591,2.386-1.591s2.386.8,2.386,1.591a.584.584,0,0,1-.159.477Z"/><path class="k" d="M58.7,136.341h6.364a4.03,4.03,0,0,0-3.182-1.432h0A4.287,4.287,0,0,0,58.7,136.341Z"/><path class="j" d="M61.886,136.5c1.432,1.75,3.5-.477,3.5-.477h-7S60.454,138.25,61.886,136.5Z"/><path class="g" d="M61.886,145.568v.159h0v-.159l1.909-5.727H60.136Z"/><path class="j" d="M58.386,151.772l-4.773-.159h0l-.159-.159-1.909-2.068,2.227,1.909h-.159l4.773-.318Z"/><path class="j" d="M65.068,150.977l4.773.318h0l2.068-1.909L70,151.454v.159h-.159l-4.773.159Z"/><path class="g" d="M58.545,163.386c-.159,0-.477.159-.636.159C58.227,163.545,58.386,163.386,58.545,163.386Z"/><path class="g" d="M60.3,162.591Z"/><path class="g" d="M59.818,162.909Z"/><path class="g" d="M59.182,163.227h0Z"/><path class="l" d="M73.023,141.272c0,.955,4.136,4.932,4.136,4.932s3.977-4.136,3.977-4.932a2.447,2.447,0,0,0-2.386-2.386,3,3,0,0,0-1.273.318l1.591-2.545H75.409L77,139.2a3,3,0,0,0-1.273-.318A2.529,2.529,0,0,0,73.023,141.272Z"/><path class="g" d="M77.636,137.454l-.477.8-.477-.8Zm.159,2.386a1.708,1.708,0,0,1,1.909.318,1.719,1.719,0,0,1,.477,1.114A46.865,46.865,0,0,1,77,145.091c-1.591-1.591-3.182-3.341-3.182-3.818a1.631,1.631,0,0,1,1.591-1.591h0a6.89,6.89,0,0,1,.8.159Z"/><path class="l" d="M42.477,141.272c0,.955,4.136,4.932,4.136,4.932s3.977-4.136,3.977-4.932a2.447,2.447,0,0,0-2.386-2.386,3,3,0,0,0-1.273.318l1.591-2.545H44.864l1.591,2.545a3,3,0,0,0-1.273-.318A2.529,2.529,0,0,0,42.477,141.272Z"/><path class="g" d="M46.932,137.454l-.477.8-.477-.8Zm.318,2.386a1.708,1.708,0,0,1,1.909.318,1.719,1.719,0,0,1,.477,1.114,46.867,46.867,0,0,1-3.182,3.818c-1.591-1.591-3.182-3.341-3.182-3.818a1.631,1.631,0,0,1,1.591-1.591h0a6.89,6.89,0,0,1,.8.159Z"/><path class="g" d="M34.523,118.841a4.834,4.834,0,0,1,.8,1.114l.318.318c.159.159.318.477.477.636h0a15.242,15.242,0,0,0-2.864,7,9.071,9.071,0,0,0-.159,2.068,19.294,19.294,0,0,0,4.3,11.455H38.5A15.666,15.666,0,0,0,35,151.454c0,6.2,26.886,32.614,27.2,32.932V99.75l-.318.159-16.068,4.773-2.068.636-.477.159h0c0,.159-.159.318-.159.477a.584.584,0,0,1-.159.477h0a11.3,11.3,0,0,1-1.273,2.864h0a.156.156,0,0,0-.159-.159,27.614,27.614,0,0,1-1.591-2.545h-.477l-.477.159-9.227,2.7A34.409,34.409,0,0,0,34.523,118.841Z"/></g></g><text class="m" transform="translate(1096 523)"><tspan x="-6.66" y="0">Q</tspan></text><text class="m" transform="translate(1230 717) rotate(180)"><tspan x="-6.66" y="0">Q</tspan></text><g class="n" transform="translate(998 80)"><g transform="translate(88.909 446.939)"><path class="j" d="M16.606,9.333C16.606,7.576,8.97.061,8.97.061S1.576,7.818,1.576,9.273a4.539,4.539,0,0,0,4.545,4.545,4.477,4.477,0,0,0,2.364-.667L5.636,18h6.97L9.7,13.212a4.477,4.477,0,0,0,2.364.667A4.539,4.539,0,0,0,16.606,9.333Z"/><path class="g" d="M16.606,9.333C16.606,7.576,8.97.061,8.97.061h0v18h3.576L9.7,13.212a4.477,4.477,0,0,0,2.364.667A4.539,4.539,0,0,0,16.606,9.333Z"/></g></g><g class="n" transform="translate(1328 1160) rotate(180)"><g transform="translate(88.909 446.939)"><path class="j" d="M16.606,9.333C16.606,7.576,8.97.061,8.97.061S1.576,7.818,1.576,9.273a4.539,4.539,0,0,0,4.545,4.545,4.477,4.477,0,0,0,2.364-.667L5.636,18h6.97L9.7,13.212a4.477,4.477,0,0,0,2.364.667A4.539,4.539,0,0,0,16.606,9.333Z"/><path class="g" d="M16.606,9.333C16.606,7.576,8.97.061,8.97.061h0v18h3.576L9.7,13.212a4.477,4.477,0,0,0,2.364.667A4.539,4.539,0,0,0,16.606,9.333Z"/></g></g></g></svg>