<svg xmlns="http://www.w3.org/2000/svg" xmlns:xlink="http://www.w3.org/1999/xlink" width="189.902" height="257.863" viewBox="0 0 189.902 257.863"><defs><style>.a,.b,.c,.d,.l{fill:#fff;}.a{stroke:#333;stroke-width:2px;}.b{stroke:#707070;}.c{stroke:#d1d1d1;stroke-width:0.5px;}.e{clip-path:url(#c);}.f{fill:#333;}.g{fill:#ffd675;}.h{fill:#616161;}.h,.l{opacity:0.2;}.i{fill:#ebebeb;}.j{fill:#ebbe9f;}.k{fill:#9c9c9c;}.m{fill:#383838;font-size:20px;font-family:AlwynNew-Bold, Alwyn New;font-weight:700;}.n{clip-path:url(#d);}.o{stroke:none;}.p{fill:none;}.q{filter:url(#a);}</style><filter id="a" x="0" y="0" width="189.902" height="257.863" filterUnits="userSpaceOnUse"><feOffset dy="3" input="SourceAlpha"/><feGaussianBlur stdDeviation="3" result="b"/><feFlood flood-opacity="0.161"/><feComposite operator="in" in2="b"/><feComposite in="SourceGraphic"/></filter><clipPath id="c"><rect class="a" width="115.902" height="177.863" transform="translate(738 729)"/></clipPath><clipPath id="d"><rect class="b" width="18" height="18" transform="translate(89 447)"/></clipPath></defs><g transform="translate(-1278 -494)"><g class="q" transform="matrix(1, 0, 0, 1, 1278, 494)"><g class="c" transform="translate(9 6)"><rect class="o" width="171.902" height="239.863" rx="10"/><rect class="p" x="0.25" y="0.25" width="171.402" height="239.363" rx="9.75"/></g></g><g class="a" transform="translate(1302 521)"><rect class="o" width="141.902" height="197.863" rx="10"/><rect class="p" x="1" y="1" width="139.902" height="195.863" rx="9"/></g><rect class="d" width="30" height="50" transform="translate(1293 506)"/><path class="d" d="M0,0H30V50H0Z" transform="translate(1423 685)"/><g class="e" transform="translate(577 -198)"><g transform="translate(730.174 721.789)"><path class="f" d="M108.16,58.807l-.32-1.122S87.97,46.309,81.561,42.783c-1.122-.641-1.923-1.122-1.923-1.122H51.276a.157.157,0,0,0-.16.16.559.559,0,0,1-.32.16c-.16,0-.16.16-.32.16s-.16.16-.32.16c-.16.16-.32.16-.481.32a14.78,14.78,0,0,0-1.282.8h0c-.32.16-.8.481-1.122.641-.16,0-.32.16-.481.16-.961.481-1.923,1.122-3.045,1.763-.481.16-.8.481-1.282.641s-.8.481-1.282.641c-.481.32-.8.481-1.282.8-5.608,3.2-11.858,6.73-14.742,8.493-.16.16-.32.16-.481.32-.641.481-1.122.641-1.282.8V104.8l18.427-5.448,4.166-1.282L108.16,79.317Z"/><path class="g" d="M65.7,66.178l-7.691-13.46H73.549ZM59.448,53.519l6.249,10.9,6.249-10.9Z"/><path class="h" d="M55.442,41.662c-.16.16-28.2,16.024-28.2,16.024L23.395,69.863v35.092l18.427-5.608,4.166-1.282L57.044,61.691l1.442-4.807,2.083-4.647,4.807-10.255v-.32Z"/><path class="i" d="M51.436,41.662h0a.5.5,0,0,1-.32.16,37626.81,37626.81,0,0,1-.641.32c-.16,0-.16.16-.32.16-.16.16-.32.16-.481.32a14.78,14.78,0,0,0-1.282.8h0c-.32.16-.8.481-1.122.641-.16,0-.32.16-.481.16-.961.481-1.923,1.122-3.045,1.763-.481.16-.8.481-1.282.641s-.8.481-1.282.641a5.621,5.621,0,0,0-1.282.8c-1.763.961-3.685,2.083-5.448,3.2-.481.32-1.122.641-1.6.961C29.644,54,26.92,55.6,25.157,56.564c-.16.16-.32.16-.481.32-.641.481-1.122.641-1.282.8V104.8l3.365-.961,1.923-.481,12.979-4.006h.16C42.463,97.9,43.1,96.3,43.745,94.7c4.487-10.736,9.774-24.2,13.3-33.009,2.243-5.448,3.685-9.134,3.685-9.134v-.32l.961-10.576H51.436Z"/><path class="h" d="M108.16,71.947l-4.326-14.261s-28.042-16.024-28.2-16.024H65.377v.16l7.05,14.9L81.561,87.81l26.6-9.614V71.947Z"/><path class="i" d="M108.16,58.807l-.32-1.122S79.8,41.662,79.638,41.662H69.383l.961,10.9s12.018,25,16.344,33.169L108,79.317V58.807Z"/><path class="j" d="M81.881,34.771l-.32-3.846v-.16l-.8-11.7-4.326-2.083-8.493-4.326L65.7,13.941l-2.4-1.282-8.332,4.326-4.326,2.083-.961,11.7v.16l-.32,3.846.961,11.217L65.7,56.884h0l15.383-10.9Z"/><path class="j" d="M65.7,41.662l5.128-.16-3.846-2.4H64.415L60.57,41.5l5.128.16Z"/><path class="h" d="M68.742,34.291,66.659,27.08H64.576l-2.083,7.211,2.083,2.243,1.122.16h0l.961-.16Z"/><path class="k" d="M67.941,25l6.57-.8h.16l3.2,1.763L74.35,25h.32L68.261,26.76Z"/><path class="f" d="M70.184,27.881a1.2,1.2,0,0,0-.16.8,1.923,1.923,0,1,0,3.846,0,1.445,1.445,0,0,0-.16-.8Z"/><path class="k" d="M63.454,25l-6.73-.8h-.16l-3.2,1.763L56.884,25h-.16l6.409,1.763Z"/><path class="f" d="M61.05,27.881a1.2,1.2,0,0,1,.16.8,1.948,1.948,0,0,1-1.923,1.923,1.851,1.851,0,0,1-1.923-1.923,1.445,1.445,0,0,1,.16-.8Z"/><path class="k" d="M81.561,30.926l-.16.16L78.356,20.35l-2.083-3.365L80.6,19.228l.961,11.7Z"/><path class="k" d="M49.674,30.926l.16.16L52.878,20.35l2.083-3.365-4.326,2.243-.961,11.7Z"/><path class="g" d="M81.08,14.9v4.487a52.055,52.055,0,0,1-12.338,1.6,62.883,62.883,0,0,1-7.852-.16,20,20,0,0,1-3.365-.32c-1.282-.16-2.4-.16-3.365-.32-2.4-.32-3.846-.481-3.846-.481V15.543L65.7,7.371l4.487,2.243c.8.32,1.6.8,2.564,1.282a17.513,17.513,0,0,1,2.4,1.282c2.243,1.122,4.326,2.083,5.448,2.564A1.614,1.614,0,0,1,81.08,14.9Z"/><path class="l" d="M72.427,10.736,57.2,20.671c-1.282-.16-2.4-.16-3.365-.32L69.863,9.614A12.4,12.4,0,0,1,72.427,10.736Z"/><path class="l" d="M80.279,14.582l-11.7,6.409a62.883,62.883,0,0,1-7.852-.16l14.261-8.973C77.234,13.139,79.317,14.1,80.279,14.582Z"/><path class="f" d="M35.252,72.748l-.481,3.525,1.763-3.2Z"/><path class="f" d="M42.3,72.748l-.481,3.525,1.763-3.2Z"/><path class="f" d="M49.353,72.748l-.481,3.525,1.763-3.2Z"/><path class="f" d="M26.279,84.285,25.8,87.97l1.763-3.2Z"/><path class="f" d="M33.49,84.285l-.481,3.685,1.763-3.2Z"/><path class="f" d="M40.54,84.285l-.481,3.685,1.763-3.2Z"/><path class="f" d="M28.522,95.982l-.481,3.685,1.763-3.2Z"/><path class="f" d="M35.573,95.982l-.481,3.685,1.763-3.2Z"/><path class="f" d="M43.264,95.662c-.32.8-.641,1.6-.961,2.243h-.16l.32-2.564Z"/><path class="f" d="M47.59,52.4l-.481,3.685,1.763-3.2Z"/><path class="f" d="M40.54,50.955l-.481,3.525,1.763-3.045Z"/><path class="f" d="M33.97,52.237,33.009,54l.16-1.282A3.5,3.5,0,0,1,33.97,52.237Z"/><path class="f" d="M28.042,103.353l-.961.16v-.481Z"/><path class="f" d="M26.6,60.89l-.641,3.685,1.763-3.2Z"/><path class="f" d="M34.451,60.89l-.481,3.685,1.763-3.2Z"/><path class="f" d="M41.5,60.89l-.481,3.685,1.763-3.2Z"/><path class="f" d="M48.552,60.89l-.481,3.685,1.763-3.2Z"/><path class="f" d="M55.923,54.32l-.481,3.525,1.763-3.2Z"/><path class="f" d="M27.24,72.748l-.481,3.525,1.763-3.2Z"/><path class="f" d="M97.584,72.748l.481,3.525-1.763-3.2Z"/><path class="f" d="M90.534,72.748l.481,3.525-1.763-3.2Z"/><path class="f" d="M83.323,72.748l.641,3.525-1.763-3.2Z"/><path class="f" d="M85.246,52.4l.481,3.685-1.763-3.2Z"/><path class="f" d="M92.3,50.955l.481,3.525-1.763-3.045Z"/><path class="f" d="M98.866,52.237,99.828,54l-.16-1.282A3.5,3.5,0,0,0,98.866,52.237Z"/><path class="f" d="M106.237,60.89l.641,3.685-1.923-3.2Z"/><path class="f" d="M98.386,60.89l.481,3.685-1.763-3.2Z"/><path class="f" d="M91.335,60.89l.481,3.685-1.763-3.2Z"/><path class="f" d="M84.125,60.89l.641,3.685L83,61.371Z"/><path class="f" d="M76.914,54.32l.481,3.525-1.763-3.2Z"/><path class="f" d="M105.436,72.748l.641,3.525-1.923-3.2Z"/><path class="k" d="M57.044,44.386a8.488,8.488,0,0,1,1.6-.961L54.8,37.175H76.273l-3.846,6.249a14.09,14.09,0,0,1,1.6.961,6.762,6.762,0,0,1,2.564,5.288c0,1.282,0,2.724-9.134,10.255l-1.923,1.6-2.083-1.6C54,52.718,54,50.955,54.16,49.674A7.682,7.682,0,0,1,57.044,44.386Z"/><path class="j" d="M59.448,39.1h12.5l-1.763,4.487H61.691Z"/><rect class="h" width="6.73" height="1.282" transform="translate(62.493 40.7)"/><path class="f" d="M68.261,11.537c0-.641-2.564-3.045-2.564-3.045s-2.4,2.564-2.4,3.045a1.553,1.553,0,0,0,2.243,1.282l-.961,1.6h2.243l-.961-1.6a1.2,1.2,0,0,0,.8.16A1.386,1.386,0,0,0,68.261,11.537Z"/><path class="h" d="M74.35,74.671c-.16-1.923-8.653-9.294-8.653-9.294s-8.332,7.691-8.493,9.294a5.136,5.136,0,0,0,5.128,5.448,6,6,0,0,0,2.884-.8l-3.685,6.409h8.813l-3.685-6.409a5.534,5.534,0,0,0,2.884.8A4.89,4.89,0,0,0,74.35,74.671Z"/><path class="g" d="M73.549,74.671c0-1.763-7.691-9.294-7.691-9.294s-7.531,7.852-7.531,9.294a4.65,4.65,0,0,0,4.647,4.647,4.522,4.522,0,0,0,2.4-.641l-2.884,4.967h7.05l-2.884-4.967a3.862,3.862,0,0,0,2.4.641A4.619,4.619,0,0,0,73.549,74.671Z"/><path class="h" d="M65.217,81.881l.641-1.122.641,1.282Zm-.8-4.647a2.585,2.585,0,0,1-1.442.481,3.124,3.124,0,0,1-3.045-2.884,66.756,66.756,0,0,1,5.929-7.211c2.884,2.884,5.608,6.089,6.089,7.211a2.742,2.742,0,0,1-2.884,2.724h0a3.092,3.092,0,0,1-1.6-.481Z"/><path class="h" d="M107.84,57.685s-3.525-2.083-8.012-4.647v-.481c-.32-.16-.481-.32-.8-.481l.32.481c-6.249-3.525-13.941-8.012-17.626-9.935-.16,0-.16-.16-.32-.16l.641-7.852-.32-3.846v-.16l-.8-11.377h.32V14.9l-.641-.32c-.961-.481-3.045-1.442-5.448-2.564a17.513,17.513,0,0,1-2.4-1.282c-.8-.481-1.763-.8-2.564-1.282L65.7,7.211l-.16.16V92.136l16.184-4.807.16.481,8.973-3.2,17.466-5.288V58.807Z"/><path class="f" d="M23.234,133.478l.32,1.122s19.869,11.377,26.279,14.9c1.122.641,1.923,1.122,1.923,1.122H80.279a.157.157,0,0,0,.16-.16.559.559,0,0,1,.32-.16c.16,0,.16-.16.32-.16s.16-.16.32-.16c.16-.16.32-.16.481-.32a14.78,14.78,0,0,0,1.282-.8h0c.32-.16.8-.481,1.122-.641.16,0,.32-.16.481-.16.961-.481,1.923-1.122,3.045-1.763.481-.16.8-.481,1.282-.641s.8-.481,1.282-.641c.481-.32.8-.481,1.282-.8,5.608-3.2,11.858-6.73,14.742-8.493.16-.16.32-.16.481-.32.641-.481,1.122-.641,1.282-.8V87.49L89.573,92.938,85.406,94.22,23.234,112.967Z"/><path class="g" d="M65.7,126.107l7.691,13.46H57.846Zm6.249,12.659-6.249-10.9-6.249,10.9h12.5Z"/><path class="h" d="M76.113,150.623c.16,0,28.2-16.024,28.2-16.024l3.846-12.178V87.49L89.573,92.938,85.406,94.22,74.35,130.593,72.908,135.4l-2.083,4.647L66.018,150.3v.32Z"/><path class="i" d="M80.119,150.623h0a.5.5,0,0,1,.32-.16,37627.347,37627.347,0,0,1,.641-.32c.16,0,.16-.16.32-.16.16-.16.32-.16.481-.32a14.78,14.78,0,0,0,1.282-.8h0c.32-.16.8-.481,1.122-.641.16,0,.32-.16.481-.16.961-.481,1.923-1.122,3.045-1.763.481-.16.8-.481,1.282-.641s.8-.481,1.282-.641a5.621,5.621,0,0,0,1.282-.8c1.763-.961,3.685-2.083,5.448-3.2.481-.32,1.122-.641,1.6-.961,3.2-1.763,5.929-3.365,7.691-4.326.16-.16.32-.16.481-.32.641-.481,1.122-.641,1.282-.8V87.49l-3.365.961-1.923.481L89.893,92.938h-.16c-.641,1.442-1.282,3.045-1.923,4.647-4.487,10.736-9.935,24.2-13.46,33.009-2.243,5.448-3.685,9.134-3.685,9.134v.32l-.8,10.576Z"/><path class="h" d="M23.234,120.338,27.561,134.6s28.042,16.024,28.2,16.024H66.018v-.16l-7.05-14.9-9.134-31.086-26.6,9.614v6.249Z"/><path class="i" d="M23.234,133.478l.32,1.122s28.042,16.024,28.2,16.024H62.012l-.961-10.9s-12.018-25-16.344-33.169l-21.312,6.409v20.51Z"/><path class="j" d="M49.513,157.513l.32,3.846v.16l.961,11.7,4.326,2.083,8.332,4.326,2.4-1.282,2.243,1.282,8.493-4.326,4.326-2.083.8-11.7v-.16l.32-3.846-.8-11.217L65.858,135.4h0L50.475,146.3Z"/><path class="j" d="M65.858,150.623l-5.128.16,3.846,2.4h2.564l3.846-2.4-5.128-.16Z"/><path class="h" d="M62.653,157.994l2.083,7.211h2.083l2.083-7.211-2.083-2.243-.961-.16h0l-1.122.16Z"/><path class="k" d="M63.614,167.288l-6.57.8h-.32l-3.045-1.763,3.365.961h-.16l6.409-1.763Z"/><path class="f" d="M61.211,164.4a1.2,1.2,0,0,0,.16-.8,1.923,1.923,0,0,0-3.846,0,1.445,1.445,0,0,0,.16.8Z"/><path class="k" d="M68.1,167.288l6.57.8h.16l3.2-1.763-3.365.961h.16l-6.409-1.763Z"/><path class="f" d="M70.344,164.4a1.2,1.2,0,0,1-.16-.8,1.923,1.923,0,0,1,3.846,0,1.445,1.445,0,0,1-.16.8Z"/><path class="k" d="M49.834,161.359l.16-.16,3.045,10.736,2.083,3.365L50.8,173.056l-.961-11.7Z"/><path class="k" d="M81.721,161.359l-.16-.16-3.045,10.736L76.433,175.3l4.326-2.243.961-11.7Z"/><path class="g" d="M50.475,177.383V172.9a52.055,52.055,0,0,1,12.338-1.6,62.885,62.885,0,0,1,7.852.16,20,20,0,0,1,3.365.32c1.282.16,2.4.16,3.365.32,2.4.32,3.846.481,3.846.481V176.9l-15.383,8.172-4.487-2.243c-.8-.32-1.6-.8-2.564-1.282a17.514,17.514,0,0,1-2.4-1.282c-2.243-1.122-4.326-2.083-5.448-2.564A1.982,1.982,0,0,1,50.475,177.383Z"/><path class="l" d="M58.967,181.549l15.223-9.935c1.282.16,2.4.16,3.365.32L61.531,182.67C60.73,182.35,59.929,182.03,58.967,181.549Z"/><path class="l" d="M51.116,177.7l11.7-6.409a62.885,62.885,0,0,1,7.852.16L56.4,180.427A42.4,42.4,0,0,0,51.116,177.7Z"/><path class="f" d="M96.3,119.537l.481-3.525-1.763,3.2Z"/><path class="f" d="M89.092,119.537l.641-3.525-1.923,3.2Z"/><path class="f" d="M82.041,119.537l.481-3.525-1.763,3.2Z"/><path class="f" d="M105.116,108l.481-3.685-1.763,3.2Z"/><path class="f" d="M98.065,108l.481-3.685-1.763,3.2Z"/><path class="f" d="M90.855,108l.641-3.685-1.763,3.2Z"/><path class="f" d="M102.872,96.3l.641-3.685-1.763,3.2Z"/><path class="f" d="M95.822,96.3l.481-3.685-1.763,3.2Z"/><path class="f" d="M88.291,96.623c.32-.8.641-1.6.961-2.243h.16l-.32,2.564Z"/><path class="f" d="M83.8,139.887l.481-3.685-1.763,3.2Z"/><path class="f" d="M90.855,141.329,91.5,137.8l-1.763,3.045Z"/><path class="f" d="M97.584,140.047l.961-1.763-.16,1.282A3.5,3.5,0,0,0,97.584,140.047Z"/><path class="f" d="M103.513,88.932l.961-.16-.16.481Z"/><path class="f" d="M104.955,131.395l.481-3.685-1.763,3.2Z"/><path class="f" d="M97.1,131.395l.481-3.685-1.763,3.2Z"/><path class="f" d="M89.893,131.395l.641-3.685-1.923,3.2Z"/><path class="f" d="M82.843,131.395l.481-3.685-1.763,3.2Z"/><path class="f" d="M75.632,137.964l.481-3.525-1.763,3.2Z"/><path class="f" d="M104.154,119.537l.481-3.525-1.763,3.2Z"/><path class="f" d="M33.81,119.537l-.481-3.525,1.763,3.2Z"/><path class="f" d="M41.021,119.537l-.641-3.525,1.923,3.2Z"/><path class="f" d="M48.071,119.537l-.481-3.525,1.763,3.2Z"/><path class="f" d="M46.309,139.887l-.481-3.685,1.763,3.2Z"/><path class="f" d="M39.258,141.329l-.641-3.525,1.763,3.045Z"/><path class="f" d="M32.528,140.047l-.961-1.763.16,1.282A3.5,3.5,0,0,1,32.528,140.047Z"/><path class="f" d="M25.157,131.395l-.481-3.685,1.763,3.2Z"/><path class="f" d="M33.009,131.395l-.481-3.685,1.763,3.2Z"/><path class="f" d="M40.22,131.395l-.641-3.685,1.923,3.2Z"/><path class="f" d="M47.27,131.395l-.481-3.685,1.763,3.2Z"/><path class="f" d="M54.481,137.964,54,134.439l1.763,3.2Z"/><path class="f" d="M25.958,119.537l-.481-3.525,1.763,3.2Z"/><path class="k" d="M65.7,130.754l2.083,1.6c9.454,7.211,9.454,8.973,9.294,10.255A7.272,7.272,0,0,1,74.51,147.9a8.488,8.488,0,0,1-1.6.961l3.846,6.249H55.122l3.846-6.249a14.091,14.091,0,0,1-1.6-.961,6.762,6.762,0,0,1-2.564-5.288c0-1.282,0-2.724,9.134-10.255Z"/><path class="j" d="M72.107,153.187h-12.5l1.763-4.487h8.493Z"/><rect class="h" width="6.73" height="1.282" transform="translate(62.172 150.142)"/><path class="f" d="M63.294,180.748c0,.641,2.564,3.045,2.564,3.045s2.4-2.564,2.4-3.045a1.553,1.553,0,0,0-2.243-1.282l.961-1.6H64.736l.961,1.6a1.2,1.2,0,0,0-.8-.16A1.326,1.326,0,0,0,63.294,180.748Z"/><path class="h" d="M57.044,117.614c.16,1.923,8.653,9.294,8.653,9.294s8.332-7.691,8.493-9.294a4.92,4.92,0,0,0-4.967-5.448,6,6,0,0,0-2.884.8l3.685-6.409H61.211l3.685,6.409a5.534,5.534,0,0,0-2.884-.8A4.92,4.92,0,0,0,57.044,117.614Z"/><path class="g" d="M58.006,117.614c0,1.763,7.691,9.294,7.691,9.294s7.531-7.852,7.531-9.294a4.65,4.65,0,0,0-4.647-4.647,4.522,4.522,0,0,0-2.4.641l2.884-4.967h-7.05l2.884,4.967a3.862,3.862,0,0,0-2.4-.641A4.619,4.619,0,0,0,58.006,117.614Z"/><path class="h" d="M66.338,110.4l-.641,1.122-.641-1.282Zm.641,4.647a2.585,2.585,0,0,1,1.442-.481,3.124,3.124,0,0,1,3.045,2.884,66.757,66.757,0,0,1-5.929,7.211c-2.884-2.884-5.608-6.089-6.089-7.211a2.742,2.742,0,0,1,2.884-2.724h0a3.092,3.092,0,0,1,1.6.481Z"/><path class="h" d="M23.555,134.6s3.525,2.083,8.012,4.647v.481c.32.16.481.32.8.481l-.16-.8c6.249,3.525,13.941,8.012,17.626,9.935.16,0,.16.16.32.16l-.641,7.852.32,3.846v.16l.8,11.377h-.32v4.487l.641.32c.961.481,3.045,1.442,5.448,2.564a17.514,17.514,0,0,1,2.4,1.282c.8.481,1.763.8,2.564,1.282l4.487,2.243.16-.16V99.988L49.834,104.8l-.16-.481-8.973,3.2-17.466,5.288v20.51Z"/></g></g><text class="m" transform="translate(1306 523)"><tspan x="-6.07" y="0">K</tspan></text><text class="m" transform="translate(1440 717) rotate(180)"><tspan x="-6.07" y="0">K</tspan></text><g class="n" transform="translate(1208 80)"><g transform="translate(88.909 446.939)"><path class="f" d="M16.606,9.333C16.606,7.576,8.97.061,8.97.061S1.576,7.818,1.576,9.273a4.539,4.539,0,0,0,4.545,4.545,4.477,4.477,0,0,0,2.364-.667L5.636,18h6.97L9.7,13.212a4.477,4.477,0,0,0,2.364.667A4.539,4.539,0,0,0,16.606,9.333Z"/><path class="h" d="M16.606,9.333C16.606,7.576,8.97.061,8.97.061h0v18h3.576L9.7,13.212a4.477,4.477,0,0,0,2.364.667A4.539,4.539,0,0,0,16.606,9.333Z"/></g></g><g class="n" transform="translate(1538 1160) rotate(180)"><g transform="translate(88.909 446.939)"><path class="f" d="M16.606,9.333C16.606,7.576,8.97.061,8.97.061S1.576,7.818,1.576,9.273a4.539,4.539,0,0,0,4.545,4.545,4.477,4.477,0,0,0,2.364-.667L5.636,18h6.97L9.7,13.212a4.477,4.477,0,0,0,2.364.667A4.539,4.539,0,0,0,16.606,9.333Z"/><path class="h" d="M16.606,9.333C16.606,7.576,8.97.061,8.97.061h0v18h3.576L9.7,13.212a4.477,4.477,0,0,0,2.364.667A4.539,4.539,0,0,0,16.606,9.333Z"/></g></g></g></svg>