<svg xmlns="http://www.w3.org/2000/svg" xmlns:xlink="http://www.w3.org/1999/xlink" width="189.902" height="257.863" viewBox="0 0 189.902 257.863"><defs><style>.a,.b{fill:#fff;}.a{stroke:#707070;}.b{stroke:#d1d1d1;stroke-width:0.5px;}.c,.e{fill:#d66142;}.c{font-size:20px;font-family:AlwynNew-Bold, Alwyn New;font-weight:700;}.d{clip-path:url(#c);}.f{fill:#616161;opacity:0.2;}.g{clip-path:url(#d);}.h{clip-path:url(#e);}.i{stroke:none;}.j{fill:none;}.k{filter:url(#a);}</style><filter id="a" x="0" y="0" width="189.902" height="257.863" filterUnits="userSpaceOnUse"><feOffset dy="3" input="SourceAlpha"/><feGaussianBlur stdDeviation="3" result="b"/><feFlood flood-opacity="0.161"/><feComposite operator="in" in2="b"/><feComposite in="SourceGraphic"/></filter><clipPath id="c"><rect class="a" width="18" height="18" transform="translate(90 447)"/></clipPath><clipPath id="d"><rect class="a" width="18" height="18" transform="translate(242 633) rotate(180)"/></clipPath><clipPath id="e"><rect class="a" width="83" height="83" transform="translate(124 1789)"/></clipPath></defs><g transform="translate(-228 -1507)"><g class="k" transform="matrix(1, 0, 0, 1, 228, 1507)"><g class="b" transform="translate(9 6)"><rect class="i" width="171.902" height="239.863" rx="10"/><rect class="j" x="0.25" y="0.25" width="171.402" height="239.363" rx="9.75"/></g></g><text class="c" transform="translate(256 1536)"><tspan x="-6.67" y="0">A</tspan></text><text class="c" transform="translate(390 1730) rotate(180)"><tspan x="-6.67" y="0">A</tspan></text><g class="d" transform="translate(157 1093)"><g transform="translate(89.288 446.293)"><path class="e" d="M18.7,6.924c-.259,4.4-8.995,11-8.995,11S.712,11.26.712,6.924a5.441,5.441,0,0,1,5.5-5.436A6.957,6.957,0,0,1,9.771,3.041a6.283,6.283,0,0,1,3.559-1.488A5.2,5.2,0,0,1,18.7,6.924Z"/><path class="f" d="M13.266,1.488A6.79,6.79,0,0,0,9.707,2.977l-.065-.065V17.925h0s8.8-6.665,8.995-11A5.216,5.216,0,0,0,13.266,1.488Z"/></g></g><g class="g" transform="translate(157 1093)"><g transform="translate(223.298 614.326)"><path class="e" d="M.712,12.489C.906,8.089,9.707,1.424,9.707,1.424S18.7,8.089,18.7,12.489a5.441,5.441,0,0,1-5.5,5.436,6.957,6.957,0,0,1-3.559-1.553A6.283,6.283,0,0,1,6.083,17.86,5.2,5.2,0,0,1,.712,12.489Z"/><path class="f" d="M6.148,17.925a6.79,6.79,0,0,0,3.559-1.488l.065.065V1.488h0s-8.865,6.6-9.06,11A5.307,5.307,0,0,0,6.148,17.925Z"/></g></g><g class="h" transform="translate(157 -198)"><g transform="translate(120.718 1785.741)"><path class="e" d="M86.235,31.928C85.041,52.218,44.759,82.654,44.759,82.654S3.282,51.92,3.282,31.928A25.089,25.089,0,0,1,28.646,6.863c7.758,0,16.412,7.161,16.412,7.161s8.355-7.161,16.412-6.863C75.195,6.863,87.13,18.2,86.235,31.928Z"/><path class="f" d="M61.17,6.863c-8.057,0-16.412,6.863-16.412,6.863l-.3-.3V82.654h0S85.041,51.92,85.937,31.928C87.13,18.2,75.195,6.863,61.17,6.863Z"/></g></g></g></svg>