<svg xmlns="http://www.w3.org/2000/svg" xmlns:xlink="http://www.w3.org/1999/xlink" width="189.902" height="257.863" viewBox="0 0 189.902 257.863"><defs><style>.a,.b{fill:#fff;}.a{stroke:#707070;}.b{stroke:#d1d1d1;stroke-width:0.5px;}.c,.e{fill:#d66142;}.c{font-size:20px;font-family:AlwynNew-Bold, Alwyn New;font-weight:700;}.d{clip-path:url(#c);}.f{fill:#616161;opacity:0.2;}.g{clip-path:url(#d);}.h{clip-path:url(#e);}.i{clip-path:url(#f);}.j{stroke:none;}.k{fill:none;}.l{filter:url(#a);}</style><filter id="a" x="0" y="0" width="189.902" height="257.863" filterUnits="userSpaceOnUse"><feOffset dy="3" input="SourceAlpha"/><feGaussianBlur stdDeviation="3" result="b"/><feFlood flood-opacity="0.161"/><feComposite operator="in" in2="b"/><feComposite in="SourceGraphic"/></filter><clipPath id="c"><rect class="a" width="18" height="18" transform="translate(90 447)"/></clipPath><clipPath id="d"><rect class="a" width="18" height="18" transform="translate(242 633) rotate(180)"/></clipPath><clipPath id="e"><rect class="a" width="41" height="41" transform="translate(355 1772)"/></clipPath><clipPath id="f"><rect class="a" width="41" height="41" transform="translate(355 1848)"/></clipPath></defs><g transform="translate(-438 -1507)"><g class="l" transform="matrix(1, 0, 0, 1, 438, 1507)"><g class="b" transform="translate(9 6)"><rect class="j" width="171.902" height="239.863" rx="10"/><rect class="k" x="0.25" y="0.25" width="171.402" height="239.363" rx="9.75"/></g></g><text class="c" transform="translate(466 1536)"><tspan x="-5.28" y="0">2</tspan></text><text class="c" transform="translate(600 1730) rotate(180)"><tspan x="-5.28" y="0">2</tspan></text><g class="d" transform="translate(367 1093)"><g transform="translate(89.288 446.293)"><path class="e" d="M18.7,6.924c-.259,4.4-8.995,11-8.995,11S.712,11.26.712,6.924a5.441,5.441,0,0,1,5.5-5.436A6.957,6.957,0,0,1,9.771,3.041a6.283,6.283,0,0,1,3.559-1.488A5.2,5.2,0,0,1,18.7,6.924Z"/><path class="f" d="M13.266,1.488A6.79,6.79,0,0,0,9.707,2.977l-.065-.065V17.925h0s8.8-6.665,8.995-11A5.216,5.216,0,0,0,13.266,1.488Z"/></g></g><g class="g" transform="translate(367 1093)"><g transform="translate(223.298 614.326)"><path class="e" d="M.712,12.489C.906,8.089,9.707,1.424,9.707,1.424S18.7,8.089,18.7,12.489a5.441,5.441,0,0,1-5.5,5.436,6.957,6.957,0,0,1-3.559-1.553A6.283,6.283,0,0,1,6.083,17.86,5.2,5.2,0,0,1,.712,12.489Z"/><path class="f" d="M6.148,17.925a6.79,6.79,0,0,0,3.559-1.488l.065.065V1.488h0s-8.865,6.6-9.06,11A5.307,5.307,0,0,0,6.148,17.925Z"/></g></g><g class="h" transform="translate(157 -198)"><g transform="translate(353.379 1770.39)"><path class="e" d="M42.6,15.772C42.008,25.795,22.11,40.829,22.11,40.829S1.621,25.647,1.621,15.772A12.393,12.393,0,0,1,14.15,3.39c3.832,0,8.107,3.538,8.107,3.538s4.127-3.538,8.107-3.39C37.144,3.39,43.04,8.991,42.6,15.772Z"/><path class="f" d="M30.217,3.39c-3.98,0-8.107,3.39-8.107,3.39l-.147-.147v34.2h0S42.008,25.647,42.451,15.772C43.04,8.991,37.144,3.39,30.217,3.39Z"/></g></g><g class="i" transform="translate(157 -198)"><g transform="translate(353.402 1846.464)"><path class="e" d="M1.621,28.448C2.064,18.425,22.11,3.243,22.11,3.243S42.6,18.425,42.6,28.448A12.393,12.393,0,0,1,30.069,40.829c-3.832,0-8.107-3.538-8.107-3.538s-4.127,3.538-8.107,3.39C7.075,40.829,1.179,35.228,1.621,28.448Z"/><path class="f" d="M14,40.829c3.98,0,8.107-3.39,8.107-3.39l.147.147V3.39h0S2.064,18.425,1.621,28.448C1.179,35.228,7.075,40.829,14,40.829Z"/></g></g></g></svg>