<svg xmlns="http://www.w3.org/2000/svg" xmlns:xlink="http://www.w3.org/1999/xlink" width="189.902" height="257.863" viewBox="0 0 189.902 257.863"><defs><style>.a,.b,.c,.d,.e,.p{fill:#fff;}.a{stroke:#333;}.a,.d{stroke-width:2px;}.b{stroke:#707070;}.c{stroke:#d1d1d1;stroke-width:0.5px;}.d{stroke:#d66142;}.f{clip-path:url(#c);}.g{fill:#757575;}.h,.s{fill:#d66142;}.i{fill:#ebb07a;}.j,.m{fill:#616161;}.j,.l,.p{opacity:0.2;}.k{fill:#333;}.n{fill:#9c4129;}.o{fill:#ababab;}.q{fill:#ebebeb;}.r{fill:#ffd675;}.s{font-size:20px;font-family:AlwynNew-Bold, Alwyn New;font-weight:700;}.t{clip-path:url(#d);}.u{clip-path:url(#e);}.v{stroke:none;}.w{fill:none;}.x{filter:url(#a);}</style><filter id="a" x="0" y="0" width="189.902" height="257.863" filterUnits="userSpaceOnUse"><feOffset dy="3" input="SourceAlpha"/><feGaussianBlur stdDeviation="3" result="b"/><feFlood flood-opacity="0.161"/><feComposite operator="in" in2="b"/><feComposite in="SourceGraphic"/></filter><clipPath id="c"><rect class="a" width="115.902" height="177.863" transform="translate(738 729)"/></clipPath><clipPath id="d"><rect class="b" width="18" height="18" transform="translate(90 447)"/></clipPath><clipPath id="e"><rect class="b" width="18" height="18" transform="translate(242 633) rotate(180)"/></clipPath></defs><g transform="translate(-858 -1785)"><g class="x" transform="matrix(1, 0, 0, 1, 858, 1785)"><g class="c" transform="translate(9 6)"><rect class="v" width="171.902" height="239.863" rx="10"/><rect class="w" x="0.25" y="0.25" width="171.402" height="239.363" rx="9.75"/></g></g><g class="d" transform="translate(882 1812)"><rect class="v" width="141.902" height="197.863" rx="10"/><rect class="w" x="1" y="1" width="139.902" height="195.863" rx="9"/></g><rect class="e" width="30" height="50" transform="translate(873 1797)"/><rect class="e" width="30" height="50" transform="translate(1003 1976)"/><g class="f" transform="translate(157 1093)"><g transform="translate(727.012 714.523)"><path class="g" d="M62.39,61.011l-5.515,2.241,1.206,2.413,22.061-.345,1.551-2.068-5-2.241Z"/><path class="h" d="M88.07,26.2c0,1.206-3.792,17.58-4.309,18.958-3.964,8.79-14.477,4.136-14.477,4.136s-9.824,4.826-13.96-3.964c-.689-1.551-5-17.924-5-19.3A11.364,11.364,0,0,1,61.7,14.65c3.447,0,7.411,3.275,7.411,3.275s3.792-3.275,7.411-3.1C83.072,14.822,88.415,19.992,88.07,26.2Z"/><rect class="i" width="14.305" height="14.994" transform="translate(62.39 54.117)"/><path class="j" d="M76.695,57.047v3.619a8.5,8.5,0,0,1-5.86,2.758H68.078c-2.068,0-3.964-1.034-5.86-2.585V57.22l1.206,1.9.345-5h11.2l.345,5Z"/><path class="i" d="M70.835,19.992H68.078c-7.066,0-12.754,4.826-12.754,10.858,0,0,0,14.65.172,15.339,1.034,6.377,6.2,16.028,12.754,16.028h2.758c6.377,0,11.72-9.824,12.754-16.028.172-.689.172-15.339.172-15.339C83.761,24.818,77.9,19.992,70.835,19.992Z"/><path class="k" d="M61.356,37.4a1.454,1.454,0,0,0-.345,1.206,2.305,2.305,0,0,0,2.413,2.068,2.192,2.192,0,0,0,2.413-2.068,3.2,3.2,0,0,0-.345-1.206Z"/><path class="j" d="M70.49,35.5h-1.9l-1.206,9.307L69.456,47.4,71.7,44.811Z"/><path class="k" d="M77.729,37.4a1.454,1.454,0,0,1,.345,1.206,2.305,2.305,0,0,1-2.413,2.068,2.192,2.192,0,0,1-2.413-2.068,3.2,3.2,0,0,1,.345-1.206Z"/><g class="l"><rect class="m" width="5.17" height="1.379" transform="translate(66.871 52.049)"/></g><path class="h" d="M73.248,32.229l7.066.862-7.066.862Z"/><path class="h" d="M65.837,33.953l-6.894-.862,6.894-.862Z"/><path class="h" d="M88.07,25.852a12.3,12.3,0,0,1-1.034,3.964,11.761,11.761,0,0,0-10.341-6.2c-3.619,0-7.411,3.1-7.411,3.1s-3.964-3.1-7.411-3.1a11.441,11.441,0,0,0-10.341,6.549A10.473,10.473,0,0,1,50.5,25.852,11.364,11.364,0,0,1,61.873,14.477c3.447,0,3.964,1.379,7.411,1.379s3.792-1.379,7.411-1.379C83.072,14.477,88.415,19.648,88.07,25.852Z"/><path class="h" d="M66.354,55.324c2.758.862,3.1,5.86,3.1,5.86s.345-5,3.275-5.86Z"/><path class="h" d="M77.557,52.222a3.325,3.325,0,0,1-.517,1.723,5.3,5.3,0,0,0-4.481-2.758H66.009a4.758,4.758,0,0,0-4.481,2.93,4.493,4.493,0,0,1-.517-1.9,5,5,0,0,1,5-5c1.551,0,3.275,2.413,3.275,2.413s1.723-2.413,3.275-2.241A4.487,4.487,0,0,1,77.557,52.222Z"/><path class="g" d="M105.3,65.148l-5.515,5.17-2.241,7.239s8.1-1.551,8.1-1.379Z"/><path class="g" d="M34.3,65.148l5.515,5.17,2.413,7.239s-8.1-1.551-8.1-1.379Z"/><path class="n" d="M37.572,69.112l-.862,1.551-1.723,5.86s10-2.758,9.651-2.585Z"/><path class="o" d="M111.854,84.968l-5.343,1.551-9.824,3.1L96,89.793,83.417,93.585l-.345.172-.689.172-3.792,1.206-1.551.517L72.386,96.86l-2.413.689-9.307,2.758-1.9.517-.517.172-2.241.689-1.551.517-4.481,1.206-6.549,1.9V97.894L39.123,105.3v1.206l-4.653,1.551-11.03,3.275V94.964h0l.172-2.241.345-.862,2.241-5.17,2.241-5.17,2.241-5.515.862-2.068L32.574,71.7l1.551-.345,2.758-.689h.345l.345-.172h.172l.517-.172.862-.172h0l.345-.172,7.411-1.723.862-.172h.345l.862-.172,5.86-1.379h.172l.689-.172,2.241-.517.517-.172,4.309-1.034h14.3l3.447.862H81l.517.172,5.17,1.206,4.653,1.206,8.79,2.068.517.172,2.068.517,2.758.689h.172l1.034.345,2.241,5.515,2.241,5.515.689,1.551Z"/><path class="p" d="M86.691,66.871,71.524,82.038l-.689.517L68.25,85.14h0l-4.136,4.309-.172.172L56.7,96.86,54.462,99.1l-1.034,1.034-1.034,1.034-2.413,2.241-6.549,2.068v-1.9l6.722-6.722,1.206-1.206.689-.689,2.413-2.413.689-.689.689-.689.345-.345,8.445-8.445.172-.172.345-.345h0l2.413-2.413.689-.689,13.271-13.1Z"/><path class="p" d="M105.3,71.352l-8.962,9.134L83.417,93.413l-.172.172-.862.172-3.792,1.206-1.551.517L72.386,96.86l-2.413.689-9.307,2.758-1.9.517-.345.172.345-.345,1.379-1.379L66.526,92.9l.689-.689,3.447-3.619.517-.345L74.454,84.8l16.89-16.718,8.79,2.068.517.172,1.9.345Z"/><path class="j" d="M83.589,93.413l-.345.172-.689.172-3.792,1.206-1.551.517L72.386,96.86l-2.413.689-9.307,2.758-1.9.517-.517.172-2.241.689-1.551.517-1.034-2.068L51.36,95.826,44.638,81.693,41.364,74.8l-.345-.689h0l-1.9-3.792h0v-.172l.345-.172,7.411-1.723.862-.172h.345l.862-.172,5.86-1.379h.172l.689-.172c2.068,2.068,7.066,6.894,12.926,12.581,1.034,1.034,2.241,2.068,3.275,3.1,1.034.862,1.9,1.9,2.93,2.93,2.585,2.758,5.687,5.687,8.79,8.445Z"/><path class="h" d="M69.973,97.549l-9.307,2.758-1.9.517-.517.172-2.241.689L54.462,99.1l-2.413-4.136L44.466,81.693l-2.758-4.826L40.674,74.8l-2.585-4.481L37.4,69.112l.862-.172,15.167-3.792c.172.172.517.689,1.034,1.206,2.068,2.241,7.066,7.239,13.1,13.1,1.034,1.034,2.241,2.068,3.275,3.275l2.93,2.93c2.758,2.758,5.687,5.515,8.617,8.273l-3.792,1.206-1.551.517L72.386,96.86Z"/><path class="q" d="M56.875,63.252l.689,2.413,11.375,6.549-.345-7.756Z"/><path class="q" d="M81.693,63.252,81,65.665,69.629,72.214l.345-7.756Z"/><path class="j" d="M68.25,85.14l2.068,2.241c-.689-.689-1.379-1.551-2.068-2.241-1.206-1.206-2.413-2.413-3.1-3.275l-1.723-1.723,1.723,1.723Z"/><path class="j" d="M71.18,88.242c2.585,2.413,5,4.653,7.411,6.722l-1.551.517-6.377-6.894-2.758-2.93-.345-.345L64.8,82.382l-5.687-5.86-.172-.172.172.172c1.723,1.723,3.619,3.792,5.687,5.86l2.93,2.93.345.345C69.112,86.346,70.146,87.381,71.18,88.242Z"/><path class="j" d="M60.667,100.307l-1.9.517v-.172L56.7,96.86l-2.241-4.309L51.877,87.9l-2.93-5.343,6.2,9.307,2.585,3.964,2.413,3.447Z"/><path class="j" d="M72.386,96.86l-2.413.689L68.25,94.792l-1.723-1.9-2.585-3.275L62.735,88.07l1.379,1.379,3.1,2.758Z"/><path class="j" d="M43.432,98.066l-4.309,7.411v1.206l-4.653,1.379-3.275-.689,4.481-2.068Z"/><path class="j" d="M111.854,84.968l-5.343,1.723-9.824,2.93L96,89.793l-.517-7.411.862-1.9,1.206-2.93,3.1-7.239,1.9.345,2.758.689.172.172,1.034.172,2.241,5.515,2.241,5.343.517,1.551Z"/><path class="o" d="M106.511,86.691l-9.824,2.93V82.727l2.413-5,.345-.517,3.1-6.377L105.3,65.32s7.066,8.962,7.239,8.79c0,0,.172,1.034.517,2.585.345,1.9.862,4.826,1.206,7.756l-2.241.689h-.172Z"/><path class="j" d="M43.6,83.244l-.172,12.409-16.89-2.93V91.345L31.367,74.11,32.4,71.869l4.481-1.034h.172l.345-.172h.172Z"/><path class="o" d="M43.432,97.032,27.576,95.481l-4.136-.345h0a21.248,21.248,0,0,1,.517-3.1C24.818,86,26.714,74.11,26.886,74.11c.172.172,7.239-8.79,7.239-8.79v.172l2.758,5.343L42.915,82.9Z"/><path class="p" d="M114.439,84.278h0l-2.241.689-.172.172h-.345l-.862.172-4.309,1.206,2.241-9.479.517-2.241L105.3,65.148c.345.517,6.894,8.79,7.239,8.79,0,0,.172,1.034.517,2.585v.345c0,.345.172.517.172.862s.172.862.172,1.206a2.186,2.186,0,0,0,.172,1.034v.345l.172,1.034a1.036,1.036,0,0,0,.172.689v.345A7.77,7.77,0,0,1,114.439,84.278Z"/><path class="p" d="M34.125,65.32,30.333,74.8l.345,1.206,3.275,13.96-6.377,5.515L26.2,96.687s-2.068,8.445-2.413,8.79h-.345V95.136h0l.172-2.413.345-.862h0c.172-.689.172-1.379.345-2.068.517-3.619,1.206-8.445,1.9-11.72a1.291,1.291,0,0,1,.172-.862c.345-1.9.517-3.1.689-3.1.172-.172,7.066-8.962,7.066-8.79Z"/><path class="h" d="M29.472,82.038c-.172,1.551-5.17,7.756-5.17,7.756v-.172c.517-3.619,1.206-8.445,1.9-11.72a4.851,4.851,0,0,1,1.379-.172C28.954,77.9,29.816,79.8,29.472,82.038Z"/><path class="h" d="M114.439,84.278l-2.241.689-.172.172h-.345a8,8,0,0,1-1.551-2.93c-.345-2.241.517-4.136,1.9-4.309a5.317,5.317,0,0,1,1.551.172h0l.345,2.068v.345l.172,1.034Z"/><path class="j" d="M57.047,70.318c1.9,3.619-2.585,13.788-2.585,13.788S44.121,80.142,42.915,76.35A4.928,4.928,0,0,1,45.5,70.49a5.124,5.124,0,0,1,2.93,0A6.71,6.71,0,0,1,50.5,68.25,4.991,4.991,0,0,1,57.047,70.318Z"/><path class="r" d="M56.875,71.524c1.206,3.275-2.758,11.03-2.758,11.03s-8.617-2.241-10-5.515a4.238,4.238,0,0,1,2.068-5.687,5.791,5.791,0,0,1,3.1,0,4.341,4.341,0,0,1,2.068-2.241A4.255,4.255,0,0,1,56.875,71.524Z"/><path class="j" d="M53.083,80.142c-3.275-1.034-6.549-2.585-7.066-3.792a1.86,1.86,0,0,1,0-1.9,1.822,1.822,0,0,1,1.034-1.206h.517a9.718,9.718,0,0,1,1.206.172l1.723.517.689-1.551a3.623,3.623,0,0,1,.862-1.206,1.554,1.554,0,0,1,.862-.172,2.144,2.144,0,0,1,2.068,1.379C55.5,73.593,54.29,77.212,53.083,80.142Z"/><path class="j" d="M114.439,84.278a7.464,7.464,0,0,0-.172-.862c0-.517-.172-1.034-.172-1.551v-.345l-.345-1.034v-.345l-.345-2.068h0a7.464,7.464,0,0,0-.172-.862v-.345c0-.345-.172-.689-.172-1.034a7.464,7.464,0,0,0-.172-.862,2.718,2.718,0,0,1-.172-.689c-.345,0-6.894-8.273-7.239-8.79h0l-5.343,5-8.79-2.413-4.653-1.206-5.17-1.206L81,65.492h0l.689-2.241-5-2.241V59.46c3.619-3.275,6.2-9.134,6.722-13.271V45.5l.172-.172c.689-1.379,4.309-17.752,4.309-18.958v-.345h0c.345-6.2-5-11.375-11.375-11.375-3.619,0-3.964,1.379-7.411,1.379V98.066l.689-.172,2.413-.689,4.826-1.379,1.551-.517L82.382,94.1l.689-.172.345-.172L96,89.966l.689-.172,9.824-2.93h0l4.309-1.206h.345l.689-.172h.517l1.9-.517.172-.689Z"/><path class="g" d="M75.489,145.807,81,143.566,79.8,141.153l-22.061.345-1.551,2.068,5,2.241Z"/><path class="h" d="M49.809,180.621c0-1.206,3.792-17.58,4.309-18.958,3.964-8.79,14.477-3.964,14.477-3.964s9.824-4.826,13.96,3.964c.689,1.551,5,17.924,5,19.3a11.364,11.364,0,0,1-11.375,11.375c-3.447,0-7.411-3.1-7.411-3.1s-3.792,3.1-7.411,3.1C54.807,192,49.464,186.825,49.809,180.621Z"/><rect class="i" width="14.305" height="14.994" transform="translate(61.184 137.706)"/><path class="j" d="M61.184,149.771v-3.619a8.5,8.5,0,0,1,5.86-2.758H69.8c2.068,0,3.964,1.034,5.86,2.585V149.6l-1.206-1.9-.345,5h-11.2l-.345-5Z"/><path class="i" d="M67.043,186.825H69.8c7.066,0,12.754-4.826,12.754-10.858,0,0,0-14.65-.172-15.339-1.034-6.377-6.2-16.028-12.754-16.028H66.871c-6.377,0-11.72,9.824-12.754,16.028-.172.689-.172,15.339-.172,15.339C54.117,182,59.977,186.825,67.043,186.825Z"/><path class="k" d="M76.523,169.418a1.454,1.454,0,0,0,.345-1.206,2.305,2.305,0,0,0-2.413-2.068,2.192,2.192,0,0,0-2.413,2.068,3.2,3.2,0,0,0,.345,1.206Z"/><path class="j" d="M67.388,171.314h1.9l1.206-9.307-2.068-2.585-2.241,2.585Z"/><path class="k" d="M60.15,169.418a1.454,1.454,0,0,1-.345-1.206,2.305,2.305,0,0,1,2.413-2.068,2.192,2.192,0,0,1,2.413,2.068,3.2,3.2,0,0,1-.345,1.206Z"/><g class="l"><rect class="m" width="5.17" height="1.379" transform="translate(65.665 153.39)"/></g><path class="h" d="M64.631,174.589l-7.066-.862,7.066-.862Z"/><path class="h" d="M72.042,172.865l6.894.862-6.894.862Z"/><path class="h" d="M49.809,180.966A12.3,12.3,0,0,1,50.843,177a11.761,11.761,0,0,0,10.341,6.2c3.619,0,7.411-3.1,7.411-3.1s3.964,3.1,7.411,3.1a11.441,11.441,0,0,0,10.341-6.549,10.473,10.473,0,0,1,1.034,4.309,11.364,11.364,0,0,1-11.375,11.375c-3.447,0-3.964-1.379-7.411-1.379s-3.792,1.379-7.411,1.379C54.807,192.341,49.464,187.17,49.809,180.966Z"/><path class="h" d="M71.524,151.494c-2.758-.862-3.1-5.86-3.1-5.86s-.345,5-3.275,5.86Z"/><path class="h" d="M60.322,154.6a3.325,3.325,0,0,1,.517-1.723,5.3,5.3,0,0,0,4.481,2.758h6.549a4.758,4.758,0,0,0,4.481-2.93,4.494,4.494,0,0,1,.517,1.9,5,5,0,0,1-5,5c-1.551,0-3.275-2.413-3.275-2.413s-1.723,2.413-3.275,2.241A4.487,4.487,0,0,1,60.322,154.6Z"/><path class="g" d="M32.574,141.67l5.515-5.17,2.413-7.239s-8.1,1.551-8.1,1.379Z"/><path class="g" d="M103.581,141.67l-5.515-5.17-2.241-7.239s8.1,1.551,8.1,1.379Z"/><path class="n" d="M100.307,137.706l.689-1.551,1.723-5.86s-10,2.758-9.651,2.585Z"/><path class="o" d="M26.025,121.85l5.343-1.551,9.824-2.93.689-.172,12.581-3.792.345-.172.689-.172,3.792-1.206,1.551-.517,4.826-1.379,2.413-.689,9.307-2.758,1.9-.517.517-.172,2.413-.689,1.551-.517,4.136-1.206,6.549-1.9v7.411l4.309-7.411v-1.206l4.653-1.379,11.03-3.275v16.373h0l-.172,2.241-.345.862-2.241,5.17-2.241,5.17-2.241,5.515-.862,1.723-1.034,2.241-1.551.345-2.585.862h-.345l-.345.172h-.172l-.517.172-.862.172h0l-.345.172-7.411,1.723-.862.172h-.345l-.862.172-5.86,1.379h-.172l-.689.172-2.241.517-.345.345-4.309,1.034h-14.3l-3.447-.862-.862-.172-.517-.172-5.17-1.206-4.653-1.206-8.79-2.068-.517-.172-1.9-.345-2.758-.689H32.4l-1.034-.345-2.241-5.515-2.241-5.515L26.2,122.54Z"/><path class="p" d="M51.187,139.947,66.354,124.78l.689-.517,2.585-2.585h0l4.136-4.309.172-.172,7.239-7.239,2.241-2.241,1.034-1.034,1.034-1.034,2.413-2.241,6.549-2.068v1.9l-6.722,6.722-1.206,1.206-.689.689-2.413,2.413-.689.689-.689.689-.345.345-8.445,8.445-.172.172-.345.345h0l-2.413,2.413-.689.689-13.271,13.1Z"/><path class="p" d="M32.574,135.466l8.962-9.134,12.926-12.926.172-.172.862-.172,3.792-1.206,1.551-.517,4.653-1.379,2.413-.689,9.307-2.758,1.9-.517.345-.172-.345.345-1.379,1.379-6.377,6.377-.689.689-3.447,3.619-.517.345-3.275,3.447L46.534,138.74l-8.79-2.068-.517-.172-1.9-.345Z"/><path class="j" d="M54.29,113.405l.345-.172.689-.172,3.792-1.206,1.551-.517,4.826-1.379,2.413-.689,9.307-2.758,1.9-.517.517-.172,2.413-.689,1.551-.517,1.034,2.068,2.068,4.309,6.722,14.133,3.275,6.894.345.689h0l1.9,3.792h0v.172l-.345.172-7.411,1.723-.862.172h-.345l-.862.172-5.86,1.379h-.172l-.689.172c-2.068-2.068-7.066-6.894-12.926-12.581-1.034-1.034-2.241-2.068-3.275-3.1-1.034-.862-1.9-1.9-2.93-2.93-2.758-2.758-5.86-5.687-8.962-8.445Z"/><path class="h" d="M67.905,109.269l9.307-2.758,1.9-.517.517-.172,2.413-.689,1.551,2.585L86,111.854l7.583,13.271,2.758,4.826,1.034,2.068,2.585,4.481.689,1.206-1.034.172L84.451,141.67c-.172-.172-.517-.689-1.034-1.206-2.068-2.241-7.066-7.239-13.1-13.1-1.034-1.034-2.241-2.068-3.275-3.275l-2.93-2.93c-2.758-2.758-5.687-5.515-8.617-8.273l3.792-1.206,1.551-.517,4.826-1.379Z"/><path class="q" d="M81,143.566l-.689-2.413L68.939,134.6l.345,7.756Z"/><path class="q" d="M56.186,143.566l.689-2.413L68.25,134.6l-.345,7.756Z"/><path class="j" d="M69.629,121.678l-2.068-2.241c.689.689,1.379,1.551,2.068,2.241,1.206,1.206,2.413,2.413,3.1,3.275l1.723,1.723-1.723-1.723Z"/><path class="j" d="M66.7,118.576c-2.585-2.413-5-4.653-7.411-6.722l1.551-.517,6.377,6.722,2.758,2.93.345.345,2.758,2.93,5.687,5.86.172.172-.172-.172c-1.723-1.723-3.619-3.792-5.687-5.86l-2.93-2.93-.345-.345A18.942,18.942,0,0,1,66.7,118.576Z"/><path class="j" d="M77.212,106.511l1.9-.517v.172l2.068,3.792,2.241,4.309L86,118.92l2.93,5.343-6.2-9.307-2.585-3.964-2.413-3.447Z"/><path class="j" d="M65.492,109.958l2.413-.689,1.723,2.758,1.723,1.9,2.585,3.275,1.206,1.551-1.379-1.379-3.1-2.758Z"/><path class="j" d="M94.447,108.752l4.309-7.411v-1.206l4.653-1.379,3.275.689-4.481,2.068Z"/><path class="j" d="M26.025,121.85l5.343-1.723,9.824-2.93.689-.172.517,7.411-.862,1.9-1.206,2.93-3.1,7.239-1.9-.345-2.758-.689-.172-.172-1.034-.172-2.241-5.515-2.241-5.343-.517-1.551Z"/><path class="o" d="M31.367,120.127l9.824-2.93v6.894l-2.413,5.17-.345.517-3.1,6.377-2.758,5.515s-7.066-8.962-7.239-8.79c0,0-.172-1.034-.517-2.585-.345-1.9-.862-4.826-1.206-7.756l2.241-.689h.172Z"/><path class="j" d="M94.274,123.574l.172-12.409,16.89,2.93v1.379l-4.826,17.235-1.034,2.241L101,136.155h-.172l-.345.172h-.172Z"/><path class="o" d="M94.447,109.786l15.856,1.379,4.136.345h0a21.248,21.248,0,0,1-.517,3.1c-.862,6.032-2.758,17.924-2.93,17.924-.172-.172-7.239,8.79-7.239,8.79v-.172l-2.758-5-6.032-12.064Z"/><path class="p" d="M23.439,122.54h0l2.241-.689.172-.172H26.2l.862-.172,4.309-1.206-2.241,9.479-.517,2.241,3.964,9.652c-.345-.517-6.894-8.79-7.239-8.79,0,0-.172-1.034-.517-2.585v-.345c0-.345-.172-.517-.172-.862s-.172-.862-.172-1.206a2.186,2.186,0,0,0-.172-1.034V126.5l-.172-1.034a1.036,1.036,0,0,0-.172-.689v-.345A7.771,7.771,0,0,1,23.439,122.54Z"/><path class="p" d="M103.754,141.5l3.792-9.479-.345-1.206-3.275-13.96,6.377-5.515,1.379-1.206s2.068-8.445,2.413-8.79h.345v10.341h0l-.172,2.413-.345.862h0c-.172.689-.172,1.379-.345,2.241-.517,3.619-1.206,8.445-1.9,11.72a1.292,1.292,0,0,1-.172.862c-.345,1.9-.517,3.1-.689,3.1s-7.066,8.79-7.066,8.617Z"/><path class="h" d="M108.407,124.78c.172-1.551,5.17-7.756,5.17-7.756v.172c-.517,3.619-1.206,8.445-1.9,11.72a4.851,4.851,0,0,1-1.379.172C108.924,128.916,108.062,127.021,108.407,124.78Z"/><path class="h" d="M23.439,122.54l2.241-.689.172-.172H26.2a8,8,0,0,1,1.551,2.93c.345,2.241-.517,4.136-1.9,4.309a5.317,5.317,0,0,1-1.551-.172h0l-.172-2.068v-.345l-.172-1.034Z"/><path class="j" d="M80.831,136.5c-1.9-3.619,2.585-13.788,2.585-13.788s10.341,3.964,11.547,7.756a4.928,4.928,0,0,1-2.585,5.86,5.123,5.123,0,0,1-2.93,0,6.71,6.71,0,0,1-2.068,2.241A4.991,4.991,0,0,1,80.831,136.5Z"/><path class="r" d="M81,135.293c-1.206-3.275,2.758-11.03,2.758-11.03s8.617,2.241,10,5.515a4.238,4.238,0,0,1-2.068,5.687,5.791,5.791,0,0,1-3.1,0,4.341,4.341,0,0,1-2.068,2.241A4.255,4.255,0,0,1,81,135.293Z"/><path class="j" d="M84.8,126.676c3.275,1.034,6.549,2.585,7.066,3.792a1.86,1.86,0,0,1,0,1.9,1.822,1.822,0,0,1-1.034,1.206H90.31A9.718,9.718,0,0,1,89.1,133.4l-1.723-.517-.689,1.551a3.622,3.622,0,0,1-.862,1.206,1.554,1.554,0,0,1-.862.172,2.144,2.144,0,0,1-2.068-1.379C82.382,133.225,83.589,129.606,84.8,126.676Z"/><path class="j" d="M23.439,122.54a7.464,7.464,0,0,0,.172.862c0,.517.172,1.034.172,1.551v.345l.172,1.034v.345l.345,2.068h0a7.464,7.464,0,0,0,.172.862v.345c0,.345.172.689.172,1.034a7.465,7.465,0,0,0,.172.862,2.718,2.718,0,0,1,.172.689c.345,0,6.894,8.273,7.239,8.79h0l5.343-5,8.79,2.068,4.653,1.206,5.17,1.206.689.517h0l-.689,2.241,5,2.241v1.551c-3.619,3.275-6.2,9.134-6.722,13.271v.689l-.172.172c-.689,1.379-4.309,17.752-4.309,18.958v.345h0c-.345,6.377,5,11.375,11.375,11.375,3.619,0,3.964-1.379,7.411-1.379V109.1l-.689.172-2.585.689-4.826,1.379-1.551.517-3.792,1.206-.689.172-.345.172L41.708,117.2h-.517l-9.824,2.93h0l-4.309,1.206h-.345l-.689.172h-.517l-1.551.862-.517.172Z"/></g></g><text class="s" transform="translate(886 1814)"><tspan x="-4.87" y="0">J</tspan></text><text class="s" transform="translate(1020 2008) rotate(180)"><tspan x="-4.87" y="0">J</tspan></text><g class="t" transform="translate(787 1371)"><g transform="translate(89.288 446.293)"><path class="h" d="M18.7,6.924c-.259,4.4-8.995,11-8.995,11S.712,11.26.712,6.924a5.441,5.441,0,0,1,5.5-5.436A6.957,6.957,0,0,1,9.771,3.041a6.283,6.283,0,0,1,3.559-1.488A5.2,5.2,0,0,1,18.7,6.924Z"/><path class="j" d="M13.266,1.488A6.79,6.79,0,0,0,9.707,2.977l-.065-.065V17.925h0s8.8-6.665,8.995-11A5.216,5.216,0,0,0,13.266,1.488Z"/></g></g><g class="u" transform="translate(787 1371)"><g transform="translate(223.298 614.326)"><path class="h" d="M.712,12.489C.906,8.089,9.707,1.424,9.707,1.424S18.7,8.089,18.7,12.489a5.441,5.441,0,0,1-5.5,5.436,6.957,6.957,0,0,1-3.559-1.553A6.283,6.283,0,0,1,6.083,17.86,5.2,5.2,0,0,1,.712,12.489Z"/><path class="j" d="M6.148,17.925a6.79,6.79,0,0,0,3.559-1.488l.065.065V1.488h0s-8.865,6.6-9.06,11A5.307,5.307,0,0,0,6.148,17.925Z"/></g></g></g></svg>