<svg xmlns="http://www.w3.org/2000/svg" xmlns:xlink="http://www.w3.org/1999/xlink" width="189.902" height="257.863" viewBox="0 0 189.902 257.863"><defs><style>.a,.b,.c,.d,.e{fill:#fff;}.a{stroke:#333;}.a,.d{stroke-width:2px;}.b{stroke:#707070;}.c{stroke:#d1d1d1;stroke-width:0.5px;}.d{stroke:#d66142;}.f{clip-path:url(#c);}.g{fill:#c9c9c9;}.h{fill:#616161;opacity:0.2;}.i{fill:#fdd8ab;}.j{fill:#ebebeb;}.k{fill:#333;}.l,.o{fill:#d66142;}.m{fill:#d66f53;}.n{fill:#ffd675;}.o{font-size:20px;font-family:AlwynNew-Bold, Alwyn New;font-weight:700;}.p{clip-path:url(#d);}.q{clip-path:url(#e);}.r{stroke:none;}.s{fill:none;}.t{filter:url(#a);}</style><filter id="a" x="0" y="0" width="189.902" height="257.863" filterUnits="userSpaceOnUse"><feOffset dy="3" input="SourceAlpha"/><feGaussianBlur stdDeviation="3" result="b"/><feFlood flood-opacity="0.161"/><feComposite operator="in" in2="b"/><feComposite in="SourceGraphic"/></filter><clipPath id="c"><rect class="a" width="115.902" height="177.863" transform="translate(738 729)"/></clipPath><clipPath id="d"><rect class="b" width="18" height="18" transform="translate(90 447)"/></clipPath><clipPath id="e"><rect class="b" width="18" height="18" transform="translate(242 633) rotate(180)"/></clipPath></defs><g transform="translate(-1068 -1785)"><g class="t" transform="matrix(1, 0, 0, 1, 1068, 1785)"><g class="c" transform="translate(9 6)"><rect class="r" width="171.902" height="239.863" rx="10"/><rect class="s" x="0.25" y="0.25" width="171.402" height="239.363" rx="9.75"/></g></g><g class="d" transform="translate(1092 1812)"><rect class="r" width="141.902" height="197.863" rx="10"/><rect class="s" x="1" y="1" width="139.902" height="195.863" rx="9"/></g><rect class="e" width="30" height="50" transform="translate(1083 1797)"/><rect class="e" width="30" height="50" transform="translate(1213 1976)"/><g class="f" transform="translate(367 1093)"><g transform="translate(730.68 720.025)"><path class="g" d="M92.2,50.748l-.326,3.264-.163,1.958-.49,8.322-.163,1.958-.163,2.611h0l-.326,2.448H87.789l-1.795.163H81.426l-2.611.163L67.066,71.8H66.9l-11.749-.163-2.611-.163H47.974l-.816-.163H43.405l-.163-2.448h0l-.326-2.611V64.292l-.653-8.322L42.1,54.012l-.163-3.264Z"/><path class="h" d="M89.748,50.748,74.9,61.518h0a11.311,11.311,0,0,1-4.406,3.59,7.306,7.306,0,0,1-3.264.653h-.163V50.911H89.748Z"/><path class="i" d="M100.191,83.547l-9.464,2.774-.979.326h-.326c-.816-1.305-1.305-2.121-1.632-2.611l-.163-.163h0v.163a12.835,12.835,0,0,0-1.469,3.59l-2.611.816-16.481,4.9-10.28,3.1-3.427.979a11.243,11.243,0,0,1-.49-1.305c-5.874-2.611-3.264-6.69-6.2-11.749a.16.16,0,0,0-.163-.163c0-.163-.163-.163-.163-.326-.326.49-7.017,10.77-8.159,18.113l-.816.163-6.69,1.958h-.163C30.351,89.421,34.92,79.631,39,73.756c.326-.326.49-.816.816-1.142s.49-.653.816-.979h0c.163-.163.326-.49.653-.653a1.274,1.274,0,0,1,.653-.653l1.469-1.469h0l.326-.326.326-.326c.163,0,.163-.163.326-.326l.49-.49a9.99,9.99,0,0,0,.979-.816l1.632.326h.326l.653.163h.163l2.121-.163,3.264-.163,3.59-.163,9.791-.326h0l9.954.326,3.427.163,3.264.163,2.121.163h.163l.653-.163H87.3l1.469-.326a6.457,6.457,0,0,0,1.142.816l.49.49c0,.163.163.163.326.326.163,0,.163.163.326.326l.326.326h0c.163,0,.163.163.326.326l.326.326c.163.326.49.49.653.816l.49.49v.163c.163.163.326.49.653.653h0c.326.326.49.653.816.979s.49.816.816,1.142A69.04,69.04,0,0,1,100.191,83.547Z"/><path class="h" d="M67.066,77.346h2.121l-.979,7.833H67.066Z"/><path class="h" d="M67.066,50.748H44.221L59.07,61.518h0S63.8,65.76,66.74,65.76H66.9V50.748Z"/><path class="h" d="M67.066,77.346H64.945l.979,7.833h1.142Z"/><path class="h" d="M59.07,83.873c-11.1-2.448-16.97-6.2-20.234-9.954a29.433,29.433,0,0,1,5.711-6.364Z"/><path class="i" d="M86.974,70.329A11.591,11.591,0,0,1,84.036,78,17.737,17.737,0,0,1,78,82.731h0c-.979.49-1.958.816-3.1,1.305a30.361,30.361,0,0,1-6.69,1.305H65.924a21.2,21.2,0,0,1-6.69-1.305,25.106,25.106,0,0,1-3.1-1.305h0A17.737,17.737,0,0,1,50.1,78a12.488,12.488,0,0,1-2.937-7.669c0-2.121-.49-2.284.653-4.079h5.874L63.8,66.087V63.966a7.306,7.306,0,0,0,3.264.653h.326a10.55,10.55,0,0,0,3.264-.653v2.121l10.117.163h5.874C87.463,68.045,86.974,68.208,86.974,70.329Z"/><path class="h" d="M86.321,66.25H80.446l-2.774,8.812a9.3,9.3,0,0,0-2.121-.163c-4.243,0-8.485,3.59-8.485,3.59S62.5,74.9,58.417,74.9a10.773,10.773,0,0,0-2.284.163L53.359,66.25H47.485c-.979,1.795-.653,1.958-.653,4.079A12.488,12.488,0,0,0,49.769,78h0l.49.49.653.653c.326.326.653.49.816.816a2.253,2.253,0,0,0,.653.49,3.553,3.553,0,0,0,1.305.816c.163.163.163.326.326.326.653.326,1.142.816,1.795,1.142h0c.979.49,1.958.816,3.1,1.305a30.361,30.361,0,0,0,6.69,1.305h2.284a21.2,21.2,0,0,0,6.69-1.305,17.684,17.684,0,0,0,3.1-1.305h0a12.17,12.17,0,0,0,1.958-1.142c.163,0,.163-.163.326-.163a9.052,9.052,0,0,0,1.305-.979,2.253,2.253,0,0,1,.653-.49c.326-.326.653-.49.816-.816a2.865,2.865,0,0,0,.653-.816c.163-.163.326-.326.326-.49h0a12.488,12.488,0,0,0,2.937-7.669C86.974,68.208,87.463,68.045,86.321,66.25Z"/><path class="i" d="M70.493,62.66v1.469a7.306,7.306,0,0,1-3.264.653H66.9a10.55,10.55,0,0,1-3.264-.653V62.66a1.471,1.471,0,0,1,.163-.816c0-.163.163-.326.163-.49a3.423,3.423,0,0,1,3.1-2.121h.326a3.082,3.082,0,0,1,2.937,1.795c.163.326.326.49.326.816A1.471,1.471,0,0,0,70.493,62.66Z"/><path class="h" d="M70.493,62.66v1.469a7.306,7.306,0,0,1-3.264.653H66.9a10.55,10.55,0,0,1-3.264-.653V62.66a1.471,1.471,0,0,1,.163-.816c0-.163.163-.326.163-.49A10.059,10.059,0,0,0,66.9,62.5h.326A7.572,7.572,0,0,0,70,61.028c.163.326.326.49.326.816A1.471,1.471,0,0,1,70.493,62.66Z"/><path class="h" d="M95.132,73.919c-3.1,3.753-9.138,7.506-20.234,9.954l6.038-6.853.326-.49,4.732-5.385L86.974,70l2.448-2.774.49.49c.163,0,.163.163.326.326l.326.326.326.326h0l.326.326.326.326c.163.326.49.49.816.816l.49.49.163.163c.163.163.326.49.653.653h0c.326.326.49.653.816.979A2.068,2.068,0,0,0,95.132,73.919Z"/><path class="j" d="M96.6,62.5a10.037,10.037,0,0,1-.163,2.121A15.633,15.633,0,0,1,93.5,71.8h0a26.97,26.97,0,0,1-7.669,6.853,1.237,1.237,0,0,1-.653.326A41.986,41.986,0,0,1,78,82.568a.16.16,0,0,0-.163.163h-.163c-.163,0-.326.163-.49.163-.49.163-.979.49-1.469.653-.326.163-.49.163-.816.326l6.364-12.4,2.284-4.243.49-.979,8-15.5A18.409,18.409,0,0,1,96.6,62.5Z"/><path class="j" d="M59.07,83.873a60.8,60.8,0,0,1-10.28-4.9c-.163-.163-.49-.326-.653-.49-7.18-4.569-9.954-9.627-10.607-14.033,0-.49,0-1.305,0-1.958a19.789,19.789,0,0,1,4.406-11.749Z"/><path class="k" d="M44.547,70.493l2.121,2.774L45.69,70Z"/><path class="k" d="M51.727,77.183l2.121,2.774-.979-3.264Z"/><path class="k" d="M40.794,54.012l2.121,2.774-.979-3.264Z"/><path class="k" d="M43.568,59.886,45.69,62.66l-.979-3.427Z"/><path class="k" d="M46.342,65.6,48.3,68.371l-.816-3.264Z"/><path class="k" d="M49.116,71.472l1.958,2.611-.816-3.264Z"/><path class="k" d="M48.79,78.978c-.163-.163-.49-.326-.653-.49L47,76.857l1.142-.49Z"/><path class="k" d="M39.163,58.907l2.121,2.774L40.3,58.417Z"/><path class="k" d="M41.937,64.781l1.958,2.611-.816-3.264Z"/><path class="k" d="M38.51,65.76l-.979-1.142V62.5h.163Z"/><path class="k" d="M40.3,69.84l2.121,2.774-.979-3.264Z"/><path class="k" d="M89.421,70.493,87.3,73.267,88.279,70Z"/><path class="k" d="M82.241,77.183,80.12,79.957l.979-3.264Z"/><path class="k" d="M93.174,54.012l-2.121,2.774.979-3.264Z"/><path class="k" d="M90.4,59.886,88.279,62.66l.979-3.427Z"/><path class="k" d="M87.626,65.6l-1.958,2.774.816-3.264Z"/><path class="k" d="M85.015,71.472l-2.121,2.611.979-3.264Z"/><path class="k" d="M85.179,78.978c.163-.163.49-.326.653-.49l1.142-1.632-1.142-.49Z"/><path class="k" d="M94.806,58.907l-1.958,2.774.816-3.264Z"/><path class="k" d="M92.2,64.781l-2.121,2.611.979-3.264Z"/><path class="k" d="M96.6,62.5a10.037,10.037,0,0,1-.163,2.121l-.816,1.142L96.6,62.5Z"/><path class="k" d="M93.664,69.84l-2.121,2.774.979-3.264Z"/><path class="l" d="M87.463,84.2a12.836,12.836,0,0,0-1.469,3.59l-2.611.816L66.9,93.5l-10.28,3.1L53.2,97.58a11.243,11.243,0,0,1-.49-1.305c-5.874-2.611-3.264-6.69-6.2-11.749a.16.16,0,0,0-.163-.163,12.447,12.447,0,0,1,4.406-5.222,13.294,13.294,0,0,1,7.506-2.448c4.079,0,8.648,3.59,8.648,3.59s4.243-3.59,8.485-3.59a13.16,13.16,0,0,1,7.506,2.284A12.677,12.677,0,0,1,87.463,84.2Z"/><path class="l" d="M95.3,26.272c-.816,13.707-28.23,34.594-28.23,34.594S38.673,39.815,38.673,26.108A17.132,17.132,0,0,1,55.807,8.975c5.385,0,11.259,4.732,11.259,4.732s5.548-4.732,11.1-4.732C87.626,9.3,95.785,16.807,95.3,26.272Z"/><path class="h" d="M56.623,96.438l-3.427.979a11.243,11.243,0,0,1-.49-1.305c-6.2-2.611-3.1-6.853-6.527-12.238-.326.49-7.017,10.77-8.322,18.113l-.816.326C35.246,94.48,47.974,80.936,47.974,80.936S52.38,94.48,56.623,96.438Z"/><path class="h" d="M90.563,86.321l-.816.326h-.326c-.816-1.305-1.305-2.121-1.632-2.611l-.163-.163a14.558,14.558,0,0,0-1.632,3.753l-2.611.816a20.658,20.658,0,0,0,2.121-8A54.9,54.9,0,0,1,90.563,86.321Z"/><path class="i" d="M71.145,28.067c-3.264,0-3.1,1.469-3.916,2.937-.816-1.632-1.142-2.937-4.243-2.937s-7.669,8.975-7.669,16.644A22.488,22.488,0,0,0,59.4,58.091h0a10.688,10.688,0,0,0,4.569,3.59,9.541,9.541,0,0,0,3.1.653h0a7.071,7.071,0,0,0,3.1-.653,11.744,11.744,0,0,0,4.569-3.59h0a22.488,22.488,0,0,0,4.079-13.381C78.651,37.2,74.9,28.393,71.145,28.067Z"/><path class="k" d="M58.254,43.732c0,.163-.163.326-.163.49,0,.979,1.142,1.632,2.448,1.632s2.448-.816,2.448-1.632a.6.6,0,0,0-.163-.49Z"/><path class="k" d="M75.714,43.732c0,.163.163.326.163.49,0,.979-1.142,1.632-2.448,1.632s-2.448-.816-2.448-1.632a.6.6,0,0,1,.163-.49Z"/><path class="m" d="M70.329,55.97H63.8a4.133,4.133,0,0,0,3.264,1.469h0A4.4,4.4,0,0,0,70.329,55.97Z"/><path class="l" d="M67.066,55.807c-1.469-1.795-3.59.49-3.59.49h7.18S68.534,54.012,67.066,55.807Z"/><path class="h" d="M67.066,46.506h0l-1.958,6.038A2.665,2.665,0,0,0,66.9,53.2a3.414,3.414,0,0,0,1.958-.653Z"/><path class="l" d="M70.656,40.142l4.9.163h0l.163.163,1.958,2.121-2.284-1.958h.163l-4.9.326Z"/><path class="l" d="M63.8,40.958l-4.9-.326h0l-2.121,1.958,1.958-2.121V40.3h.163l4.9-.163Z"/><path class="l" d="M87.463,84.2a12.836,12.836,0,0,0-1.469,3.59l-2.611.816L66.9,93.5l-10.28,3.1L53.2,97.58a11.243,11.243,0,0,1-.49-1.305c-5.874-2.611-3.264-6.69-6.2-11.749a.16.16,0,0,0-.163-.163,12.447,12.447,0,0,1,4.406-5.222,13.294,13.294,0,0,1,7.506-2.448c4.079,0,8.648,3.59,8.648,3.59s4.243-3.59,8.485-3.59a13.16,13.16,0,0,1,7.506,2.284A12.677,12.677,0,0,1,87.463,84.2Z"/><path class="l" d="M95.3,26.272c-.816,13.707-28.23,34.594-28.23,34.594S38.673,39.815,38.673,26.108A17.132,17.132,0,0,1,55.807,8.975c5.385,0,11.259,4.732,11.259,4.732s5.548-4.732,11.1-4.732C87.626,9.3,95.785,16.807,95.3,26.272Z"/><path class="h" d="M56.623,96.438l-3.427.979a11.243,11.243,0,0,1-.49-1.305c-6.2-2.611-3.1-6.853-6.527-12.238-.326.49-7.017,10.77-8.322,18.113l-.816.326C35.246,94.48,47.974,80.936,47.974,80.936S52.38,94.48,56.623,96.438Z"/><path class="h" d="M90.563,86.321l-.816.326h-.326c-.816-1.305-1.305-2.121-1.632-2.611l-.163-.163a14.558,14.558,0,0,0-1.632,3.753l-2.611.816a20.658,20.658,0,0,0,2.121-8A54.9,54.9,0,0,1,90.563,86.321Z"/><path class="i" d="M71.145,28.067c-3.264,0-3.1,1.469-3.916,2.937-.816-1.632-1.142-2.937-4.243-2.937s-7.669,8.975-7.669,16.644A22.488,22.488,0,0,0,59.4,58.091h0a10.688,10.688,0,0,0,4.569,3.59,9.541,9.541,0,0,0,3.1.653h0a7.071,7.071,0,0,0,3.1-.653,11.744,11.744,0,0,0,4.569-3.59h0a22.488,22.488,0,0,0,4.079-13.381C78.651,37.2,74.9,28.393,71.145,28.067Z"/><path class="k" d="M58.254,43.732c0,.163-.163.326-.163.49,0,.979,1.142,1.632,2.448,1.632s2.448-.816,2.448-1.632a.6.6,0,0,0-.163-.49Z"/><path class="k" d="M75.714,43.732c0,.163.163.326.163.49,0,.979-1.142,1.632-2.448,1.632s-2.448-.816-2.448-1.632a.6.6,0,0,1,.163-.49Z"/><path class="m" d="M70.329,55.97H63.8a4.133,4.133,0,0,0,3.264,1.469h0A4.4,4.4,0,0,0,70.329,55.97Z"/><path class="l" d="M67.066,55.807c-1.469-1.795-3.59.49-3.59.49h7.18S68.534,54.012,67.066,55.807Z"/><path class="h" d="M67.066,46.506h0l-1.958,6.038A2.665,2.665,0,0,0,66.9,53.2a3.414,3.414,0,0,0,1.958-.653Z"/><path class="l" d="M70.656,40.142l4.9.163h0l.163.163,1.958,2.121-2.284-1.958h.163l-4.9.326Z"/><path class="l" d="M63.8,40.958l-4.9-.326h0l-2.121,1.958,1.958-2.121V40.3h.163l4.9-.163Z"/><path class="h" d="M70.493,28.23c.163,0,.49-.163.653-.163C70.819,28.067,70.656,28.23,70.493,28.23Z"/><path class="h" d="M68.7,29.046Z"/><path class="h" d="M69.187,28.719Z"/><path class="h" d="M69.84,28.393h0Z"/><path class="h" d="M74.9,18.765c.163,3.753-7.833,9.791-7.833,9.791S58.907,22.682,59.4,18.439a5.422,5.422,0,0,1,5.222-4.732,6.515,6.515,0,0,1,2.937,1.142,5.6,5.6,0,0,1,2.774-1.142C72.451,13.87,74.735,16.481,74.9,18.765Z"/><path class="n" d="M74.409,19.092c-.163,3.427-7.18,8.648-7.18,8.648s-7.18-5.222-7.18-8.812a4.252,4.252,0,0,1,4.406-4.243,5.6,5.6,0,0,1,2.774,1.142A5.6,5.6,0,0,1,70,14.686,4.609,4.609,0,0,1,74.409,19.092Z"/><path class="h" d="M67.229,25.456c-2.611-2.121-5.222-4.9-5.222-6.2a2.371,2.371,0,0,1,2.448-2.284,5.037,5.037,0,0,1,1.632.816l1.305.979,1.305-.979a2.932,2.932,0,0,1,1.469-.653,2.62,2.62,0,0,1,1.795.816,1.507,1.507,0,0,1,.49,1.469C72.288,20.4,69.84,23.171,67.229,25.456Z"/><path class="h" d="M95.132,73.919a4.959,4.959,0,0,1-.816-1.142l-.326-.326c-.163-.163-.326-.49-.49-.653h0a15.633,15.633,0,0,0,2.937-7.18A9.3,9.3,0,0,0,96.6,62.5,19.789,19.789,0,0,0,92.2,50.748H78.815c7.506-7.18,16.155-16.97,16.481-24.477.49-9.464-7.669-17.134-17.134-17.134-5.548,0-11.1,4.732-11.1,4.732h0V93.5l16.481-4.9,2.121-.653.49-.163h0v-.163a10.506,10.506,0,0,1,1.632-3.753h0a.16.16,0,0,0,.163.163,28.321,28.321,0,0,1,1.632,2.611h.326l.326-.163.49-.163,9.464-2.774A40.491,40.491,0,0,0,95.132,73.919Z"/><path class="g" d="M38.347,145.065l.326-3.264.163-1.958.49-8.322.163-1.958.163-2.611h0l.326-2.448h2.774l1.795-.163h4.569l2.611-.163,11.749-.163h.163l11.749.163,2.611.163h4.569l.816.163h3.753l.163,2.448h0l.326,2.611v1.958l.653,8.322.163,1.958.163,3.264Z"/><path class="h" d="M40.794,145.065l14.849-10.77h0a11.31,11.31,0,0,1,4.406-3.59,7.305,7.305,0,0,1,3.264-.653h.163V144.9H40.794Z"/><path class="i" d="M30.351,112.266l9.464-2.774.979-.326h.326c.816,1.305,1.305,2.121,1.632,2.611l.163.163h0v-.163a12.835,12.835,0,0,0,1.469-3.59L47,107.371l16.481-4.9,10.28-3.1,3.427-.979a11.243,11.243,0,0,1,.49,1.305c5.874,2.611,3.264,6.69,6.2,11.749a.16.16,0,0,0,.163.163c0,.163.163.163.163.326.326-.49,7.017-10.77,8.159-18.113l.816-.163,6.69-1.958h.163c.163,14.686-4.406,24.477-8.485,30.351-.326.326-.49.816-.816,1.142s-.49.653-.816.979h0c-.163.163-.326.49-.653.653a1.274,1.274,0,0,1-.653.653l-1.469,1.469h0l-.326.326-.326.326c-.163,0-.163.163-.326.326l-.49.49a1.756,1.756,0,0,1-.816.653l-1.632-.326h-.326l-.653-.163h-.163l-2.121.163-3.264.163H73.267l-9.791.326h0l-9.954-.326-3.427-.163-3.264-.163-2.121-.163h-.163l-.49.163h-.326l-1.469.326a6.458,6.458,0,0,0-1.142-.816l-.49-.49c0-.163-.163-.163-.326-.326-.163,0-.163-.163-.326-.326l-.326-.326h0c-.163,0-.163-.163-.326-.326L39,125.973c-.163-.326-.49-.49-.653-.816l-.49-.49V124.5c-.163-.163-.326-.49-.653-.653h0c-.326-.326-.49-.653-.816-.979s-.49-.816-.816-1.142A32.017,32.017,0,0,1,30.351,112.266Z"/><path class="h" d="M63.476,118.467H61.355l.979-7.833h1.142Z"/><path class="h" d="M63.476,145.065H86.321l-14.849-10.77h0s-4.732-4.243-7.669-4.243h-.163v15.012Z"/><path class="h" d="M63.476,118.467H65.6l-.979-7.833H63.476Z"/><path class="h" d="M71.472,111.94c11.1,2.448,16.97,6.2,20.234,9.954a29.433,29.433,0,0,1-5.711,6.364Z"/><path class="i" d="M43.568,125.483a11.591,11.591,0,0,1,2.937-7.669,17.737,17.737,0,0,1,6.038-4.732h0c.979-.49,1.958-.816,3.1-1.305a30.361,30.361,0,0,1,6.69-1.305h2.284a21.2,21.2,0,0,1,6.69,1.305,25.105,25.105,0,0,1,3.1,1.305h0a17.737,17.737,0,0,1,6.038,4.732,12.488,12.488,0,0,1,2.937,7.669c0,2.121.49,2.284-.653,4.079H76.857l-10.117.163v2.121a7.306,7.306,0,0,0-3.264-.653H63.15a10.55,10.55,0,0,0-3.264.653v-2.121l-10.117-.163H43.895C43.079,127.768,43.568,127.6,43.568,125.483Z"/><path class="h" d="M44.221,129.563H50.1l2.774-8.812a9.3,9.3,0,0,0,2.121.163c4.243,0,8.485-3.59,8.485-3.59s4.569,3.59,8.648,3.59a10.773,10.773,0,0,0,2.284-.163l2.774,8.812h5.874c.979-1.795.653-1.958.653-4.079a12.488,12.488,0,0,0-2.937-7.669h0l-.49-.49-.653-.653c-.326-.326-.653-.49-.816-.816a2.253,2.253,0,0,0-.653-.49,3.553,3.553,0,0,0-1.305-.816c-.163-.163-.163-.326-.326-.326-.653-.326-1.142-.816-1.795-1.142h0c-.979-.49-1.958-.816-3.1-1.305a30.361,30.361,0,0,0-6.69-1.305H62.66a21.2,21.2,0,0,0-6.69,1.305,17.683,17.683,0,0,0-3.1,1.305h0a12.171,12.171,0,0,0-1.958,1.142c-.163,0-.163.163-.326.163a9.051,9.051,0,0,0-1.305.979,2.253,2.253,0,0,1-.653.49c-.326.326-.653.49-.816.816a2.865,2.865,0,0,0-.653.816c-.163.163-.326.326-.326.49h0a12.488,12.488,0,0,0-2.937,7.669C43.568,127.6,43.079,127.768,44.221,129.563Z"/><path class="i" d="M60.049,133.153v-1.469a7.305,7.305,0,0,1,3.264-.653h.326a10.549,10.549,0,0,1,3.264.653v1.469a1.471,1.471,0,0,1-.163.816c0,.163-.163.326-.163.49a3.423,3.423,0,0,1-3.1,2.121H63.15a3.082,3.082,0,0,1-2.937-1.795c-.163-.326-.326-.49-.326-.816A1.471,1.471,0,0,0,60.049,133.153Z"/><path class="h" d="M60.049,133.153v-1.469a7.305,7.305,0,0,1,3.264-.653h.326a10.549,10.549,0,0,1,3.264.653v1.469a1.471,1.471,0,0,1-.163.816c0,.163-.163.326-.163.49a10.06,10.06,0,0,0-2.937-1.142h-.326a7.572,7.572,0,0,0-2.774,1.469c-.163-.326-.326-.49-.326-.816A1.471,1.471,0,0,1,60.049,133.153Z"/><path class="h" d="M35.409,121.893c3.1-3.753,9.138-7.506,20.234-9.954l-6.038,6.853-.326.326L44.547,124.5l-.979,1.142-2.448,2.774-.49-.49c-.163,0-.163-.163-.326-.326l-.326-.326-.326-.326h0l-.326-.326L39,126.3c-.163-.326-.49-.49-.816-.816l-.49-.49-.163-.163c-.163-.163-.326-.49-.653-.653h0c-.326-.326-.49-.653-.816-.979A2.014,2.014,0,0,0,35.409,121.893Z"/><path class="j" d="M33.941,133.316a10.037,10.037,0,0,1,.163-2.121,15.633,15.633,0,0,1,2.937-7.18h0a26.97,26.97,0,0,1,7.669-6.853,1.237,1.237,0,0,1,.653-.326,41.986,41.986,0,0,1,7.18-3.59.16.16,0,0,0,.163-.163h.163c.163,0,.326-.163.49-.163.49-.163.979-.49,1.469-.653.326-.163.49-.163.816-.326l-6.364,12.4L47,128.584l-.49.979-8,15.5A18.409,18.409,0,0,1,33.941,133.316Z"/><path class="j" d="M71.472,111.94a60.8,60.8,0,0,1,10.28,4.9c.163.163.49.326.653.49,7.18,4.569,9.954,9.627,10.607,14.033a9.3,9.3,0,0,1,.163,2.121,19.789,19.789,0,0,1-4.406,11.749Z"/><path class="k" d="M85.994,125.32l-2.121-2.774.979,3.264Z"/><path class="k" d="M78.815,118.63l-2.121-2.774.979,3.264Z"/><path class="k" d="M89.748,141.8l-2.121-2.774.979,3.264Z"/><path class="k" d="M86.974,135.927l-2.121-2.774.979,3.427Z"/><path class="k" d="M84.2,130.216l-1.958-2.774.816,3.264Z"/><path class="k" d="M81.426,124.341l-1.958-2.611.816,3.264Z"/><path class="k" d="M81.752,116.835c.163.163.49.326.653.49l1.142,1.632-1.142.49Z"/><path class="k" d="M91.379,136.906l-2.121-2.774.979,3.264Z"/><path class="k" d="M88.605,131.031l-1.958-2.611.816,3.264Z"/><path class="k" d="M92.032,130.052l.816,1.142a9.3,9.3,0,0,1,.163,2.121h-.163Z"/><path class="k" d="M90.237,125.973,88.116,123.2l.979,3.264Z"/><path class="k" d="M41.121,125.32l2.121-2.774-.979,3.264Z"/><path class="k" d="M48.3,118.63l2.121-2.774-.979,3.264Z"/><path class="k" d="M37.368,141.8l2.121-2.774-.979,3.264Z"/><path class="k" d="M40.142,135.927l2.121-2.774-.979,3.427Z"/><path class="k" d="M42.916,130.216l1.958-2.774-.816,3.264Z"/><path class="k" d="M45.526,124.341l2.121-2.611-.979,3.264Z"/><path class="k" d="M45.363,116.835c-.163.163-.49.326-.653.49l-1.142,1.632,1.142.49Z"/><path class="k" d="M35.736,136.906l1.958-2.774-.816,3.264Z"/><path class="k" d="M38.347,131.031l2.121-2.611-.979,3.264Z"/><path class="k" d="M33.941,133.316a10.037,10.037,0,0,1,.163-2.121l.816-1.142-.979,3.264Z"/><path class="k" d="M36.878,125.973,39,123.2l-.979,3.264Z"/><path class="l" d="M43.079,111.613a12.835,12.835,0,0,0,1.469-3.59l2.611-.816,16.481-4.9,10.28-3.1,3.427-.979a11.243,11.243,0,0,1,.49,1.305c5.874,2.611,3.264,6.69,6.2,11.749a.16.16,0,0,0,.163.163,12.447,12.447,0,0,1-4.406,5.222,13.294,13.294,0,0,1-7.506,2.448c-4.079,0-8.648-3.59-8.648-3.59s-4.243,3.59-8.485,3.59a13.16,13.16,0,0,1-7.506-2.284A12.677,12.677,0,0,1,43.079,111.613Z"/><path class="l" d="M35.246,169.541c.816-13.707,28.23-34.594,28.23-34.594S91.869,156,91.869,169.7a17.132,17.132,0,0,1-17.134,17.134c-5.385,0-11.259-4.732-11.259-4.732s-5.548,4.732-11.1,4.732C42.916,186.512,34.757,179.006,35.246,169.541Z"/><path class="h" d="M73.919,99.375l3.427-.979a11.243,11.243,0,0,1,.49,1.305c6.2,2.611,3.1,6.853,6.527,12.238.326-.49,7.017-10.77,8.322-18.113L93.5,93.5c1.795,7.833-10.933,21.376-10.933,21.376S78.162,101.333,73.919,99.375Z"/><path class="h" d="M39.978,109.492l.816-.326h.326c.816,1.305,1.305,2.121,1.632,2.611l.163.163a14.558,14.558,0,0,0,1.632-3.753l2.611-.816a20.658,20.658,0,0,0-2.121,8A54.9,54.9,0,0,1,39.978,109.492Z"/><path class="i" d="M59.4,167.746c3.264,0,3.1-1.469,3.916-2.937.816,1.632,1.142,2.937,4.243,2.937s7.669-8.975,7.669-16.644a22.488,22.488,0,0,0-4.079-13.381h0a10.688,10.688,0,0,0-4.569-3.59,9.542,9.542,0,0,0-3.1-.653h0a7.071,7.071,0,0,0-3.1.653,11.744,11.744,0,0,0-4.569,3.59h0A22.488,22.488,0,0,0,51.727,151.1C51.89,158.608,55.643,167.42,59.4,167.746Z"/><path class="k" d="M72.288,152.081c0-.163.163-.326.163-.49,0-.979-1.142-1.632-2.448-1.632s-2.448.816-2.448,1.632a.6.6,0,0,0,.163.49Z"/><path class="k" d="M54.828,152.081c0-.163-.163-.326-.163-.49,0-.979,1.142-1.632,2.448-1.632s2.448.816,2.448,1.632a.6.6,0,0,1-.163.49Z"/><path class="m" d="M60.212,139.843H66.74a4.133,4.133,0,0,0-3.264-1.469h0A4.4,4.4,0,0,0,60.212,139.843Z"/><path class="l" d="M63.476,140.006c1.469,1.795,3.59-.49,3.59-.49h-7.18S62.007,141.8,63.476,140.006Z"/><path class="h" d="M63.476,149.307h0l1.958-6.038a2.665,2.665,0,0,0-1.795-.653,3.414,3.414,0,0,0-1.958.653Z"/><path class="l" d="M59.886,155.671l-4.9-.163h0l-.163-.163-1.958-2.121,2.284,1.958h-.163l4.9-.326Z"/><path class="l" d="M66.74,154.855l4.9.326h0l2.121-1.958L71.8,155.345v.163h-.163l-4.9.163Z"/><path class="l" d="M43.079,111.613a12.835,12.835,0,0,0,1.469-3.59l2.611-.816,16.481-4.9,10.28-3.1,3.427-.979a11.243,11.243,0,0,1,.49,1.305c5.874,2.611,3.264,6.69,6.2,11.749a.16.16,0,0,0,.163.163,12.447,12.447,0,0,1-4.406,5.222,13.294,13.294,0,0,1-7.506,2.448c-4.079,0-8.648-3.59-8.648-3.59s-4.243,3.59-8.485,3.59a13.16,13.16,0,0,1-7.506-2.284A12.677,12.677,0,0,1,43.079,111.613Z"/><path class="l" d="M35.246,169.541c.816-13.707,28.23-34.594,28.23-34.594S91.869,156,91.869,169.7a17.132,17.132,0,0,1-17.134,17.134c-5.385,0-11.259-4.732-11.259-4.732s-5.548,4.732-11.1,4.732C42.916,186.512,34.757,179.006,35.246,169.541Z"/><path class="h" d="M73.919,99.375l3.427-.979a11.243,11.243,0,0,1,.49,1.305c6.2,2.611,3.1,6.853,6.527,12.238.326-.49,7.017-10.77,8.322-18.113L93.5,93.5c1.795,7.833-10.933,21.376-10.933,21.376S78.162,101.333,73.919,99.375Z"/><path class="h" d="M39.978,109.492l.816-.326h.326c.816,1.305,1.305,2.121,1.632,2.611l.163.163a14.558,14.558,0,0,0,1.632-3.753l2.611-.816a20.658,20.658,0,0,0-2.121,8A54.9,54.9,0,0,1,39.978,109.492Z"/><path class="i" d="M59.4,167.746c3.264,0,3.1-1.469,3.916-2.937.816,1.632,1.142,2.937,4.243,2.937s7.669-8.975,7.669-16.644a22.488,22.488,0,0,0-4.079-13.381h0a10.688,10.688,0,0,0-4.569-3.59,9.542,9.542,0,0,0-3.1-.653h0a7.071,7.071,0,0,0-3.1.653,11.744,11.744,0,0,0-4.569,3.59h0A22.488,22.488,0,0,0,51.727,151.1C51.89,158.608,55.643,167.42,59.4,167.746Z"/><path class="k" d="M72.288,152.081c0-.163.163-.326.163-.49,0-.979-1.142-1.632-2.448-1.632s-2.448.816-2.448,1.632a.6.6,0,0,0,.163.49Z"/><path class="k" d="M54.828,152.081c0-.163-.163-.326-.163-.49,0-.979,1.142-1.632,2.448-1.632s2.448.816,2.448,1.632a.6.6,0,0,1-.163.49Z"/><path class="m" d="M60.212,139.843H66.74a4.133,4.133,0,0,0-3.264-1.469h0A4.4,4.4,0,0,0,60.212,139.843Z"/><path class="l" d="M63.476,140.006c1.469,1.795,3.59-.49,3.59-.49h-7.18S62.007,141.8,63.476,140.006Z"/><path class="h" d="M63.476,149.307h0l1.958-6.038a2.665,2.665,0,0,0-1.795-.653,3.414,3.414,0,0,0-1.958.653Z"/><path class="l" d="M59.886,155.671l-4.9-.163h0l-.163-.163-1.958-2.121,2.284,1.958h-.163l4.9-.326Z"/><path class="l" d="M66.74,154.855l4.9.326h0l2.121-1.958L71.8,155.345v.163h-.163l-4.9.163Z"/><path class="h" d="M60.049,167.583c-.163,0-.49.163-.653.163C59.723,167.746,59.886,167.583,60.049,167.583Z"/><path class="h" d="M61.844,166.767Z"/><path class="h" d="M61.355,167.094Z"/><path class="h" d="M60.7,167.42h0Z"/><path class="h" d="M55.643,177.047c-.163-3.753,7.833-9.791,7.833-9.791s8.159,5.874,7.669,10.117a5.422,5.422,0,0,1-5.222,4.732,6.515,6.515,0,0,1-2.937-1.142,5.6,5.6,0,0,1-2.774,1.142C58.091,181.943,55.807,179.332,55.643,177.047Z"/><path class="n" d="M56.133,176.721c.163-3.427,7.18-8.648,7.18-8.648s7.18,5.222,7.18,8.812a4.252,4.252,0,0,1-4.406,4.243,5.6,5.6,0,0,1-2.774-1.142,5.6,5.6,0,0,1-2.774,1.142A4.609,4.609,0,0,1,56.133,176.721Z"/><path class="h" d="M63.313,170.357c2.611,2.121,5.222,4.9,5.222,6.2a2.371,2.371,0,0,1-2.448,2.284,5.037,5.037,0,0,1-1.632-.816l-1.305-.979-1.305.979a2.932,2.932,0,0,1-1.469.653,2.62,2.62,0,0,1-1.795-.816,1.507,1.507,0,0,1-.49-1.469C58.254,175.416,60.7,172.642,63.313,170.357Z"/><path class="h" d="M35.409,121.893a4.959,4.959,0,0,1,.816,1.142l.326.326c.163.163.326.49.49.653h0a15.633,15.633,0,0,0-2.937,7.18,9.3,9.3,0,0,0-.163,2.121,19.789,19.789,0,0,0,4.406,11.749H51.727c-7.506,7.18-16.155,16.97-16.481,24.477-.49,9.464,7.669,17.134,17.134,17.134,5.548,0,11.1-4.732,11.1-4.732h0V102.312L47,107.208l-2.121.653-.49.163h0v.163a10.506,10.506,0,0,1-1.632,3.753h0a.16.16,0,0,0-.163-.163,28.323,28.323,0,0,1-1.632-2.611h-.326l-.163.163-.49.163-9.464,2.774A35.293,35.293,0,0,0,35.409,121.893Z"/></g></g><text class="o" transform="translate(1096 1814)"><tspan x="-6.66" y="0">Q</tspan></text><text class="o" transform="translate(1230 2008) rotate(180)"><tspan x="-6.66" y="0">Q</tspan></text><g class="p" transform="translate(997 1371)"><g transform="translate(89.288 446.293)"><path class="l" d="M18.7,6.924c-.259,4.4-8.995,11-8.995,11S.712,11.26.712,6.924a5.441,5.441,0,0,1,5.5-5.436A6.957,6.957,0,0,1,9.771,3.041a6.283,6.283,0,0,1,3.559-1.488A5.2,5.2,0,0,1,18.7,6.924Z"/><path class="h" d="M13.266,1.488A6.79,6.79,0,0,0,9.707,2.977l-.065-.065V17.925h0s8.8-6.665,8.995-11A5.216,5.216,0,0,0,13.266,1.488Z"/></g></g><g class="q" transform="translate(997 1371)"><g transform="translate(223.298 614.326)"><path class="l" d="M.712,12.489C.906,8.089,9.707,1.424,9.707,1.424S18.7,8.089,18.7,12.489a5.441,5.441,0,0,1-5.5,5.436,6.957,6.957,0,0,1-3.559-1.553A6.283,6.283,0,0,1,6.083,17.86,5.2,5.2,0,0,1,.712,12.489Z"/><path class="h" d="M6.148,17.925a6.79,6.79,0,0,0,3.559-1.488l.065.065V1.488h0s-8.865,6.6-9.06,11A5.307,5.307,0,0,0,6.148,17.925Z"/></g></g></g></svg>