<svg xmlns="http://www.w3.org/2000/svg" xmlns:xlink="http://www.w3.org/1999/xlink" width="189.902" height="257.863" viewBox="0 0 189.902 257.863"><defs><style>.a,.b,.c,.d,.e,.n{fill:#fff;}.a{stroke:#333;}.a,.d{stroke-width:2px;}.b{stroke:#707070;}.c{stroke:#d1d1d1;stroke-width:0.5px;}.d{stroke:#d66142;}.f{clip-path:url(#c);}.g,.o{fill:#d66142;}.h{fill:#ffd675;}.i{fill:#616161;}.i,.n{opacity:0.2;}.j{fill:#ebebeb;}.k{fill:#ebbe9f;}.l{fill:#9c9c9c;}.m{fill:#333;}.o{font-size:20px;font-family:AlwynNew-Bold, Alwyn New;font-weight:700;}.p{clip-path:url(#d);}.q{clip-path:url(#e);}.r{stroke:none;}.s{fill:none;}.t{filter:url(#a);}</style><filter id="a" x="0" y="0" width="189.902" height="257.863" filterUnits="userSpaceOnUse"><feOffset dy="3" input="SourceAlpha"/><feGaussianBlur stdDeviation="3" result="b"/><feFlood flood-opacity="0.161"/><feComposite operator="in" in2="b"/><feComposite in="SourceGraphic"/></filter><clipPath id="c"><rect class="a" width="115.902" height="177.863" transform="translate(738 729)"/></clipPath><clipPath id="d"><rect class="b" width="18" height="18" transform="translate(90 447)"/></clipPath><clipPath id="e"><rect class="b" width="18" height="18" transform="translate(242 633) rotate(180)"/></clipPath></defs><g transform="translate(-1278 -1785)"><g class="t" transform="matrix(1, 0, 0, 1, 1278, 1785)"><g class="c" transform="translate(9 6)"><rect class="r" width="171.902" height="239.863" rx="10"/><rect class="s" x="0.25" y="0.25" width="171.402" height="239.363" rx="9.75"/></g></g><g class="d" transform="translate(1302 1812)"><rect class="r" width="141.902" height="197.863" rx="10"/><rect class="s" x="1" y="1" width="139.902" height="195.863" rx="9"/></g><rect class="e" width="30" height="50" transform="translate(1293 1797)"/><rect class="e" width="30" height="50" transform="translate(1423 1976)"/><g class="f" transform="translate(577 1093)"><g transform="translate(731.696 721.789)"><path class="g" d="M106.558,58.807v20.51L85.246,85.727,44.546,97.9,40.22,99.347l-18.588,5.608V57.685a4.48,4.48,0,0,0,1.282-.8c.16-.16.32-.16.481-.32,3.045-1.763,9.134-5.288,14.742-8.493a5.621,5.621,0,0,0,1.282-.8c.481-.16.8-.481,1.282-.641s.8-.481,1.282-.641c1.122-.641,2.243-1.282,3.045-1.763a.157.157,0,0,0,.16-.16l.16-.16c.32-.16.8-.481,1.122-.641h0a8.944,8.944,0,0,0,1.282-.8c.16-.16.32-.16.481-.32.16,0,.16-.16.32-.16s.16-.16.32-.16.16-.16.32-.16l.16-.16H77.875l.16.16a.559.559,0,0,0,.32.16.157.157,0,0,1,.16.16c.16,0,.16.16.32.16a9.514,9.514,0,0,0,1.282.641,9.515,9.515,0,0,0,1.282.641c.16.16.32.16.481.32.16,0,.32.16.481.16h0c.16.16.32.16.481.32.32.16.481.32.8.481.16,0,.16.16.32.16.32.16.8.481,1.122.641,3.846,2.243,8.653,4.967,12.659,7.211a4.016,4.016,0,0,0,1.122.641,14.092,14.092,0,0,1,1.6.961,3.352,3.352,0,0,1,.961.641l.961.481a4.8,4.8,0,0,0,1.282.641c.16.16.32.16.641.32a16.648,16.648,0,0,0,1.6.961Z"/><path class="h" d="M64.095,66.178,56.4,52.718H71.947ZM57.846,53.519l6.249,10.9,6.249-10.9Z"/><path class="i" d="M53.679,41.662c-.16.16-28.042,16.024-28.042,16.024L21.792,69.863v35.092L40.22,99.347l4.166-1.282L55.442,61.691l1.442-4.807,2.083-4.647,4.807-10.255v-.32Z"/><path class="j" d="M49.834,41.662h0a.5.5,0,0,1-.32.16,75253.442,75253.442,0,0,1-.641.32c-.16,0-.16.16-.32.16-.16.16-.32.16-.481.32a14.78,14.78,0,0,0-1.282.8h0c-.32.16-.8.481-1.122.641-.16,0-.32.16-.481.16-.961.481-1.923,1.122-3.045,1.763-.481.16-.8.481-1.282.641s-.8.481-1.282.641a5.621,5.621,0,0,0-1.282.8c-1.763.961-3.685,2.083-5.448,3.2-.481.32-1.122.641-1.6.961-3.2,1.763-5.929,3.365-7.691,4.326-.16.16-.32.16-.481.32-.641.481-1.122.641-1.282.8V104.8l3.365-.961,1.923-.481L40.22,99.347h.16C41.021,97.9,41.662,96.3,42.3,94.7c4.487-10.736,9.774-24.2,13.3-33.009,2.243-5.448,3.685-9.134,3.685-9.134v-.32l.961-10.576H49.834Z"/><path class="i" d="M106.558,71.947l-4.326-14.261S74.19,41.662,74.03,41.662H63.774v.16l7.05,14.9L79.958,87.81l26.6-9.614Z"/><path class="j" d="M106.558,58.807v20.51L85.246,85.727C81.881,79.478,74.03,63.294,70.5,56.083c-1.122-2.083-1.763-3.525-1.763-3.525l-.961-10.9H78.036l.16.16a.559.559,0,0,0,.32.16.157.157,0,0,1,.16.16c.16,0,.16.16.32.16a9.515,9.515,0,0,0,1.282.641,9.514,9.514,0,0,0,1.282.641c.16.16.32.16.481.32a.559.559,0,0,1,.32.16h0c.16.16.32.16.481.32.32.16.481.32.8.481.16,0,.16.16.32.16.32.16.8.481,1.122.641,3.846,2.243,8.653,4.967,12.659,7.211a4.017,4.017,0,0,0,1.122.641,14.092,14.092,0,0,1,1.6.961,3.352,3.352,0,0,1,.961.641l.961.481a4.8,4.8,0,0,0,1.282.641c.16.16.32.16.641.32a16.648,16.648,0,0,0,1.6.961Z"/><path class="k" d="M80.279,34.771l-.32-3.846v-.16l-.8-11.7-4.487-2.083-8.332-4.326-2.4,1.282-2.243-1.282-8.332,4.326-4.487,2.083-.8,11.7v.16l-.32,3.846,1.282,11.056,14.9,11.056h.16L79,45.668Z"/><path class="k" d="M64.095,41.662l5.128-.16-3.846-2.4H62.813l-3.846,2.4,5.128.16Z"/><path class="i" d="M67.139,34.291,65.056,27.08H62.973L60.89,34.291l2.083,2.243.961.16h.16l.961-.16Z"/><path class="l" d="M66.178,25l6.73-.8h.16l3.2,1.763L72.748,25h.32L66.659,26.76Z"/><path class="m" d="M68.582,27.881a1.2,1.2,0,0,0-.16.8,1.923,1.923,0,1,0,3.846,0,1.445,1.445,0,0,0-.16-.8Z"/><path class="l" d="M61.852,25l-6.73-.8h-.16l-3.2,1.763L55.282,25h-.32l6.409,1.763Z"/><path class="m" d="M59.448,27.881a1.2,1.2,0,0,1,.16.8,1.948,1.948,0,0,1-1.923,1.923,1.851,1.851,0,0,1-1.923-1.923,1.445,1.445,0,0,1,.16-.8Z"/><path class="l" d="M79.958,30.926l-.16.16L76.754,20.35l-2.083-3.365L79,19.228l.961,11.7Z"/><path class="l" d="M48.071,30.926l.16.16L51.276,20.35l2.083-3.365-4.326,2.243-.961,11.7Z"/><path class="h" d="M79.317,14.9v4.487a52.055,52.055,0,0,1-12.338,1.6,62.883,62.883,0,0,1-7.852-.16,20,20,0,0,1-3.365-.32c-1.282-.16-2.4-.16-3.365-.32-2.4-.32-3.846-.481-3.846-.481V15.543L63.935,7.371l4.487,2.243c.8.32,1.6.8,2.564,1.282a17.514,17.514,0,0,1,2.4,1.282c2.243,1.122,4.326,2.083,5.448,2.564A.7.7,0,0,1,79.317,14.9Z"/><path class="n" d="M70.825,10.736,55.6,20.671c-1.282-.16-2.4-.16-3.365-.32L68.261,9.614A17.8,17.8,0,0,1,70.825,10.736Z"/><path class="n" d="M78.676,14.582l-11.7,6.409a62.883,62.883,0,0,1-7.852-.16l14.261-8.973C75.632,13.139,77.715,14.1,78.676,14.582Z"/><path class="m" d="M33.65,72.748l-.641,3.525,1.923-3.2Z"/><path class="m" d="M40.7,72.748l-.481,3.525,1.763-3.2Z"/><path class="m" d="M47.751,72.748l-.481,3.525,1.763-3.2Z"/><path class="m" d="M24.677,84.285,24.2,87.97l1.763-3.2Z"/><path class="m" d="M31.887,84.285l-.641,3.685,1.763-3.2Z"/><path class="m" d="M38.938,84.285l-.481,3.685,1.763-3.2Z"/><path class="m" d="M26.92,95.982l-.481,3.685,1.763-3.2Z"/><path class="m" d="M33.97,95.982l-.481,3.685,1.763-3.2Z"/><path class="m" d="M41.5,95.662c-.32.8-.641,1.6-.961,2.243h-.16l.32-2.564Z"/><path class="m" d="M45.988,52.4l-.481,3.685,1.763-3.2Z"/><path class="m" d="M38.938,50.955l-.481,3.525,1.763-3.045Z"/><path class="m" d="M32.208,52.237,31.246,54l.16-1.282A3.5,3.5,0,0,0,32.208,52.237Z"/><path class="m" d="M26.279,103.353l-.8.16v-.481Z"/><path class="m" d="M24.837,60.89l-.481,3.685,1.763-3.2Z"/><path class="m" d="M32.849,60.89l-.641,3.685,1.923-3.2Z"/><path class="m" d="M39.9,60.89l-.481,3.685,1.763-3.2Z"/><path class="m" d="M46.95,60.89l-.481,3.685,1.763-3.2Z"/><path class="m" d="M54.32,54.32l-.641,3.525,1.923-3.2Z"/><path class="m" d="M25.638,72.748l-.481,3.525,1.763-3.2Z"/><path class="m" d="M95.982,72.748l.481,3.525-1.763-3.2Z"/><path class="m" d="M88.932,72.748l.481,3.525-1.763-3.2Z"/><path class="m" d="M81.721,72.748l.481,3.525-1.763-3.2Z"/><path class="m" d="M83.484,52.4l.641,3.685-1.923-3.2Z"/><path class="m" d="M90.694,50.955l.481,3.525-1.763-3.045Z"/><path class="m" d="M97.264,52.237,98.225,54l-.16-1.282C97.745,52.558,97.584,52.4,97.264,52.237Z"/><path class="m" d="M104.635,60.89l.481,3.685-1.763-3.2Z"/><path class="m" d="M96.783,60.89l.481,3.685-1.763-3.2Z"/><path class="m" d="M89.733,60.89l.481,3.685-1.763-3.2Z"/><path class="m" d="M82.522,60.89,83,64.576l-1.763-3.2Z"/><path class="m" d="M75.312,54.32l.481,3.525-1.763-3.2Z"/><path class="m" d="M103.834,72.748l.481,3.525-1.763-3.2Z"/><path class="i" d="M82.522,44.225h0c-.481,3.2-6.89,8.332-12.018,11.858-3.525,2.4-6.409,4.166-6.409,4.166S45.347,50.635,45.347,44.225l.16-.16c.32-.16.8-.481,1.122-.641h0a8.945,8.945,0,0,0,1.282-.8c.16-.16.32-.16.481-.32.16,0,.16-.16.32-.16s.16-.16.32-.16.16-.16.32-.16l.16-.16H78.036l.16.16a.559.559,0,0,0,.32.16.157.157,0,0,1,.16.16c.16,0,.16.16.32.16a9.515,9.515,0,0,0,1.282.641,9.515,9.515,0,0,0,1.282.641c.16.16.32.16.481.32S82.362,44.225,82.522,44.225Z"/><path class="l" d="M79.638,43.905c-.481,5.448-16.024,13.3-16.024,13.3S48.071,48.712,48.071,43.264c0-3.685,4.487-6.73,9.774-6.57,2.884,0,6.249,2.083,6.249,2.083a15.251,15.251,0,0,1,6.249-1.763C75.632,37.175,80.119,40.22,79.638,43.905Z"/><path class="k" d="M60.73,39.1l3.365.8,3.365-.8.8,4.487H59.929Z"/><rect class="i" width="6.73" height="1.282" transform="translate(60.89 40.7)"/><path class="i" d="M71.626,70.184c.16,3.685-8.012,9.454-8.012,9.454s-7.852-5.929-7.371-10.095a5.306,5.306,0,0,1,5.128-4.487,6,6,0,0,1,2.884,1.282,5.5,5.5,0,0,1,2.724-1.122C69.222,65.217,71.466,67.78,71.626,70.184Z"/><path class="h" d="M70.985,69.383c-.32,3.365-7.211,8.493-7.211,8.493s-6.89-5.288-6.89-8.813A4.175,4.175,0,0,1,61.211,64.9a5.194,5.194,0,0,1,2.724,1.282,5.5,5.5,0,0,1,2.724-1.122C69.062,65.217,71.145,67.139,70.985,69.383Z"/><path class="i" d="M63.774,75.312c-2.564-2.243-4.967-4.967-4.967-6.249a2.328,2.328,0,0,1,2.4-2.243,4.946,4.946,0,0,1,1.6.8l1.282.961,1.282-.961a2.879,2.879,0,0,1,1.442-.641,2.573,2.573,0,0,1,1.763.8,1.48,1.48,0,0,1,.481,1.442C68.9,70.5,66.5,73.228,63.774,75.312Z"/><path class="g" d="M66.5,11.217c-.16,1.282-2.564,3.045-2.564,3.045s-2.564-1.923-2.4-3.2a1.48,1.48,0,0,1,1.6-1.442,1.678,1.678,0,0,1,.961.481,1.1,1.1,0,0,1,.8-.481A1.717,1.717,0,0,1,66.5,11.217Z"/><path class="i" d="M106.558,71.947V58.807l-.32-1.122a16.649,16.649,0,0,1-1.6-.961c-.16-.16-.32-.16-.641-.32a9.514,9.514,0,0,0-1.282-.641l-.961-.481a3.352,3.352,0,0,1-.961-.641c-.481-.32-1.122-.641-1.6-.961a3.352,3.352,0,0,1-.961-.641v-.481c-.32-.16-.481-.32-.8-.481l.32.481c-4.006-2.243-8.653-4.807-12.338-7.05-.32-.16-.8-.481-1.122-.641a.559.559,0,0,0-.32-.16c-.32-.16-.481-.32-.8-.481-.16-.16-.32-.16-.481-.32h0c-.16,0-.32-.16-.481-.16-.16-.16-.32-.16-.481-.32a4.8,4.8,0,0,0-1.282-.641c-.32-.16-.481-.32-.641-.32,0-.16-.16-.32-.16-.481l.8-7.371-.32-3.846v-.16l-.8-11.377h.32V14.9L79,14.582c-.961-.481-3.045-1.442-5.448-2.564a17.513,17.513,0,0,1-2.4-1.282c-.8-.481-1.763-.8-2.564-1.282L64.095,7.211l-.16.16V92.136l16.184-4.807.16.481,9.134-3.365,17.466-5.288V78.036h0l-.32-6.089Z"/><path class="g" d="M106.558,87.49V134.6a4.48,4.48,0,0,0-1.282.8c-.16.16-.32.16-.481.32a9.514,9.514,0,0,1-1.282.641.559.559,0,0,1-.32.16,9.514,9.514,0,0,1-1.282.641,17.481,17.481,0,0,1-1.763.961,11.951,11.951,0,0,0-1.923,1.122,5.621,5.621,0,0,0-1.282.8c-.481.32-1.122.641-1.6.961-1.763.961-3.685,2.083-5.448,3.2-.481.32-.8.481-1.282.8h0c-.481.16-.8.481-1.282.641a4.8,4.8,0,0,1-1.282.641c-1.122.641-2.083,1.282-3.045,1.763-.16,0-.16.16-.32.16l-.16.16c-.32.16-.8.481-1.122.641h0a8.943,8.943,0,0,0-1.282.8h-.16c-.16,0-.32.16-.481.16a9518.574,9518.574,0,0,1-.32.32c-.16,0-.16.16-.32.16h-.32a.157.157,0,0,0-.16.16h-28.2l-.16-.16a.559.559,0,0,0-.32-.16.157.157,0,0,1-.16-.16.559.559,0,0,0-.32-.16c-.16,0-.16-.16-.32-.16a.157.157,0,0,1-.16-.16h0a1.215,1.215,0,0,0-.641-.32,9.515,9.515,0,0,0-1.282-.641c-.16-.16-.32-.16-.481-.32-.16,0-.32-.16-.481-.16h0c-.16-.16-.32-.16-.481-.32-.32-.16-.481-.32-.8-.481-.16,0-.16-.16-.32-.16-.32-.16-.8-.481-1.122-.641-1.923-1.122-4.166-2.4-6.249-3.525a15.216,15.216,0,0,1-2.724-1.6c-.32-.16-.481-.32-.8-.481-.8-.481-1.763-.961-2.564-1.442a.559.559,0,0,1-.32-.16.157.157,0,0,1-.16-.16h0a3.352,3.352,0,0,1-.961-.641,14.089,14.089,0,0,1-1.6-.961A3.352,3.352,0,0,1,26.76,137l-.961-.481a4.8,4.8,0,0,0-1.282-.641c-.16-.16-.32-.16-.641-.32a16.651,16.651,0,0,0-1.6-.961l-.32-1.122v-20.51l17.466-5.288h.32l3.685-1.122,5.288-1.6h0l16.024-4.807L84.125,94.38h0L88.291,93.1h.16l13.139-4.006,1.763-.481Z"/><path class="h" d="M58.807,138.765l.16.481.16.32h9.935a.559.559,0,0,0,.16-.32c0-.16.16-.32.16-.481Zm11.537-1.6-.16-.32-1.122-2.083h0l-4.647-8.012-.32-.641h0L58.807,135.4h0l-.641,1.122v.16l-1.6,2.884H72.107Zm-12.5,1.6.641-.961v-.16h0l1.923-3.2,3.846-6.57.481.8,3.045,5.288h0l2.243,4.006.16.32.16.32.16.32H57.846Zm.961,0,.16.481.16.32h9.935a.559.559,0,0,0,.16-.32c0-.16.16-.32.16-.481Z"/><path class="i" d="M74.51,150.623c.16,0,28.2-16.024,28.2-16.024l3.846-12.178V87.49L87.97,92.938,83.8,94.22,72.748,130.593,71.306,135.4l-2.083,4.647L64.415,150.3v.32Z"/><path class="j" d="M78.356,150.623h0a.5.5,0,0,1,.32-.16,1262273767622.307,1262273767622.307,0,0,1,.641-.32c.16,0,.16-.16.32-.16.16-.16.32-.16.481-.32a14.779,14.779,0,0,0,1.282-.8h0c.32-.16.8-.481,1.122-.641.16,0,.32-.16.481-.16.961-.481,1.923-1.122,3.045-1.763.481-.16.8-.481,1.282-.641s.8-.481,1.282-.641a5.622,5.622,0,0,0,1.282-.8c1.763-.961,3.685-2.083,5.448-3.2.481-.32,1.122-.641,1.6-.961,3.2-1.763,5.929-3.365,7.691-4.326.16-.16.32-.16.481-.32.641-.481,1.122-.641,1.282-.8V87.49l-3.365.961-1.923.481L88.291,92.938h-.16c-.641,1.442-1.282,3.045-1.923,4.647-4.487,10.736-9.935,24.2-13.46,33.009-2.243,5.448-3.685,9.134-3.685,9.134v.32L68.1,150.623Z"/><path class="i" d="M64.255,150.3v.32H54.16s-2.083-1.122-5.128-2.884c-.16,0-.16-.16-.32-.16-.641-.481-1.442-.8-2.243-1.282-2.724-1.6-5.769-3.2-8.653-4.967a.559.559,0,0,0-.32-.16c-6.089-3.525-11.537-6.57-11.537-6.57l-4.326-14.261v-6.249L39.1,107.84h.32l3.685-1.122,5.288-1.6h0L57.2,135.24l.16.32.32.641.32.481.481.961.32.641.16.32.16.481.16.32.16.481,4.006,8.653.641,1.442Z"/><path class="j" d="M60.409,150.623H50.154l-.16-.16a.559.559,0,0,0-.32-.16.157.157,0,0,1-.16-.16.559.559,0,0,0-.32-.16c-.16,0-.16-.16-.32-.16a.157.157,0,0,1-.16-.16h0a1.215,1.215,0,0,0-.641-.32,9.517,9.517,0,0,0-1.282-.641c-.16-.16-.32-.16-.481-.32a.345.345,0,0,1-.32-.32h0c-.16-.16-.32-.16-.481-.32-.32-.16-.481-.32-.8-.481-.16,0-.16-.16-.32-.16-.32-.16-.8-.481-1.122-.641-1.923-1.122-4.166-2.4-6.249-3.525a15.215,15.215,0,0,1-2.724-1.6c-.32-.16-.481-.32-.8-.481-.8-.481-1.763-.961-2.564-1.442a.559.559,0,0,1-.32-.16.157.157,0,0,1-.16-.16h0a3.352,3.352,0,0,1-.961-.641,14.091,14.091,0,0,1-1.6-.961,3.352,3.352,0,0,1-.961-.641l-.961-.481a4.8,4.8,0,0,0-1.282-.641c-.16-.16-.32-.16-.641-.32a16.648,16.648,0,0,0-1.6-.961l-.32-1.122v-20.35l17.466-5.288h.32l3.685-1.122c3.2,5.929,10.415,20.991,14.1,28.522.16.32.32.8.481,1.122,0,.16.16.32.32.481l.481.961h0c.16.32.32.481.32.641s.16.32.16.481a.559.559,0,0,0,.16.32c-.32.32-.32.32-.32.481v.481l.8,8.653Z"/><path class="k" d="M47.911,157.513l.32,3.846v.16l.8,11.7,4.487,2.083,8.332,4.326,2.4-1.282,2.243,1.282,8.332-4.326,4.487-2.083.8-11.7v-.16l.32-3.846-1.282-11.056L64.255,135.4h-.16l-14.9,11.217Z"/><path class="k" d="M64.095,150.623l-5.128.16,3.846,2.4h2.564l3.846-2.4-5.128-.16Z"/><path class="i" d="M61.05,157.994l2.083,7.211h2.083l2.083-7.211-2.083-2.243-.961-.16h-.16l-.961.16Z"/><path class="l" d="M62.012,167.288l-6.73.8h-.16l-3.2-1.763,3.525.961h-.32l6.409-1.763Z"/><path class="m" d="M59.608,164.4a1.2,1.2,0,0,0,.16-.8,1.923,1.923,0,0,0-3.846,0,1.445,1.445,0,0,0,.16.8Z"/><path class="l" d="M66.338,167.288l6.73.8h.16l3.2-1.763-3.525.961h.32l-6.409-1.763Z"/><path class="m" d="M68.742,164.4a1.2,1.2,0,0,1-.16-.8,1.923,1.923,0,0,1,3.846,0,1.445,1.445,0,0,1-.16.8Z"/><path class="l" d="M48.231,161.359l.16-.16,3.045,10.736,2.083,3.365-4.326-2.243-.961-11.7Z"/><path class="l" d="M80.119,161.359l-.16-.16-3.045,10.736L74.831,175.3l4.326-2.243.961-11.7Z"/><path class="h" d="M48.872,177.383V172.9a52.055,52.055,0,0,1,12.338-1.6,62.885,62.885,0,0,1,7.852.16,20,20,0,0,1,3.365.32c1.282.16,2.4.16,3.365.32,2.4.32,3.846.481,3.846.481V176.9l-15.383,8.172-4.487-2.243c-.8-.32-1.6-.8-2.564-1.282a17.514,17.514,0,0,1-2.4-1.282c-2.243-1.122-4.326-2.083-5.448-2.564A1.982,1.982,0,0,1,48.872,177.383Z"/><path class="n" d="M57.365,181.549l15.223-9.935c1.282.16,2.4.16,3.365.32L59.929,182.67A17.8,17.8,0,0,1,57.365,181.549Z"/><path class="n" d="M49.513,177.7l11.7-6.409a62.885,62.885,0,0,1,7.852.16L54.8,180.427C52.558,179.145,50.475,178.184,49.513,177.7Z"/><path class="m" d="M94.54,119.537l.641-3.525-1.763,3.2Z"/><path class="m" d="M87.49,119.537l.481-3.525-1.763,3.2Z"/><path class="m" d="M80.439,119.537l.481-3.525-1.763,3.2Z"/><path class="m" d="M103.513,108l.481-3.685-1.763,3.2Z"/><path class="m" d="M96.463,108l.481-3.685-1.763,3.2Z"/><path class="m" d="M89.252,108l.481-3.685-1.763,3.2Z"/><path class="m" d="M101.27,96.3l.481-3.685-1.763,3.2Z"/><path class="m" d="M94.22,96.3l.481-3.685-1.763,3.2Z"/><path class="m" d="M86.688,96.623c.32-.8.641-1.6.961-2.243h.16l-.32,2.564Z"/><path class="m" d="M82.2,139.887l.481-3.685-1.763,3.2Z"/><path class="m" d="M89.252,141.329l.481-3.525-1.763,3.045Z"/><path class="m" d="M95.982,140.047l.961-1.763-.16,1.282A3.5,3.5,0,0,0,95.982,140.047Z"/><path class="m" d="M101.911,88.932l.8-.16v.481Z"/><path class="m" d="M103.353,131.395l.481-3.685-1.763,3.2Z"/><path class="m" d="M95.341,131.395l.641-3.685-1.763,3.2Z"/><path class="m" d="M88.291,131.395l.481-3.685-1.763,3.2Z"/><path class="m" d="M81.24,131.395l.481-3.685-1.763,3.2Z"/><path class="m" d="M73.869,137.964l.641-3.525-1.763,3.2Z"/><path class="m" d="M102.552,119.537l.481-3.525-1.763,3.2Z"/><path class="m" d="M32.208,119.537l-.481-3.525,1.763,3.2Z"/><path class="m" d="M39.258,119.537l-.481-3.525,1.763,3.2Z"/><path class="m" d="M46.469,119.537l-.481-3.525,1.763,3.2Z"/><path class="m" d="M44.706,139.887l-.641-3.685,1.923,3.2Z"/><path class="m" d="M37.5,141.329l-.481-3.525,1.763,3.045Z"/><path class="m" d="M30.926,140.047l-.961-1.763.16,1.282C30.445,139.727,30.605,139.887,30.926,140.047Z"/><path class="m" d="M23.555,131.395l-.481-3.685,1.763,3.2Z"/><path class="m" d="M31.407,131.395l-.481-3.685,1.763,3.2Z"/><path class="m" d="M38.457,131.395l-.481-3.685,1.763,3.2Z"/><path class="m" d="M45.668,131.395l-.481-3.685,1.763,3.2Z"/><path class="m" d="M52.878,137.964l-.481-3.525,1.763,3.2Z"/><path class="m" d="M24.356,119.537l-.481-3.525,1.763,3.2Z"/><path class="i" d="M45.668,148.059h0c.481-3.2,6.89-8.332,12.018-11.858,3.525-2.4,6.409-4.166,6.409-4.166s18.748,9.614,18.748,16.024l-.16.16c-.32.16-.8.481-1.122.641h0a8.945,8.945,0,0,0-1.282.8c-.16.16-.32.16-.481.32-.16,0-.16.16-.32.16s-.16.16-.32.16-.16.16-.32.16l-.16.16H50.154l-.16-.16a.559.559,0,0,0-.32-.16.157.157,0,0,1-.16-.16c-.16,0-.16-.16-.32-.16a14.78,14.78,0,0,1-1.282-.8,9.515,9.515,0,0,0-1.282-.641c-.16-.16-.32-.16-.481-.32C45.988,148.219,45.828,148.059,45.668,148.059Z"/><path class="l" d="M48.552,148.38c.481-5.448,16.024-13.3,16.024-13.3s15.543,8.493,15.543,13.941c0,3.685-4.487,6.73-9.774,6.57-2.884,0-6.249-2.083-6.249-2.083a15.251,15.251,0,0,1-6.249,1.763C52.558,155.11,48.071,152.065,48.552,148.38Z"/><path class="k" d="M67.46,153.187l-3.365-.8-3.365.8-.8-4.487h8.332Z"/><rect class="i" width="6.73" height="1.282" transform="translate(60.57 150.142)"/><path class="i" d="M56.564,122.1c-.16-3.685,8.012-9.454,8.012-9.454s7.852,5.929,7.371,10.095a5.306,5.306,0,0,1-5.128,4.487,6,6,0,0,1-2.884-1.282,5.5,5.5,0,0,1-2.724,1.122C58.967,127.068,56.724,124.5,56.564,122.1Z"/><path class="h" d="M57.2,122.9c.32-3.365,7.211-8.493,7.211-8.493s6.89,5.288,6.89,8.813a4.175,4.175,0,0,1-4.326,4.166,5.194,5.194,0,0,1-2.724-1.282,5.5,5.5,0,0,1-2.724,1.122C59.128,127.068,57.044,125.145,57.2,122.9Z"/><path class="i" d="M64.415,116.973c2.564,2.243,4.967,4.967,4.967,6.249a2.328,2.328,0,0,1-2.4,2.243,4.946,4.946,0,0,1-1.6-.8l-1.282-.961-1.282.961a2.879,2.879,0,0,1-1.442.641,2.573,2.573,0,0,1-1.763-.8,1.48,1.48,0,0,1-.481-1.442C59.288,121.78,61.691,119.056,64.415,116.973Z"/><path class="g" d="M61.691,181.068c.16-1.282,2.564-3.045,2.564-3.045s2.564,1.923,2.4,3.2a1.48,1.48,0,0,1-1.6,1.442,1.678,1.678,0,0,1-.961-.481s-.481.481-.961.32A1.436,1.436,0,0,1,61.691,181.068Z"/><path class="i" d="M48.392,104.955l-5.288,1.6-3.685,1.122H39.1l-17.466,5.288v20.51l.32,1.122a16.651,16.651,0,0,1,1.6.961c.16.16.32.16.641.32a9.513,9.513,0,0,0,1.282.641l.961.481a3.352,3.352,0,0,1,.961.641c.481.32,1.122.641,1.6.961a3.352,3.352,0,0,1,.961.641v.481c.32.16.481.32.8.481l-.16-.8c.8.481,1.6.961,2.564,1.442.32.16.481.32.8.481.961.481,1.763,1.122,2.724,1.6,2.243,1.282,4.326,2.564,6.249,3.525.32.16.8.481,1.122.641a.559.559,0,0,0,.32.16c.32.16.481.32.8.481.16,0,.32.16.481.32h0c.16,0,.32.16.481.16.16.16.32.16.481.32a4.8,4.8,0,0,0,1.282.641c.32.16.481.32.641.32v.16h0c0,.16,0,.16.16.32l-.8,7.211.32,3.846v.16l.8,11.377h-.32v4.487a1.754,1.754,0,0,0,.641.32l5.448,2.724a17.514,17.514,0,0,1,2.4,1.282c.8.481,1.763.8,2.564,1.282,2.4,1.282,4.487,2.243,4.487,2.243l.16-.16V150.623h0v-24.2h0V99.988l-16.024,4.967Z"/></g></g><text class="o" transform="translate(1306 1814)"><tspan x="-6.07" y="0">K</tspan></text><text class="o" transform="translate(1440 2008) rotate(180)"><tspan x="-6.07" y="0">K</tspan></text><g class="p" transform="translate(1207 1371)"><g transform="translate(89.288 446.293)"><path class="g" d="M18.7,6.924c-.259,4.4-8.995,11-8.995,11S.712,11.26.712,6.924a5.441,5.441,0,0,1,5.5-5.436A6.957,6.957,0,0,1,9.771,3.041a6.283,6.283,0,0,1,3.559-1.488A5.2,5.2,0,0,1,18.7,6.924Z"/><path class="i" d="M13.266,1.488A6.79,6.79,0,0,0,9.707,2.977l-.065-.065V17.925h0s8.8-6.665,8.995-11A5.216,5.216,0,0,0,13.266,1.488Z"/></g></g><g class="q" transform="translate(1207 1371)"><g transform="translate(223.298 614.326)"><path class="g" d="M.712,12.489C.906,8.089,9.707,1.424,9.707,1.424S18.7,8.089,18.7,12.489a5.441,5.441,0,0,1-5.5,5.436,6.957,6.957,0,0,1-3.559-1.553A6.283,6.283,0,0,1,6.083,17.86,5.2,5.2,0,0,1,.712,12.489Z"/><path class="i" d="M6.148,17.925a6.79,6.79,0,0,0,3.559-1.488l.065.065V1.488h0s-8.865,6.6-9.06,11A5.307,5.307,0,0,0,6.148,17.925Z"/></g></g></g></svg>