<svg xmlns="http://www.w3.org/2000/svg" xmlns:xlink="http://www.w3.org/1999/xlink" width="189.902" height="257.863" viewBox="0 0 189.902 257.863"><defs><style>.a,.b{fill:#fff;}.a{stroke:#707070;}.b{stroke:#d1d1d1;stroke-width:0.5px;}.c,.e{fill:#d66142;}.c{font-size:20px;font-family:AlwynNew-Bold, Alwyn New;font-weight:700;}.d{clip-path:url(#c);}.f{fill:#616161;opacity:0.2;}.g{clip-path:url(#d);}.h{clip-path:url(#e);}.i{stroke:none;}.j{fill:none;}.k{filter:url(#a);}</style><filter id="a" x="0" y="0" width="189.902" height="257.863" filterUnits="userSpaceOnUse"><feOffset dy="3" input="SourceAlpha"/><feGaussianBlur stdDeviation="3" result="b"/><feFlood flood-opacity="0.161"/><feComposite operator="in" in2="b"/><feComposite in="SourceGraphic"/></filter><clipPath id="c"><rect class="a" width="18" height="18" transform="translate(90 447)"/></clipPath><clipPath id="d"><rect class="a" width="18" height="18" transform="translate(242 633) rotate(180)"/></clipPath><clipPath id="e"><rect class="a" width="83" height="83" transform="translate(124 2370)"/></clipPath></defs><g transform="translate(-228 -2088)"><g class="k" transform="matrix(1, 0, 0, 1, 228, 2088)"><g class="b" transform="translate(9 6)"><rect class="i" width="171.902" height="239.863" rx="10"/><rect class="j" x="0.25" y="0.25" width="171.402" height="239.363" rx="9.75"/></g></g><text class="c" transform="translate(256 2117)"><tspan x="-6.67" y="0">A</tspan></text><text class="c" transform="translate(390 2311) rotate(180)"><tspan x="-6.67" y="0">A</tspan></text><g class="d" transform="translate(157 1674)"><g transform="translate(89.879 447)"><path class="e" d="M9.121,0,1.389,9l7.732,9,7.732-9Z"/><path class="f" d="M9.06.06,9.121,0l7.732,9L9.121,18l-.06-.06Z"/></g></g><g class="g" transform="translate(157 1674)"><g transform="translate(223.879 615)"><path class="e" d="M9.121,18l7.732-9L9.121,0,1.389,9Z"/><path class="f" d="M9.181,17.94l-.06.06L1.389,9,9.121,0l.06.06Z"/></g></g><g class="h" transform="translate(157 -198)"><g transform="translate(123.443 2370)"><path class="e" d="M42.057,0,6.406,41.5,42.057,83,77.708,41.5Z"/><path class="f" d="M41.779.279,42.057,0,77.708,41.5,42.057,83l-.279-.279Z"/></g></g></g></svg>