<svg xmlns="http://www.w3.org/2000/svg" xmlns:xlink="http://www.w3.org/1999/xlink" width="189.902" height="257.863" viewBox="0 0 189.902 257.863"><defs><style>.a,.b{fill:#fff;}.a{stroke:#707070;}.b{stroke:#d1d1d1;stroke-width:0.5px;}.c{fill:#383838;font-size:20px;font-family:AlwynNew-Bold, Alwyn New;font-weight:700;}.d{clip-path:url(#c);}.e{fill:#333;}.f{fill:#616161;opacity:0.2;}.g{clip-path:url(#e);}.h{clip-path:url(#f);}.i{clip-path:url(#g);}.j{stroke:none;}.k{fill:none;}.l{filter:url(#a);}</style><filter id="a" x="0" y="0" width="189.902" height="257.863" filterUnits="userSpaceOnUse"><feOffset dy="3" input="SourceAlpha"/><feGaussianBlur stdDeviation="3" result="b"/><feFlood flood-opacity="0.161"/><feComposite operator="in" in2="b"/><feComposite in="SourceGraphic"/></filter><clipPath id="c"><rect class="a" width="18" height="18" transform="translate(89 447)"/></clipPath><clipPath id="e"><rect class="a" width="41" height="41" transform="translate(561 593)"/></clipPath><clipPath id="f"><rect class="a" width="41" height="41" transform="translate(561 441)"/></clipPath><clipPath id="g"><rect class="a" width="41" height="41" transform="translate(561 517)"/></clipPath></defs><g transform="translate(-648 -216)"><g class="l" transform="matrix(1, 0, 0, 1, 648, 216)"><g class="b" transform="translate(9 6)"><rect class="j" width="171.902" height="239.863" rx="10"/><rect class="k" x="0.25" y="0.25" width="171.402" height="239.363" rx="9.75"/></g></g><text class="c" transform="translate(676 245)"><tspan x="-4.72" y="0">3</tspan></text><text class="c" transform="translate(810 439) rotate(180)"><tspan x="-4.72" y="0">3</tspan></text><g class="d" transform="translate(578 -198)"><g transform="translate(88.909 446.939)"><path class="e" d="M16.606,9.333C16.606,7.576,8.97.061,8.97.061S1.576,7.818,1.576,9.273a4.539,4.539,0,0,0,4.545,4.545,4.477,4.477,0,0,0,2.364-.667L5.636,18h6.97L9.7,13.212a4.477,4.477,0,0,0,2.364.667A4.539,4.539,0,0,0,16.606,9.333Z"/><path class="f" d="M16.606,9.333C16.606,7.576,8.97.061,8.97.061h0v18h3.576L9.7,13.212a4.477,4.477,0,0,0,2.364.667A4.539,4.539,0,0,0,16.606,9.333Z"/></g></g><g class="d" transform="translate(908 882) rotate(180)"><g transform="translate(88.909 446.939)"><path class="e" d="M16.606,9.333C16.606,7.576,8.97.061,8.97.061S1.576,7.818,1.576,9.273a4.539,4.539,0,0,0,4.545,4.545,4.477,4.477,0,0,0,2.364-.667L5.636,18h6.97L9.7,13.212a4.477,4.477,0,0,0,2.364.667A4.539,4.539,0,0,0,16.606,9.333Z"/><path class="f" d="M16.606,9.333C16.606,7.576,8.97.061,8.97.061h0v18h3.576L9.7,13.212a4.477,4.477,0,0,0,2.364.667A4.539,4.539,0,0,0,16.606,9.333Z"/></g></g><g class="g" transform="translate(157 -198)"><g transform="translate(560.794 592.862)"><path class="e" d="M3.577,20.087c0,3.99,17.336,21.05,17.336,21.05S37.836,23.527,37.836,20.225A10.3,10.3,0,0,0,27.517,9.906a10.164,10.164,0,0,0-5.366,1.513L28.617.413H12.8l6.466,10.869A10.164,10.164,0,0,0,13.9,9.768,10.3,10.3,0,0,0,3.577,20.087Z"/><path class="f" d="M3.577,20.087c0,3.99,17.336,21.05,17.336,21.05h0v-41H12.8l6.466,11.144A10.164,10.164,0,0,0,13.9,9.768,10.3,10.3,0,0,0,3.577,20.087Z"/></g></g><g class="h" transform="translate(157 -198)"><g transform="translate(560.793 440.862)"><path class="e" d="M37.825,21.259c0-4-17.394-21.121-17.394-21.121S3.589,17.808,3.589,21.121A10.34,10.34,0,0,0,13.943,31.475a10.2,10.2,0,0,0,5.384-1.519L12.838,41H28.714L22.088,30.094a10.2,10.2,0,0,0,5.384,1.519A10.34,10.34,0,0,0,37.825,21.259Z"/><path class="f" d="M37.825,21.259c0-4-17.394-21.121-17.394-21.121h0v41h8.145L22.088,30.094a10.2,10.2,0,0,0,5.384,1.519A10.34,10.34,0,0,0,37.825,21.259Z"/></g></g><g class="i" transform="translate(157 -198)"><g transform="translate(560.793 516.862)"><path class="e" d="M37.825,21.259c0-4-17.394-21.121-17.394-21.121S3.589,17.808,3.589,21.121A10.34,10.34,0,0,0,13.943,31.475a10.2,10.2,0,0,0,5.384-1.519L12.838,41H28.714L22.088,30.094a10.2,10.2,0,0,0,5.384,1.519A10.34,10.34,0,0,0,37.825,21.259Z"/><path class="f" d="M37.825,21.259c0-4-17.394-21.121-17.394-21.121h0v41h8.145L22.088,30.094a10.2,10.2,0,0,0,5.384,1.519A10.34,10.34,0,0,0,37.825,21.259Z"/></g></g></g></svg>