<svg xmlns="http://www.w3.org/2000/svg" xmlns:xlink="http://www.w3.org/1999/xlink" width="189.902" height="257.863" viewBox="0 0 189.902 257.863"><defs><style>.a,.b{fill:#fff;}.a{stroke:#707070;}.b{stroke:#d1d1d1;stroke-width:0.5px;}.c,.e{fill:#d66142;}.c{font-size:20px;font-family:AlwynNew-Bold, Alwyn New;font-weight:700;}.d{clip-path:url(#c);}.f{fill:#616161;opacity:0.2;}.g{clip-path:url(#d);}.h{clip-path:url(#e);}.i{clip-path:url(#f);}.j{clip-path:url(#g);}.k{clip-path:url(#h);}.l{clip-path:url(#i);}.m{stroke:none;}.n{fill:none;}.o{filter:url(#a);}</style><filter id="a" x="0" y="0" width="189.902" height="257.863" filterUnits="userSpaceOnUse"><feOffset dy="3" input="SourceAlpha"/><feGaussianBlur stdDeviation="3" result="b"/><feFlood flood-opacity="0.161"/><feComposite operator="in" in2="b"/><feComposite in="SourceGraphic"/></filter><clipPath id="c"><rect class="a" width="18" height="18" transform="translate(90 447)"/></clipPath><clipPath id="d"><rect class="a" width="18" height="18" transform="translate(242 633) rotate(180)"/></clipPath><clipPath id="e"><rect class="a" width="41" height="41" transform="translate(1016 2467)"/></clipPath><clipPath id="f"><rect class="a" width="41" height="41" transform="translate(1016 2315)"/></clipPath><clipPath id="g"><rect class="a" width="41" height="41" transform="translate(955 2467)"/></clipPath><clipPath id="h"><rect class="a" width="41" height="41" transform="translate(955 2315)"/></clipPath><clipPath id="i"><rect class="a" width="41" height="41" transform="translate(985 2391)"/></clipPath></defs><g transform="translate(-1068 -2088)"><g class="o" transform="matrix(1, 0, 0, 1, 1068, 2088)"><g class="b" transform="translate(9 6)"><rect class="m" width="171.902" height="239.863" rx="10"/><rect class="n" x="0.25" y="0.25" width="171.402" height="239.363" rx="9.75"/></g></g><text class="c" transform="translate(1096 2117)"><tspan x="-5.29" y="0">5</tspan></text><text class="c" transform="translate(1230 2311) rotate(180)"><tspan x="-5.29" y="0">5</tspan></text><g class="d" transform="translate(997 1674)"><g transform="translate(89.879 447)"><path class="e" d="M9.121,0,1.389,9l7.732,9,7.732-9Z"/><path class="f" d="M9.06.06,9.121,0l7.732,9L9.121,18l-.06-.06Z"/></g></g><g class="g" transform="translate(997 1674)"><g transform="translate(223.879 615)"><path class="e" d="M9.121,18l7.732-9L9.121,0,1.389,9Z"/><path class="f" d="M9.181,17.94l-.06.06L1.389,9,9.121,0l.06.06Z"/></g></g><g class="h" transform="translate(157 -198)"><g transform="translate(1015.725 2467)"><path class="e" d="M20.775,41,38.386,20.5,20.775,0,3.164,20.5Z"/><path class="f" d="M20.913,40.862,20.775,41,3.164,20.5,20.775,0l.138.138Z"/></g></g><g class="i" transform="translate(157 -198)"><g transform="translate(1015.725 2315)"><path class="e" d="M20.775,0,3.164,20.5,20.775,41,38.386,20.5Z"/><path class="f" d="M20.638.138,20.775,0,38.386,20.5,20.775,41l-.138-.138Z"/></g></g><g class="j" transform="translate(157 -198)"><g transform="translate(954.725 2467)"><path class="e" d="M20.775,41,38.386,20.5,20.775,0,3.164,20.5Z"/><path class="f" d="M20.913,40.862,20.775,41,3.164,20.5,20.775,0l.138.138Z"/></g></g><g class="k" transform="translate(157 -198)"><g transform="translate(954.725 2315)"><path class="e" d="M20.775,0,3.164,20.5,20.775,41,38.386,20.5Z"/><path class="f" d="M20.638.138,20.775,0,38.386,20.5,20.775,41l-.138-.138Z"/></g></g><g class="l" transform="translate(157 -198)"><g transform="translate(984.725 2391)"><path class="e" d="M20.775,0,3.164,20.5,20.775,41,38.386,20.5Z"/><path class="f" d="M20.638.138,20.775,0,38.386,20.5,20.775,41l-.138-.138Z"/></g></g></g></svg>