<svg xmlns="http://www.w3.org/2000/svg" xmlns:xlink="http://www.w3.org/1999/xlink" width="189.902" height="257.863" viewBox="0 0 189.902 257.863"><defs><style>.a,.b{fill:#fff;}.a{stroke:#707070;}.b{stroke:#d1d1d1;stroke-width:0.5px;}.c,.e{fill:#d66142;}.c{font-size:20px;font-family:AlwynNew-Bold, Alwyn New;font-weight:700;}.d{clip-path:url(#c);}.f{fill:#616161;opacity:0.2;}.g{clip-path:url(#d);}.h{clip-path:url(#e);}.i{clip-path:url(#f);}.j{clip-path:url(#g);}.k{clip-path:url(#h);}.l{clip-path:url(#i);}.m{clip-path:url(#j);}.n{clip-path:url(#k);}.o{clip-path:url(#l);}.p{clip-path:url(#m);}.q{clip-path:url(#n);}.r{stroke:none;}.s{fill:none;}.t{filter:url(#a);}</style><filter id="a" x="0" y="0" width="189.902" height="257.863" filterUnits="userSpaceOnUse"><feOffset dy="3" input="SourceAlpha"/><feGaussianBlur stdDeviation="3" result="b"/><feFlood flood-opacity="0.161"/><feComposite operator="in" in2="b"/><feComposite in="SourceGraphic"/></filter><clipPath id="c"><rect class="a" width="18" height="18" transform="translate(90 447)"/></clipPath><clipPath id="d"><rect class="a" width="18" height="18" transform="translate(242 633) rotate(180)"/></clipPath><clipPath id="e"><rect class="a" width="41" height="41" transform="translate(596 2745)"/></clipPath><clipPath id="f"><rect class="a" width="41" height="41" transform="translate(596 2593)"/></clipPath><clipPath id="g"><rect class="a" width="41" height="41" transform="translate(535 2745)"/></clipPath><clipPath id="h"><rect class="a" width="41" height="41" transform="translate(535 2593)"/></clipPath><clipPath id="i"><rect class="a" width="41" height="41" transform="translate(535 2644)"/></clipPath><clipPath id="j"><rect class="a" width="41" height="41" transform="translate(535 2694)"/></clipPath><clipPath id="k"><rect class="a" width="41" height="41" transform="translate(596 2644)"/></clipPath><clipPath id="l"><rect class="a" width="41" height="41" transform="translate(596 2694)"/></clipPath><clipPath id="m"><rect class="a" width="41" height="41" transform="translate(565 2619)"/></clipPath><clipPath id="n"><rect class="a" width="41" height="41" transform="translate(565 2720)"/></clipPath></defs><g transform="translate(-648 -2366)"><g class="t" transform="matrix(1, 0, 0, 1, 648, 2366)"><g class="b" transform="translate(9 6)"><rect class="r" width="171.902" height="239.863" rx="10"/><rect class="s" x="0.25" y="0.25" width="171.402" height="239.363" rx="9.75"/></g></g><text class="c" transform="translate(676 2395)"><tspan x="-10.99" y="0">10</tspan></text><text class="c" transform="translate(810 2589) rotate(180)"><tspan x="-10.99" y="0">10</tspan></text><g class="d" transform="translate(577 1952)"><g transform="translate(89.879 447)"><path class="e" d="M9.121,0,1.389,9l7.732,9,7.732-9Z"/><path class="f" d="M9.06.06,9.121,0l7.732,9L9.121,18l-.06-.06Z"/></g></g><g class="g" transform="translate(577 1952)"><g transform="translate(223.879 615)"><path class="e" d="M9.121,18l7.732-9L9.121,0,1.389,9Z"/><path class="f" d="M9.181,17.94l-.06.06L1.389,9,9.121,0l.06.06Z"/></g></g><g class="h" transform="translate(157 -198)"><g transform="translate(595.725 2745)"><path class="e" d="M20.775,41,38.386,20.5,20.775,0,3.164,20.5Z"/><path class="f" d="M20.913,40.862,20.775,41,3.164,20.5,20.775,0l.138.138Z"/></g></g><g class="i" transform="translate(157 -198)"><g transform="translate(595.725 2593)"><path class="e" d="M20.775,0,3.164,20.5,20.775,41,38.386,20.5Z"/><path class="f" d="M20.638.138,20.775,0,38.386,20.5,20.775,41l-.138-.138Z"/></g></g><g class="j" transform="translate(157 -198)"><g transform="translate(534.725 2745)"><path class="e" d="M20.775,41,38.386,20.5,20.775,0,3.164,20.5Z"/><path class="f" d="M20.913,40.862,20.775,41,3.164,20.5,20.775,0l.138.138Z"/></g></g><g class="k" transform="translate(157 -198)"><g transform="translate(534.725 2593)"><path class="e" d="M20.775,0,3.164,20.5,20.775,41,38.386,20.5Z"/><path class="f" d="M20.638.138,20.775,0,38.386,20.5,20.775,41l-.138-.138Z"/></g></g><g class="l" transform="translate(157 -198)"><g transform="translate(534.725 2644)"><path class="e" d="M20.775,0,3.164,20.5,20.775,41,38.386,20.5Z"/><path class="f" d="M20.638.138,20.775,0,38.386,20.5,20.775,41l-.138-.138Z"/></g></g><g class="m" transform="translate(157 -198)"><g transform="translate(534.725 2694)"><path class="e" d="M20.775,41,38.386,20.5,20.775,0,3.164,20.5Z"/><path class="f" d="M20.913,40.862,20.775,41,3.164,20.5,20.775,0l.138.138Z"/></g></g><g class="n" transform="translate(157 -198)"><g transform="translate(595.725 2644)"><path class="e" d="M20.775,0,3.164,20.5,20.775,41,38.386,20.5Z"/><path class="f" d="M20.638.138,20.775,0,38.386,20.5,20.775,41l-.138-.138Z"/></g></g><g class="o" transform="translate(157 -198)"><g transform="translate(595.725 2694)"><path class="e" d="M20.775,41,38.386,20.5,20.775,0,3.164,20.5Z"/><path class="f" d="M20.913,40.862,20.775,41,3.164,20.5,20.775,0l.138.138Z"/></g></g><g class="p" transform="translate(157 -198)"><g transform="translate(564.725 2619)"><path class="e" d="M20.775,0,3.164,20.5,20.775,41,38.386,20.5Z"/><path class="f" d="M20.638.138,20.775,0,38.386,20.5,20.775,41l-.138-.138Z"/></g></g><g class="q" transform="translate(157 -198)"><g transform="translate(564.725 2720)"><path class="e" d="M20.775,41,38.386,20.5,20.775,0,3.164,20.5Z"/><path class="f" d="M20.913,40.862,20.775,41,3.164,20.5,20.775,0l.138.138Z"/></g></g></g></svg>