<svg xmlns="http://www.w3.org/2000/svg" xmlns:xlink="http://www.w3.org/1999/xlink" width="189.902" height="257.863" viewBox="0 0 189.902 257.863"><defs><style>.a,.b,.c,.d,.e,.p{fill:#fff;}.a{stroke:#333;}.a,.d{stroke-width:2px;}.b{stroke:#707070;}.c{stroke:#d1d1d1;stroke-width:0.5px;}.d{stroke:#d66142;}.f{clip-path:url(#c);}.g{fill:#757575;}.h{fill:#ebb07a;}.i,.m{fill:#616161;}.i,.l,.p{opacity:0.2;}.j,.s{fill:#d66142;}.k{fill:#333;}.n{fill:#b35137;}.o{fill:#ababab;}.q{fill:#ffd675;}.r{fill:#ebebeb;}.s{font-size:20px;font-family:AlwynNew-Bold, Alwyn New;font-weight:700;}.t{clip-path:url(#d);}.u{clip-path:url(#e);}.v{stroke:none;}.w{fill:none;}.x{filter:url(#a);}</style><filter id="a" x="0" y="0" width="189.902" height="257.863" filterUnits="userSpaceOnUse"><feOffset dy="3" input="SourceAlpha"/><feGaussianBlur stdDeviation="3" result="b"/><feFlood flood-opacity="0.161"/><feComposite operator="in" in2="b"/><feComposite in="SourceGraphic"/></filter><clipPath id="c"><rect class="a" width="115.902" height="177.863" transform="translate(738 729)"/></clipPath><clipPath id="d"><rect class="b" width="18" height="18" transform="translate(90 447)"/></clipPath><clipPath id="e"><rect class="b" width="18" height="18" transform="translate(242 633) rotate(180)"/></clipPath></defs><g transform="translate(-858 -2366)"><g class="x" transform="matrix(1, 0, 0, 1, 858, 2366)"><g class="c" transform="translate(9 6)"><rect class="v" width="171.902" height="239.863" rx="10"/><rect class="w" x="0.25" y="0.25" width="171.402" height="239.363" rx="9.75"/></g></g><g class="d" transform="translate(882 2393)"><rect class="v" width="141.902" height="197.863" rx="10"/><rect class="w" x="1" y="1" width="139.902" height="195.863" rx="9"/></g><rect class="e" width="30" height="50" transform="translate(873 2378)"/><rect class="e" width="30" height="50" transform="translate(1003 2557)"/><g class="f" transform="translate(157 1674)"><g transform="translate(729.002 717.633)"><path class="g" d="M60.514,59.009l-5.349,2.173,1.17,2.173,21.4-.167,1.5-2.006-4.848-2.173Z"/><rect class="h" width="13.875" height="14.543" transform="translate(60.514 52.323)"/><path class="i" d="M74.388,55.164v3.51A8.24,8.24,0,0,1,68.7,61.349H66.03c-2.006,0-3.845-1-5.684-2.507v-3.51l1.17,1.839.334-4.848H72.717l.334,4.848Z"/><path class="h" d="M68.7,19.224H66.03c-6.854,0-12.37,4.681-12.37,10.531,0,0,0,14.209.167,14.878,1,6.185,6.018,15.546,12.37,15.546h2.675c6.185,0,11.367-9.528,12.37-15.546.167-.669.167-14.878.167-14.878C81.242,23.9,75.558,19.224,68.7,19.224Z"/><path class="j" d="M79.9,19.224,67.367,11.367,55,19.224,51.654,24.74l1.337,13.206,1.672,1L55,26.746l3.845-4.179,8.525,4.012,8.525-4.012L79.9,26.746l.334,12.2,1.672-1,1.17-13.206Z"/><path class="k" d="M59.343,36.108a1.41,1.41,0,0,0-.334,1.17,2.236,2.236,0,0,0,2.34,2.006,2.126,2.126,0,0,0,2.34-2.006,3.1,3.1,0,0,0-.334-1.17Z"/><path class="i" d="M68.37,34.1H66.532L65.361,43.3,67.367,45.8,69.541,43.3Z"/><path class="k" d="M75.391,36.108a1.41,1.41,0,0,1,.334,1.17,2.236,2.236,0,0,1-2.34,2.006,2.126,2.126,0,0,1-2.34-2.006,3.1,3.1,0,0,1,.334-1.17Z"/><path class="j" d="M80.072,45.134,73.218,56l-.5-8.525-3.678-1.5-1.5-.167-1.5.167-3.678,1.5L61.851,56,54.83,45.134l-1-.5c1,6.185,6.018,15.546,12.37,15.546h2.675c6.185,0,11.367-9.528,12.37-15.546Z"/><path class="h" d="M71.212,49.815l-3.176-2.34H66.7l-3.009,2.34L63.523,56.5h7.857Z"/><g class="l"><rect class="m" width="5.015" height="1.672" transform="translate(64.86 50.149)"/></g><path class="j" d="M71.045,31.093l6.854.836-6.854.836Z"/><path class="j" d="M63.857,32.764l-6.687-.836,6.687-.836Z"/><path class="g" d="M102.138,63.021l-5.349,5.015-2.34,7.021s7.857-1.5,7.857-1.337Z"/><path class="g" d="M33.266,63.021l5.349,5.015,2.34,7.021S33.1,73.553,33.1,73.72Z"/><path class="n" d="M36.442,66.866l-.669,1.5L34.1,74.054s9.7-2.675,9.361-2.507Z"/><path class="o" d="M108.49,82.245l-5.182,1.5-9.528,2.842-.669.334L80.908,90.6l-.334.167-.669.167-3.678,1-1.5.5-4.513,1.337-2.34.669-9.027,2.675-1.839.5-.5.167-2.34.669-1.5.5-4.179,1.17-6.352,1.839V94.782l-4.179,7.188v1.17l-4.513,1.5-10.7,3.176V91.941h0l.167-2.173.334-.836,2.173-5.015L27.582,78.9l2.173-5.349.836-2.006,1-2.173,1.5-.334,2.675-.669h.334l.334-.167h.167l.5-.167.836-.167h0l.334-.167,7.188-1.672.836-.167h.334l.836-.167,5.684-1.337h.167l.669-.167,2.173-.5.5-.167,4.179-1H74.723l3.343.836.836.167.5.167,5.015,1.17,4.513,1.17,8.525,2.006.5.167,2.006.5,2.675.669h.167l1,.334,2.173,5.349,2.173,5.349.669,1.5Z"/><path class="p" d="M84.084,64.693,69.373,79.236,68.7,79.9,66.2,82.412h0l-4.012,4.012-.167.334L55,93.779l-2.173,2.173-1,1-1.17,1-2.173,2.173-6.352,2.006V100.3l6.519-6.519,1.17-1.17.669-.669,2.34-2.34.669-.669.669-.669.334-.334,8.191-8.191.167-.167.334-.334h0l2.34-2.34.669-.669L78.9,63.355Z"/><path class="p" d="M102.138,69.039,93.445,77.9,80.908,90.436l-.167.167-.836.167-3.678,1.17-1.5.334-4.513,1.5-2.34.669-9.027,2.675-1.839.5-.334.167.167-.334,1.337-1.337,6.352-6.352.669-.5,3.343-3.51.334-.334,3.343-3.343L88.6,65.7l8.358,2.173h.5l2.006.5Z"/><path class="i" d="M81.075,90.436l-.334.167-.669.167-3.845,1.17-1.5.5-4.513,1.337-2.34.669-9.027,2.675-1.839.5-.5.167-2.34.669-1.5.5-.836-2.006-2.006-4.179L43.3,79.069,40.12,72.382l-.334-.669h0l-1.839-3.678h0v-.167l.334-.167,7.188-1.672.836-.167h.334l.836-.167,5.684-1.337h.167l.669-.167C56,66.2,60.848,70.878,66.532,76.394c1,1,2.173,2.006,3.176,3.009,1,.836,1.839,1.839,2.842,2.842,2.507,2.507,5.516,5.349,8.525,8.191Z"/><path class="j" d="M67.869,94.448l-9.027,2.675-1.839.5-.5.167-2.34.669-1.5-2.507-2.173-4.012L43.129,79.069l-2.675-4.681-1-2.006-2.507-4.346-.5-1.17.836-.167,14.71-3.678c.167.167.5.669,1,1.17C55,66.364,59.845,71.212,65.7,76.9c1,1,2.173,2.006,3.176,3.176l2.842,2.842c2.675,2.675,5.516,5.349,8.358,8.024l-3.845,1-1.5.5-4.513,1.337Z"/><path class="q" d="M46.137,65.7,44.466,76.06l9.528,4.513v.167h.167v-.167l1.672-10.364-9.7-4.513v-.167h0Z"/><path class="i" d="M45.636,64.693,43.3,77.063l11.367,4.513h.167v-.167l1-11.2-10.2-5.516Z"/><path class="i" d="M46.973,74.723l1-5.684,5.182,2.507-.836,5.684Z"/><path class="r" d="M55.164,61.182l.669,2.34,11.033,6.352-.334-7.522Z"/><path class="r" d="M79.236,61.182l-.836,2.34L67.535,69.875l.167-7.522Z"/><path class="i" d="M66.2,82.412,68.2,84.585c-.669-.669-1.337-1.5-2.006-2.173-1.17-1.17-2.34-2.34-3.009-3.176l-1.672-1.672,1.672,1.672Z"/><path class="i" d="M68.872,85.421c2.507,2.34,4.848,4.513,7.188,6.519l-1.5.5-6.018-6.687-2.675-2.842-.334-.334-2.675-2.842-5.516-5.684-.167-.167.167.167c1.672,1.672,3.51,3.678,5.516,5.684L65.7,82.579l.334.334A13.315,13.315,0,0,1,68.872,85.421Z"/><path class="i" d="M58.842,97.123l-1.839.5-.167-.167L55,93.779,52.824,89.6l-2.507-4.513L47.475,79.9l6.018,9.027L56,92.776l2.173,3.343Z"/><path class="i" d="M70.209,93.779l-2.34.669L66.2,91.773l-1.672-2.006-2.507-3.009-1.17-1.5,1.337,1.17,3.009,2.842Z"/><path class="i" d="M42.126,94.95l-4.179,7.188v1.17l-4.513,1.337-3.343-.669,4.513-2.006Z"/><path class="i" d="M108.49,82.245l-5.182,1.672-9.528,2.675-.669.334-.5-7.188.836-1.839,1.17-3.009,2.842-7.021,2.006.5,2.675.669h.167l1,.334,2.173,5.182,2.006,5.349.669,1.5Z"/><path class="o" d="M103.308,83.917l-9.528,2.842V80.072l2.34-4.848.334-.5,3.009-6.185,2.675-5.349s6.854,8.693,7.021,8.525c0,0,.167,1,.5,2.507.334,1.839.836,4.681,1.17,7.522l-2.173.669h-.167Z"/><path class="i" d="M42.293,80.406l-.167,12.036L25.743,89.6V88.263l4.681-16.716,1-2.173,4.346-1h.167l.334-.167h.167Z"/><path class="o" d="M42.126,93.779,26.746,92.442l-4.012-.334h0a20.609,20.609,0,0,1,.5-3.009c.836-5.851,2.675-17.385,2.842-17.385.167.167,7.021-8.525,7.021-8.525v.167l2.675,5.182,5.851,11.7Z"/><path class="p" d="M111,81.576l-2.173.669h-.167l-5.182,1.5,2.173-9.194.5-2.173L102.3,63.021s6.854,8.693,7.021,8.525c0,0,.167,1,.5,2.507C110.162,76.06,110.5,78.735,111,81.576Z"/><path class="p" d="M33.1,63.188l-3.845,9.194.334,1.17,3.176,13.54-6.018,5.349-1.5,1.17s-2.006,8.191-2.173,8.525h-.334V92.108h0l.167-2.173.334-.836c.836-5.851,2.675-17.385,2.842-17.385S33.1,63.021,33.1,63.188Z"/><path class="j" d="M25.576,73.887l2.34,6.519L23.57,86.257Z"/><path class="j" d="M111,81.576h0l-2.173.669-.669-.836-.836-1,.167-.5,2.34-5.851v-.167Z"/><path class="i" d="M109.827,73.887h0c-.334-1.5-.5-2.507-.5-2.507-.167.167-7.021-8.525-7.021-8.525l-5.349,5.015L88.6,65.7l-4.513-1.17-5.015-1.17h-.5l.669-2.173-4.848-2.173V57.5a23.216,23.216,0,0,0,6.519-12.872c0-.334,0-3.176.167-6.185l.669-.5L83.081,24.74,79.9,19.224,67.367,11.367l-.334.167V94.615l.836-.167,2.34-.669,4.681-1.337,1.5-.5,3.678-1.17.669-.167.334-.167,12.2-3.678.669-.167,9.528-2.842,5.182-1.5h.167L111,81.576h0Z"/><path class="g" d="M73.218,141.589l5.349-2.173-1.17-2.173-21.4.167-1.5,2.006,4.848,2.173Z"/><rect class="h" width="13.875" height="14.543" transform="translate(59.343 133.732)"/><path class="i" d="M59.343,145.433v-3.51a8.24,8.24,0,0,1,5.684-2.675H67.7c2.006,0,3.845,1,5.684,2.507v3.51l-1.17-1.839-.334,4.848H61.015l-.334-4.848Z"/><path class="h" d="M65.027,181.374H67.7c6.854,0,12.37-4.681,12.37-10.531,0,0,0-14.209-.167-14.878-1-6.185-6.018-15.546-12.37-15.546H64.86c-6.185,0-11.367,9.528-12.37,15.546-.167.669-.167,14.878-.167,14.878C52.49,176.693,58.173,181.374,65.027,181.374Z"/><path class="j" d="M53.827,181.374l12.537,7.857,12.37-7.857,3.343-5.516-1.337-13.206-1.672-1-.334,12.2L74.89,178.03l-8.525-4.012-8.525,4.012-4.012-4.179-.334-12.2-1.672,1-1.17,13.206Z"/><path class="k" d="M74.388,164.49a1.41,1.41,0,0,0,.334-1.17,2.368,2.368,0,0,0-4.681,0,3.1,3.1,0,0,0,.334,1.17Z"/><path class="i" d="M65.361,166.5H67.2l1.17-9.194-2.006-2.507L64.191,157.3Z"/><path class="k" d="M58.341,164.49a1.41,1.41,0,0,1-.334-1.17,2.368,2.368,0,0,1,4.681,0,3.1,3.1,0,0,1-.334,1.17Z"/><path class="j" d="M53.827,155.463,60.681,144.6l.5,8.525,3.678,1.5,1.5.167,1.5-.167,3.678-1.5.5-8.525L78.9,155.463l1,.5c-1-6.185-6.018-15.546-12.37-15.546H64.86c-6.185,0-11.367,9.528-12.37,15.546Z"/><path class="h" d="M62.52,150.783l3.176,2.34h1.337l3.009-2.34.167-6.687H62.352Z"/><g class="l"><rect class="m" width="5.015" height="1.672" transform="translate(63.857 148.777)"/></g><path class="j" d="M62.687,169.505l-6.854-.836,6.854-.836Z"/><path class="j" d="M69.875,167.833l6.687.836-6.687.836Z"/><path class="g" d="M31.594,137.577l5.349-5.015,2.34-7.021s-7.857,1.5-7.857,1.337Z"/><path class="g" d="M100.466,137.577l-5.349-5.015-2.34-7.021s7.857,1.5,7.857,1.337Z"/><path class="n" d="M97.29,133.732l.669-1.5,1.672-5.684s-9.7,2.675-9.361,2.507Z"/><path class="o" d="M25.242,118.353l5.182-1.5,9.528-2.842.669-.167,12.2-3.678.334-.167.669-.167,3.678-1.17,1.5-.5,4.681-1.337,2.34-.669,9.027-2.675,1.839-.5.5-.167,2.34-.669,1.5-.5,4.179-1.337,6.352-1.839v7.188l4.179-7.188V97.29l4.513-1.337,10.7-3.176v15.881h0L111,110.83l-.334.836-2.173,5.015-2.173,5.015-2.34,5.349-.836,2.006-1,2.173-1.5.334-2.675.669h-.836l-.5.167-.836.167h0l-.334.167L88.263,134.4l-.836.167h-.334l-.836.167-5.684,1.337h-.167l-.669.167-1.839.836-.5.167-4.179,1H59.343L56,137.409l-.836-.167-.5-.167-5.015-1.17-4.513-1-8.358-2.173-.5-.167-2.006-.5-2.675-.669h-.167l-1-.334-2.173-5.349-2.173-5.349-.669-1.5Z"/><path class="p" d="M49.648,135.9l14.71-14.543.669-.669,2.507-2.507h0l4.012-4.012.167-.334,7.021-7.021,2.173-2.173,1-1,1.17-1,2.173-2.173,6.352-2.006V100.3l-6.519,6.519-1.17,1.17-.669.669L80.908,111l-.669.669-.669.669-.334.334-8.191,8.191-.167.167-.334.334h0L68.2,123.7l-.669.669-12.7,12.872Z"/><path class="p" d="M31.594,131.559l8.693-8.86,12.537-12.537.167-.167.836-.167,3.678-1.17,1.5-.334,4.513-1.5,2.34-.669,9.027-2.675,1.839-.5.334-.167-.167.334-1.337,1.337-6.352,6.352-.669.669-3.343,3.343-.334.334-3.343,3.343L45.134,134.9l-8.358-2.173h-.5l-2.006-.5Z"/><path class="i" d="M52.657,110.162l.334-.167.669-.167,3.678-1.17,1.5-.5,4.681-1.337,2.34-.669,9.027-2.675,1.839-.5.5-.167,2.34-.669,1.5-.5.836,2.006,2.006,4.179,6.519,13.708,3.176,6.687.334.669h0l1.839,3.678h0v.167l-.334.167-7.188,1.672-.836.167h-.334l-.836.167-5.684,1.337h-.167l-.669.167c-2.006-2.006-6.854-6.687-12.537-12.2-1-1-2.173-2.006-3.176-3.009l-2.842-2.842c-2.507-2.507-5.516-5.349-8.525-8.191Z"/><path class="j" d="M65.863,106.15l9.027-2.675,1.839-.5.5-.167,2.34-.669,1.5,2.507,2.34,4.012,7.355,12.872,2.675,4.681,1,1.839,2.507,4.346.669,1.17-.836.167-14.878,3.845c-.167-.167-.5-.669-1-1.17-2.006-2.173-6.854-7.021-12.7-12.7-1-1-2.173-2.006-3.176-3.176l-2.842-2.842c-2.675-2.675-5.516-5.349-8.358-8.024l3.678-1.17,1.5-.5,4.681-1.337Z"/><path class="q" d="M87.594,134.9l1.672-10.364-9.528-4.513v-.167H79.57v.167L77.9,130.389l9.7,4.513v.167h0Z"/><path class="i" d="M88.1,135.9l2.34-12.37-11.367-4.513H78.9v.167l-1,11.2L88.1,135.9Z"/><path class="i" d="M86.759,125.875l-1,5.684-5.182-2.507.836-5.684Z"/><path class="r" d="M78.567,139.415l-.669-2.34-11.033-6.352.334,7.522Z"/><path class="r" d="M54.5,139.415l.836-2.34,11.033-6.352-.334,7.522Z"/><path class="i" d="M67.535,118.185l-2.006-2.173c.669.669,1.337,1.5,2.006,2.173,1.17,1.17,2.34,2.34,3.009,3.176l1.672,1.672-1.672-1.672Z"/><path class="i" d="M64.86,115.177c-2.507-2.34-4.848-4.513-7.188-6.519l1.5-.5,6.185,6.519,2.675,2.842.334.334,2.675,2.842,5.516,5.684.167.167-.167-.167c-1.672-1.672-3.51-3.678-5.516-5.684-1-.836-1.839-1.839-2.842-2.842l-.334-.334A8.17,8.17,0,0,1,64.86,115.177Z"/><path class="i" d="M74.89,103.475l1.839-.5.167.167,1.839,3.678L80.908,111l2.507,4.513,2.842,5.182-6.018-9.027-2.507-3.845-2.173-3.343Z"/><path class="i" d="M63.523,106.818l2.34-.669,1.672,2.675,1.672,2.006,2.507,3.009,1.17,1.5-1.337-1.17L68.538,111.5Z"/><path class="i" d="M91.606,105.648l4.179-7.188V97.29l4.513-1.337,3.343.669-4.513,2.006Z"/><path class="i" d="M25.242,118.353l5.182-1.672,9.528-2.675.669-.334.5,7.188-.836,1.839-1.17,3.009-2.842,7.021-2.006-.5-2.675-.669h-.167l-1-.334-2.173-5.182-2.006-5.349-.669-1.5Z"/><path class="o" d="M30.424,116.681l9.528-2.842v6.687l-2.34,4.848-.334.5-3.009,6.185-2.675,5.349s-6.854-8.693-7.021-8.525c0,0-.167-1-.5-2.507-.334-1.839-.836-4.681-1.17-7.522l2.173-.669h.167Z"/><path class="i" d="M91.439,120.024l.167-12.036,16.382,2.675V112l-4.681,16.716-1,2.173-4.346,1H97.29Z"/><path class="o" d="M91.606,106.818l15.379,1.337,4.012.334h0a20.608,20.608,0,0,1-.5,3.009c-.836,5.851-2.675,17.385-2.842,17.385-.167-.167-7.021,8.525-7.021,8.525v-.167l-2.675-5.182-5.851-11.7Z"/><path class="p" d="M22.734,119.021l2.173-.669h.167l5.182-1.5-2.173,9.194-.5,2.173,3.845,9.361s-6.854-8.693-7.021-8.525c0,0-.167-1-.5-2.507C23.57,124.538,23.236,121.863,22.734,119.021Z"/><path class="p" d="M100.633,137.409l3.845-9.194-.5-1.17L100.8,113.5l6.185-5.349,1.337-1.17s2.006-8.191,2.173-8.525h.334v10.03h0l-.167,2.173-.334.836c-.836,5.851-2.675,17.385-2.842,17.385,0,0-6.854,8.693-6.854,8.525Z"/><path class="j" d="M108.156,126.711l-2.34-6.519,4.346-5.851Z"/><path class="j" d="M22.734,119.021h0l2.173-.669.669.836.836,1-.167.5-2.34,5.851v.167Z"/><path class="i" d="M66.532,105.982l-.669.167-2.34.669-4.681,1.337-1.337.5-3.678,1.17-.669.167-.334.167-12.2,3.51-.669.167-9.528,2.842-5.182,1.5h-.167l-2.173.669h0l1.17,7.522v-.167c.334,1.5.5,2.507.5,2.507.167-.167,7.021,8.525,7.021,8.525l5.182-4.848L45.3,134.4l4.513,1.17,5.015,1.17.5.167h0l-.669,2.173,4.848,2.173v1.5a23.216,23.216,0,0,0-6.519,12.872c0,.334,0,3.176-.167,6.185l-1,.836-1.337,13.206,3.176,5.516L66.2,189.231l.167-.167V105.982Z"/></g></g><text class="s" transform="translate(886 2395)"><tspan x="-4.87" y="0">J</tspan></text><text class="s" transform="translate(1020 2589) rotate(180)"><tspan x="-4.87" y="0">J</tspan></text><g class="t" transform="translate(787 1952)"><g transform="translate(89.879 447)"><path class="j" d="M9.121,0,1.389,9l7.732,9,7.732-9Z"/><path class="i" d="M9.06.06,9.121,0l7.732,9L9.121,18l-.06-.06Z"/></g></g><g class="u" transform="translate(787 1952)"><g transform="translate(223.879 615)"><path class="j" d="M9.121,18l7.732-9L9.121,0,1.389,9Z"/><path class="i" d="M9.181,17.94l-.06.06L1.389,9,9.121,0l.06.06Z"/></g></g></g></svg>