<svg xmlns="http://www.w3.org/2000/svg" xmlns:xlink="http://www.w3.org/1999/xlink" width="189.902" height="257.863" viewBox="0 0 189.902 257.863"><defs><style>.a,.b,.c,.d,.e{fill:#fff;}.a{stroke:#333;}.a,.d{stroke-width:2px;}.b{stroke:#707070;}.c{stroke:#d1d1d1;stroke-width:0.5px;}.d{stroke:#d66142;}.f{clip-path:url(#c);}.g{fill:#c9c9c9;}.h{fill:#616161;opacity:0.2;}.i,.o{fill:#d66142;}.j{fill:#fdd8ab;}.k{fill:#ebebeb;}.l{fill:#333;}.m{fill:#ffd675;}.n{fill:#d66b4f;}.o{font-size:20px;font-family:AlwynNew-Bold, Alwyn New;font-weight:700;}.p{clip-path:url(#d);}.q{clip-path:url(#e);}.r{stroke:none;}.s{fill:none;}.t{filter:url(#a);}</style><filter id="a" x="0" y="0" width="189.902" height="257.863" filterUnits="userSpaceOnUse"><feOffset dy="3" input="SourceAlpha"/><feGaussianBlur stdDeviation="3" result="b"/><feFlood flood-opacity="0.161"/><feComposite operator="in" in2="b"/><feComposite in="SourceGraphic"/></filter><clipPath id="c"><rect class="a" width="115.902" height="177.863" transform="translate(738 729)"/></clipPath><clipPath id="d"><rect class="b" width="18" height="18" transform="translate(90 447)"/></clipPath><clipPath id="e"><rect class="b" width="18" height="18" transform="translate(242 633) rotate(180)"/></clipPath></defs><g transform="translate(-1068 -2366)"><g class="t" transform="matrix(1, 0, 0, 1, 1068, 2366)"><g class="c" transform="translate(9 6)"><rect class="r" width="171.902" height="239.863" rx="10"/><rect class="s" x="0.25" y="0.25" width="171.402" height="239.363" rx="9.75"/></g></g><g class="d" transform="translate(1092 2393)"><rect class="r" width="141.902" height="197.863" rx="10"/><rect class="s" x="1" y="1" width="139.902" height="195.863" rx="9"/></g><rect class="e" width="30" height="50" transform="translate(1083 2378)"/><rect class="e" width="30" height="50" transform="translate(1213 2557)"/><g class="f" transform="translate(367 1674)"><g transform="translate(731.354 720.915)"><path class="g" d="M91.357,50.125l-.323,3.234-.162,1.779-.485,8.246-.162,1.94-.162,2.749h0L89.74,70.5H85.213l-1.132.162H78.1l-11.642.323h0l-11.8-.323H48.67L47.538,70.5H43.011l-.162-2.425h0l-.323-2.749v-1.94l-.647-8.246-.162-1.779-.162-3.234Z"/><path class="h" d="M88.932,50.125C85.213,55.3,80.038,60.8,74.218,60.8h0a11.208,11.208,0,0,1-4.366,3.557A7.239,7.239,0,0,1,66.618,65h-.162V50.125Z"/><path class="i" d="M99.28,82.626,89.9,85.374l-.97.323h-.323c-.808-1.294-1.294-2.1-1.617-2.587l-.162-.162a14.426,14.426,0,0,0-1.617,3.719l-2.587.808L66.295,92.327,56.108,95.4l-3.4.97c-.162-.485-.323-.808-.485-1.294-6.144-2.587-3.072-6.791-6.468-12.127-.323.485-6.953,10.672-8.246,17.948l-.808.323-6.629,1.94h-.162c-.162-14.552,4.366-24.254,8.408-30.075a6.845,6.845,0,0,1,.808-1.132c.323-.323.485-.647.808-.97h0l.647-.647c.162-.162.323-.485.647-.647l1.455-1.455h0l.323-.323.323-.323.323-.323.485-.485a9.9,9.9,0,0,0,.97-.808l1.455.323h.323l.647.162H47.7l2.1-.162,3.234-.162,13.1-.485h0l13.1.485,3.234.162,2.1.162h.162l.97-.162h.323l1.455-.323a9.9,9.9,0,0,0,.97.808l.485.485c.162,0,.162.162.323.323l.323.323.323.323h0l.323.323.323.323c.162.323.485.485.808.808l.485.485a.158.158,0,0,0,.162.162c.162.162.323.485.647.647h0c.323.323.485.647.808.97s.485.808.808,1.132A47.029,47.029,0,0,1,99.28,82.626Z"/><path class="h" d="M66.456,76.481h2.1l-.97,7.761H66.456Z"/><path class="h" d="M66.456,50.125H43.819C47.538,55.3,52.712,60.8,58.533,60.8h0c2.1,2.587,4.689,4.2,7.6,4.2h.162V50.125Z"/><path class="h" d="M66.456,76.481h-2.1l.97,7.761h1.132Z"/><path class="h" d="M58.533,82.949c-11-2.425-16.816-6.144-20.05-9.863a29.165,29.165,0,0,1,5.659-6.306Z"/><path class="j" d="M66.456,61.767h-.162a6.562,6.562,0,0,1-3.072-.647c0,.323-.162.485-.162.808v1.455a7.239,7.239,0,0,0,3.234.647h.162Z"/><path class="j" d="M66.456,58.533h0a3.491,3.491,0,0,0-3.4,2.587,7.007,7.007,0,0,0,3.072.647h.162V58.533Z"/><path class="j" d="M85.536,65.486H79.715L69.69,65.324v-2.1a7.239,7.239,0,0,1-3.234.647h-.323a7.239,7.239,0,0,1-3.234-.647v2.1l-10.025.162H47.053c-.97,1.779-.647,1.94-.647,4.042,0,5.013,3.557,9.54,8.893,12.289h0c.97.485,1.94.808,3.072,1.294A30.085,30.085,0,0,0,65,84.4h2.264a21,21,0,0,0,6.629-1.294,17.524,17.524,0,0,0,3.072-1.294h0C82.3,79.23,85.859,74.7,85.859,69.528,86.183,67.426,86.668,67.265,85.536,65.486Z"/><path class="j" d="M66.456,61.767h.162a6.562,6.562,0,0,0,3.072-.647c0,.323.162.485.162.808v1.455a7.239,7.239,0,0,1-3.234.647h-.162Z"/><path class="j" d="M66.456,58.533h0a3.491,3.491,0,0,1,3.4,2.587,7.007,7.007,0,0,1-3.072.647h-.162V58.533Z"/><path class="h" d="M94.268,73.086c-3.072,3.719-9.055,7.438-20.05,9.863L80.2,76.158l.323-.485,4.689-5.336.97-1.132,2.425-2.749.485.485c.162,0,.162.162.323.323l.323.323.323.323h0l.323.323.323.323c.162.323.485.485.808.808l.485.485.162.162c.162.162.323.485.647.647h0c.323.323.485.647.808.97A2.049,2.049,0,0,0,94.268,73.086Z"/><path class="k" d="M95.723,61.767a9.946,9.946,0,0,1-.162,2.1,15.491,15.491,0,0,1-2.91,7.115h0a26.725,26.725,0,0,1-7.6,6.791,1.226,1.226,0,0,1-.647.323,41.6,41.6,0,0,1-7.115,3.557.158.158,0,0,0-.162.162h-.162c-.162,0-.323.162-.485.162-.485.162-.97.485-1.455.647-.323.162-.485.162-.808.323L80.524,70.66l2.264-4.2.485-.97L91.2,50.125A18.242,18.242,0,0,1,95.723,61.767Z"/><path class="k" d="M58.533,82.949A60.246,60.246,0,0,1,48.346,78.1c-.162-.162-.485-.323-.647-.485-7.115-4.527-9.863-9.54-10.51-13.906v-1.94a19.609,19.609,0,0,1,4.366-11.642Z"/><path class="h" d="M56.108,95.4l-3.4.97a11.14,11.14,0,0,1-.485-1.294c-6.144-2.587-3.072-6.791-6.468-12.127-.323.485-6.953,10.672-8.246,17.948l-.808.323c-1.779-7.761,9.863-20.535,9.863-20.535S51.9,93.459,56.108,95.4Z"/><path class="h" d="M89.74,85.374l-.808.323h-.323c-.808-1.294-1.294-2.1-1.617-2.587l-.162-.162a14.426,14.426,0,0,0-1.617,3.719l-2.587.808a71.037,71.037,0,0,0,3.234-6.791A39.8,39.8,0,0,1,89.74,85.374Z"/><path class="l" d="M44.142,69.69l2.1,2.749-.97-3.4Z"/><path class="l" d="M51.257,76.32l2.1,2.749-.97-3.4Z"/><path class="l" d="M40.423,53.359l2.1,2.749-.97-3.234Z"/><path class="l" d="M43.172,59.18l2.1,2.587-.97-3.234Z"/><path class="l" d="M45.921,64.839l2.1,2.749-.97-3.234Z"/><path class="l" d="M48.67,70.5l1.94,2.749L49.8,70.013Z"/><path class="l" d="M48.346,78.1c-.162-.162-.485-.323-.647-.485L46.568,76l1.132-.485Z"/><path class="l" d="M38.807,58.21l2.1,2.749-.97-3.234Z"/><path class="l" d="M41.555,63.869l1.94,2.749-.808-3.234Z"/><path class="l" d="M38.16,65l-.97-1.132v-2.1h.162Z"/><path class="l" d="M39.938,69.043l2.1,2.749-.97-3.234Z"/><path class="l" d="M88.608,69.69l-2.1,2.749.97-3.4Z"/><path class="l" d="M81.494,76.32l-2.1,2.749.97-3.4Z"/><path class="l" d="M92.327,53.359l-2.1,2.749.97-3.234Z"/><path class="l" d="M89.578,59.18l-2.1,2.587.97-3.234Z"/><path class="l" d="M86.83,64.839l-1.94,2.749.808-3.234Z"/><path class="l" d="M84.243,70.5l-2.1,2.749.97-3.234Z"/><path class="l" d="M84.4,78.1c.162-.162.485-.323.647-.485L86.183,76l-1.132-.485Z"/><path class="l" d="M93.944,58.21,92,60.959l.808-3.234Z"/><path class="l" d="M91.357,63.869l-2.1,2.749.97-3.234Z"/><path class="l" d="M95.723,61.767a9.946,9.946,0,0,1-.162,2.1L94.753,65l.97-3.234Z"/><path class="l" d="M92.812,69.043l-2.1,2.749.97-3.234Z"/><path class="i" d="M94.753,37.028a60.816,60.816,0,0,1-8.246,13.1c-3.4,4.042-7.6,7.276-12.127,7.438h-.323a20.176,20.176,0,0,0,3.4-7.276A24.247,24.247,0,0,0,78.1,44.3c0-7.438-3.072-13.906-7.6-16.493a.972.972,0,0,0-.647.162.594.594,0,0,0-.485.162h-.162c-.162,0-.323.162-.485.162h-.162c-.162,0-.162.162-.323.162h-.323l-.97.97a3.383,3.383,0,0,0-.647.97h0a3.383,3.383,0,0,0-.647-.97,3.03,3.03,0,0,0-1.132-.97l-.97-.485a3.805,3.805,0,0,0-1.294-.323c-4.366,2.587-7.6,8.893-7.6,16.493a35.671,35.671,0,0,0,.647,5.983,18.972,18.972,0,0,0,3.4,7.276h-.323c-4.527,0-8.731-3.4-12.127-7.438A60.816,60.816,0,0,1,38,36.866L58.21,16.654l.485-.485h0l.485-.485,7.276-7.6h0l.162.162,6.953,7.276.647.647.485.485Z"/><path class="h" d="M66.456,26.518l5.336-7.276L66.456,11.8h0l-5.5,7.438,5.5,7.276Z"/><path class="m" d="M74.541,16.654,66.456,27.488h0L58.21,16.654l.647-.485v-.162L61.12,19.08l.647.97,4.689-6.144h0l4.527,6.144.647-.97,2.264-3.072.162.162Z"/><path class="h" d="M66.456,23.769l2.587-3.557-2.587-3.557h0l-2.749,3.557,2.749,3.557Z"/><path class="h" d="M46.891,19.565l2.749-3.557L46.891,12.45h0l-2.749,3.557,2.749,3.557Z"/><path class="j" d="M70.5,27.65A5.234,5.234,0,0,0,66.456,30.4a4.882,4.882,0,0,0-4.042-2.749c-4.366,2.587-7.6,8.893-7.6,16.493A22.283,22.283,0,0,0,58.857,57.4h0a10.591,10.591,0,0,0,4.527,3.557,9.455,9.455,0,0,0,3.072.647h0a7.007,7.007,0,0,0,3.072-.647A11.637,11.637,0,0,0,74.056,57.4h0A22.283,22.283,0,0,0,78.1,44.142C77.936,36.543,74.864,30.237,70.5,27.65Z"/><path class="l" d="M57.725,43.172c0,.162-.162.323-.162.485,0,.97,1.132,1.617,2.425,1.617s2.425-.808,2.425-1.617a.594.594,0,0,0-.162-.485Z"/><path class="l" d="M75.026,43.172c0,.162.162.323.162.485,0,.97-1.132,1.617-2.425,1.617s-2.425-.808-2.425-1.617a.594.594,0,0,1,.162-.485Z"/><path class="i" d="M69.69,55.3H63.222a4.1,4.1,0,0,0,3.234,1.455h0A4.357,4.357,0,0,0,69.69,55.3Z"/><path class="n" d="M66.456,55.138c-1.455-1.779-3.557.485-3.557.485h7.115S67.911,53.359,66.456,55.138Z"/><path class="h" d="M66.456,45.921v-.162h0v.162l-1.94,5.821h3.719Z"/><path class="i" d="M70.013,39.615l4.851.162h0l.162.162,1.94,2.1L74.7,40.1h.162l-4.851.323Z"/><path class="i" d="M63.222,40.423,58.372,40.1h0l-2.1,1.94,1.94-2.1v-.162h.162l4.851-.162Z"/><path class="h" d="M58.533,82.949a17.523,17.523,0,0,1-3.072-1.294h0c-5.336-2.587-8.893-7.115-8.893-12.289,0-2.1-.485-2.264.647-4.042h5.821Z"/><path class="h" d="M69.69,61.12a7.007,7.007,0,0,1-3.072.647h-.323a6.562,6.562,0,0,1-3.072-.647c0,.323-.162.485-.162.808v1.455a7.239,7.239,0,0,0,3.234.647h.323a7.239,7.239,0,0,0,3.234-.647V61.929A1.212,1.212,0,0,0,69.69,61.12Z"/><path class="h" d="M68.073,76.8H64.839l.808,7.438h1.617Z"/><path class="h" d="M74.218,82.949a17.523,17.523,0,0,0,3.072-1.294h0c5.336-2.587,8.893-7.115,8.893-12.289,0-2.1.485-2.264-.647-4.042H79.715Z"/><path class="h" d="M99.28,82.626,89.9,85.374l-.97.323a27.363,27.363,0,0,0-1.779-2.749.158.158,0,0,1-.162.162,12.718,12.718,0,0,0-1.455,3.557l-2.587.808L66.295,92.489V8.408l.162-.162,6.953,7.276.647.647.485.485L94.753,37.028a60.816,60.816,0,0,1-8.246,13.1h4.851a19.609,19.609,0,0,1,4.366,11.642,9.945,9.945,0,0,1-.162,2.1,15.491,15.491,0,0,1-2.91,7.115h0c.323.323.485.647.808.97s.485.808.808,1.132A47.029,47.029,0,0,1,99.28,82.626Z"/><path class="h" d="M69.852,27.811c.162,0,.485-.162.647-.162C70.175,27.65,70.013,27.811,69.852,27.811Z"/><path class="h" d="M68.073,28.62Z"/><path class="h" d="M68.558,28.3Z"/><path class="h" d="M69.205,27.973h0Z"/><path class="g" d="M87.8,143.908H38l.323-3.234.162-1.779.485-8.246.162-1.94.162-2.749h0l.323-2.425h4.527l1.132-.162h5.983l11.642-.323h.162l11.642.323h5.983l1.132.162h4.527l.162,2.425.323,2.749v1.94l.647,8.246.162,1.94Z"/><path class="h" d="M63.061,129.193v14.714H40.423c3.719-5.174,8.893-10.672,14.714-10.672h0a11.208,11.208,0,0,1,4.366-3.557,7.239,7.239,0,0,1,3.234-.647.565.565,0,0,0,.323.162Z"/><path class="i" d="M99.28,90.872c.162,14.552-4.366,24.254-8.408,30.075a2.839,2.839,0,0,1-.647.808,3.527,3.527,0,0,1-.647.808l-.485.485c-.162.323-.485.485-.647.808h0c-.162.162-.323.485-.647.647l-1.455,1.455a10.461,10.461,0,0,1-1.455,1.294,9.9,9.9,0,0,0-.97.808l-1.294-.323H82.3l-.647-.162h-.162l-2.1.162h0l-3.234.162-13.1.485h0L49.8,127.738l-3.234-.162-2.1-.162H44.3l-.647.323h-.323l-1.455.323a6.4,6.4,0,0,0-1.132-.808l-.485-.485-.162-.162a3.527,3.527,0,0,0-.808-.647h0l-.323-.323a3.527,3.527,0,0,1-.647-.808c-.162-.162-.162-.323-.323-.323-.162-.162-.323-.323-.323-.485l-.162-.162a3.527,3.527,0,0,1-.647-.808c-.323-.323-.485-.647-.808-.97s-.485-.808-.808-1.132a40.124,40.124,0,0,1-5.013-9.54l9.378-2.749,1.132-.323a27.362,27.362,0,0,0,1.779,2.749,14.425,14.425,0,0,0,1.617-3.719l2.587-.808,15.846-4.689,10.672-3.234,3.4-.97c.162.485.323.808.485,1.294,6.144,2.587,3.072,6.791,6.468,12.127.323-.485,7.115-10.672,8.246-17.948l.808-.323,6.629-1.94Z"/><path class="h" d="M62.9,117.551H60.8l.97-7.761H62.9Z"/><path class="h" d="M62.9,143.908H85.536c-3.719-5.174-8.893-10.672-14.714-10.672h0c-2.1-2.587-4.689-4.2-7.6-4.2h-.162v14.876Z"/><path class="h" d="M62.9,117.551H65l-.97-7.761H62.9Z"/><path class="h" d="M70.822,111.084c11,2.425,16.816,6.144,20.05,9.863a29.166,29.166,0,0,1-5.659,6.306Z"/><path class="j" d="M62.9,132.266h.162a6.562,6.562,0,0,1,3.072.647c0-.323.162-.485.162-.808v-1.455A7.239,7.239,0,0,0,63.061,130H62.9Z"/><path class="j" d="M62.9,135.5h0a3.491,3.491,0,0,0,3.4-2.587,7.007,7.007,0,0,0-3.072-.647h-.162V135.5Z"/><path class="j" d="M43.819,128.547l5.821.162,10.025.162v2.1a7.239,7.239,0,0,1,3.234-.647h.323a7.239,7.239,0,0,1,3.234.647v-2.1l10.025-.162,5.821-.162c.97-1.779.647-1.94.647-4.042,0-5.013-3.557-9.54-8.893-12.289h0c-.97-.485-1.94-.808-3.072-1.294a30.085,30.085,0,0,0-6.629-1.294H62.09a21,21,0,0,0-6.629,1.294,17.523,17.523,0,0,0-3.072,1.294h0C47.053,114.8,43.5,119.33,43.5,124.5,43.172,126.606,42.687,126.768,43.819,128.547Z"/><path class="j" d="M62.9,132.266h-.162a6.562,6.562,0,0,0-3.072.647c0-.323-.162-.485-.162-.808v-1.455A7.239,7.239,0,0,1,62.737,130H62.9Z"/><path class="j" d="M62.9,135.5h0a3.491,3.491,0,0,1-3.4-2.587,7.007,7.007,0,0,1,3.072-.647h.162V135.5Z"/><path class="h" d="M55.138,111.084l-5.983,6.791-.323.485L44.142,123.7l-.97.808-2.425,2.749-.485-.485-.162-.162a3.527,3.527,0,0,0-.808-.647h0l-.323-.323a3.527,3.527,0,0,1-.647-.808c-.162-.162-.162-.323-.323-.323-.162-.162-.323-.323-.323-.485l-.162-.162h0a3.527,3.527,0,0,1-.647-.808c-.323-.323-.485-.647-.808-.97s-.485-.808-.808-1.132C38.16,117.228,44.142,113.509,55.138,111.084Z"/><path class="k" d="M55.138,111.084l-6.306,12.289-2.264,4.2-.485.97L38,143.908a19.609,19.609,0,0,1-4.366-11.642,9.946,9.946,0,0,1,.162-2.1,15.491,15.491,0,0,1,2.91-7.115,26.725,26.725,0,0,1,7.6-6.791c.162-.162.485-.323.647-.485a45.478,45.478,0,0,1,7.438-3.719c.647-.162,1.132-.485,1.779-.647C54.491,111.245,54.814,111.245,55.138,111.084Z"/><path class="k" d="M70.822,111.084a60.247,60.247,0,0,1,10.187,4.851c.162.162.485.323.647.485,7.115,4.527,9.863,9.54,10.51,13.906a9.22,9.22,0,0,1,.162,2.1,19.609,19.609,0,0,1-4.366,11.642Z"/><path class="h" d="M73.086,98.633l3.4-.97a11.14,11.14,0,0,1,.485,1.294c6.144,2.587,3.072,6.791,6.468,12.127.323-.485,6.953-10.672,8.246-17.948l.808-.323c1.779,7.761-9.863,20.535-9.863,20.535S77.451,100.574,73.086,98.633Z"/><path class="h" d="M46.568,106.556a71.036,71.036,0,0,0-3.234,6.791,52.345,52.345,0,0,1-3.719-4.689l1.132-.323a27.361,27.361,0,0,0,1.779,2.749,14.425,14.425,0,0,0,1.617-3.719Z"/><path class="l" d="M85.213,124.343l-2.1-2.749.97,3.4Z"/><path class="l" d="M78.1,117.713,76,114.964l.97,3.4Z"/><path class="l" d="M88.932,140.674l-2.1-2.749.97,3.234Z"/><path class="l" d="M86.183,135.014l-2.1-2.749.97,3.234Z"/><path class="l" d="M83.434,129.193l-2.1-2.749.97,3.4Z"/><path class="l" d="M80.685,123.534l-1.94-2.749.808,3.234Z"/><path class="l" d="M81.009,115.935c.162.162.485.323.647.485l1.132,1.617-1.132.485Z"/><path class="l" d="M90.549,135.823l-2.1-2.749.97,3.4Z"/><path class="l" d="M87.8,130.164l-1.94-2.749.808,3.234Z"/><path class="l" d="M91.2,129.032,92,130.164a9.22,9.22,0,0,1,.162,2.1H92Z"/><path class="l" d="M89.417,124.989l-2.1-2.749.97,3.234Z"/><path class="l" d="M40.747,124.343l2.1-2.749-.97,3.4Z"/><path class="l" d="M47.861,117.713l2.1-2.749-.97,3.4Z"/><path class="l" d="M37.028,140.674l2.1-2.749-.97,3.234Z"/><path class="l" d="M39.777,135.014l2.1-2.749-.97,3.234Z"/><path class="l" d="M42.526,129.193l1.94-2.749-.808,3.4Z"/><path class="l" d="M45.113,123.534l2.1-2.749-.97,3.234Z"/><path class="l" d="M44.951,115.935c-.162.162-.485.323-.647.485l-1.132,1.617,1.132.485Z"/><path class="l" d="M35.411,135.823l1.94-2.749-.808,3.4Z"/><path class="l" d="M38,130.164l2.1-2.749-.97,3.234Z"/><path class="l" d="M34.764,129.032l-.97,3.234h-.162a9.946,9.946,0,0,1,.162-2.1Z"/><path class="l" d="M36.543,124.989l2.1-2.749-.97,3.234Z"/><path class="i" d="M55.461,136.47h0Z"/><path class="i" d="M70.5,136.47h0Z"/><path class="i" d="M91.357,157,71.145,177.378l-.485.485h0l-.485.485-7.115,7.6h0l-1.779-1.779-5.336-5.659-.485-.485h0l-.485-.485L34.6,157a60.816,60.816,0,0,1,8.246-13.1c3.4-4.042,7.6-7.276,12.127-7.438H55.3a20.176,20.176,0,0,0-3.4,7.276,24.247,24.247,0,0,0-.647,5.983c0,7.438,3.072,13.906,7.6,16.493a5.989,5.989,0,0,0,2.91-1.294l.485-.485a2.606,2.606,0,0,0,.647-1.132h0c.162.323.485.808.647,1.132l.485.485a5.99,5.99,0,0,0,2.91,1.294c4.366-2.587,7.6-8.893,7.6-16.493a33.9,33.9,0,0,0-.647-5.983,16.878,16.878,0,0,0-3.4-7.276h.323c4.527,0,8.731,3.4,12.127,7.438A65.378,65.378,0,0,1,91.357,157Z"/><path class="h" d="M62.9,167.515l-5.336,7.276,5.336,7.438h0l5.5-7.438-5.5-7.276Z"/><path class="m" d="M71.145,177.378l-.647.485v.162l-2.264-3.072-.647-.97-4.527,6.144H62.9l-4.527-6.144-.647.97-2.264,3.072-.162-.162-.485-.485L62.9,166.545h.162Z"/><path class="h" d="M62.9,170.264l-2.587,3.557,2.587,3.557h0l2.749-3.557L62.9,170.264Z"/><path class="j" d="M58.857,166.383a5.234,5.234,0,0,0,4.042-2.749,4.882,4.882,0,0,0,4.042,2.749c4.366-2.587,7.6-8.893,7.6-16.493,0-5.336-1.617-10.187-4.042-13.259h0a10.591,10.591,0,0,0-4.527-3.557,9.455,9.455,0,0,0-3.072-.647h0a7.007,7.007,0,0,0-3.072.647,11.637,11.637,0,0,0-4.527,3.557h0a22.283,22.283,0,0,0-4.042,13.259C51.419,157.49,54.491,163.8,58.857,166.383Z"/><path class="l" d="M71.63,150.86c0-.162.162-.323.162-.485,0-.97-1.132-1.617-2.425-1.617s-2.425.808-2.425,1.617a.594.594,0,0,0,.162.485Z"/><path class="l" d="M54.329,150.86c0-.162-.162-.323-.162-.485,0-.97,1.132-1.617,2.425-1.617s2.425.808,2.425,1.617a.594.594,0,0,1-.162.485Z"/><path class="i" d="M59.665,138.733h6.468a4.1,4.1,0,0,0-3.234-1.455h0A4.357,4.357,0,0,0,59.665,138.733Z"/><path class="n" d="M62.9,138.9c1.455,1.779,3.557-.485,3.557-.485H59.342S61.444,140.674,62.9,138.9Z"/><path class="h" d="M62.9,148.112v.162h0v-.162l1.94-5.821H61.12Z"/><path class="i" d="M59.342,154.418l-4.851-.162h0l-.162-.162-1.94-2.1,2.264,1.94h-.162l4.851-.323Z"/><path class="i" d="M66.133,153.609l4.851.323h0l2.1-1.94-1.94,2.1v.162h-.162l-4.851.162Z"/><path class="h" d="M70.822,111.084a17.523,17.523,0,0,1,3.072,1.294h0c5.336,2.587,8.893,7.115,8.893,12.289,0,2.1.485,2.264-.647,4.042l-5.821.162Z"/><path class="h" d="M59.665,132.912a7.007,7.007,0,0,1,3.072-.647h.323a6.562,6.562,0,0,1,3.072.647c0-.323.162-.485.162-.808v-1.455A7.239,7.239,0,0,0,63.061,130h-.323a7.239,7.239,0,0,0-3.234.647V132.1A1.212,1.212,0,0,0,59.665,132.912Z"/><path class="h" d="M61.282,117.228h3.234l-.808-7.438H62.09Z"/><path class="h" d="M55.138,111.084a17.523,17.523,0,0,0-3.072,1.294h0c-5.336,2.587-8.893,7.115-8.893,12.289,0,2.1-.485,2.264.647,4.042l5.821.162Z"/><path class="h" d="M62.9,101.705v83.919l-1.779-1.455-5.336-5.659-.485-.485h0l-.485-.485L34.6,157a60.816,60.816,0,0,1,8.246-13.1H38a19.609,19.609,0,0,1-4.366-11.642,9.946,9.946,0,0,1,.162-2.1,15.491,15.491,0,0,1,2.91-7.115c-.323-.323-.485-.647-.808-.97s-.485-.808-.808-1.132a40.124,40.124,0,0,1-5.013-9.54l9.378-2.749,1.132-.323a27.363,27.363,0,0,0,1.779,2.749,14.425,14.425,0,0,0,1.617-3.719l2.587-.808,15.846-4.689Z"/></g></g><text class="o" transform="translate(1096 2395)"><tspan x="-6.66" y="0">Q</tspan></text><text class="o" transform="translate(1230 2589) rotate(180)"><tspan x="-6.66" y="0">Q</tspan></text><g class="p" transform="translate(997 1952)"><g transform="translate(89.879 447)"><path class="i" d="M9.121,0,1.389,9l7.732,9,7.732-9Z"/><path class="h" d="M9.06.06,9.121,0l7.732,9L9.121,18l-.06-.06Z"/></g></g><g class="q" transform="translate(997 1952)"><g transform="translate(223.879 615)"><path class="i" d="M9.121,18l7.732-9L9.121,0,1.389,9Z"/><path class="h" d="M9.181,17.94l-.06.06L1.389,9,9.121,0l.06.06Z"/></g></g></g></svg>