<svg xmlns="http://www.w3.org/2000/svg" xmlns:xlink="http://www.w3.org/1999/xlink" width="189.902" height="257.863" viewBox="0 0 189.902 257.863"><defs><style>.a,.b,.c,.d,.e,.o{fill:#fff;}.a{stroke:#333;}.a,.d{stroke-width:2px;}.b{stroke:#707070;}.c{stroke:#d1d1d1;stroke-width:0.5px;}.d{stroke:#d66142;}.f{clip-path:url(#c);}.g,.p{fill:#d66142;}.h,.k{fill:#616161;}.h,.o{opacity:0.2;}.i{fill:#ffd675;}.j{fill:#ebebeb;}.k{opacity:0.4;}.l{fill:#ebbe9f;}.m{fill:#9c9c9c;}.n{fill:#333;}.p{font-size:20px;font-family:AlwynNew-Bold, Alwyn New;font-weight:700;}.q{clip-path:url(#d);}.r{clip-path:url(#e);}.s{stroke:none;}.t{fill:none;}.u{filter:url(#a);}</style><filter id="a" x="0" y="0" width="189.902" height="257.863" filterUnits="userSpaceOnUse"><feOffset dy="3" input="SourceAlpha"/><feGaussianBlur stdDeviation="3" result="b"/><feFlood flood-opacity="0.161"/><feComposite operator="in" in2="b"/><feComposite in="SourceGraphic"/></filter><clipPath id="c"><rect class="a" width="115.902" height="177.863" transform="translate(738 729)"/></clipPath><clipPath id="d"><rect class="b" width="18" height="18" transform="translate(90 447)"/></clipPath><clipPath id="e"><rect class="b" width="18" height="18" transform="translate(242 633) rotate(180)"/></clipPath></defs><g transform="translate(-1278 -2366)"><g class="u" transform="matrix(1, 0, 0, 1, 1278, 2366)"><g class="c" transform="translate(9 6)"><rect class="s" width="171.902" height="239.863" rx="10"/><rect class="t" x="0.25" y="0.25" width="171.402" height="239.363" rx="9.75"/></g></g><g class="d" transform="translate(1302 2393)"><rect class="s" width="141.902" height="197.863" rx="10"/><rect class="t" x="1" y="1" width="139.902" height="195.863" rx="9"/></g><rect class="e" width="30" height="50" transform="translate(1293 2378)"/><rect class="e" width="30" height="50" transform="translate(1423 2557)"/><g class="f" transform="translate(577 1674)"><g transform="translate(731.891 721.802)"><path class="g" d="M106.366,58.541l-.32-1.12S86.213,46.065,79.815,42.546c-1.12-.64-1.919-1.12-1.919-1.12H49.584a.157.157,0,0,0-.16.16.558.558,0,0,1-.32.16c-.16,0-.16.16-.32.16s-.16.16-.32.16c-.16.16-.32.16-.48.32a14.752,14.752,0,0,0-1.28.8h0c-.32.16-.8.48-1.12.64-.16,0-.32.16-.48.16-.96.48-1.919,1.12-3.039,1.759-.48.16-.8.48-1.28.64s-.8.48-1.28.64c-.48.32-.8.48-1.28.8-5.6,3.2-11.836,6.718-14.715,8.477-.16.16-.32.16-.48.32-.64.48-1.12.64-1.28.8v47.025l18.554-5.6,4.159-1.28,62.06-18.714V58.541Z"/><path class="h" d="M63.98,86.372,55.5,74.216l8.477-9.6,8.637,9.917Z"/><path class="i" d="M63.98,83.653l-7.518-9.437,7.518-9.6,7.518,9.6Z"/><path class="h" d="M59.821,74.216l4.159-5.438L68.3,74.216,63.98,79.495Z"/><path class="i" d="M63.98,65.9,56.3,52.463H71.817ZM57.742,53.263,63.98,64.14l6.238-10.877Z"/><path class="h" d="M53.583,41.427c-.16,0-28.151,15.995-28.151,15.995L21.593,69.578v35.029l18.554-5.6,4.159-1.28L55.342,61.42l1.44-4.8,2.079-4.639,4.8-10.237v-.16H53.583Z"/><path class="j" d="M49.744,41.427h0c-.32.16-.32.16-.48.16a37491.4,37491.4,0,0,0-.64.32c-.16,0-.16.16-.32.16-.16.16-.32.16-.48.32a14.751,14.751,0,0,0-1.28.8h0c-.32.16-.8.48-1.12.64-.16,0-.32.16-.48.16-.96.48-1.919,1.12-3.039,1.759-.48.16-.8.48-1.28.64s-.8.48-1.28.64a5.611,5.611,0,0,0-1.28.8c-1.759.96-3.679,2.079-5.438,3.2-.48.32-1.12.64-1.6.96-3.2,1.759-5.918,3.359-7.678,4.319-.16.16-.32.16-.48.32-.64.48-1.12.64-1.28.8v47.025l3.359-.96,1.919-.48,13.116-4h.16c.64-1.44,1.28-3.039,1.919-4.639,4.479-10.717,9.757-24.152,13.276-32.949,2.239-5.438,3.679-9.117,3.679-9.117v-.32l.96-10.557Z"/><path class="h" d="M106.366,71.657l-4.319-14.235S74.056,41.427,73.9,41.427H63.66v.16L70.7,56.462l9.117,31.03,26.552-9.6Z"/><path class="j" d="M106.366,58.541l-.32-1.12S78.055,41.427,77.9,41.427H67.658l.96,10.877s12,24.952,16.315,33.109l21.273-6.4V58.541Z"/><path class="k" d="M79.815,42.546l-.64,7.678L63.98,61.1h0L48.625,50.224l-.64-7.838c1.12-.64,1.759-.96,1.759-.96h2.239c1.44,2.079,2.559,4,2.559,4l5.6-4,.8-.64,2.879.16,2.879-.16.8.64,5.6,4s1.12-1.759,2.559-4h2.079A14.9,14.9,0,0,1,79.815,42.546Z"/><path class="l" d="M80.134,34.549l-.32-3.839v-.16l-.8-11.676-4.479-2.239-8.317-4.159-2.4,1.28-2.239-1.28-8.317,4.159-4.479,2.239-.8,11.676v.16l-.32,3.839.96,11.036,15.2,11.036h.16l15.2-11.036Z"/><path class="m" d="M80.134,34.549l-.32-4c-1.28,2.4-6.558,10.237-6.558,10.237l-6.4-4.479-2.879.16-2.879-.16-6.4,4.479s-5.278-7.838-6.558-10.237l-.32,4,.8,11.2L63.98,56.622h0L79.335,45.745Z"/><path class="l" d="M63.98,41.427l5.118-.16-3.839-2.4H62.7l-3.839,2.4,5.118.16Z"/><path class="h" d="M67.019,34.069l-2.079-7.358H62.86l-2.079,7.358,2.079,2.239.96.16h.16l.96-.16Z"/><path class="m" d="M66.059,24.792l6.718-.8h.16l3.2,1.759-3.519-.96h.32l-6.558,1.759Z"/><path class="n" d="M68.458,27.671a1.2,1.2,0,0,0-.16.8,1.919,1.919,0,0,0,3.839,0,1.442,1.442,0,0,0-.16-.8Z"/><path class="m" d="M61.74,24.792l-6.718-.8h-.16l-3.2,1.759,3.519-.96h-.32l6.4,1.759Z"/><path class="n" d="M59.341,27.671a1.2,1.2,0,0,1,.16.8,1.945,1.945,0,0,1-1.919,1.919,1.848,1.848,0,0,1-1.919-1.919,1.442,1.442,0,0,1,.16-.8Z"/><path class="m" d="M79.815,30.71l-.16.16L76.616,20.154l-2.079-3.359,4.319,2.239.96,11.676Z"/><path class="m" d="M47.985,30.71l.16.16,3.039-10.717,2.079-3.359-4.319,2.239-.96,11.676Z"/><path class="i" d="M79.175,14.715v4.479a51.962,51.962,0,0,1-12.316,1.6,62.77,62.77,0,0,1-7.838-.16,19.965,19.965,0,0,1-3.359-.32c-1.28-.16-2.4-.16-3.359-.32-2.4-.32-3.839-.48-3.839-.48V15.355L63.82,7.2,68.3,9.437c.8.32,1.6.8,2.559,1.28a17.482,17.482,0,0,1,2.4,1.28,45.751,45.751,0,0,1,5.278,2.4A1.751,1.751,0,0,1,79.175,14.715Z"/><path class="o" d="M70.7,10.557,55.5,20.473c-1.28-.16-2.4-.16-3.359-.32L68.138,9.437A17.772,17.772,0,0,1,70.7,10.557Z"/><path class="o" d="M78.535,14.4l-11.676,6.4a62.77,62.77,0,0,1-7.838-.16l14.235-8.957C75.5,12.8,77.575,13.916,78.535,14.4Z"/><path class="g" d="M66.539,11.836,63.98,15.2h0l-.16.32L61.26,12,63.98,8.317Z"/><path class="o" d="M63.98,15.2l.64-2.879-.64-4,2.559,3.519Z"/><path class="n" d="M33.589,72.3l-.64,3.679,1.759-3.2Z"/><path class="n" d="M40.627,72.3l-.48,3.679,1.759-3.2Z"/><path class="n" d="M47.665,72.3l-.48,3.679,1.759-3.2Z"/><path class="n" d="M24.632,83.973l-.48,3.519,1.759-3.039Z"/><path class="n" d="M31.67,83.973l-.48,3.519,1.759-3.039Z"/><path class="n" d="M38.868,83.973l-.48,3.519,1.759-3.039Z"/><path class="n" d="M26.871,95.65l-.48,3.519,1.759-3.039Z"/><path class="n" d="M33.909,95.65l-.48,3.519,1.759-3.039Z"/><path class="n" d="M41.427,95.33c-.32.8-.64,1.6-.96,2.239h-.16l.32-2.559Z"/><path class="n" d="M45.905,52.143l-.48,3.519,1.759-3.039Z"/><path class="n" d="M38.868,50.7l-.48,3.519,1.759-3.2Z"/><path class="n" d="M32.15,51.983l-.96,1.759.16-1.28A3.5,3.5,0,0,0,32.15,51.983Z"/><path class="n" d="M26.232,103.007l-.8.16v-.48Z"/><path class="n" d="M24.792,60.621l-.48,3.679,1.759-3.2Z"/><path class="n" d="M32.79,60.621,32.15,64.3l1.759-3.2Z"/><path class="n" d="M39.827,60.621l-.48,3.679,1.759-3.2Z"/><path class="n" d="M46.865,60.621l-.48,3.679,1.759-3.2Z"/><path class="n" d="M54.223,54.063l-.64,3.519,1.759-3.2Z"/><path class="n" d="M25.592,72.3l-.48,3.679,1.759-3.2Z"/><path class="n" d="M95.809,72.3l.48,3.679-1.759-3.2Z"/><path class="n" d="M88.772,72.3l.48,3.679-1.759-3.2Z"/><path class="n" d="M81.574,72.3l.48,3.679-1.759-3.2Z"/><path class="n" d="M83.333,52.143l.64,3.519-1.919-3.039Z"/><path class="n" d="M90.531,50.7l.48,3.519-1.759-3.2Z"/><path class="n" d="M97.089,51.983l.96,1.759-.16-1.28C97.569,52.3,97.409,52.143,97.089,51.983Z"/><path class="n" d="M104.447,60.621l.48,3.679-1.759-3.2Z"/><path class="n" d="M96.609,60.621l.48,3.679L95.33,61.1Z"/><path class="n" d="M89.571,60.621l.48,3.679-1.759-3.2Z"/><path class="n" d="M82.374,60.621l.48,3.679-1.759-3.2Z"/><path class="n" d="M75.176,54.063l.48,3.519-1.759-3.2Z"/><path class="n" d="M103.647,72.3l.48,3.679-1.759-3.2Z"/><path class="h" d="M106.366,58.541l-.32-1.12s-3.519-2.079-8-4.639V52.3c-.32-.16-.48-.32-.8-.48l.32.48c-4.958-2.879-11.036-6.4-15.2-8.637a31.05,31.05,0,0,1-2.719-1.6l.64-7.838-.32-1.759-.16-1.759v-.16l-.8-11.356h.32V14.715l-.64-.32c-.96-.48-3.039-1.44-5.438-2.559a17.482,17.482,0,0,1-2.4-1.28c-.8-.48-1.759-.8-2.559-1.28-2.079-.96-3.679-1.759-4.159-2.079V91.811l15.675-4.8.16.48,8.957-3.2.64-.16,16.795-5.118Z"/><path class="g" d="M21.593,133.4l.32,1.12s19.834,11.356,26.232,14.875c1.12.64,1.919,1.12,1.919,1.12H78.535a.157.157,0,0,0,.16-.16.558.558,0,0,1,.32-.16c.16,0,.16-.16.32-.16s.16-.16.32-.16c.16-.16.32-.16.48-.32a14.751,14.751,0,0,0,1.28-.8h0c.32-.16.8-.48,1.12-.64.16,0,.32-.16.48-.32.96-.48,1.919-1.12,3.039-1.759.48-.16.8-.48,1.28-.64s.8-.48,1.28-.64c.48-.32.8-.48,1.28-.8,5.6-3.2,11.836-6.718,14.715-8.477.16-.16.32-.16.48-.32a9.809,9.809,0,0,0,1.28-.8V87.492l-18.554,5.6-4.159,1.28-62.06,18.554Z"/><path class="h" d="M63.98,105.566l8.477,12.156-8.477,9.6L55.342,117.4Z"/><path class="i" d="M63.98,108.285l7.518,9.437-7.518,9.6-7.518-9.6Z"/><path class="h" d="M68.138,117.722l-4.159,5.438-4.319-5.438,4.319-5.278Z"/><path class="i" d="M63.98,126.04l7.678,13.436H56.142Zm6.238,12.636L63.98,127.8l-6.238,10.877H70.218Z"/><path class="h" d="M74.376,150.512c.16,0,28.151-15.995,28.151-15.995l3.839-12.156V87.492l-18.554,5.6-4.159,1.28L72.617,130.678l-1.44,4.8-2.239,4.639-4.8,10.237v.16Z"/><path class="j" d="M78.215,150.512h0a.5.5,0,0,1,.32-.16,12497.065,12497.065,0,0,1,.64-.32c.16,0,.16-.16.32-.16.16-.16.32-.16.48-.32a14.751,14.751,0,0,0,1.28-.8h0c.32-.16.8-.48,1.12-.64.16,0,.32-.16.48-.32.96-.48,1.919-1.12,3.039-1.759.48-.16.8-.48,1.28-.64s.8-.48,1.28-.64c.48-.32.8-.48,1.28-.8,1.759-.96,3.679-2.079,5.438-3.2.48-.32,1.12-.64,1.6-.96,3.2-1.759,5.918-3.359,7.678-4.319.16-.16.32-.16.48-.32a9.805,9.805,0,0,0,1.28-.8V87.492l-3.359.96-1.919.48-13.116,4h-.16c-.64,1.44-1.28,3.039-1.919,4.639-4.479,10.717-9.757,24.152-13.276,32.95-2.239,5.438-3.679,9.117-3.679,9.117v.32l-.96,10.557h10.4Z"/><path class="h" d="M21.593,120.282l4.319,14.235S53.9,150.512,54.063,150.512H64.3v-.16l-7.038-14.875-9.117-31.03-26.552,9.6v6.238Z"/><path class="j" d="M21.593,133.4l.32,1.12S49.9,150.512,50.064,150.512H60.3l-.96-10.877s-12-24.952-16.315-33.109l-21.273,6.4V133.4Z"/><path class="k" d="M48.145,149.392l.64-7.678L64.14,130.838h0l15.355,10.877.64,7.838c-1.12.64-1.759.96-1.759.96H76.136c-1.44-2.079-2.559-4-2.559-4l-5.6,4-.8.64-2.879-.16-2.879.16-.8-.64-5.6-4s-1.12,1.759-2.559,4H50.384A8.908,8.908,0,0,1,48.145,149.392Z"/><path class="l" d="M47.825,157.39l.32,3.839v.16l.8,11.676,4.479,2.239,8.317,4.159,2.4-1.28,2.239,1.28,8.477-4.159,4.319-2.239.8-11.676v-.16l.32-3.839-.8-11.036L64.14,135.317h-.16l-15.2,11.036Z"/><path class="m" d="M47.825,157.39l.32,4c1.28-2.4,6.558-10.237,6.558-10.237l6.4,4.479,2.879-.16,2.879.16,6.4-4.479s5.278,7.837,6.558,10.237l.32-4-.8-11.2L63.98,135.317h0L48.625,146.193Z"/><path class="l" d="M63.98,150.512l-5.118.16,3.839,2.4h2.559l3.839-2.4-5.118-.16Z"/><path class="h" d="M60.941,157.87l2.079,7.358H65.1l2.079-7.358L65.1,155.63l-.96-.16h-.16l-.96.16Z"/><path class="m" d="M61.9,167.147l-6.718.8h-.16l-3.2-1.759,3.519.96h-.32l6.558-1.759Z"/><path class="n" d="M59.5,164.268a1.2,1.2,0,0,0,.16-.8,1.919,1.919,0,0,0-3.839,0,1.442,1.442,0,0,0,.16.8Z"/><path class="m" d="M66.219,167.147l6.718.8h.16l3.2-1.759-3.519.96h.32l-6.4-1.759Z"/><path class="n" d="M68.618,164.268a1.2,1.2,0,0,1-.16-.8,1.919,1.919,0,0,1,3.839,0,1.442,1.442,0,0,1-.16.8Z"/><path class="m" d="M48.145,161.229a.157.157,0,0,0,.16-.16l3.039,10.717,1.919,3.359L48.944,172.9l-.8-11.676Z"/><path class="m" d="M79.975,161.229a.157.157,0,0,1-.16-.16l-3.039,10.717-1.919,3.359,4.319-2.239.8-11.676Z"/><path class="i" d="M48.784,177.224v-4.479a51.962,51.962,0,0,1,12.316-1.6,62.773,62.773,0,0,1,7.838.16,19.965,19.965,0,0,1,3.359.32c1.28.16,2.4.16,3.359.32,2.4.32,3.839.48,3.839.48v4.319L64.14,184.9s-1.919-.96-4.319-2.239c-.8-.32-1.6-.8-2.559-1.28a17.481,17.481,0,0,1-2.4-1.28c-2.239-1.12-4.319-2.079-5.438-2.559A1.75,1.75,0,0,1,48.784,177.224Z"/><path class="o" d="M57.262,181.382l15.2-9.917c1.28.16,2.4.16,3.359.32L59.821,182.5A17.773,17.773,0,0,1,57.262,181.382Z"/><path class="o" d="M49.424,177.543l11.676-6.4a62.773,62.773,0,0,1,7.838.16L54.7,180.263C52.463,179.143,50.384,178.023,49.424,177.543Z"/><path class="g" d="M61.42,180.1l2.559-3.359h0l.16-.32,2.559,3.519-2.719,3.679Z"/><path class="o" d="M63.98,176.744l-.64,2.879.64,4L61.42,180.1Z"/><path class="n" d="M94.37,119.642l.64-3.679-1.759,3.2Z"/><path class="n" d="M87.332,119.642l.48-3.679-1.759,3.2Z"/><path class="n" d="M80.294,119.642l.48-3.679-1.759,3.2Z"/><path class="n" d="M103.327,107.966l.48-3.519-1.759,3.039Z"/><path class="n" d="M96.289,107.966l.48-3.519-1.759,3.039Z"/><path class="n" d="M89.092,107.966l.48-3.519-1.759,3.039Z"/><path class="n" d="M101.088,96.289l.48-3.519-1.759,3.039Z"/><path class="n" d="M94.05,96.289l.48-3.519L92.77,95.809Z"/><path class="n" d="M86.532,96.609c.32-.8.64-1.6.96-2.239h.16l-.32,2.559Z"/><path class="n" d="M82.054,139.8l.48-3.519-1.759,3.039Z"/><path class="n" d="M89.092,141.235l.48-3.519-1.759,3.2Z"/><path class="n" d="M95.809,139.955l.96-1.759-.16,1.28A3.5,3.5,0,0,0,95.809,139.955Z"/><path class="n" d="M101.728,88.932l.8-.16v.48Z"/><path class="n" d="M103.167,131.318l.48-3.679-1.759,3.2Z"/><path class="n" d="M95.17,131.318l.64-3.679-1.759,3.2Z"/><path class="n" d="M88.132,131.318l.48-3.679-1.759,3.2Z"/><path class="n" d="M81.094,131.318l.48-3.679-1.759,3.2Z"/><path class="n" d="M73.736,137.876l.64-3.519-1.759,3.2Z"/><path class="n" d="M102.367,119.642l.48-3.679-1.759,3.2Z"/><path class="n" d="M32.15,119.642l-.48-3.679,1.759,3.2Z"/><path class="n" d="M39.188,119.642l-.48-3.679,1.759,3.2Z"/><path class="n" d="M46.385,119.642l-.48-3.679,1.759,3.2Z"/><path class="n" d="M44.626,139.8l-.64-3.519,1.919,3.039Z"/><path class="n" d="M37.428,141.235l-.48-3.519,1.759,3.2Z"/><path class="n" d="M30.87,139.955l-.96-1.759.16,1.28C30.39,139.635,30.55,139.8,30.87,139.955Z"/><path class="n" d="M23.513,131.318l-.48-3.679,1.759,3.2Z"/><path class="n" d="M31.35,131.318l-.48-3.679,1.759,3.2Z"/><path class="n" d="M38.388,131.318l-.48-3.679,1.759,3.2Z"/><path class="n" d="M45.585,131.318l-.48-3.679,1.759,3.2Z"/><path class="n" d="M52.783,137.876l-.48-3.519,1.759,3.2Z"/><path class="n" d="M24.312,119.642l-.48-3.679,1.759,3.2Z"/><path class="h" d="M21.593,133.4l.32,1.12s3.519,2.079,8,4.639v.48c.32.16.48.32.8.48l-.32-.48c4.958,2.879,11.036,6.4,15.2,8.637a31.046,31.046,0,0,1,2.719,1.6l-.64,7.838.16,2.079.16,1.759v.16l.8,11.356h-.32v4.479l.64.32c.96.48,3.039,1.44,5.438,2.559a17.481,17.481,0,0,1,2.4,1.28c.8.48,1.759.8,2.559,1.28,2.079.96,3.679,1.919,4.159,2.079V100.128l-15.675,4.8-.16-.48-8.957,3.2-.48.16-16.795,5.118Z"/></g></g><text class="p" transform="translate(1306 2395)"><tspan x="-6.07" y="0">K</tspan></text><text class="p" transform="translate(1440 2589) rotate(180)"><tspan x="-6.07" y="0">K</tspan></text><g class="q" transform="translate(1207 1952)"><g transform="translate(89.879 447)"><path class="g" d="M9.121,0,1.389,9l7.732,9,7.732-9Z"/><path class="h" d="M9.06.06,9.121,0l7.732,9L9.121,18l-.06-.06Z"/></g></g><g class="r" transform="translate(1207 1952)"><g transform="translate(223.879 615)"><path class="g" d="M9.121,18l7.732-9L9.121,0,1.389,9Z"/><path class="h" d="M9.181,17.94l-.06.06L1.389,9,9.121,0l.06.06Z"/></g></g></g></svg>