<svg xmlns="http://www.w3.org/2000/svg" xmlns:xlink="http://www.w3.org/1999/xlink" width="189.902" height="257.863" viewBox="0 0 189.902 257.863"><defs><style>.a,.b{fill:#fff;}.a{stroke:#707070;}.b{stroke:#d1d1d1;stroke-width:0.5px;}.c{fill:#383838;font-size:20px;font-family:AlwynNew-Bold, Alwyn New;font-weight:700;}.d{clip-path:url(#c);}.e{fill:#333;}.f{fill:#616161;opacity:0.2;}.g{clip-path:url(#d);}.h{clip-path:url(#e);}.i{stroke:none;}.j{fill:none;}.k{filter:url(#a);}</style><filter id="a" x="0" y="0" width="189.902" height="257.863" filterUnits="userSpaceOnUse"><feOffset dy="3" input="SourceAlpha"/><feGaussianBlur stdDeviation="3" result="b"/><feFlood flood-opacity="0.161"/><feComposite operator="in" in2="b"/><feComposite in="SourceGraphic"/></filter><clipPath id="c"><rect class="a" width="18" height="18" transform="translate(90 447)"/></clipPath><clipPath id="d"><rect class="a" width="18" height="18" transform="translate(242 633) rotate(180)"/></clipPath><clipPath id="e"><rect class="a" width="83" height="83" transform="translate(124 1208)"/></clipPath></defs><g transform="translate(-228 -926)"><g class="k" transform="matrix(1, 0, 0, 1, 228, 926)"><g class="b" transform="translate(9 6)"><rect class="i" width="171.902" height="239.863" rx="10"/><rect class="j" x="0.25" y="0.25" width="171.402" height="239.363" rx="9.75"/></g></g><text class="c" transform="translate(256 955)"><tspan x="-6.67" y="0">A</tspan></text><text class="c" transform="translate(390 1149) rotate(180)"><tspan x="-6.67" y="0">A</tspan></text><g class="d" transform="translate(157 512)"><g transform="translate(89.97 446.94)"><path class="e" d="M12.96,5.4a5.251,5.251,0,0,0,.12-.96,4.38,4.38,0,0,0-8.76,0,6.032,6.032,0,0,0,.24,1.5,4.148,4.148,0,0,0,.36,8.28,11.891,11.891,0,0,0,3.24-.96l-2.82,4.8h6.84l-2.82-4.8a12.416,12.416,0,0,0,3.54.96,4.411,4.411,0,0,0,.06-8.82Z"/><path class="f" d="M12.96,5.4a5.251,5.251,0,0,0,.12-.96A4.4,4.4,0,0,0,8.7.06h0V18h3.48L9.36,13.2a12.416,12.416,0,0,0,3.54.96,4.38,4.38,0,0,0,.06-8.76Z"/></g></g><g class="g" transform="translate(157 512)"><g transform="translate(224.03 615.06)"><path class="e" d="M5.04,12.6a5.251,5.251,0,0,0-.12.96,4.38,4.38,0,1,0,8.76,0,6.032,6.032,0,0,0-.24-1.5,4.148,4.148,0,0,0-.36-8.28,11.891,11.891,0,0,0-3.24.96l2.82-4.8H5.82l2.82,4.8A12.416,12.416,0,0,0,5.1,3.78a4.411,4.411,0,0,0-.06,8.82Z"/><path class="f" d="M5.04,12.6a5.251,5.251,0,0,0-.12.96A4.4,4.4,0,0,0,9.3,17.94h0V.06H5.82l2.82,4.8A12.416,12.416,0,0,0,5.1,3.9,4.4,4.4,0,0,0,.72,8.28,4.421,4.421,0,0,0,5.04,12.6Z"/></g></g><g class="h" transform="translate(157 -198)"><g transform="translate(123.862 1207.723)"><path class="e" d="M59.76,24.9a24.215,24.215,0,0,0,.553-4.427,20.2,20.2,0,0,0-40.393,0,27.816,27.816,0,0,0,1.107,6.917,19.128,19.128,0,0,0,1.66,38.18c2.767,0,12.727-3.043,14.94-4.427l-13,22.133h31.54l-13-22.133c2.49,1.66,13.557,4.427,16.323,4.427a20.31,20.31,0,0,0,20.2-20.2C79.4,34.03,70.55,24.9,59.76,24.9Z"/><path class="f" d="M59.76,24.9a24.215,24.215,0,0,0,.553-4.427,20.31,20.31,0,0,0-20.2-20.2h0V83H56.163l-13-22.133c2.49,1.66,13.557,4.427,16.323,4.427a20.31,20.31,0,0,0,20.2-20.2C79.4,34.03,70.55,24.9,59.76,24.9Z"/></g></g></g></svg>