<svg xmlns="http://www.w3.org/2000/svg" xmlns:xlink="http://www.w3.org/1999/xlink" width="189.902" height="257.863" viewBox="0 0 189.902 257.863"><defs><style>.a,.b{fill:#fff;}.a{stroke:#707070;}.b{stroke:#d1d1d1;stroke-width:0.5px;}.c{fill:#383838;font-size:20px;font-family:AlwynNew-Bold, Alwyn New;font-weight:700;}.d{clip-path:url(#c);}.e{fill:#333;}.f{fill:#616161;opacity:0.2;}.g{clip-path:url(#d);}.h{clip-path:url(#e);}.i{clip-path:url(#f);}.j{clip-path:url(#g);}.k{clip-path:url(#h);}.l{clip-path:url(#i);}.m{clip-path:url(#j);}.n{clip-path:url(#k);}.o{clip-path:url(#l);}.p{clip-path:url(#m);}.q{clip-path:url(#n);}.r{stroke:none;}.s{fill:none;}.t{filter:url(#a);}</style><filter id="a" x="0" y="0" width="189.902" height="257.863" filterUnits="userSpaceOnUse"><feOffset dy="3" input="SourceAlpha"/><feGaussianBlur stdDeviation="3" result="b"/><feFlood flood-opacity="0.161"/><feComposite operator="in" in2="b"/><feComposite in="SourceGraphic"/></filter><clipPath id="c"><rect class="a" width="18" height="18" transform="translate(90 447)"/></clipPath><clipPath id="d"><rect class="a" width="18" height="18" transform="translate(242 633) rotate(180)"/></clipPath><clipPath id="e"><rect class="a" width="41" height="41" transform="translate(596 1583)"/></clipPath><clipPath id="f"><rect class="a" width="41" height="41" transform="translate(596 1431)"/></clipPath><clipPath id="g"><rect class="a" width="41" height="41" transform="translate(535 1583)"/></clipPath><clipPath id="h"><rect class="a" width="41" height="41" transform="translate(535 1431)"/></clipPath><clipPath id="i"><rect class="a" width="41" height="41" transform="translate(535 1482)"/></clipPath><clipPath id="j"><rect class="a" width="41" height="41" transform="translate(535 1532)"/></clipPath><clipPath id="k"><rect class="a" width="41" height="41" transform="translate(596 1482)"/></clipPath><clipPath id="l"><rect class="a" width="41" height="41" transform="translate(596 1532)"/></clipPath><clipPath id="m"><rect class="a" width="41" height="41" transform="translate(565 1457)"/></clipPath><clipPath id="n"><rect class="a" width="41" height="41" transform="translate(565 1558)"/></clipPath></defs><g transform="translate(-648 -1204)"><g class="t" transform="matrix(1, 0, 0, 1, 648, 1204)"><g class="b" transform="translate(9 6)"><rect class="r" width="171.902" height="239.863" rx="10"/><rect class="s" x="0.25" y="0.25" width="171.402" height="239.363" rx="9.75"/></g></g><text class="c" transform="translate(676 1233)"><tspan x="-10.99" y="0">10</tspan></text><text class="c" transform="translate(810 1427) rotate(180)"><tspan x="-10.99" y="0">10</tspan></text><g class="d" transform="translate(577 790)"><g transform="translate(89.97 446.94)"><path class="e" d="M12.96,5.4a5.251,5.251,0,0,0,.12-.96,4.38,4.38,0,0,0-8.76,0,6.032,6.032,0,0,0,.24,1.5,4.148,4.148,0,0,0,.36,8.28,11.891,11.891,0,0,0,3.24-.96l-2.82,4.8h6.84l-2.82-4.8a12.416,12.416,0,0,0,3.54.96,4.411,4.411,0,0,0,.06-8.82Z"/><path class="f" d="M12.96,5.4a5.251,5.251,0,0,0,.12-.96A4.4,4.4,0,0,0,8.7.06h0V18h3.48L9.36,13.2a12.416,12.416,0,0,0,3.54.96,4.38,4.38,0,0,0,.06-8.76Z"/></g></g><g class="g" transform="translate(577 790)"><g transform="translate(224.03 615.06)"><path class="e" d="M5.04,12.6a5.251,5.251,0,0,0-.12.96,4.38,4.38,0,1,0,8.76,0,6.032,6.032,0,0,0-.24-1.5,4.148,4.148,0,0,0-.36-8.28,11.891,11.891,0,0,0-3.24.96l2.82-4.8H5.82l2.82,4.8A12.416,12.416,0,0,0,5.1,3.78a4.411,4.411,0,0,0-.06,8.82Z"/><path class="f" d="M5.04,12.6a5.251,5.251,0,0,0-.12.96A4.4,4.4,0,0,0,9.3,17.94h0V.06H5.82l2.82,4.8A12.416,12.416,0,0,0,5.1,3.9,4.4,4.4,0,0,0,.72,8.28,4.421,4.421,0,0,0,5.04,12.6Z"/></g></g><g class="h" transform="translate(157 -198)"><g transform="translate(596.068 1583.137)"><path class="e" d="M11.48,28.7a11.962,11.962,0,0,0-.273,2.187,9.977,9.977,0,1,0,19.953,0,13.74,13.74,0,0,0-.547-3.417,9.449,9.449,0,0,0-.82-18.86,27.085,27.085,0,0,0-7.38,2.187L28.837-.137H13.257L19.68,10.8c-1.23-.82-6.7-2.187-8.063-2.187A10.046,10.046,0,0,0,11.48,28.7Z"/><path class="f" d="M11.48,28.7a11.962,11.962,0,0,0-.273,2.187,10.033,10.033,0,0,0,9.977,9.977h0V.137H13.257L19.68,11.07c-1.23-.82-6.7-2.187-8.063-2.187A10.033,10.033,0,0,0,1.64,18.86,10.07,10.07,0,0,0,11.48,28.7Z"/></g></g><g class="i" transform="translate(157 -198)"><g transform="translate(595.932 1430.863)"><path class="e" d="M29.52,12.3a11.962,11.962,0,0,0,.273-2.187,9.977,9.977,0,1,0-19.953,0,13.74,13.74,0,0,0,.547,3.417,9.449,9.449,0,0,0,.82,18.86,27.085,27.085,0,0,0,7.38-2.187L12.163,41.137h15.58L21.32,30.2c1.23.82,6.7,2.187,8.063,2.187A10.046,10.046,0,0,0,29.52,12.3Z"/><path class="f" d="M29.52,12.3a11.962,11.962,0,0,0,.273-2.187A10.033,10.033,0,0,0,19.817.137h0V41h7.927L21.32,30.067c1.23.82,6.7,2.187,8.063,2.187A9.977,9.977,0,0,0,29.52,12.3Z"/></g></g><g class="j" transform="translate(157 -198)"><g transform="translate(535.068 1583.137)"><path class="e" d="M11.48,28.7a11.962,11.962,0,0,0-.273,2.187,9.977,9.977,0,1,0,19.953,0,13.74,13.74,0,0,0-.547-3.417,9.449,9.449,0,0,0-.82-18.86,27.085,27.085,0,0,0-7.38,2.187L28.837-.137H13.257L19.68,10.8c-1.23-.82-6.7-2.187-8.063-2.187A10.046,10.046,0,0,0,11.48,28.7Z"/><path class="f" d="M11.48,28.7a11.962,11.962,0,0,0-.273,2.187,10.033,10.033,0,0,0,9.977,9.977h0V.137H13.257L19.68,11.07c-1.23-.82-6.7-2.187-8.063-2.187A10.033,10.033,0,0,0,1.64,18.86,10.07,10.07,0,0,0,11.48,28.7Z"/></g></g><g class="k" transform="translate(157 -198)"><g transform="translate(534.932 1430.863)"><path class="e" d="M29.52,12.3a11.962,11.962,0,0,0,.273-2.187,9.977,9.977,0,1,0-19.953,0,13.74,13.74,0,0,0,.547,3.417,9.449,9.449,0,0,0,.82,18.86,27.085,27.085,0,0,0,7.38-2.187L12.163,41.137h15.58L21.32,30.2c1.23.82,6.7,2.187,8.063,2.187A10.046,10.046,0,0,0,29.52,12.3Z"/><path class="f" d="M29.52,12.3a11.962,11.962,0,0,0,.273-2.187A10.033,10.033,0,0,0,19.817.137h0V41h7.927L21.32,30.067c1.23.82,6.7,2.187,8.063,2.187A9.977,9.977,0,0,0,29.52,12.3Z"/></g></g><g class="l" transform="translate(157 -198)"><g transform="translate(534.932 1481.863)"><path class="e" d="M29.52,12.3a11.962,11.962,0,0,0,.273-2.187,9.977,9.977,0,1,0-19.953,0,13.74,13.74,0,0,0,.547,3.417,9.449,9.449,0,0,0,.82,18.86,27.085,27.085,0,0,0,7.38-2.187L12.163,41.137h15.58L21.32,30.2c1.23.82,6.7,2.187,8.063,2.187A10.046,10.046,0,0,0,29.52,12.3Z"/><path class="f" d="M29.52,12.3a11.962,11.962,0,0,0,.273-2.187A10.033,10.033,0,0,0,19.817.137h0V41h7.927L21.32,30.067c1.23.82,6.7,2.187,8.063,2.187A9.977,9.977,0,0,0,29.52,12.3Z"/></g></g><g class="m" transform="translate(157 -198)"><g transform="translate(535.068 1532.137)"><path class="e" d="M11.48,28.7a11.962,11.962,0,0,0-.273,2.187,9.977,9.977,0,1,0,19.953,0,13.74,13.74,0,0,0-.547-3.417,9.449,9.449,0,0,0-.82-18.86,27.085,27.085,0,0,0-7.38,2.187L28.837-.137H13.257L19.68,10.8c-1.23-.82-6.7-2.187-8.063-2.187A10.046,10.046,0,0,0,11.48,28.7Z"/><path class="f" d="M11.48,28.7a11.962,11.962,0,0,0-.273,2.187,10.033,10.033,0,0,0,9.977,9.977h0V.137H13.257L19.68,11.07c-1.23-.82-6.7-2.187-8.063-2.187A10.033,10.033,0,0,0,1.64,18.86,10.07,10.07,0,0,0,11.48,28.7Z"/></g></g><g class="n" transform="translate(157 -198)"><g transform="translate(595.932 1481.863)"><path class="e" d="M29.52,12.3a11.962,11.962,0,0,0,.273-2.187,9.977,9.977,0,1,0-19.953,0,13.74,13.74,0,0,0,.547,3.417,9.449,9.449,0,0,0,.82,18.86,27.085,27.085,0,0,0,7.38-2.187L12.163,41.137h15.58L21.32,30.2c1.23.82,6.7,2.187,8.063,2.187A10.046,10.046,0,0,0,29.52,12.3Z"/><path class="f" d="M29.52,12.3a11.962,11.962,0,0,0,.273-2.187A10.033,10.033,0,0,0,19.817.137h0V41h7.927L21.32,30.067c1.23.82,6.7,2.187,8.063,2.187A9.977,9.977,0,0,0,29.52,12.3Z"/></g></g><g class="o" transform="translate(157 -198)"><g transform="translate(596.068 1532.137)"><path class="e" d="M11.48,28.7a11.962,11.962,0,0,0-.273,2.187,9.977,9.977,0,1,0,19.953,0,13.74,13.74,0,0,0-.547-3.417,9.449,9.449,0,0,0-.82-18.86,27.085,27.085,0,0,0-7.38,2.187L28.837-.137H13.257L19.68,10.8c-1.23-.82-6.7-2.187-8.063-2.187A10.046,10.046,0,0,0,11.48,28.7Z"/><path class="f" d="M11.48,28.7a11.962,11.962,0,0,0-.273,2.187,10.033,10.033,0,0,0,9.977,9.977h0V.137H13.257L19.68,11.07c-1.23-.82-6.7-2.187-8.063-2.187A10.033,10.033,0,0,0,1.64,18.86,10.07,10.07,0,0,0,11.48,28.7Z"/></g></g><g class="p" transform="translate(157 -198)"><g transform="translate(564.932 1456.863)"><path class="e" d="M29.52,12.3a11.962,11.962,0,0,0,.273-2.187,9.977,9.977,0,1,0-19.953,0,13.74,13.74,0,0,0,.547,3.417,9.449,9.449,0,0,0,.82,18.86,27.085,27.085,0,0,0,7.38-2.187L12.163,41.137h15.58L21.32,30.2c1.23.82,6.7,2.187,8.063,2.187A10.046,10.046,0,0,0,29.52,12.3Z"/><path class="f" d="M29.52,12.3a11.962,11.962,0,0,0,.273-2.187A10.033,10.033,0,0,0,19.817.137h0V41h7.927L21.32,30.067c1.23.82,6.7,2.187,8.063,2.187A9.977,9.977,0,0,0,29.52,12.3Z"/></g></g><g class="q" transform="translate(157 -198)"><g transform="translate(565.068 1558.137)"><path class="e" d="M11.48,28.7a11.962,11.962,0,0,0-.273,2.187,9.977,9.977,0,1,0,19.953,0,13.74,13.74,0,0,0-.547-3.417,9.449,9.449,0,0,0-.82-18.86,27.085,27.085,0,0,0-7.38,2.187L28.837-.137H13.257L19.68,10.8c-1.23-.82-6.7-2.187-8.063-2.187A10.046,10.046,0,0,0,11.48,28.7Z"/><path class="f" d="M11.48,28.7a11.962,11.962,0,0,0-.273,2.187,10.033,10.033,0,0,0,9.977,9.977h0V.137H13.257L19.68,11.07c-1.23-.82-6.7-2.187-8.063-2.187A10.033,10.033,0,0,0,1.64,18.86,10.07,10.07,0,0,0,11.48,28.7Z"/></g></g></g></svg>