<svg xmlns="http://www.w3.org/2000/svg" xmlns:xlink="http://www.w3.org/1999/xlink" width="189.902" height="257.863" viewBox="0 0 189.902 257.863"><defs><style>.a,.b,.c,.d,.n{fill:#fff;}.a{stroke:#333;stroke-width:2px;}.b{stroke:#707070;}.c{stroke:#d1d1d1;stroke-width:0.5px;}.e{clip-path:url(#c);}.f{fill:#757575;}.g{fill:#ebb07a;}.h,.k{fill:#616161;}.h,.j,.n{opacity:0.2;}.i{fill:#333;}.l{fill:#1c1c1c;}.m{fill:#ababab;}.o{fill:#ebebeb;}.p{fill:#ffd675;}.q{fill:#383838;font-size:20px;font-family:AlwynNew-Bold, Alwyn New;font-weight:700;}.r{clip-path:url(#d);}.s{clip-path:url(#e);}.t{stroke:none;}.u{fill:none;}.v{filter:url(#a);}</style><filter id="a" x="0" y="0" width="189.902" height="257.863" filterUnits="userSpaceOnUse"><feOffset dy="3" input="SourceAlpha"/><feGaussianBlur stdDeviation="3" result="b"/><feFlood flood-opacity="0.161"/><feComposite operator="in" in2="b"/><feComposite in="SourceGraphic"/></filter><clipPath id="c"><rect class="a" width="115.902" height="177.863" transform="translate(738 729)"/></clipPath><clipPath id="d"><rect class="b" width="18" height="18" transform="translate(90 447)"/></clipPath><clipPath id="e"><rect class="b" width="18" height="18" transform="translate(242 633) rotate(180)"/></clipPath></defs><g transform="translate(-858 -1204)"><g class="v" transform="matrix(1, 0, 0, 1, 858, 1204)"><g class="c" transform="translate(9 6)"><rect class="t" width="171.902" height="239.863" rx="10"/><rect class="u" x="0.25" y="0.25" width="171.402" height="239.363" rx="9.75"/></g></g><g class="a" transform="translate(882 1231)"><rect class="t" width="141.902" height="197.863" rx="10"/><rect class="u" x="1" y="1" width="139.902" height="195.863" rx="9"/></g><rect class="d" width="30" height="50" transform="translate(873 1216)"/><rect class="d" width="30" height="50" transform="translate(1003 1395)"/><g class="e" transform="translate(157 512)"><g transform="translate(729.769 718.742)"><path class="f" d="M59.894,58.571,54.6,60.722l1.158,2.316,21.178-.331,1.489-1.985-4.8-2.151Z"/><rect class="g" width="13.733" height="14.395" transform="translate(59.894 51.953)"/><path class="h" d="M73.627,54.765V58.24A8.156,8.156,0,0,1,68,60.887H65.354c-1.985,0-3.805-.993-5.625-2.482V54.931l1.158,1.82.331-4.8H71.973l.331,4.8Z"/><path class="i" d="M74.454,16.711a3.286,3.286,0,0,0,.165-1.82c-.165-1.82-4.136-4.467-7.942-4.467-4.467,0-7.776,2.316-7.942,4.467a4.76,4.76,0,0,0,.5,2.647,7.553,7.553,0,0,0-6.949,7.445,7.7,7.7,0,0,0,7.611,7.611,24.476,24.476,0,0,0,5.956-1.655H68a21.811,21.811,0,0,0,6.453,1.655A7.944,7.944,0,0,0,82.4,24.653,8.285,8.285,0,0,0,74.454,16.711Z"/><path class="g" d="M68,19.193H65.354c-6.784,0-12.244,4.633-12.244,10.424,0,0,0,14.064.165,14.725.993,6.122,5.956,15.387,12.244,15.387h2.647c6.122,0,11.251-9.431,12.244-15.387.165-.662.165-14.725.165-14.725C80.411,23.825,74.785,19.193,68,19.193Z"/><path class="i" d="M63.7,57.909c0,.165-.165.5,0,.662a3.309,3.309,0,1,0,6.618,0,2.816,2.816,0,0,0-.165-1.158,3.082,3.082,0,0,0,2.813-3.144,3.141,3.141,0,0,0-3.144-3.144,10.885,10.885,0,0,0-2.482.662h-.993a7.788,7.788,0,0,0-2.647-.662,3.319,3.319,0,0,0-3.309,3.309A3.585,3.585,0,0,0,63.7,57.909Z"/><path class="g" d="M69.987,54.434a7.166,7.166,0,0,1-.827-.165l-.827-.5H65.189l-.827.5a1.492,1.492,0,0,1-.827.165,1.232,1.232,0,0,1-1.158-.5c-.827-.827,3.309-6.618,4.467-6.618.993,0,5.46,5.295,4.467,6.618a1.879,1.879,0,0,1-1.324.5Z"/><path class="i" d="M58.9,35.9a1.4,1.4,0,0,0-.331,1.158,2.213,2.213,0,0,0,2.316,1.985A2.1,2.1,0,0,0,63.2,37.062a3.067,3.067,0,0,0-.331-1.158Z"/><path class="h" d="M67.671,34.084h-1.82l-1.158,8.935L66.678,45.5l2.151-2.482Z"/><path class="i" d="M74.62,35.9a1.4,1.4,0,0,1,.331,1.158,2.213,2.213,0,0,1-2.316,1.985,2.1,2.1,0,0,1-2.316-1.985,3.067,3.067,0,0,1,.331-1.158Z"/><g class="j"><rect class="k" width="4.964" height="1.324" transform="translate(64.196 49.967)"/></g><path class="i" d="M70.318,30.94l6.784.827-6.784.827Z"/><path class="i" d="M63.2,32.594l-6.618-.827L63.2,30.94Z"/><path class="f" d="M101.093,62.542,95.8,67.505l-2.151,6.949s7.776-1.489,7.776-1.324Z"/><path class="f" d="M32.925,62.542l5.295,4.964,2.316,6.949s-7.776-1.489-7.776-1.324Z"/><path class="l" d="M36.069,66.347l-.827,1.489-1.655,5.625s9.6-2.647,9.265-2.482Z"/><path class="m" d="M107.38,81.569l-5.129,1.489L92.82,86.036l-.662.165L80.08,89.842l-.331.165-.662.165-3.64,1.158-1.489.5-4.467,1.158-2.316.662L58.24,96.294l-1.82.5-.5.165-2.151.662-1.489.5-4.3,1.158-6.287,1.82V93.978l-4.136,7.115v1.158l-4.467,1.489L22.5,106.883V91.165h0l.165-2.151L23,88.187l2.151-4.964L27.3,78.26l2.151-5.295.827-1.985.993-2.151L32.76,68.5l2.647-.662h.331l.331-.165h.165l.5-.165.827-.165h0l.331-.165L45,65.52l.827-.165h.331l.827-.165,5.625-1.324h.165l.662-.165,2.151-.5.5-.165,4.136-.993H73.958l3.309.827h.5l.5.165L83.223,64.2l4.467,1.158,8.438,1.985.5.165,1.985.5,2.647.662h.165l.993.331,2.151,5.295,2.151,5.295.662,1.489Z"/><path class="n" d="M83.223,64.2l-14.56,14.56-.662.5L65.52,81.734h0l-3.971,4.136-.165.165-6.949,6.949-2.151,2.151-.993.993-.993.993-2.316,2.151-6.287,1.985v-1.82l6.453-6.453,1.158-1.158.662-.662,2.316-2.316.662-.662.662-.662.331-.331,8.107-8.107.165-.165.331-.331h0l2.316-2.316.662-.662L78.26,63.038Z"/><path class="n" d="M101.093,68.5l-8.6,8.769L80.08,89.676l-.165.165-.827.165-3.64,1.158-1.489.5-4.467,1.324-2.316.662L58.24,96.294l-1.82.5-.331.165.331-.331L57.744,95.3l6.122-6.122.662-.662,3.309-3.475.5-.331L71.476,81.4,87.691,65.354l8.438,1.985.331.165,1.985.331Z"/><path class="h" d="M80.245,89.676l-.331.165-.662.165-3.64,1.158-1.489.5-4.633,1.324-2.316.662L58.24,96.294l-1.82.5-.5.165-2.151.662-1.489.5-.993-1.985-1.985-4.136L42.853,78.425l-3.144-6.618-.331-.662h0l-1.82-3.64h0V67.34l.331-.165L45,65.52l.827-.165h.331l.827-.165,5.625-1.324h.165l.662-.165c1.985,1.985,6.784,6.618,12.409,12.078.993.993,2.151,1.985,3.144,2.978.993.827,1.82,1.82,2.813,2.813,2.482,2.647,5.46,5.46,8.438,8.107Z"/><path class="i" d="M67.174,93.647,58.24,96.294l-1.82.5-.5.165-2.151.662-1.489-2.482-2.316-3.971-7.28-12.74L40.04,73.793l-.993-1.985-2.482-4.3L35.9,66.347l.827-.165,14.56-3.64c.165.165.5.662.993,1.158,1.985,2.151,6.784,6.949,12.575,12.575.993.993,2.151,1.985,3.144,3.144l2.813,2.813c2.647,2.647,5.46,5.295,8.273,7.942l-3.64,1.158-1.489.5-4.467,1.158Z"/><path class="o" d="M54.6,60.722l.662,2.316,10.92,6.287-.331-7.445Z"/><path class="o" d="M78.425,60.722l-.662,2.316-10.92,6.287.331-7.445Z"/><path class="h" d="M65.52,81.734l1.985,2.151a25.448,25.448,0,0,1-1.985-2.151c-1.158-1.158-2.316-2.316-2.978-3.144l-1.655-1.655,1.655,1.655Z"/><path class="h" d="M68.333,84.713c2.482,2.316,4.8,4.467,7.115,6.453l-1.489.5-6.122-6.618-2.647-2.813-.331-.331-2.647-2.813-5.46-5.625-.165-.165.165.165c1.655,1.655,3.475,3.64,5.46,5.625L65.024,81.9l.331.331C66.347,82.893,67.34,83.885,68.333,84.713Z"/><path class="h" d="M58.24,96.294l-1.82.5v-.165l-1.985-3.64-2.151-4.136L49.8,84.382l-2.813-5.129,5.956,8.935,2.482,3.805L57.744,95.3Z"/><path class="h" d="M69.491,92.985l-2.316.662L65.52,91l-1.655-1.82-2.482-3.144-1.158-1.489,1.324,1.324,2.978,2.647Z"/><path class="h" d="M41.694,94.309l-4.136,6.949v1.158l-4.467,1.324-3.144-.662,4.3-1.985Z"/><path class="h" d="M107.38,81.569l-5.129,1.655L92.82,86.036l-.662.165-.5-7.115.827-1.82,1.158-2.813,2.813-6.949,1.985.331,2.647.662.165.165.993.165,2.151,5.295,2.151,5.129.5,1.489Z"/><path class="m" d="M102.251,83.223,92.82,86.036V79.418l2.316-4.8.331-.5L98.445,68l2.647-5.295s6.784,8.6,6.949,8.438c0,0,.165.993.5,2.482.331,1.82.827,4.633,1.158,7.445l-2.151.662h-.165Z"/><path class="h" d="M41.86,79.914l-.165,11.913L25.48,89.014V87.691l4.633-16.545.993-2.151,4.3-.993h.165l.331-.165h.165Z"/><path class="m" d="M41.694,93.151,26.473,91.662,22.5,91.331h0a20.4,20.4,0,0,1,.5-2.978c.827-5.791,2.647-17.207,2.813-17.207.165.165,6.949-8.438,6.949-8.438v.165L35.407,68,41.2,79.583Z"/><path class="n" d="M109.862,80.907h0l-2.151.662-.165.165-1.158.331-1.324.331-2.813.827,2.151-9.1.5-2.151-3.805-9.265c.331.5,6.618,8.438,6.949,8.438,0,0,.165.827.5,2.151v.662c.165.662.165,1.324.331,1.985a1.24,1.24,0,0,0,.165.827V77.1c0,.5.165.993.165,1.655v.331A4.071,4.071,0,0,1,109.862,80.907Z"/><path class="n" d="M32.76,62.707l-3.64,9.1.331,1.158,3.144,13.4-6.122,5.295L25.149,92.82s-1.985,8.107-2.316,8.438H22.5V91.331h0l.165-2.316L23,88.187h0c.662-3.805,1.655-10.424,2.151-14.229a1.492,1.492,0,0,1,.165-.827c.165-1.324.331-2.151.5-2.151.331,0,6.949-8.438,6.949-8.273Z"/><path class="i" d="M66.678,16.545l-9.1,2.647-5.129,6.949V37.724l1.655.993L54.434,26.8s.331-4.136,3.805-4.136c3.64,0,8.438,2.482,8.438,2.482s4.964-2.482,8.438-2.482S78.922,26.8,78.922,26.8l.331,11.913,1.655-.993L81.9,26.8l-4.964-7.611Z"/><path class="i" d="M27.631,81.734c-.331,1.985-1.489,3.475-2.813,3.309a1.36,1.36,0,0,1-.993-.662l.662,4.136-1.655-.331c.662-3.805,1.489-10.424,2.151-14.229l.165-.165S27.962,80.411,27.631,81.734Z"/><path class="h" d="M50.96,67.505c0-.165-.165-.5-.165-.662a3.677,3.677,0,0,0-4.633-1.655,3.422,3.422,0,0,0-2.316,4.3,3.461,3.461,0,0,0,.662.993,3.757,3.757,0,0,0-2.151,4.633A3.65,3.65,0,0,0,47.32,77.1,14.521,14.521,0,0,0,49.8,75.116l-.662,5.295L54.931,77.6,50.794,74.62a20.689,20.689,0,0,0,3.144-.5,3.43,3.43,0,0,0,1.655-4.633A3.527,3.527,0,0,0,50.96,67.505Z"/><path class="p" d="M50.794,68.167c0-.165-.165-.5-.165-.662A3.411,3.411,0,1,0,45,71.145a3.228,3.228,0,0,0-1.489,4.136,3.152,3.152,0,0,0,4.136,1.655,6.62,6.62,0,0,0,1.985-1.655l-.331,4.136,4.8-2.151-3.475-2.482a16.3,16.3,0,0,0,2.813-.331,3.486,3.486,0,0,0,1.82-4.467A3.274,3.274,0,0,0,50.794,68.167Z"/><path class="h" d="M50.629,75.613l1.82,1.489-2.151.993Zm-4.136.5a2.136,2.136,0,0,1-2.151-1.489,2.327,2.327,0,0,1,.993-2.978l.993-.5-.827-.827c-.165-.165-.331-.5-.5-.662a2.494,2.494,0,0,1,1.324-3.309,2.1,2.1,0,0,1,.993-.165,2.594,2.594,0,0,1,2.316,1.489c0,.165.165.331.165.5l.165.993.993-.331a2.1,2.1,0,0,1,.993-.165,2.594,2.594,0,0,1,2.316,1.489,2.11,2.11,0,0,1,0,1.985c-.331.662-.662,1.158-1.324,1.324a8.624,8.624,0,0,1-2.316.331l-1.655.662a6.478,6.478,0,0,1-1.655,1.324C47.154,76.109,46.824,76.109,46.493,76.109Z"/><path class="h" d="M109.862,80.907c-.165-.5-.165-1.158-.331-1.655v-.331c0-.5-.165-1.158-.165-1.655v-.331a7.166,7.166,0,0,0-.165-.827c-.165-.827-.165-1.489-.331-1.985v-.662c-.331-1.324-.331-2.151-.5-2.151-.331,0-6.618-7.942-6.949-8.438h0l-5.129,4.8-8.6-2.316L83.223,64.2,78.26,63.038l-.5-.165h0l.662-2.151-4.8-2.151V57.082a22.978,22.978,0,0,0,6.453-12.74c0-.331,0-3.144.165-6.287l.662-.5.993-10.92v-.165a8.3,8.3,0,0,0,.331-1.985,7.91,7.91,0,0,0-7.776-7.942,3.286,3.286,0,0,0,.165-1.82c-.165-1.82-4.136-4.467-7.942-4.467V93.482l.331-.165,2.316-.662,4.633-1.324,1.489-.5,3.64-1.158.662-.165.331-.165,12.078-3.64.662-.165,9.431-2.813,4.3-1.324.827-.165h.331l2.151-.331Z"/><path class="f" d="M72.469,139.974l5.295-2.151-1.158-2.316-21.178.331-1.489,1.985,4.8,2.151Z"/><rect class="g" width="13.733" height="14.395" transform="translate(58.736 132.198)"/><path class="h" d="M58.736,143.78v-3.475a8.156,8.156,0,0,1,5.625-2.647h2.647c1.985,0,3.805.993,5.625,2.482v3.475l-1.158-1.82-.331,4.8H60.391l-.331-4.8Z"/><path class="i" d="M57.909,181.834a3.286,3.286,0,0,0-.165,1.82c.165,1.82,4.136,4.467,7.942,4.467,4.467,0,7.776-2.316,7.942-4.467a4.76,4.76,0,0,0-.5-2.647,7.553,7.553,0,0,0,6.949-7.445,7.7,7.7,0,0,0-7.611-7.611,24.476,24.476,0,0,0-5.956,1.655H64.362a21.811,21.811,0,0,0-6.453-1.655,7.944,7.944,0,0,0-7.942,7.942A8.285,8.285,0,0,0,57.909,181.834Z"/><path class="g" d="M64.362,179.352h2.647c6.784,0,12.244-4.633,12.244-10.424,0,0,0-14.064-.165-14.725-.993-6.122-5.956-15.387-12.244-15.387H64.2c-6.122,0-11.251,9.431-12.244,15.387-.165.662-.165,14.725-.165,14.725C51.953,174.72,57.578,179.352,64.362,179.352Z"/><path class="i" d="M68.664,140.636c0-.165.165-.5,0-.662a3.309,3.309,0,1,0-6.618,0,2.816,2.816,0,0,0,.165,1.158,3.082,3.082,0,0,0-2.813,3.144,3.141,3.141,0,0,0,3.144,3.144,10.885,10.885,0,0,0,2.482-.662h.993a7.788,7.788,0,0,0,2.647.662,3.319,3.319,0,0,0,3.309-3.309A3.585,3.585,0,0,0,68.664,140.636Z"/><path class="g" d="M62.376,144.111a7.166,7.166,0,0,1,.827.165l.827.5h3.144l.827-.5a1.492,1.492,0,0,1,.827-.165,1.232,1.232,0,0,1,1.158.5c.827.827-3.309,6.618-4.467,6.618-.993,0-5.46-5.295-4.467-6.618a1.879,1.879,0,0,1,1.324-.5Z"/><path class="i" d="M73.462,162.642a1.4,1.4,0,0,0,.331-1.158,2.213,2.213,0,0,0-2.316-1.985,2.1,2.1,0,0,0-2.316,1.985,3.067,3.067,0,0,0,.331,1.158Z"/><path class="h" d="M64.693,164.462h1.82l1.158-8.935-1.985-2.482-2.151,2.482Z"/><path class="i" d="M57.744,162.642a1.4,1.4,0,0,1-.331-1.158,2.213,2.213,0,0,1,2.316-1.985,2.1,2.1,0,0,1,2.316,1.985,3.067,3.067,0,0,1-.331,1.158Z"/><g class="j"><rect class="k" width="4.964" height="1.324" transform="translate(63.038 147.254)"/></g><path class="i" d="M62.045,167.605l-6.784-.827,6.784-.827Z"/><path class="i" d="M69.16,165.951l6.618.827-6.618.827Z"/><path class="f" d="M31.271,136l5.295-4.964,2.316-6.949s-7.776,1.489-7.776,1.324Z"/><path class="f" d="M99.438,136l-5.295-4.964-2.151-6.949s7.776,1.489,7.776,1.324Z"/><path class="l" d="M96.294,132.2l.662-1.489,1.655-5.625s-9.6,2.647-9.265,2.482Z"/><path class="m" d="M24.984,116.976l5.129-1.489,9.431-2.813.662-.165,12.078-3.64.331-.165.662-.165,3.64-1.158,1.489-.5,4.633-1.324,2.316-.662,8.935-2.647,1.82-.5.5-.165,2.316-.662,1.489-.5,3.971-1.158,6.287-1.82v7.115l4.136-7.115V96.294l4.467-1.324,10.589-3.144v15.718h0L109.7,109.7l-.331.827-2.151,4.964-2.151,4.964-2.151,5.295-.827,1.655-.993,2.151-1.489.331-2.482.827h-.331l-.331.165h-.165l-.5.165-.827.165h0l-.331.165-7.115,1.655-.827.165h-.331l-.827.165-5.625,1.324h-.165l-.662.165-2.151.5-.331.331-4.136.993H58.736l-3.309-.827-.827-.165-.5-.165-4.964-1.158-4.467-1.158-8.438-1.985-.5-.165-1.82-.331-2.647-.662h-.165l-.993-.331-2.151-5.295-2.151-5.295-.662-1.489Z"/><path class="n" d="M49.14,134.349l14.56-14.56.662-.5,2.482-2.482h0l3.971-4.136.165-.165,6.949-6.949,2.151-2.151.993-.993.993-.993,2.316-2.151,6.287-1.985v1.82l-6.453,6.453-1.158,1.158-.662.662L80.08,109.7l-.662.662-.662.662-.331.331-8.107,8.107-.165.165-.331.331h0l-2.316,2.316-.662.662L54.1,135.507Z"/><path class="n" d="M31.271,130.047l8.6-8.769,12.409-12.409.165-.165.827-.165,3.64-1.158,1.489-.5,4.467-1.324,2.316-.662,8.935-2.647,1.82-.5.331-.165-.331.331-1.324,1.324L68.5,109.365l-.662.662L64.527,113.5l-.5.331-3.144,3.309L44.673,133.191l-8.438-1.985-.331-.165-1.985-.331Z"/><path class="h" d="M52.118,108.869l.331-.165.662-.165,3.64-1.158,1.489-.5,4.633-1.324,2.316-.662,8.935-2.647,1.82-.5.5-.165,2.316-.662,1.489-.5.993,1.985,1.985,4.136,6.453,13.567,3.144,6.618.331.662h0l1.82,3.64h0v.165l-.331.165-7.115,1.655-.827.165h-.331l-.827.165-5.625,1.324h-.165l-.662.165c-1.985-1.985-6.784-6.618-12.409-12.078-.993-.993-2.151-1.985-3.144-2.978-.993-.827-1.82-1.82-2.813-2.813-2.647-2.647-5.625-5.46-8.6-8.107Z"/><path class="i" d="M65.189,104.9l8.935-2.647,1.82-.5.5-.165,2.316-.662,1.489,2.482,2.316,3.971,7.28,12.74,2.647,4.633.993,1.985,2.482,4.3.662,1.158-.993.165L81.073,136c-.165-.165-.5-.662-.993-1.158-1.985-2.151-6.784-6.949-12.575-12.575-.993-.993-2.151-1.985-3.144-3.144l-2.813-2.813c-2.647-2.647-5.46-5.295-8.273-7.942l3.64-1.158,1.489-.5,4.633-1.324Z"/><path class="o" d="M77.764,137.823l-.662-2.316-10.92-6.287.331,7.445Z"/><path class="o" d="M53.938,137.823l.662-2.316,10.92-6.287-.331,7.445Z"/><path class="h" d="M66.844,116.811l-1.985-2.151a25.448,25.448,0,0,1,1.985,2.151c1.158,1.158,2.316,2.316,2.978,3.144l1.655,1.655-1.655-1.655Z"/><path class="h" d="M64.031,113.833c-2.482-2.316-4.8-4.467-7.115-6.453l1.489-.5,6.122,6.453,2.647,2.813.331.331,2.647,2.813,5.46,5.625.165.165-.165-.165c-1.655-1.655-3.475-3.64-5.46-5.625L67.34,116.48l-.331-.331A18.185,18.185,0,0,1,64.031,113.833Z"/><path class="h" d="M74.124,102.251l1.82-.5v.165l1.985,3.64L80.08,109.7l2.482,4.467,2.813,5.129-5.956-8.935-2.482-3.805-2.316-3.309Z"/><path class="h" d="M62.873,105.56l2.316-.662,1.655,2.647,1.655,1.82,2.482,3.144L72.138,114l-1.324-1.324-2.978-2.647Z"/><path class="h" d="M90.669,104.236l4.136-6.949V96.129l4.467-1.324,3.144.662-4.3,1.985Z"/><path class="h" d="M24.984,116.976l5.129-1.655,9.431-2.813.662-.165.5,7.115-.827,1.82-1.158,2.813L35.9,131.04l-1.985-.331-2.647-.662-.165-.165-.993-.165-2.151-5.295-2.151-5.129-.5-1.489Z"/><path class="m" d="M30.113,115.322l9.431-2.813v6.618l-2.316,4.8-.331.5-2.978,6.287L31.271,136s-6.784-8.6-6.949-8.438c0,0-.165-.993-.5-2.482-.331-1.82-.827-4.633-1.158-7.445l2.151-.662h.165Z"/><path class="h" d="M90.5,118.631l.165-11.913,16.215,2.813v1.324L102.251,127.4l-.993,2.151-4.3,1.158h-.165l-.331.165h-.165Z"/><path class="m" d="M90.669,105.394l15.222,1.324,3.971.331h0a20.4,20.4,0,0,1-.5,2.978c-.827,5.791-2.647,17.207-2.813,17.207-.165-.165-6.949,8.438-6.949,8.438v-.165l-2.647-4.8-5.791-11.582Z"/><path class="n" d="M22.5,117.638h0l2.151-.662.165-.165,1.158-.331,1.324-.331,2.813-.827-2.151,9.1-.5,2.151,3.805,9.265c-.331-.5-6.618-8.438-6.949-8.438,0,0-.165-.827-.5-2.151v-.662c-.165-.662-.165-1.324-.331-1.985a1.24,1.24,0,0,0-.165-.827v-.331c0-.5-.165-.993-.165-1.655v-.331A4.071,4.071,0,0,1,22.5,117.638Z"/><path class="n" d="M99.6,135.838l3.64-9.1-.331-1.158-3.144-13.4,6.122-5.295,1.324-1.158s1.985-8.107,2.316-8.438h.331v9.927h0l-.165,2.316-.331.827h0c-.662,3.805-1.655,10.424-2.151,14.229a1.492,1.492,0,0,1-.165.827c-.165,1.324-.331,2.151-.5,2.151-.331,0-6.949,8.438-6.949,8.273Z"/><path class="i" d="M65.685,182l9.1-2.647,5.129-6.949V160.822l-1.655-.993-.331,11.913s-.331,4.136-3.805,4.136c-3.64,0-8.438-2.482-8.438-2.482s-4.964,2.482-8.438,2.482-3.805-4.136-3.805-4.136l-.5-11.913-1.655.993-.993,10.92,4.964,7.611Z"/><path class="i" d="M104.733,116.811c.331-1.985,1.489-3.475,2.813-3.309a1.36,1.36,0,0,1,.993.662l-.662-4.136,1.655.331c-.662,3.805-1.489,10.424-2.151,14.229l-.165.165S104.4,118.134,104.733,116.811Z"/><path class="h" d="M81.4,131.04c0,.165.165.5.165.662a3.677,3.677,0,0,0,4.633,1.655,3.422,3.422,0,0,0,2.316-4.3,3.461,3.461,0,0,0-.662-.993,3.757,3.757,0,0,0,2.151-4.633,3.65,3.65,0,0,0-4.964-1.985,14.522,14.522,0,0,0-2.482,1.985l.662-5.295-5.791,2.813,4.136,2.978a20.687,20.687,0,0,0-3.144.5,3.43,3.43,0,0,0-1.655,4.633A3.527,3.527,0,0,0,81.4,131.04Z"/><path class="p" d="M81.569,130.378c0,.165.165.5.165.662a3.411,3.411,0,1,0,5.625-3.64,3.228,3.228,0,0,0,1.489-4.136,3.152,3.152,0,0,0-4.136-1.655,6.621,6.621,0,0,0-1.985,1.655l.5-4.3-4.8,2.151,3.475,2.482a16.3,16.3,0,0,0-2.813.331,3.486,3.486,0,0,0-1.82,4.467A3.031,3.031,0,0,0,81.569,130.378Z"/><path class="h" d="M81.734,122.933l-1.82-1.489,2.151-.993Zm4.136-.5a2.136,2.136,0,0,1,2.151,1.489,2.327,2.327,0,0,1-.993,2.978l-1.158.5.827.827c.165.165.331.5.5.662a2.494,2.494,0,0,1-1.324,3.309,2.1,2.1,0,0,1-.993.165,2.594,2.594,0,0,1-2.316-1.489c0-.165-.165-.331-.165-.5l-.165-.993-.993.331a2.1,2.1,0,0,1-.993.165,2.594,2.594,0,0,1-2.316-1.489,2.11,2.11,0,0,1,0-1.985c.331-.662.662-1.158,1.324-1.324a8.624,8.624,0,0,1,2.316-.331l1.655-.662a6.478,6.478,0,0,1,1.655-1.324A1.216,1.216,0,0,1,85.871,122.436Z"/><path class="h" d="M22.5,117.638c.165.5.165,1.158.331,1.655v.331c0,.5.165,1.158.165,1.655v.331a7.166,7.166,0,0,0,.165.827c.165.827.165,1.489.331,1.985v.662c.331,1.324.331,2.151.5,2.151.331,0,6.618,7.942,6.949,8.438h0l5.129-4.8,8.438,1.985,4.467,1.158,4.964,1.158.662.5h0l-.662,2.151,4.8,2.151v1.489a22.978,22.978,0,0,0-6.453,12.74c0,.331,0,3.144-.165,6.287l-.827.331-.993,10.92v.165a8.3,8.3,0,0,0-.331,1.985,7.91,7.91,0,0,0,7.776,7.942,3.286,3.286,0,0,0-.165,1.82c.165,1.82,4.136,4.467,7.942,4.467V104.733l-.331.165-2.316.662-4.633,1.324-1.489.5-3.64,1.158-.662.165-.331.165-12.078,3.64h-.5l-9.431,2.813-4.3,1.324-.827.165h-.331l-2.151.827Z"/></g></g><text class="q" transform="translate(886 1233)"><tspan x="-4.87" y="0">J</tspan></text><text class="q" transform="translate(1020 1427) rotate(180)"><tspan x="-4.87" y="0">J</tspan></text><g class="r" transform="translate(787 790)"><g transform="translate(89.97 446.94)"><path class="i" d="M12.96,5.4a5.251,5.251,0,0,0,.12-.96,4.38,4.38,0,0,0-8.76,0,6.032,6.032,0,0,0,.24,1.5,4.148,4.148,0,0,0,.36,8.28,11.891,11.891,0,0,0,3.24-.96l-2.82,4.8h6.84l-2.82-4.8a12.416,12.416,0,0,0,3.54.96,4.411,4.411,0,0,0,.06-8.82Z"/><path class="h" d="M12.96,5.4a5.251,5.251,0,0,0,.12-.96A4.4,4.4,0,0,0,8.7.06h0V18h3.48L9.36,13.2a12.416,12.416,0,0,0,3.54.96,4.38,4.38,0,0,0,.06-8.76Z"/></g></g><g class="s" transform="translate(787 790)"><g transform="translate(224.03 615.06)"><path class="i" d="M5.04,12.6a5.251,5.251,0,0,0-.12.96,4.38,4.38,0,1,0,8.76,0,6.032,6.032,0,0,0-.24-1.5,4.148,4.148,0,0,0-.36-8.28,11.891,11.891,0,0,0-3.24.96l2.82-4.8H5.82l2.82,4.8A12.416,12.416,0,0,0,5.1,3.78a4.411,4.411,0,0,0-.06,8.82Z"/><path class="h" d="M5.04,12.6a5.251,5.251,0,0,0-.12.96A4.4,4.4,0,0,0,9.3,17.94h0V.06H5.82l2.82,4.8A12.416,12.416,0,0,0,5.1,3.9,4.4,4.4,0,0,0,.72,8.28,4.421,4.421,0,0,0,5.04,12.6Z"/></g></g></g></svg>