<svg xmlns="http://www.w3.org/2000/svg" xmlns:xlink="http://www.w3.org/1999/xlink" width="189.902" height="257.863" viewBox="0 0 189.902 257.863"><defs><style>.a,.b,.c,.d{fill:#fff;}.a{stroke:#333;stroke-width:2px;}.b{stroke:#707070;}.c{stroke:#d1d1d1;stroke-width:0.5px;}.e{clip-path:url(#c);}.f{fill:#c9c9c9;}.g{fill:#616161;opacity:0.2;}.h{fill:#fdd8ab;}.i{fill:#333;}.j{fill:#ebebeb;}.k{fill:#454545;}.l{fill:#ffd675;}.m{fill:#383838;font-size:20px;font-family:AlwynNew-Bold, Alwyn New;font-weight:700;}.n{clip-path:url(#d);}.o{clip-path:url(#e);}.p{stroke:none;}.q{fill:none;}.r{filter:url(#a);}</style><filter id="a" x="0" y="0" width="189.902" height="257.863" filterUnits="userSpaceOnUse"><feOffset dy="3" input="SourceAlpha"/><feGaussianBlur stdDeviation="3" result="b"/><feFlood flood-opacity="0.161"/><feComposite operator="in" in2="b"/><feComposite in="SourceGraphic"/></filter><clipPath id="c"><rect class="a" width="115.902" height="177.863" transform="translate(738 729)"/></clipPath><clipPath id="d"><rect class="b" width="18" height="18" transform="translate(90 447)"/></clipPath><clipPath id="e"><rect class="b" width="18" height="18" transform="translate(242 633) rotate(180)"/></clipPath></defs><g transform="translate(-1068 -1204)"><g class="r" transform="matrix(1, 0, 0, 1, 1068, 1204)"><g class="c" transform="translate(9 6)"><rect class="p" width="171.902" height="239.863" rx="10"/><rect class="q" x="0.25" y="0.25" width="171.402" height="239.363" rx="9.75"/></g></g><g class="a" transform="translate(1092 1231)"><rect class="p" width="141.902" height="197.863" rx="10"/><rect class="q" x="1" y="1" width="139.902" height="195.863" rx="9"/></g><rect class="d" width="30" height="50" transform="translate(1083 1216)"/><rect class="d" width="30" height="50" transform="translate(1213 1395)"/><g class="e" transform="translate(367 512)"><g transform="translate(732.428 722.648)"><path class="f" d="M89.567,49.389l-.159,3.176-.159,1.906-.476,8.1-.159,1.906-.159,2.541h0L88.138,69.4h-2.7l-1.747.159H79.244l-2.541.159-11.434.159h-.159l-11.434-.159-2.541-.159h-5.4l-.794-.159h-2.7l-.159-2.382h0l-.318-2.541-.159-1.906-.476-8.1-.159-1.906-.159-3.176Z"/><path class="g" d="M87.661,55.265c-2.223,2.382-8.734,4.605-14.451,4.605h0a11.008,11.008,0,0,1-4.288,3.494A7.11,7.11,0,0,1,65.746,64h-.159V49.548Z"/><path class="h" d="M97.507,81.309l-9.37,2.859-.794.159h-.318c-.794-1.27-1.27-2.064-1.588-2.541l-.159-.159h0a9.659,9.659,0,0,0-1.429,3.653l-2.541.794L65.269,90.837l-10,3.017-3.335.953a10.942,10.942,0,0,1-.476-1.27C45.736,91,48.277,87.026,45.419,82.1c-.159-.159-.159-.318-.318-.476-.318.476-6.829,10.322-7.94,17.628l-.794.159-6.511,1.906H29.7c-.159-14.293,4.288-23.821,8.258-29.538a4.826,4.826,0,0,0,.794-1.112c.318-.318.476-.635.794-.953h0c.159-.159.318-.476.635-.635,0-.159.159-.159.318-.318s.159-.318.318-.318a12.128,12.128,0,0,1,1.429-1.429h0l.318-.318c.159,0,.159-.159.318-.318.159,0,.159-.159.318-.318l.476-.476c.635-.476,1.112-.794,1.112-.794l1.429.318h.318l.635.159h2.223l3.176-.159,3.494-.159,9.528-.318h0l9.687.318,3.176.159,3.176.159H83.85l.635-.159H84.8l1.429-.318a9.723,9.723,0,0,0,.953.794l.476.476.318.318c.159,0,.159.159.318.318l.318.318h0c.159,0,.159.159.318.318s.318.159.318.318c.159.318.476.476.794.794l.476.476v.159l.159.159c.159.159.318.476.635.635h0c.318.318.476.635.794.953s.476.794.794,1.112A64.505,64.505,0,0,1,97.507,81.309Z"/><path class="g" d="M65.111,75.274h2.064L66.222,82.9H65.111Z"/><path class="g" d="M65.269,49.389l-23.5,3.494c3.653,5.082,10,6.987,15.722,6.987h0C59.552,62.411,62.093,64,64.952,64h.159V49.389Z"/><path class="g" d="M65.269,75.274H63.2l.953,7.623h1.112Z"/><path class="g" d="M57.488,81.627c-10.8-2.382-16.516-6.035-19.692-9.687a28.645,28.645,0,0,1,5.558-6.193Z"/><path class="h" d="M65.269,60.823h-.159a6.445,6.445,0,0,1-3.017-.635c0,.318-.159.476-.159.794v1.429a7.11,7.11,0,0,0,3.176.635h.159Z"/><path class="h" d="M65.269,57.647h0a3.429,3.429,0,0,0-3.335,2.541,6.882,6.882,0,0,0,3.017.635h.159V57.647Z"/><path class="h" d="M84.009,64.634H78.292l-9.846-.159V62.411a7.11,7.11,0,0,1-3.176.635h-.318a7.11,7.11,0,0,1-3.176-.635v2.064l-9.846.159H46.213c-.953,1.747-.635,1.906-.635,3.97,0,4.923,3.494,9.37,8.734,12.069h0c.953.476,1.906.794,3.017,1.27a29.548,29.548,0,0,0,6.511,1.27h2.223a20.628,20.628,0,0,0,6.511-1.27,17.211,17.211,0,0,0,3.017-1.27h0c5.241-2.541,8.734-6.987,8.734-12.069C84.644,66.54,85.12,66.381,84.009,64.634Z"/><path class="g" d="M57.488,81.627a17.21,17.21,0,0,1-3.017-1.27h0c-5.241-2.541-8.734-6.987-8.734-12.069,0-2.064-.476-2.223.635-3.97h5.717Z"/><path class="g" d="M72.892,81.627a17.21,17.21,0,0,0,3.017-1.27h0c5.241-2.541,8.734-6.987,8.734-12.069,0-2.064.476-2.223-.635-3.97H78.292Z"/><path class="h" d="M65.111,60.823h.159a6.445,6.445,0,0,0,3.017-.635c0,.318.159.476.159.794v1.429a7.11,7.11,0,0,1-3.176.635h-.159Z"/><path class="h" d="M65.111,57.647h0a3.429,3.429,0,0,1,3.335,2.541,6.882,6.882,0,0,1-3.017.635h-.159V57.647Z"/><path class="i" d="M97.507,81.309l-9.37,2.859-.794.159h-.318c-.794-1.27-1.27-2.064-1.588-2.541l-.159-.159h0a9.659,9.659,0,0,0-1.429,3.653l-2.541.794L65.269,90.837l-10,3.017-3.335.953a10.942,10.942,0,0,1-.476-1.27C45.736,91,48.277,87.026,45.419,82.1c-.159-.159-.159-.318-.318-.476-.318.476-6.829,10.322-7.94,17.628l-.794.159-6.511,1.906H29.7c-.159-14.293,4.288-23.821,8.258-29.538a4.826,4.826,0,0,0,.794-1.112c.318-.318.476-.635.794-.953h0c.159-.159.318-.476.635-.635v-.159l.159-.159L47.8,75.274l1.112.953.318-.635a19.55,19.55,0,0,0,3.176.318c2.064,0,9.37-2.382,10.958-3.176h4.129c1.906,1.112,10,3.176,12.069,3.176a7.732,7.732,0,0,0,1.906-.159l.794,1.27,1.747-1.747,6.035-6.511v.159l.159.159c.159.159.318.476.635.635h0l.476.476c.159.159.159.318.318.476.318.318.476.794.794,1.112A41.264,41.264,0,0,1,97.507,81.309Z"/><path class="g" d="M92.584,71.939c-3.017,3.653-8.893,7.305-19.692,9.687l5.876-6.67.318-.476,4.605-5.241.953-1.112,2.382-2.7.476.476c.159,0,.159.159.318.318l.318.318.318.318h0l.318.318.318.318c.159.318.476.476.794.794l.476.476.159.159c.159.159.318.476.635.635h0c.318.318.476.635.794.953A2.013,2.013,0,0,0,92.584,71.939Z"/><path class="j" d="M94.013,60.823a9.768,9.768,0,0,1-.159,2.064A15.215,15.215,0,0,1,91,69.875h0a26.248,26.248,0,0,1-7.464,6.67,1.2,1.2,0,0,1-.635.318,40.861,40.861,0,0,1-6.987,3.494.156.156,0,0,0-.159.159h-.159c-.159,0-.318.159-.476.159-.476.159-.953.476-1.429.635-.318.159-.476.159-.794.318l6.193-12.069,2.223-4.129.476-.953,7.782-15.087S94.013,54.312,94.013,60.823Z"/><path class="j" d="M57.488,81.627a59.17,59.17,0,0,1-10-4.764c-.159-.159-.476-.318-.635-.476-6.987-4.447-9.687-9.37-10.322-13.657a9.055,9.055,0,0,1-.159-2.064A19.259,19.259,0,0,1,40.654,49.23Z"/><path class="i" d="M43.354,68.6l2.064,2.7-.953-3.176Z"/><path class="i" d="M50.342,75.115l2.064,2.7-.953-3.176Z"/><path class="i" d="M39.7,52.565l2.064,2.7-.953-3.176Z"/><path class="i" d="M42.4,58.282l2.064,2.7-.953-3.335Z"/><path class="i" d="M45.1,63.84l1.906,2.7-.794-3.176Z"/><path class="i" d="M47.8,69.557l1.906,2.7-.953-3.335Z"/><path class="i" d="M47.483,76.862c-.159-.159-.476-.318-.635-.476L45.736,74.8l1.112-.476Z"/><path class="i" d="M38.114,57.329l1.906,2.7-.794-3.176Z"/><path class="i" d="M40.813,63.046l1.906,2.7-.794-3.335Z"/><path class="i" d="M37.478,64l-.953-1.112a9.055,9.055,0,0,1-.159-2.064h.159Z"/><path class="i" d="M39.225,68.128l2.064,2.541-.953-3.176Z"/><path class="i" d="M87.026,68.6l-2.064,2.7.953-3.176Z"/><path class="i" d="M80.038,75.115l-2.064,2.7.953-3.176Z"/><path class="i" d="M90.679,52.565l-2.064,2.7.953-3.176Z"/><path class="i" d="M87.979,58.282l-2.064,2.7.953-3.335Z"/><path class="i" d="M85.279,63.84l-1.906,2.7.794-3.176Z"/><path class="i" d="M82.738,69.557l-2.064,2.7.953-3.335Z"/><path class="i" d="M82.738,75.751c.159-.159,1.906-1.588,1.906-1.588l-1.112-.476Z"/><path class="i" d="M92.267,57.329l-1.906,2.7.794-3.176Z"/><path class="i" d="M89.726,63.046l-2.064,2.7.953-3.335Z"/><path class="i" d="M94.013,60.823a9.768,9.768,0,0,1-.159,2.064L93.061,64l.953-3.176Z"/><path class="i" d="M91.155,68.128,89.09,70.669l.953-3.176Z"/><path class="i" d="M62.887,53.359l-1.27,2.223H54.629A16.059,16.059,0,0,0,62.887,53.359Z"/><path class="i" d="M75.274,55.741H68.763l-1.429-2.382A17.174,17.174,0,0,0,75.274,55.741Z"/><path class="i" d="M75.751,55.741h0Z"/><path class="i" d="M94.649,42.719A14.911,14.911,0,0,1,79.721,57.647c-1.906,0-10.164-2.064-12.069-3.176H63.523c-1.588.953-8.893,3.176-10.958,3.176a14.157,14.157,0,0,1-1.112-28.268A13.755,13.755,0,0,1,50.5,24.3a9.055,9.055,0,0,1,.159-2.064h0l.476-2.382h0a14.986,14.986,0,0,1,28.426-.476,13.23,13.23,0,0,1,.635,2.382,12.02,12.02,0,0,1,.159,2.382,23.691,23.691,0,0,1-.318,3.335A15.567,15.567,0,0,1,94.649,42.719Z"/><path class="g" d="M55.106,94.013l-3.335.953a10.941,10.941,0,0,1-.476-1.27c-6.035-2.541-3.017-6.67-6.352-11.91-.318.476-6.829,10.481-8.1,17.628l-.794.318C34.461,92.108,45.9,79.4,45.9,79.4S50.977,92.108,55.106,94.013Z"/><path class="g" d="M88.138,84.167l-.794.159h-.318c-.794-1.27-1.27-2.064-1.588-2.541l-.159-.159a14.168,14.168,0,0,0-1.588,3.653l-2.541.794a69.77,69.77,0,0,0,3.176-6.67A34.391,34.391,0,0,1,88.138,84.167Z"/><path class="g" d="M71.622,60.029,68.6,62.252a7.11,7.11,0,0,1-3.176.635h-.318a10.267,10.267,0,0,1-3.176-.635l-3.176-2.223.953-1.588c1.906.953,4.447,2.223,5.241,2.223h.318c.635,0,3.017-1.588,4.923-2.859Z"/><path class="h" d="M69.24,27.315a5.14,5.14,0,0,0-3.97,2.7,4.8,4.8,0,0,0-3.97-2.7c-4.288,2.541-7.464,8.734-7.464,16.2a21.885,21.885,0,0,0,3.97,13.022h0a10.4,10.4,0,0,0,4.447,3.494,9.286,9.286,0,0,0,3.017.635h0a6.882,6.882,0,0,0,3.017-.635,11.43,11.43,0,0,0,4.447-3.494h0A21.885,21.885,0,0,0,76.7,43.513C76.545,36.208,73.527,29.856,69.24,27.315Z"/><path class="i" d="M73.21,26.2c0-1.906-8.1-9.846-8.1-9.846s-7.94,8.1-7.94,9.687a4.778,4.778,0,0,0,4.764,4.764,6.658,6.658,0,0,0,2.541-.635h1.27a4.66,4.66,0,0,0,2.541.635A4.59,4.59,0,0,0,73.21,26.2Z"/><path class="i" d="M56.694,42.56c0,.159-.159.318-.159.476,0,.953,1.112,1.588,2.382,1.588s2.382-.794,2.382-1.588a.583.583,0,0,0-.159-.476Z"/><path class="i" d="M73.686,42.56c0,.159.159.318.159.476,0,.953-1.112,1.588-2.382,1.588s-2.382-.794-2.382-1.588a.583.583,0,0,1,.159-.476Z"/><path class="k" d="M68.446,54.471H62.093A4.023,4.023,0,0,0,65.269,55.9h0A4,4,0,0,0,68.446,54.471Z"/><path class="i" d="M65.269,54.312c-1.429-1.747-3.494.476-3.494.476H68.6C68.763,54.788,66.7,52.724,65.269,54.312Z"/><path class="g" d="M65.269,45.26h-.159l-1.747,5.876h3.653Z"/><path class="i" d="M68.763,39.066l4.764.318h.159l1.906,2.064-2.223-1.906h.159l-4.764.318Z"/><path class="i" d="M62.093,39.86l-4.764-.318h0l-2.064,1.906,1.906-2.064h.159l4.764-.318Z"/><path class="g" d="M68.922,10.958c0-.318.159-.635,0-.794a3.772,3.772,0,0,0-3.97-3.653,3.9,3.9,0,0,0-3.97,3.811,3.1,3.1,0,0,0,.159,1.27,4.424,4.424,0,0,0-3.97,4.129,3.718,3.718,0,0,0,3.97,4.129,11.782,11.782,0,0,0,3.335-1.112l-3.017,5.4,7.146-.476L65.746,18.58a12.467,12.467,0,0,0,3.494.794,4.107,4.107,0,0,0,3.811-4.447A4.288,4.288,0,0,0,68.922,10.958Z"/><path class="l" d="M68.6,11.116c0-.318.159-.476.159-.794a3.811,3.811,0,0,0-7.623,0,3.1,3.1,0,0,0,.159,1.27,3.6,3.6,0,0,0-3.335,3.494,3.694,3.694,0,0,0,3.653,3.653,19.2,19.2,0,0,0,2.859-.794l-2.541,4.129H67.81l-2.382-4.129a10.618,10.618,0,0,0,3.017.794,3.864,3.864,0,0,0,3.811-3.811A3.631,3.631,0,0,0,68.6,11.116Z"/><path class="g" d="M64.952,18.58l1.588,2.7H63.364Zm-3.335-.635a2.847,2.847,0,0,1-2.859-2.859,2.646,2.646,0,0,1,2.541-2.7h1.112l-.318-.953a3.5,3.5,0,0,1-.159-1.27,3.124,3.124,0,0,1,3.017-3.017,2.561,2.561,0,0,1,2.064.953,2.63,2.63,0,0,1,.794,2.064V10.8l-.159.953H68.6a3.124,3.124,0,0,1,3.017,3.017,2.561,2.561,0,0,1-.953,2.064,2.189,2.189,0,0,1-2.064.794,21.654,21.654,0,0,1-2.7-.635l-.318.476L64,17.151A13.975,13.975,0,0,1,61.617,17.945Z"/><path class="g" d="M68.6,27.474c.159,0,.476-.159.635-.159A1.2,1.2,0,0,1,68.6,27.474Z"/><path class="g" d="M66.858,28.268Z"/><path class="g" d="M67.334,27.95Z"/><path class="g" d="M67.969,27.632h0Z"/><path class="g" d="M92.584,71.939a4.826,4.826,0,0,1-.794-1.112,2.192,2.192,0,0,1-.476-.635c-.159-.159-.159-.318-.318-.476h0a15.215,15.215,0,0,0,2.859-6.987,9.055,9.055,0,0,0,.159-2.064,19.047,19.047,0,0,0-2.541-8.893,14.407,14.407,0,0,0,3.176-9.211A14.979,14.979,0,0,0,79.88,27.632,23.694,23.694,0,0,0,80.2,24.3a12.02,12.02,0,0,0-.159-2.382,13.23,13.23,0,0,0-.635-2.382A14.45,14.45,0,0,0,68.922,10a3.872,3.872,0,0,0-3.97-3.653h0V91h.159L81.15,86.232h0l2.541-.794h0a22.97,22.97,0,0,1,1.27-3.335.554.554,0,0,1,.159-.318h0a.156.156,0,0,0,.159.159,27.562,27.562,0,0,1,1.588,2.541h.318l.794-.318,9.211-2.7A31.336,31.336,0,0,0,92.584,71.939Z"/><path class="f" d="M37.478,141.179,37.637,138,37.8,136.1l.476-8.1.159-1.906.159-2.541h0l.318-2.382h2.7l1.747-.159H47.8l2.541-.159,11.434-.159h.159l11.434.159,2.541.159h5.4l.794.159h2.7l.159,2.382h0l.318,2.541L85.438,128l.476,8.1L86.073,138l.159,3.176Z"/><path class="g" d="M39.384,135.3c2.223-2.382,8.734-4.605,14.451-4.605h0a11.008,11.008,0,0,1,4.288-3.494,7.11,7.11,0,0,1,3.176-.635h.159V141.02Z"/><path class="h" d="M29.538,109.259l9.211-2.7.794-.318h.318c.794,1.27,1.27,2.064,1.588,2.541l.159.159h0a9.659,9.659,0,0,0,1.429-3.653l2.541-.794,16.039-4.764,10-3.017,3.335-.953a10.941,10.941,0,0,1,.476,1.27c5.717,2.541,3.176,6.511,6.035,11.434.159.159.159.318.318.476.318-.476,6.829-10.322,7.94-17.628l.794-.159,6.511-1.906h.159c.159,14.293-4.288,23.821-8.258,29.538a4.825,4.825,0,0,0-.794,1.112c-.318.318-.476.635-.794.953h0c-.159.159-.318.476-.635.635,0,.159-.159.159-.318.318s-.159.318-.318.318a12.127,12.127,0,0,1-1.429,1.429h0l-.318.318c-.159,0-.159.159-.318.318-.159,0-.159.159-.318.318l-.476.476c-.635.476-1.112.794-1.112.794l-1.429-.318h-.318l-.635-.159H77.5l-3.176.159-3.494.159-9.528.318h0l-9.687-.318-3.176-.159L45.26,125.3H43.037l-.159-.159H42.56l-1.429.318a9.724,9.724,0,0,0-.953-.794l-.476-.476-.318-.318c-.159,0-.159-.159-.318-.318l-.318-.318h0c-.159,0-.159-.159-.318-.318s-.318-.159-.318-.318c-.159-.318-.476-.476-.794-.794l-.476-.476v-.159l-.159-.159c-.159-.159-.318-.476-.635-.635h0c-.318-.318-.476-.635-.794-.953s-.476-.794-.794-1.112A34.023,34.023,0,0,1,29.538,109.259Z"/><path class="g" d="M61.935,115.294H59.87l.953-7.623h1.112Z"/><path class="g" d="M61.776,141.179l23.5-3.494c-3.653-5.082-10-6.988-15.722-6.988h0c-2.064-2.541-4.605-4.129-7.464-4.129h-.159v14.61Z"/><path class="g" d="M61.776,115.294H63.84l-.953-7.623H61.776Z"/><path class="g" d="M69.557,108.941c10.8,2.382,16.516,6.035,19.692,9.687a28.645,28.645,0,0,1-5.558,6.193Z"/><path class="h" d="M61.776,129.745h.159a6.445,6.445,0,0,1,3.017.635c0-.318.159-.476.159-.794v-1.429a7.11,7.11,0,0,0-3.176-.635h-.159Z"/><path class="h" d="M61.776,132.921h0a3.429,3.429,0,0,0,3.335-2.541,6.882,6.882,0,0,0-3.017-.635h-.159v3.176Z"/><path class="h" d="M43.037,125.934h5.717l9.846.159v2.064a7.11,7.11,0,0,1,3.176-.635h.318a7.11,7.11,0,0,1,3.176.635v-2.064l9.846-.159h5.717c.953-1.747.635-1.906.635-3.97,0-4.923-3.494-9.37-8.734-12.069h0c-.953-.476-1.906-.794-3.017-1.27a29.548,29.548,0,0,0-6.511-1.27H60.982a20.628,20.628,0,0,0-6.511,1.27,17.21,17.21,0,0,0-3.017,1.27h0c-5.241,2.541-8.734,6.987-8.734,12.069C42.4,124.028,41.925,124.187,43.037,125.934Z"/><path class="g" d="M69.557,108.941a17.209,17.209,0,0,1,3.017,1.27h0c5.241,2.541,8.734,6.987,8.734,12.069,0,2.064.476,2.223-.635,3.97H74.957Z"/><path class="g" d="M54.153,108.941a17.209,17.209,0,0,0-3.017,1.27h0C45.9,112.753,42.4,117.2,42.4,122.281c0,2.064-.476,2.223.635,3.97h5.717Z"/><path class="h" d="M61.935,129.745h-.159a6.445,6.445,0,0,0-3.017.635c0-.318-.159-.476-.159-.794v-1.429a7.11,7.11,0,0,1,3.176-.635h.159Z"/><path class="h" d="M61.935,132.921h0A3.429,3.429,0,0,1,58.6,130.38a6.882,6.882,0,0,1,3.017-.635h.159v3.176Z"/><path class="i" d="M29.538,109.259l9.211-2.7.794-.318h.318c.794,1.27,1.27,2.064,1.588,2.541l.159.159h0a9.659,9.659,0,0,0,1.429-3.653l2.541-.794,16.039-4.764,10-3.017,3.335-.953a10.941,10.941,0,0,1,.476,1.27c5.717,2.541,3.176,6.511,6.035,11.434.159.159.159.318.318.476.318-.476,6.829-10.322,7.94-17.628l.794-.159,6.511-1.906h.159c.159,14.293-4.288,23.821-8.258,29.538a4.825,4.825,0,0,0-.794,1.112c-.318.318-.476.635-.794.953h0c-.159.159-.318.476-.635.635v.159l-.159.159-7.464-6.511-1.112-.953-.159.476a19.55,19.55,0,0,0-3.176-.318c-2.064,0-9.37,2.382-10.958,3.176H59.552c-1.906-1.112-10-3.176-12.069-3.176a7.732,7.732,0,0,0-1.906.159l-.794-1.27-1.747,1.747L37,121.646v-.159l-.159-.159c-.159-.159-.318-.476-.635-.635h0l-.476-.476c-.159-.159-.159-.318-.318-.476-.318-.318-.476-.794-.794-1.112A37.015,37.015,0,0,1,29.538,109.259Z"/><path class="g" d="M34.461,118.628c3.017-3.653,8.893-7.305,19.692-9.687l-5.876,6.67-.318.318-4.605,5.241-.953,1.112-2.382,2.7-.476-.476c-.159,0-.159-.159-.318-.318l-.318-.318-.318-.318h0l-.318-.318-.318-.318c-.159-.318-.476-.476-.794-.794l-.476-.476-.159-.159c-.159-.159-.318-.476-.635-.635h0c-.318-.318-.476-.635-.794-.953A1.96,1.96,0,0,0,34.461,118.628Z"/><path class="j" d="M33.032,129.745a9.768,9.768,0,0,1,.159-2.064,15.215,15.215,0,0,1,2.859-6.987h0a26.248,26.248,0,0,1,7.464-6.67,1.2,1.2,0,0,1,.635-.318,40.861,40.861,0,0,1,6.987-3.494.156.156,0,0,0,.159-.159h.159c.159,0,.318-.159.476-.159.476-.159.953-.476,1.429-.635.318-.159.476-.159.794-.318L47.96,121.011l-2.223,4.129-.476.953-7.782,15.087S33.032,136.256,33.032,129.745Z"/><path class="j" d="M69.557,108.941a59.171,59.171,0,0,1,10,4.764c.159.159.476.318.635.476,6.987,4.447,9.687,9.37,10.322,13.657a9.055,9.055,0,0,1,.159,2.064,19.259,19.259,0,0,1-4.288,11.434Z"/><path class="i" d="M83.691,121.963l-2.064-2.7.953,3.176Z"/><path class="i" d="M76.7,115.452l-2.064-2.7.953,3.176Z"/><path class="i" d="M87.344,138l-2.064-2.7.953,3.176Z"/><path class="i" d="M84.644,132.286l-2.064-2.7.953,3.335Z"/><path class="i" d="M81.944,126.728l-1.906-2.7.794,3.176Z"/><path class="i" d="M79.244,121.011l-1.906-2.7.953,3.335Z"/><path class="i" d="M79.562,113.705c.159.159.476.318.635.476l1.112,1.588-1.112.476Z"/><path class="i" d="M88.932,133.239l-1.906-2.7.794,3.176Z"/><path class="i" d="M86.232,127.522l-1.906-2.7.794,3.335Z"/><path class="i" d="M89.567,126.569l.794,1.112a9.055,9.055,0,0,1,.159,2.064h-.159Z"/><path class="i" d="M87.82,122.44,85.756,119.9l.953,3.176Z"/><path class="i" d="M40.019,121.963l2.064-2.7-.953,3.176Z"/><path class="i" d="M47.007,115.452l2.064-2.7-.953,3.176Z"/><path class="i" d="M36.367,138l2.064-2.7-.953,3.176Z"/><path class="i" d="M39.066,132.286l2.064-2.7-.953,3.335Z"/><path class="i" d="M41.766,126.728l1.906-2.7-.794,3.176Z"/><path class="i" d="M44.307,121.011l2.064-2.7-.953,3.335Z"/><path class="i" d="M44.307,114.817c-.159.159-1.906,1.588-1.906,1.588l1.112.476Z"/><path class="i" d="M34.779,133.239l1.906-2.7-.794,3.176Z"/><path class="i" d="M37.32,127.522l2.064-2.7-.953,3.335Z"/><path class="i" d="M33.032,129.745a9.768,9.768,0,0,1,.159-2.064l.794-1.112-.953,3.176Z"/><path class="i" d="M35.89,122.44l2.064-2.541L37,123.075Z"/><path class="i" d="M64.158,137.209l1.429-2.382h6.987A17.976,17.976,0,0,0,64.158,137.209Z"/><path class="i" d="M51.771,134.827h6.511l1.429,2.382A17.174,17.174,0,0,0,51.771,134.827Z"/><path class="i" d="M51.295,134.827h0Z"/><path class="i" d="M32.4,147.849a14.911,14.911,0,0,1,14.928-14.928c1.906,0,10.164,2.064,12.069,3.176h4.129c1.588-.953,8.893-3.176,10.958-3.176a14.157,14.157,0,0,1,1.112,28.268,13.167,13.167,0,0,1,.953,5.082,9.055,9.055,0,0,1-.159,2.064h0l-.476,2.382h0a14.986,14.986,0,0,1-28.426.476,13.23,13.23,0,0,1-.635-2.382,12.02,12.02,0,0,1-.159-2.382,23.692,23.692,0,0,1,.318-3.335A15.567,15.567,0,0,1,32.4,147.849Z"/><path class="g" d="M71.939,96.554l3.335-.953a10.942,10.942,0,0,1,.476,1.27c6.035,2.541,3.017,6.67,6.352,11.91.318-.476,6.829-10.481,8.1-17.628L91,90.837c1.588,7.623-9.846,20.327-9.846,20.327S76.068,98.46,71.939,96.554Z"/><path class="g" d="M38.908,106.4l.794-.318h.318c.794,1.27,1.27,2.064,1.588,2.541l.159.159a14.168,14.168,0,0,0,1.588-3.653l2.541-.794a69.768,69.768,0,0,0-3.176,6.67A27.531,27.531,0,0,1,38.908,106.4Z"/><path class="g" d="M55.423,130.539l3.017-2.223a7.11,7.11,0,0,1,3.176-.635h.318a10.267,10.267,0,0,1,3.176.635l3.017,2.223-.953,1.588c-1.906-.953-4.447-2.223-5.241-2.223h-.318c-.635,0-3.017,1.588-4.923,2.859Z"/><path class="h" d="M57.806,163.253a5.14,5.14,0,0,0,3.97-2.7,4.8,4.8,0,0,0,3.97,2.7c4.288-2.541,7.464-8.734,7.464-16.2a21.885,21.885,0,0,0-3.97-13.022h0a10.4,10.4,0,0,0-4.447-3.494,9.286,9.286,0,0,0-3.017-.635h0a6.882,6.882,0,0,0-3.017.635,11.429,11.429,0,0,0-4.447,3.494h0a21.885,21.885,0,0,0-3.97,13.022C50.5,154.36,53.518,160.712,57.806,163.253Z"/><path class="i" d="M53.835,164.365c0,1.906,8.1,9.846,8.1,9.846s7.94-8.258,7.94-9.687a4.778,4.778,0,0,0-4.764-4.764,6.658,6.658,0,0,0-2.541.635H61.3a4.66,4.66,0,0,0-2.541-.635A4.59,4.59,0,0,0,53.835,164.365Z"/><path class="i" d="M70.351,148.008c0-.159.159-.318.159-.476,0-.953-1.112-1.588-2.382-1.588s-2.382.794-2.382,1.588a.583.583,0,0,0,.159.476Z"/><path class="i" d="M53.359,148.008c0-.159-.159-.318-.159-.476,0-.953,1.112-1.588,2.382-1.588s2.382.794,2.382,1.588a.583.583,0,0,1-.159.476Z"/><path class="k" d="M58.6,136.1h6.352a4.023,4.023,0,0,0-3.176-1.429h0A4,4,0,0,0,58.6,136.1Z"/><path class="i" d="M61.776,136.256c1.429,1.747,3.494-.476,3.494-.476H58.441C58.282,135.78,60.346,137.844,61.776,136.256Z"/><path class="g" d="M61.776,145.308h.159l1.747-5.876H60.029Z"/><path class="i" d="M58.282,151.5l-4.764-.318h-.159l-1.906-2.064,2.223,1.906h-.159l4.764-.318Z"/><path class="i" d="M64.952,150.707l4.764.318h0l2.064-1.906-1.906,2.064h-.159l-4.764.318Z"/><path class="g" d="M58.123,179.61c0,.318-.159.635,0,.794a3.772,3.772,0,0,0,3.97,3.653,3.9,3.9,0,0,0,3.97-3.811,3.1,3.1,0,0,0-.159-1.27,4.424,4.424,0,0,0,3.97-4.129,3.718,3.718,0,0,0-3.97-4.129,11.782,11.782,0,0,0-3.335,1.112l3.017-5.4-7.146.476,2.859,5.082a12.467,12.467,0,0,0-3.494-.794,4.107,4.107,0,0,0-3.811,4.447A4.288,4.288,0,0,0,58.123,179.61Z"/><path class="l" d="M58.441,179.451c0,.318-.159.476-.159.794a3.811,3.811,0,0,0,7.623,0,3.1,3.1,0,0,0-.159-1.27,3.6,3.6,0,0,0,3.335-3.494,3.694,3.694,0,0,0-3.653-3.653,19.2,19.2,0,0,0-2.859.794l2.382-4.129H59.076l2.382,4.129a10.618,10.618,0,0,0-3.017-.794,3.811,3.811,0,0,0,0,7.623Z"/><path class="g" d="M62.093,171.987l-1.588-2.7h3.176Zm3.335.635a2.847,2.847,0,0,1,2.859,2.859,2.646,2.646,0,0,1-2.541,2.7H64.634l.318.953a2.014,2.014,0,0,1,.159.953,3.124,3.124,0,0,1-3.017,3.017,2.561,2.561,0,0,1-2.064-.953,2.63,2.63,0,0,1-.794-2.064v-.635l.159-.953h-.953a3.124,3.124,0,0,1-3.017-3.017,2.561,2.561,0,0,1,.953-2.064,2.189,2.189,0,0,1,2.064-.794,21.656,21.656,0,0,1,2.7.635l.318-.318,1.588.318C63.364,173.258,65.111,172.623,65.428,172.623Z"/><path class="g" d="M58.441,163.094c-.159,0-.476.159-.635.159A1.2,1.2,0,0,1,58.441,163.094Z"/><path class="g" d="M60.188,162.3Z"/><path class="g" d="M59.711,162.618Z"/><path class="g" d="M59.076,162.936h0Z"/><path class="g" d="M34.461,118.628a4.826,4.826,0,0,1,.794,1.112,2.192,2.192,0,0,1,.476.635c.159.159.159.318.318.476h0a15.215,15.215,0,0,0-2.859,6.987,9.055,9.055,0,0,0-.159,2.064,19.047,19.047,0,0,0,2.541,8.893,14.407,14.407,0,0,0-3.176,9.211,14.979,14.979,0,0,0,14.769,14.928,23.692,23.692,0,0,0-.318,3.335,12.02,12.02,0,0,0,.159,2.382,13.231,13.231,0,0,0,.635,2.382,14.45,14.45,0,0,0,10.481,9.528,3.872,3.872,0,0,0,3.97,3.653h0V99.572h-.159L45.9,104.336h0l-2.541.794h0a22.968,22.968,0,0,1-1.27,3.335.554.554,0,0,1-.159.318h0a.156.156,0,0,0-.159-.159,27.566,27.566,0,0,1-1.588-2.541H39.86l-.953.318L29.7,109.1A35.512,35.512,0,0,0,34.461,118.628Z"/></g></g><text class="m" transform="translate(1096 1233)"><tspan x="-6.66" y="0">Q</tspan></text><text class="m" transform="translate(1230 1427) rotate(180)"><tspan x="-6.66" y="0">Q</tspan></text><g class="n" transform="translate(997 790)"><g transform="translate(89.97 446.94)"><path class="i" d="M12.96,5.4a5.251,5.251,0,0,0,.12-.96,4.38,4.38,0,0,0-8.76,0,6.032,6.032,0,0,0,.24,1.5,4.148,4.148,0,0,0,.36,8.28,11.891,11.891,0,0,0,3.24-.96l-2.82,4.8h6.84l-2.82-4.8a12.416,12.416,0,0,0,3.54.96,4.411,4.411,0,0,0,.06-8.82Z"/><path class="g" d="M12.96,5.4a5.251,5.251,0,0,0,.12-.96A4.4,4.4,0,0,0,8.7.06h0V18h3.48L9.36,13.2a12.416,12.416,0,0,0,3.54.96,4.38,4.38,0,0,0,.06-8.76Z"/></g></g><g class="o" transform="translate(997 790)"><g transform="translate(224.03 615.06)"><path class="i" d="M5.04,12.6a5.251,5.251,0,0,0-.12.96,4.38,4.38,0,1,0,8.76,0,6.032,6.032,0,0,0-.24-1.5,4.148,4.148,0,0,0-.36-8.28,11.891,11.891,0,0,0-3.24.96l2.82-4.8H5.82l2.82,4.8A12.416,12.416,0,0,0,5.1,3.78a4.411,4.411,0,0,0-.06,8.82Z"/><path class="g" d="M5.04,12.6a5.251,5.251,0,0,0-.12.96A4.4,4.4,0,0,0,9.3,17.94h0V.06H5.82l2.82,4.8A12.416,12.416,0,0,0,5.1,3.9,4.4,4.4,0,0,0,.72,8.28,4.421,4.421,0,0,0,5.04,12.6Z"/></g></g></g></svg>