<svg xmlns="http://www.w3.org/2000/svg" xmlns:xlink="http://www.w3.org/1999/xlink" width="189.902" height="257.863" viewBox="0 0 189.902 257.863"><defs><style>.a,.b,.c,.d,.l{fill:#fff;}.a{stroke:#333;stroke-width:2px;}.b{stroke:#707070;}.c{stroke:#d1d1d1;stroke-width:0.5px;}.e{clip-path:url(#c);}.f{fill:#333;}.g{fill:#ffd675;}.h{fill:#616161;}.h,.l{opacity:0.2;}.i{fill:#ebebeb;}.j{fill:#ebbe9f;}.k{fill:#9c9c9c;}.m{fill:#383838;font-size:20px;font-family:AlwynNew-Bold, Alwyn New;font-weight:700;}.n{clip-path:url(#d);}.o{clip-path:url(#e);}.p{stroke:none;}.q{fill:none;}.r{filter:url(#a);}</style><filter id="a" x="0" y="0" width="189.902" height="257.863" filterUnits="userSpaceOnUse"><feOffset dy="3" input="SourceAlpha"/><feGaussianBlur stdDeviation="3" result="b"/><feFlood flood-opacity="0.161"/><feComposite operator="in" in2="b"/><feComposite in="SourceGraphic"/></filter><clipPath id="c"><rect class="a" width="115.902" height="177.863" transform="translate(738 729)"/></clipPath><clipPath id="d"><rect class="b" width="18" height="18" transform="translate(90 447)"/></clipPath><clipPath id="e"><rect class="b" width="18" height="18" transform="translate(242 633) rotate(180)"/></clipPath></defs><g transform="translate(-1278 -1204)"><g class="r" transform="matrix(1, 0, 0, 1, 1278, 1204)"><g class="c" transform="translate(9 6)"><rect class="p" width="171.902" height="239.863" rx="10"/><rect class="q" x="0.25" y="0.25" width="171.402" height="239.363" rx="9.75"/></g></g><g class="a" transform="translate(1302 1231)"><rect class="p" width="141.902" height="197.863" rx="10"/><rect class="q" x="1" y="1" width="139.902" height="195.863" rx="9"/></g><rect class="d" width="30" height="50" transform="translate(1293 1216)"/><rect class="d" width="30" height="50" transform="translate(1423 1395)"/><g class="e" transform="translate(577 512)"><g transform="translate(731.856 721.789)"><path class="f" d="M106.558,58.807l-.32-1.122s-19.869-11.377-26.279-14.9c-1.122-.641-1.923-1.122-1.923-1.122H49.674a.157.157,0,0,0-.16.16.559.559,0,0,1-.32.16c-.16,0-.16.16-.32.16s-.16.16-.32.16c-.16.16-.32.16-.481.32a14.778,14.778,0,0,0-1.282.8h0c-.32.16-.8.481-1.122.641-.16,0-.32.16-.481.16-.961.481-1.923,1.122-3.045,1.763-.481.16-.8.481-1.282.641s-.8.481-1.282.641c-.481.32-.8.481-1.282.8-5.608,3.2-11.858,6.73-14.742,8.493-.16.16-.32.16-.481.32-.641.481-1.122.641-1.282.8V104.8L40.22,99.347l4.166-1.282,62.172-18.748Z"/><path class="g" d="M64.095,66.178,56.4,52.718H71.947ZM57.846,53.519l6.249,10.9,6.249-10.9Z"/><path class="h" d="M53.679,41.662c-.16.16-28.042,16.024-28.042,16.024L21.792,69.863v35.092L40.22,99.347l4.166-1.282L55.442,61.691l1.442-4.807,2.083-4.647,4.807-10.255v-.32Z"/><path class="i" d="M49.834,41.662h0a.5.5,0,0,1-.32.16,75253.442,75253.442,0,0,0-.641.32c-.16,0-.16.16-.32.16-.16.16-.32.16-.481.32a14.778,14.778,0,0,0-1.282.8h0c-.32.16-.8.481-1.122.641-.16,0-.32.16-.481.16-.961.481-1.923,1.122-3.045,1.763-.481.16-.8.481-1.282.641s-.8.481-1.282.641a5.622,5.622,0,0,0-1.282.8c-1.763.961-3.685,2.083-5.448,3.2-.481.32-1.122.641-1.6.961-3.2,1.763-5.929,3.365-7.691,4.326-.16.16-.32.16-.481.32-.641.481-1.122.641-1.282.8V104.8l3.365-.961,1.923-.481L40.22,99.347h.16C41.021,97.9,41.662,96.3,42.3,94.7c4.487-10.736,9.774-24.2,13.3-33.009,2.243-5.448,3.685-9.134,3.685-9.134v-.32l.961-10.576Z"/><path class="h" d="M106.558,71.947l-4.326-14.261S74.19,41.662,74.03,41.662H63.774v.16l7.05,14.9L79.958,87.81l26.6-9.614Z"/><path class="i" d="M106.558,58.807l-.32-1.122S78.2,41.662,78.036,41.662H67.78l.961,10.9s12.018,25,16.344,33.169L106.4,79.317V58.807Z"/><path class="j" d="M80.279,34.771l-.32-3.846v-.16l-.8-11.7-4.487-2.083-8.332-4.326-2.4,1.282-2.243-1.282-8.332,4.326-4.487,2.083-.8,11.7v.16l-.32,3.846,3.525,11.7L63.935,56.884h.16l13.62-11.217Z"/><path class="j" d="M64.095,41.662l5.128-.16-3.846-2.4H62.813l-3.846,2.4,5.128.16Z"/><path class="h" d="M67.139,34.291,65.056,27.08H62.973L60.89,34.291l2.083,2.243.961.16h.16l.961-.16Z"/><path class="k" d="M66.178,25l6.73-.8h.16l3.2,1.763L72.748,25h.32L66.5,26.76Z"/><path class="f" d="M68.582,27.881a1.2,1.2,0,0,0-.16.8,1.923,1.923,0,1,0,3.846,0,1.445,1.445,0,0,0-.16-.8Z"/><path class="k" d="M61.852,25l-6.73-.8h-.16l-3.2,1.763L55.282,25h-.32l6.409,1.763Z"/><path class="f" d="M59.448,27.881a1.2,1.2,0,0,1,.16.8,1.948,1.948,0,0,1-1.923,1.923,1.851,1.851,0,0,1-1.923-1.923,1.445,1.445,0,0,1,.16-.8Z"/><path class="k" d="M79.958,30.926l-.16.16L76.754,20.35l-2.083-3.365L79,19.228l.961,11.7Z"/><path class="k" d="M48.071,30.926l.16.16L51.276,20.35l2.083-3.365-4.326,2.243-.961,11.7Z"/><path class="g" d="M79.317,14.9v4.487a52.055,52.055,0,0,1-12.338,1.6,62.883,62.883,0,0,1-7.852-.16,20,20,0,0,1-3.365-.32c-1.282-.16-2.4-.16-3.365-.32-2.4-.32-3.846-.481-3.846-.481V15.543L63.935,7.371l4.487,2.243c.8.32,1.6.8,2.564,1.282a17.513,17.513,0,0,1,2.4,1.282c2.243,1.122,4.326,2.083,5.448,2.564A.7.7,0,0,1,79.317,14.9Z"/><path class="l" d="M70.825,10.736,55.6,20.671c-1.282-.16-2.4-.16-3.365-.32L68.261,9.614A17.8,17.8,0,0,1,70.825,10.736Z"/><path class="l" d="M78.676,14.582l-11.7,6.409a62.883,62.883,0,0,1-7.852-.16l14.261-8.973C75.632,13.139,77.715,14.1,78.676,14.582Z"/><path class="f" d="M33.65,72.748l-.641,3.525,1.763-3.2Z"/><path class="f" d="M40.7,72.748l-.481,3.525,1.763-3.2Z"/><path class="f" d="M47.751,72.748l-.481,3.525,1.763-3.2Z"/><path class="f" d="M24.677,84.285,24.2,87.97l1.763-3.2Z"/><path class="f" d="M31.727,84.285l-.481,3.685,1.763-3.2Z"/><path class="f" d="M38.938,84.285l-.481,3.685,1.763-3.2Z"/><path class="f" d="M26.92,95.982l-.481,3.685,1.763-3.2Z"/><path class="f" d="M33.97,95.982l-.481,3.685,1.763-3.2Z"/><path class="f" d="M41.5,95.662c-.32.8-.641,1.6-.961,2.243h-.16l.32-2.564Z"/><path class="f" d="M45.988,52.4l-.481,3.685,1.763-3.2Z"/><path class="f" d="M38.938,50.955l-.481,3.525,1.763-3.045Z"/><path class="f" d="M32.208,52.237,31.246,54l.16-1.282A3.5,3.5,0,0,0,32.208,52.237Z"/><path class="f" d="M26.279,103.353l-.8.16v-.481Z"/><path class="f" d="M24.837,60.89l-.481,3.685,1.763-3.2Z"/><path class="f" d="M32.849,60.89l-.641,3.685,1.763-3.2Z"/><path class="f" d="M39.9,60.89l-.481,3.685,1.763-3.2Z"/><path class="f" d="M46.95,60.89l-.481,3.685,1.763-3.2Z"/><path class="f" d="M54.32,54.32l-.641,3.525,1.763-3.2Z"/><path class="f" d="M25.638,72.748l-.481,3.525,1.763-3.2Z"/><path class="f" d="M95.982,72.748l.481,3.525-1.763-3.2Z"/><path class="f" d="M88.932,72.748l.481,3.525-1.763-3.2Z"/><path class="f" d="M81.721,72.748l.481,3.525-1.763-3.2Z"/><path class="f" d="M83.484,52.4l.641,3.685-1.923-3.2Z"/><path class="f" d="M90.694,50.955l.481,3.525-1.763-3.045Z"/><path class="f" d="M96.783,53.359l.961,1.763-.16-1.282C97.264,53.679,97.1,53.519,96.783,53.359Z"/><path class="f" d="M104.635,60.89l.481,3.685-1.763-3.2Z"/><path class="f" d="M96.783,60.89l.481,3.685-1.763-3.2Z"/><path class="f" d="M89.733,60.89l.481,3.685-1.763-3.2Z"/><path class="f" d="M82.522,60.89,83,64.576l-1.763-3.2Z"/><path class="f" d="M75.311,54.32l.481,3.525-1.763-3.2Z"/><path class="f" d="M103.834,72.748l.481,3.525-1.763-3.2Z"/><path class="k" d="M57.685,51.917a5.451,5.451,0,0,0-.16,1.6,7.371,7.371,0,0,0,14.742,0,7.257,7.257,0,0,0-.481-2.564,6.9,6.9,0,0,0-.481-13.78,21.323,21.323,0,0,0-5.448,1.6H63.774a20.427,20.427,0,0,0-5.929-1.6,7.456,7.456,0,0,0-7.371,7.371A7.318,7.318,0,0,0,57.685,51.917Z"/><path class="f" d="M64.9,10.095v-.32a1.122,1.122,0,0,0-2.243,0v.32c-.641,0-.961.481-.961,1.122a1.1,1.1,0,0,0,1.122,1.122c.16,0,.8-.16.8-.32l-.8,1.282h1.763l-.8-1.282a2.278,2.278,0,0,0,.961.32,1.1,1.1,0,0,0,1.122-1.122C66.178,10.576,65.537,10.095,64.9,10.095Z"/><path class="h" d="M68.1,71.306v-.961A4.192,4.192,0,0,0,63.935,66.5a4.074,4.074,0,0,0-4.166,3.846,4.436,4.436,0,0,0,.16,1.442,4.464,4.464,0,0,0-4.006,4.166,4.091,4.091,0,0,0,4.006,4.487,11.888,11.888,0,0,0,3.365-1.122l-3.2,5.769,7.531-.16-3.2-5.769A16.188,16.188,0,0,0,68.1,80.279a4.309,4.309,0,0,0,4.166-4.807A4.042,4.042,0,0,0,68.1,71.306Z"/><path class="g" d="M68.1,70.985c0-.32.16-.641.16-.961a4.166,4.166,0,1,0-8.332,0,4.679,4.679,0,0,0,.32,1.442,4.016,4.016,0,0,0-3.685,4.006,3.967,3.967,0,0,0,4.006,4.006,8.505,8.505,0,0,0,3.045-.961L60.89,83.163h6.57l-2.884-4.647a13.3,13.3,0,0,0,3.365.961,4.242,4.242,0,0,0,4.166-4.166A4.147,4.147,0,0,0,68.1,70.985Z"/><path class="h" d="M63.935,79.8l1.6,2.083h-3.2Zm-3.685-2.083a2.328,2.328,0,0,1-2.243-2.4,2.435,2.435,0,0,1,2.243-2.4l2.083-.16-.8-1.923a1.742,1.742,0,0,1-.16-.8,2.531,2.531,0,0,1,2.564-2.564A2.757,2.757,0,0,1,66.5,70.024v.641l-.481,1.923h1.923A2.531,2.531,0,0,1,70.5,75.151a2.757,2.757,0,0,1-2.564,2.564h0c-.32,0-1.282-.32-2.083-.481l-2.083-.961-1.923.961A3.092,3.092,0,0,1,60.249,77.715Z"/><path class="j" d="M58.006,40.059H70.5l-1.763,4.487H60.249Z"/><rect class="h" width="6.73" height="1.282" transform="translate(60.89 40.7)"/><path class="h" d="M106.237,57.685s-19.869-11.377-26.279-14.9c-.641-.32-1.122-.641-1.442-.8l1.763-7.211-.32-3.846v-.16l-.8-11.377h.32V14.9l-.641-.32c-.961-.481-3.045-1.442-5.448-2.564a17.513,17.513,0,0,1-2.4-1.282c-.8-.481-1.763-.8-2.564-1.282L63.935,7.211h0V92.136l16.024-4.807.16.481,8.973-3.2,17.466-5.288V58.807Z"/><path class="f" d="M21.632,133.478l.32,1.122s19.869,11.377,26.279,14.9c1.122.641,1.923,1.122,1.923,1.122H78.676a.157.157,0,0,0,.16-.16.559.559,0,0,1,.32-.16c.16,0,.16-.16.32-.16s.16-.16.32-.16c.16-.16.32-.16.481-.32a14.776,14.776,0,0,0,1.282-.8h0c.32-.16.8-.481,1.122-.641.16,0,.32-.16.481-.16.961-.481,1.923-1.122,3.045-1.763.481-.16.8-.481,1.282-.641s.8-.481,1.282-.641c.481-.32.8-.481,1.282-.8,5.608-3.2,11.858-6.73,14.742-8.493.16-.16.32-.16.481-.32.641-.481,1.122-.641,1.282-.8V87.49L87.97,92.938,83.8,94.219,21.632,112.967Z"/><path class="g" d="M64.095,126.107l7.691,13.46H56.243Zm6.249,12.659-6.249-10.9-6.249,10.9h12.5Z"/><path class="h" d="M74.51,150.623c.16,0,28.2-16.024,28.2-16.024l3.846-12.178V87.49L87.97,92.938,83.8,94.219,72.748,130.593,71.306,135.4l-2.083,4.647L64.415,150.3v.32Z"/><path class="i" d="M78.356,150.623h0a.5.5,0,0,1,.32-.16,7525.4,7525.4,0,0,0,.641-.32c.16,0,.16-.16.32-.16.16-.16.32-.16.481-.32a14.777,14.777,0,0,0,1.282-.8h0c.32-.16.8-.481,1.122-.641.16,0,.32-.16.481-.16.961-.481,1.923-1.122,3.045-1.763.481-.16.8-.481,1.282-.641s.8-.481,1.282-.641a5.621,5.621,0,0,0,1.282-.8c1.763-.961,3.685-2.083,5.448-3.2.481-.32,1.122-.641,1.6-.961,3.2-1.763,5.929-3.365,7.691-4.326.16-.16.32-.16.481-.32.641-.481,1.122-.641,1.282-.8V87.49l-3.365.961-1.923.481L88.291,92.938h-.16c-.641,1.442-1.282,3.045-1.923,4.647-4.487,10.736-9.935,24.2-13.46,33.009-2.243,5.448-3.685,9.134-3.685,9.134v.32L68.1,150.623Z"/><path class="h" d="M21.632,120.338,25.958,134.6S54,150.623,54.16,150.623H64.415v-.16l-7.05-14.9-9.134-31.086-26.6,9.614v6.249Z"/><path class="i" d="M21.632,133.478l.32,1.122s28.042,16.024,28.2,16.024H60.409l-.961-10.9s-12.018-25-16.344-33.169l-21.312,6.409v20.51Z"/><path class="j" d="M47.911,157.513l.32,3.846v.16l.8,11.7,4.487,2.083,8.332,4.326,2.4-1.282,2.243,1.282,8.332-4.326,4.487-2.083.8-11.7v-.16l.32-3.846-3.525-11.7L64.255,135.4h-.16l-13.62,11.217Z"/><path class="j" d="M64.095,150.623l-5.128.16,3.846,2.4h2.564l3.846-2.4-5.128-.16Z"/><path class="h" d="M61.05,157.994l2.083,7.211h2.083l2.083-7.211-2.083-2.243-.961-.16h-.16l-.961.16Z"/><path class="k" d="M62.012,167.288l-6.73.8h-.16l-3.2-1.763,3.525.961h-.32l6.57-1.763Z"/><path class="f" d="M59.608,164.4a1.2,1.2,0,0,0,.16-.8,1.923,1.923,0,1,0-3.846,0,1.445,1.445,0,0,0,.16.8Z"/><path class="k" d="M66.338,167.288l6.73.8h.16l3.2-1.763-3.525.961h.32l-6.409-1.763Z"/><path class="f" d="M68.742,164.4a1.2,1.2,0,0,1-.16-.8,1.923,1.923,0,1,1,3.846,0,1.445,1.445,0,0,1-.16.8Z"/><path class="k" d="M48.231,161.359l.16-.16,3.045,10.736,2.083,3.365-4.326-2.243-.961-11.7Z"/><path class="k" d="M80.119,161.359l-.16-.16-3.045,10.736L74.831,175.3l4.326-2.243.961-11.7Z"/><path class="g" d="M48.872,177.383V172.9a52.055,52.055,0,0,1,12.338-1.6,62.885,62.885,0,0,1,7.852.16,20,20,0,0,1,3.365.32c1.282.16,2.4.16,3.365.32,2.4.32,3.846.481,3.846.481V176.9l-15.383,8.172-4.487-2.243c-.8-.32-1.6-.8-2.564-1.282a17.512,17.512,0,0,1-2.4-1.282c-2.243-1.122-4.326-2.083-5.448-2.564A1.982,1.982,0,0,1,48.872,177.383Z"/><path class="l" d="M57.365,181.549l15.223-9.935c1.282.16,2.4.16,3.365.32L59.929,182.67A17.8,17.8,0,0,1,57.365,181.549Z"/><path class="l" d="M49.513,177.7l11.7-6.409a62.882,62.882,0,0,1,7.852.16L54.8,180.427C52.558,179.145,50.475,178.184,49.513,177.7Z"/><path class="f" d="M94.54,119.537l.641-3.525-1.763,3.2Z"/><path class="f" d="M87.49,119.537l.481-3.525-1.763,3.2Z"/><path class="f" d="M80.439,119.537l.481-3.525-1.763,3.2Z"/><path class="f" d="M103.513,108l.481-3.685-1.763,3.2Z"/><path class="f" d="M96.463,108l.481-3.685-1.763,3.2Z"/><path class="f" d="M89.252,108l.481-3.685-1.763,3.2Z"/><path class="f" d="M101.27,96.3l.481-3.685-1.763,3.2Z"/><path class="f" d="M94.219,96.3l.481-3.685-1.763,3.2Z"/><path class="f" d="M86.688,96.623c.32-.8.641-1.6.961-2.243h.16l-.32,2.564Z"/><path class="f" d="M82.2,139.887l.481-3.685-1.763,3.2Z"/><path class="f" d="M89.252,141.329l.481-3.525-1.763,3.045Z"/><path class="f" d="M95.982,140.047l.961-1.763-.16,1.282A3.5,3.5,0,0,0,95.982,140.047Z"/><path class="f" d="M101.911,88.932l.8-.16v.481Z"/><path class="f" d="M103.353,131.395l.481-3.685-1.763,3.2Z"/><path class="f" d="M95.341,131.395l.641-3.685-1.763,3.2Z"/><path class="f" d="M88.291,131.395l.481-3.685-1.763,3.2Z"/><path class="f" d="M81.24,131.395l.481-3.685-1.763,3.2Z"/><path class="f" d="M73.869,137.964l.641-3.525-1.763,3.2Z"/><path class="f" d="M102.552,119.537l.481-3.525-1.763,3.2Z"/><path class="f" d="M32.208,119.537l-.481-3.525,1.763,3.2Z"/><path class="f" d="M39.258,119.537l-.481-3.525,1.763,3.2Z"/><path class="f" d="M46.469,119.537l-.481-3.525,1.763,3.2Z"/><path class="f" d="M44.706,139.887l-.641-3.685,1.923,3.2Z"/><path class="f" d="M37.5,141.329l-.481-3.525,1.763,3.045Z"/><path class="f" d="M31.406,138.926l-.961-1.763.16,1.282C30.926,138.605,31.086,138.765,31.406,138.926Z"/><path class="f" d="M23.555,131.395l-.481-3.685,1.763,3.2Z"/><path class="f" d="M31.406,131.395l-.481-3.685,1.763,3.2Z"/><path class="f" d="M38.457,131.395l-.481-3.685,1.763,3.2Z"/><path class="f" d="M45.668,131.395l-.481-3.685,1.763,3.2Z"/><path class="f" d="M52.878,137.964l-.481-3.525,1.763,3.2Z"/><path class="f" d="M24.356,119.537l-.481-3.525,1.763,3.2Z"/><path class="k" d="M70.5,140.368a5.451,5.451,0,0,0,.16-1.6,7.371,7.371,0,0,0-14.742,0,7.257,7.257,0,0,0,.481,2.564,6.9,6.9,0,0,0,.481,13.78,21.323,21.323,0,0,0,5.448-1.6h2.083a20.427,20.427,0,0,0,5.929,1.6,7.456,7.456,0,0,0,7.371-7.371A7.318,7.318,0,0,0,70.5,140.368Z"/><path class="f" d="M63.294,182.19v.32a1.122,1.122,0,0,0,2.243,0v-.32c.641,0,.961-.481.961-1.122a1.1,1.1,0,0,0-1.122-1.122c-.16,0-.8.16-.8.32l.8-1.282H63.614l.8,1.282a2.277,2.277,0,0,0-.961-.32,1.1,1.1,0,0,0-1.122,1.122C62.012,181.709,62.653,182.19,63.294,182.19Z"/><path class="h" d="M60.089,120.979v.961a4.192,4.192,0,0,0,4.166,3.846,4.074,4.074,0,0,0,4.166-3.846,4.436,4.436,0,0,0-.16-1.442,4.464,4.464,0,0,0,4.006-4.166,4.091,4.091,0,0,0-4.006-4.487,11.889,11.889,0,0,0-3.365,1.122l3.2-5.769-7.852.16,3.2,5.769a16.188,16.188,0,0,0-3.685-1.122,4.309,4.309,0,0,0-4.166,4.807A4.526,4.526,0,0,0,60.089,120.979Z"/><path class="g" d="M60.089,121.3c0,.32-.16.641-.16.961a4.166,4.166,0,1,0,8.332,0,4.679,4.679,0,0,0-.32-1.442,4.016,4.016,0,0,0,3.685-4.006,3.967,3.967,0,0,0-4.006-4.006,8.506,8.506,0,0,0-3.045.961l2.724-4.647H60.73l2.724,4.647a13.3,13.3,0,0,0-3.365-.961,4.242,4.242,0,0,0-4.166,4.166A4.387,4.387,0,0,0,60.089,121.3Z"/><path class="h" d="M64.255,112.487l-1.6-2.083h3.2Zm3.685,2.083a2.328,2.328,0,0,1,2.243,2.4,2.435,2.435,0,0,1-2.243,2.4l-2.083.16.8,1.923a1.742,1.742,0,0,1,.16.8,2.531,2.531,0,0,1-2.564,2.564,2.757,2.757,0,0,1-2.564-2.564v-.641l.481-1.923H60.249a2.531,2.531,0,0,1-2.564-2.564,2.757,2.757,0,0,1,2.564-2.564h0c.32,0,1.282.32,2.083.481l2.083.961,1.923-.961A3.092,3.092,0,0,1,67.941,114.57Z"/><path class="j" d="M70.184,152.225h-12.5l1.763-4.487h8.493Z"/><rect class="h" width="6.73" height="1.282" transform="translate(60.57 150.142)"/><path class="h" d="M21.952,134.6s19.869,11.377,26.279,14.9c.641.32,1.122.641,1.442.8l-1.763,7.211.32,3.846v.16l.8,11.377h-.32v4.487l.641.32c.961.481,3.045,1.442,5.448,2.564a17.512,17.512,0,0,1,2.4,1.282c.8.481,1.763.8,2.564,1.282l4.487,2.243h0V100.148l-16.024,4.807-.16-.481-8.973,3.2-17.466,5.288v20.51Z"/></g></g><text class="m" transform="translate(1306 1233)"><tspan x="-6.07" y="0">K</tspan></text><text class="m" transform="translate(1440 1427) rotate(180)"><tspan x="-6.07" y="0">K</tspan></text><g class="n" transform="translate(1207 790)"><g transform="translate(89.97 446.94)"><path class="f" d="M12.96,5.4a5.251,5.251,0,0,0,.12-.96,4.38,4.38,0,0,0-8.76,0,6.032,6.032,0,0,0,.24,1.5,4.148,4.148,0,0,0,.36,8.28,11.891,11.891,0,0,0,3.24-.96l-2.82,4.8h6.84l-2.82-4.8a12.416,12.416,0,0,0,3.54.96,4.411,4.411,0,0,0,.06-8.82Z"/><path class="h" d="M12.96,5.4a5.251,5.251,0,0,0,.12-.96A4.4,4.4,0,0,0,8.7.06h0V18h3.48L9.36,13.2a12.416,12.416,0,0,0,3.54.96,4.38,4.38,0,0,0,.06-8.76Z"/></g></g><g class="o" transform="translate(1207 790)"><g transform="translate(224.03 615.06)"><path class="f" d="M5.04,12.6a5.251,5.251,0,0,0-.12.96,4.38,4.38,0,1,0,8.76,0,6.032,6.032,0,0,0-.24-1.5,4.148,4.148,0,0,0-.36-8.28,11.891,11.891,0,0,0-3.24.96l2.82-4.8H5.82l2.82,4.8A12.416,12.416,0,0,0,5.1,3.78a4.411,4.411,0,0,0-.06,8.82Z"/><path class="h" d="M5.04,12.6a5.251,5.251,0,0,0-.12.96A4.4,4.4,0,0,0,9.3,17.94h0V.06H5.82l2.82,4.8A12.416,12.416,0,0,0,5.1,3.9,4.4,4.4,0,0,0,.72,8.28,4.421,4.421,0,0,0,5.04,12.6Z"/></g></g></g></svg>