<svg xmlns="http://www.w3.org/2000/svg" xmlns:xlink="http://www.w3.org/1999/xlink" width="189.902" height="257.863" viewBox="0 0 189.902 257.863"><defs><style>.a,.b,.c{fill:#fff;}.a{stroke:#707070;}.c{stroke:#d1d1d1;stroke-width:0.5px;}.d{fill:#383838;font-size:20px;font-family:AlwynNew-Bold, Alwyn New;font-weight:700;}.e{clip-path:url(#c);}.f{fill:#333;}.g{fill:#616161;opacity:0.2;}.h{clip-path:url(#e);}.i{clip-path:url(#f);}.j{clip-path:url(#g);}.k{clip-path:url(#h);}.l{clip-path:url(#i);}.m{clip-path:url(#j);}.n{clip-path:url(#k);}.o{clip-path:url(#l);}.p{clip-path:url(#m);}.q{stroke:none;}.r{fill:none;}.s{filter:url(#a);}</style><filter id="a" x="0" y="0" width="189.902" height="257.863" filterUnits="userSpaceOnUse"><feOffset dy="3" input="SourceAlpha"/><feGaussianBlur stdDeviation="3" result="b"/><feFlood flood-opacity="0.161"/><feComposite operator="in" in2="b"/><feComposite in="SourceGraphic"/></filter><clipPath id="c"><rect class="a" width="18" height="18" transform="translate(89 447)"/></clipPath><clipPath id="e"><rect class="b" width="41" height="41" transform="translate(386 873)"/></clipPath><clipPath id="f"><rect class="b" width="41" height="41" transform="translate(386 721)"/></clipPath><clipPath id="g"><rect class="b" width="41" height="41" transform="translate(325 873)"/></clipPath><clipPath id="h"><rect class="b" width="41" height="41" transform="translate(325 721)"/></clipPath><clipPath id="i"><rect class="b" width="41" height="41" transform="translate(325 772)"/></clipPath><clipPath id="j"><rect class="b" width="41" height="41" transform="translate(325 822)"/></clipPath><clipPath id="k"><rect class="b" width="41" height="41" transform="translate(386 772)"/></clipPath><clipPath id="l"><rect class="b" width="41" height="41" transform="translate(386 822)"/></clipPath><clipPath id="m"><rect class="b" width="41" height="41" transform="translate(355 797)"/></clipPath></defs><g transform="translate(-438 -494)"><g class="s" transform="matrix(1, 0, 0, 1, 438, 494)"><g class="c" transform="translate(9 6)"><rect class="q" width="171.902" height="239.863" rx="10"/><rect class="r" x="0.25" y="0.25" width="171.402" height="239.363" rx="9.75"/></g></g><text class="d" transform="translate(466 523)"><tspan x="-5.7" y="0">9</tspan></text><text class="d" transform="translate(600 717) rotate(180)"><tspan x="-5.7" y="0">9</tspan></text><g class="e" transform="translate(368 80)"><g transform="translate(88.909 446.939)"><path class="f" d="M16.606,9.333C16.606,7.576,8.97.061,8.97.061S1.576,7.818,1.576,9.273a4.539,4.539,0,0,0,4.545,4.545,4.477,4.477,0,0,0,2.364-.667L5.636,18h6.97L9.7,13.212a4.477,4.477,0,0,0,2.364.667A4.539,4.539,0,0,0,16.606,9.333Z"/><path class="g" d="M16.606,9.333C16.606,7.576,8.97.061,8.97.061h0v18h3.576L9.7,13.212a4.477,4.477,0,0,0,2.364.667A4.539,4.539,0,0,0,16.606,9.333Z"/></g></g><g class="e" transform="translate(698 1160) rotate(180)"><g transform="translate(88.909 446.939)"><path class="f" d="M16.606,9.333C16.606,7.576,8.97.061,8.97.061S1.576,7.818,1.576,9.273a4.539,4.539,0,0,0,4.545,4.545,4.477,4.477,0,0,0,2.364-.667L5.636,18h6.97L9.7,13.212a4.477,4.477,0,0,0,2.364.667A4.539,4.539,0,0,0,16.606,9.333Z"/><path class="g" d="M16.606,9.333C16.606,7.576,8.97.061,8.97.061h0v18h3.576L9.7,13.212a4.477,4.477,0,0,0,2.364.667A4.539,4.539,0,0,0,16.606,9.333Z"/></g></g><g class="h" transform="translate(157 -198)"><g transform="translate(385.794 872.862)"><path class="f" d="M3.577,20.087c0,3.99,17.336,21.05,17.336,21.05S37.836,23.527,37.836,20.225A10.3,10.3,0,0,0,27.517,9.906a10.164,10.164,0,0,0-5.366,1.513L28.617.413H12.8l6.466,10.869A10.164,10.164,0,0,0,13.9,9.768,10.3,10.3,0,0,0,3.577,20.087Z"/><path class="g" d="M3.577,20.087c0,3.99,17.336,21.05,17.336,21.05h0v-41H12.8l6.466,11.144A10.164,10.164,0,0,0,13.9,9.768,10.3,10.3,0,0,0,3.577,20.087Z"/></g></g><g class="i" transform="translate(157 -198)"><g transform="translate(385.793 720.862)"><path class="f" d="M37.825,21.259c0-4-17.394-21.121-17.394-21.121S3.589,17.808,3.589,21.121A10.34,10.34,0,0,0,13.943,31.475a10.2,10.2,0,0,0,5.384-1.519L12.838,41H28.714L22.088,30.094a10.2,10.2,0,0,0,5.384,1.519A10.34,10.34,0,0,0,37.825,21.259Z"/><path class="g" d="M37.825,21.259c0-4-17.394-21.121-17.394-21.121h0v41h8.145L22.088,30.094a10.2,10.2,0,0,0,5.384,1.519A10.34,10.34,0,0,0,37.825,21.259Z"/></g></g><g class="j" transform="translate(157 -198)"><g transform="translate(324.794 872.862)"><path class="f" d="M3.577,20.087c0,3.99,17.336,21.05,17.336,21.05S37.836,23.527,37.836,20.225A10.3,10.3,0,0,0,27.517,9.906a10.164,10.164,0,0,0-5.366,1.513L28.617.413H12.8l6.466,10.869A10.164,10.164,0,0,0,13.9,9.768,10.3,10.3,0,0,0,3.577,20.087Z"/><path class="g" d="M3.577,20.087c0,3.99,17.336,21.05,17.336,21.05h0v-41H12.8l6.466,11.144A10.164,10.164,0,0,0,13.9,9.768,10.3,10.3,0,0,0,3.577,20.087Z"/></g></g><g class="k" transform="translate(157 -198)"><g transform="translate(324.793 720.862)"><path class="f" d="M37.825,21.259c0-4-17.394-21.121-17.394-21.121S3.589,17.808,3.589,21.121A10.34,10.34,0,0,0,13.943,31.475a10.2,10.2,0,0,0,5.384-1.519L12.838,41H28.714L22.088,30.094a10.2,10.2,0,0,0,5.384,1.519A10.34,10.34,0,0,0,37.825,21.259Z"/><path class="g" d="M37.825,21.259c0-4-17.394-21.121-17.394-21.121h0v41h8.145L22.088,30.094a10.2,10.2,0,0,0,5.384,1.519A10.34,10.34,0,0,0,37.825,21.259Z"/></g></g><g class="l" transform="translate(157 -198)"><g transform="translate(324.793 771.862)"><path class="f" d="M37.825,21.259c0-4-17.394-21.121-17.394-21.121S3.589,17.808,3.589,21.121A10.34,10.34,0,0,0,13.943,31.475a10.2,10.2,0,0,0,5.384-1.519L12.838,41H28.714L22.088,30.094a10.2,10.2,0,0,0,5.384,1.519A10.34,10.34,0,0,0,37.825,21.259Z"/><path class="g" d="M37.825,21.259c0-4-17.394-21.121-17.394-21.121h0v41h8.145L22.088,30.094a10.2,10.2,0,0,0,5.384,1.519A10.34,10.34,0,0,0,37.825,21.259Z"/></g></g><g class="m" transform="translate(157 -198)"><g transform="translate(324.794 821.862)"><path class="f" d="M3.577,20.087c0,3.99,17.336,21.05,17.336,21.05S37.836,23.527,37.836,20.225A10.3,10.3,0,0,0,27.517,9.906a10.164,10.164,0,0,0-5.366,1.513L28.617.413H12.8l6.466,10.869A10.164,10.164,0,0,0,13.9,9.768,10.3,10.3,0,0,0,3.577,20.087Z"/><path class="g" d="M3.577,20.087c0,3.99,17.336,21.05,17.336,21.05h0v-41H12.8l6.466,11.144A10.164,10.164,0,0,0,13.9,9.768,10.3,10.3,0,0,0,3.577,20.087Z"/></g></g><g class="n" transform="translate(157 -198)"><g transform="translate(385.793 771.862)"><path class="f" d="M37.825,21.259c0-4-17.394-21.121-17.394-21.121S3.589,17.808,3.589,21.121A10.34,10.34,0,0,0,13.943,31.475a10.2,10.2,0,0,0,5.384-1.519L12.838,41H28.714L22.088,30.094a10.2,10.2,0,0,0,5.384,1.519A10.34,10.34,0,0,0,37.825,21.259Z"/><path class="g" d="M37.825,21.259c0-4-17.394-21.121-17.394-21.121h0v41h8.145L22.088,30.094a10.2,10.2,0,0,0,5.384,1.519A10.34,10.34,0,0,0,37.825,21.259Z"/></g></g><g class="o" transform="translate(157 -198)"><g transform="translate(385.794 821.862)"><path class="f" d="M3.577,20.087c0,3.99,17.336,21.05,17.336,21.05S37.836,23.527,37.836,20.225A10.3,10.3,0,0,0,27.517,9.906a10.164,10.164,0,0,0-5.366,1.513L28.617.413H12.8l6.466,10.869A10.164,10.164,0,0,0,13.9,9.768,10.3,10.3,0,0,0,3.577,20.087Z"/><path class="g" d="M3.577,20.087c0,3.99,17.336,21.05,17.336,21.05h0v-41H12.8l6.466,11.144A10.164,10.164,0,0,0,13.9,9.768,10.3,10.3,0,0,0,3.577,20.087Z"/></g></g><g class="p" transform="translate(157 -198)"><g transform="translate(354.793 796.862)"><path class="f" d="M37.825,21.259c0-4-17.394-21.121-17.394-21.121S3.589,17.808,3.589,21.121A10.34,10.34,0,0,0,13.943,31.475a10.2,10.2,0,0,0,5.384-1.519L12.838,41H28.714L22.088,30.094a10.2,10.2,0,0,0,5.384,1.519A10.34,10.34,0,0,0,37.825,21.259Z"/><path class="g" d="M37.825,21.259c0-4-17.394-21.121-17.394-21.121h0v41h8.145L22.088,30.094a10.2,10.2,0,0,0,5.384,1.519A10.34,10.34,0,0,0,37.825,21.259Z"/></g></g></g></svg>