<svg xmlns="http://www.w3.org/2000/svg" xmlns:xlink="http://www.w3.org/1999/xlink" width="67.486" height="67.486" viewBox="0 0 67.486 67.486"><defs><style>.a,.c{fill:#fff;}.a{stroke:#707070;}.b{clip-path:url(#a);}</style><clipPath id="a"><rect class="a" width="67.486" height="67.486" transform="translate(1113 71)"/></clipPath></defs><g class="b" transform="translate(-1113 -71)"><g transform="translate(1113 73.34)"><path class="c" d="M11.1,13.43c-.913,1.2-1.558,1.415-1.558.4V11.994a4.772,4.772,0,1,0-9.544,0V28.355a4.772,4.772,0,0,0,4.772,4.772H21.132a4.772,4.772,0,1,0,0-9.544H19.368c-.975,0-1.249-1.114-.423-2.372A20.494,20.494,0,1,1,36.082,52.939a5.454,5.454,0,1,0,0,10.907A31.4,31.4,0,1,0,11.1,13.43Z" transform="translate(0 -1.041)"/></g></g></svg>