<svg xmlns="http://www.w3.org/2000/svg" xmlns:xlink="http://www.w3.org/1999/xlink" width="59.035" height="59.035" viewBox="0 0 59.035 59.035"><defs><style>.a,.c{fill:#fff;}.a{stroke:#707070;}.b{clip-path:url(#a);}</style><clipPath id="a"><rect class="a" width="59.035" height="59.035" transform="translate(778 44)"/></clipPath></defs><g class="b" transform="translate(-778 -44)"><g transform="translate(788.734 44)"><g transform="translate(0 0)"><path class="c" d="M21.555,41.847a5.366,5.366,0,0,1-5.367-5.367V29.324a5.366,5.366,0,0,1,5.367-5.367c1.079-.011,10.734-1.787,10.734-8.943,0-3.578-3.578-7.157-8.945-7.157-4.367,0-7.156,3.58-7.156,5.369a5.367,5.367,0,1,1-10.734,0c0-8.728,8.193-16.1,17.889-16.1,14.312,0,19.678,10.7,19.678,19.68,0,7.413-4.073,13.083-11.472,15.957A28.079,28.079,0,0,1,26.922,34.1V36.48a5.366,5.366,0,0,1-5.367,5.367" transform="translate(-5.455 2.876)"/><path class="c" d="M21.643,27.036a5.367,5.367,0,1,1-5.367-5.367,5.366,5.366,0,0,1,5.367,5.367" transform="translate(-0.176 26.632)"/></g></g></g></svg>